<?xml-stylesheet href="spot.css" type="text/css"?><svg width="254pt" height="197pt" viewBox="0 0 254 197" xmlns="http://www.w3.org/2000/svg"><g class="graph" transform="translate(4 193)"><path fill="#fff" stroke="transparent" d="M-4 4v-197h254V4H-4z"/><text x="104.5" y="-175.4" font-family="Lato" font-size="12">[Büchi]</text><g class="node"><circle fill="#ffffa0" stroke="#000" cx="56" cy="-68" r="18"/><text text-anchor="middle" x="56" y="-64.9" font-family="Lato" font-size="12">0</text></g><g class="edge"><path fill="none" stroke="#000" d="M1.15-68h29.48"/><path stroke="#000" d="M37.94-68l-7-3.15 3.5 3.15h-3.5 3.5l-3.5 3.15 7-3.15h0z"/></g><g class="edge"><path fill="none" stroke="#000" d="M49.62-85.04C48.32-94.86 50.45-104 56-104c4.17 0 6.4 5.14 6.71 11.86"/><path stroke="#000" d="M62.38-85.04l3.47-6.84-3.31 3.35.17-3.5h0l-.17 3.5-2.98-3.65 2.82 7.14h0z"/><text x="52.5" y="-107.4" font-family="Lato" font-size="12">1</text></g><g class="node"><circle fill="#ffffa0" stroke="#000" cx="142" cy="-115" r="18"/><circle fill="none" stroke="#000" cx="142" cy="-115" r="22"/><text x="138.5" y="-111.9" font-family="Lato" font-size="12">1</text></g><g class="edge"><path fill="none" stroke="#000" d="M72.02-76.4c12.19-6.83 29.65-16.59 43.95-24.6"/><path stroke="#000" d="M122.29-104.53l-7.65.67 4.6 1.04-3.06 1.71h0l3.06-1.71-1.52 4.46 4.57-6.17h0z"/><text x="93.5" y="-95.4" font-family="Lato" font-size="12">b</text></g><g class="node"><circle fill="#ffffa0" stroke="#000" cx="142" cy="-22" r="18"/><circle fill="none" stroke="#000" cx="142" cy="-22" r="22"/><text text-anchor="middle" x="142" y="-18.9" font-family="Lato" font-size="12">2</text></g><g class="edge"><path fill="none" stroke="#000" d="M72.02-59.78c12.19 6.68 29.65 16.24 43.95 24.07"/><path stroke="#000" d="M122.29-32.25l-4.63-6.12 1.56 4.44-3.07-1.68h0l3.07 1.68-4.58 1.09 7.65.59h0z"/><text x="92" y="-51.4" font-family="Lato" font-size="12">!a</text></g><g class="edge"><path fill="none" stroke="#000" d="M133.99-135.58c-1.1-10.26 1.56-19.42 8.01-19.42 4.83 0 7.54 5.15 8.13 12.05"/><path stroke="#000" d="M150.01-135.58l3.26-6.95-3.21 3.45.06-3.5h0l-.06 3.5-3.09-3.55 3.04 7.05h0z"/><text x="138.5" y="-158.4" font-family="Lato" font-size="12">b</text></g><g class="node"><circle fill="#ffffa0" stroke="#000" cx="228" cy="-115" r="18"/><text text-anchor="middle" x="228" y="-111.9" font-family="Lato" font-size="12">3</text></g><g class="edge"><path fill="none" stroke="#000" d="M164.2-115h38.36"/><path stroke="#000" d="M209.77-115l-7-3.15 3.5 3.15h-3.5 3.5l-3.5 3.15 7-3.15h0z"/><text x="182" y="-118.4" font-family="Lato" font-size="12">!b</text></g><g class="edge"><path fill="none" stroke="#000" d="M133.99-42.58C132.89-52.84 135.55-62 142-62c4.83 0 7.54 5.15 8.13 12.05"/><path stroke="#000" d="M150.01-42.58l3.26-6.95-3.21 3.45.06-3.5h0l-.06 3.5-3.09-3.55 3.04 7.05h0z"/><text x="137" y="-65.4" font-family="Lato" font-size="12">!a</text></g><g class="edge"><path fill="none" stroke="#000" d="M212.22-105.98c-6.04 3.18-13.24 6.37-20.22 7.98-8.06 1.85-16.65.19-24.34-2.71"/><path stroke="#000" d="M160.88-103.65l5.16 5.67-1.95-4.28 3.21 1.39h0l-3.21-1.39 4.46-1.49-7.67.1h0z"/><text x="183.5" y="-101.4" font-family="Lato" font-size="12">b</text></g><g class="edge"><path fill="none" stroke="#000" d="M220.97-131.66c-1.56-9.96.78-19.34 7.03-19.34 4.69 0 7.18 5.27 7.47 12.11"/><path stroke="#000" d="M235.03-131.66l3.57-6.8-3.36 3.3.22-3.49h0l-.22 3.49-2.93-3.68 2.72 7.18h0z"/><text x="223" y="-154.4" font-family="Lato" font-size="12">!b</text></g></g></svg>