<?xml-stylesheet href="spot.css" type="text/css"?><svg width="416pt" height="272pt" viewBox="0 0 416 272" xmlns="http://www.w3.org/2000/svg"><g class="graph" transform="translate(4 268)"><path fill="#fff" stroke="transparent" d="M-4 4v-272h416V4H-4z"/><text x="185.5" y="-250.4" font-family="Lato" font-size="12">[Büchi]</text><g class="node"><circle fill="#ffffa0" stroke="#000" cx="56" cy="-68" r="18"/><text text-anchor="middle" x="56" y="-64.9" font-family="Lato" font-size="12">0</text></g><g class="edge"><path fill="none" stroke="#000" d="M1.15-68h29.48"/><path stroke="#000" d="M37.94-68l-7-3.15 3.5 3.15h-3.5 3.5l-3.5 3.15 7-3.15h0z"/></g><g class="node"><circle fill="#ffffa0" stroke="#000" cx="166" cy="-190" r="18"/><circle fill="none" stroke="#000" cx="166" cy="-190" r="22"/><text text-anchor="middle" x="166" y="-186.9" font-family="Lato" font-size="12">1</text></g><g class="edge"><path fill="none" stroke="#000" d="M68.56-81.06c18.51-20.91 55.01-62.14 77.42-87.45"/><path stroke="#000" d="M150.8-173.96l-6.99 3.15 4.67-.53-2.32 2.62h0l2.32-2.62.04 4.7 2.28-7.32h0z"/><text text-anchor="middle" x="109" y="-146.4" font-family="Lato" font-size="12">1</text></g><g class="node"><circle fill="#ffffa0" stroke="#000" cx="166" cy="-101" r="18"/><text text-anchor="middle" x="166" y="-97.9" font-family="Lato" font-size="12">2</text></g><g class="edge"><path fill="none" stroke="#000" d="M73.4-73.01l68.16-20.83"/><path stroke="#000" d="M148.44-95.94l-7.61-.97 4.27 1.99-3.35 1.02h0l3.35-1.02-2.43 4.04 5.77-5.06h0z"/><text x="92" y="-91.4" font-family="Lato" font-size="12">!a &amp; !b</text></g><g class="node"><circle fill="#ffffa0" stroke="#000" cx="386" cy="-22" r="18"/><circle fill="none" stroke="#000" cx="386" cy="-22" r="22"/><text text-anchor="middle" x="386" y="-18.9" font-family="Lato" font-size="12">3</text></g><g class="edge"><path fill="none" stroke="#000" d="M73.17-61.64C79.02-59.56 85.74-57.42 92-56c95.64 21.68 212.14 29.95 264.78 32.74"/><path stroke="#000" d="M363.78-22.9l-6.83-3.5 3.33 3.32-3.49-.18h0l3.49.18-3.66 2.97 7.16-2.79h0z"/><text x="206" y="-39.4" font-family="Lato" font-size="12">!a &amp; !b</text></g><g class="node"><circle fill="#ffffa0" stroke="#000" cx="276" cy="-76" r="18"/><text text-anchor="middle" x="276" y="-72.9" font-family="Lato" font-size="12">4</text></g><g class="edge"><path fill="none" stroke="#000" d="M73.98-65.59c25 3.2 73.17 8.09 114.02 4.59 21.51-1.84 45.69-6.2 63.09-9.74"/><path stroke="#000" d="M258.11-72.21l-7.5-1.65 4.07 2.37-3.43.71h0l3.43-.71-2.78 3.8 6.21-4.52h0z"/><text x="154.5" y="-64.4" font-family="Lato" font-size="12">a | b</text></g><g class="edge"><path fill="none" stroke="#000" d="M155.93-209.76C154.22-220.35 157.58-230 166-230c6.45 0 9.93 5.66 10.43 13.06"/><path stroke="#000" d="M176.07-209.76l3.5-6.83-3.32 3.34.18-3.5h0l-.18 3.5-2.97-3.66 2.79 7.15h0z"/><text x="162.5" y="-233.4" font-family="Lato" font-size="12">b</text></g><g class="node"><circle fill="#ffffa0" stroke="#000" cx="276" cy="-172" r="18"/><text text-anchor="middle" x="276" y="-168.9" font-family="Lato" font-size="12">5</text></g><g class="edge"><path fill="none" stroke="#000" d="M187.82-186.53c18.08 3.01 44.25 7.37 63.19 10.53"/><path stroke="#000" d="M258.14-174.81l-6.39-4.26 2.94 3.68-3.45-.57h0l3.45.57-3.97 2.54 7.42-1.96h0z"/><text x="218" y="-186.4" font-family="Lato" font-size="12">!b</text></g><g class="edge"><path fill="none" stroke="#000" d="M156.43-116.54c-2.7-10.37.49-20.46 9.57-20.46 6.95 0 10.45 5.92 10.5 13.34"/><path stroke="#000" d="M175.57-116.54l4.03-6.54-3.57 3.07.45-3.47h0l-.45 3.47-2.68-3.88 2.22 7.35h0z"/><text x="149" y="-140.4" font-family="Lato" font-size="12">!a &amp; !b</text></g><g class="edge"><path fill="none" stroke="#000" d="M183.96-103.11c15.07-1.28 37.53-1.7 56.04 4.11 5.46 1.72 10.88 4.55 15.75 7.66"/><path stroke="#000" d="M261.61-87.33l-3.99-6.55 1.1 4.57-2.88-1.98h0l2.88 1.98-4.66.62 7.55 1.36h0z"/><text x="211.5" y="-106.4" font-family="Lato" font-size="12">a | b</text></g><g class="edge"><path fill="none" stroke="#000" d="M375.93-41.76C374.22-52.35 377.58-62 386-62c6.45 0 9.93 5.66 10.43 13.06"/><path stroke="#000" d="M396.07-41.76l3.5-6.83-3.32 3.34.18-3.5h0l-.18 3.5-2.97-3.66 2.79 7.15h0z"/><text x="369" y="-65.4" font-family="Lato" font-size="12">!a &amp; !b</text></g><g class="edge"><path fill="none" stroke="#000" d="M257.96-75.76c-14.15-.21-34.69-1.46-51.96-6.24-5.95-1.65-12.08-4.19-17.68-6.88"/><path stroke="#000" d="M182.05-92.06l4.81 5.98-1.69-4.4 3.12 1.59h0l-3.12-1.59 4.55-1.22-7.67-.36h0z"/><text x="206" y="-85.4" font-family="Lato" font-size="12">!a &amp; !b</text></g><g class="edge"><path fill="none" stroke="#000" d="M292.47-68.26c17.48 8.73 46.18 23.08 66.99 33.49"/><path stroke="#000" d="M365.91-31.54l-4.85-5.95 1.72 4.38-3.13-1.56h0l3.13 1.56-4.54 1.25 7.67.32h0z"/><text x="312" y="-59.4" font-family="Lato" font-size="12">!a &amp; !b</text></g><g class="edge"><path fill="none" stroke="#000" d="M267.02-91.92c-2.34-10.23.65-20.08 8.98-20.08 6.38 0 9.63 5.77 9.75 13.07"/><path stroke="#000" d="M284.98-91.92l3.89-6.61-3.51 3.13.38-3.47h0l-.38 3.47-2.75-3.82 2.37 7.3h0z"/><text x="264.5" y="-115.4" font-family="Lato" font-size="12">a | b</text></g><g class="edge"><path fill="none" stroke="#000" d="M259.04-165.26c-14.22 5.02-35.42 10.09-53.04 4.26-6.35-2.1-12.51-5.69-17.99-9.63"/><path stroke="#000" d="M182.36-175l3.61 6.77-.84-4.63 2.77 2.14h0l-2.77-2.14 4.69-.35-7.46-1.79h0z"/><text x="219.5" y="-164.4" font-family="Lato" font-size="12">b</text></g><g class="edge"><path fill="none" stroke="#000" d="M267.02-187.92c-2.34-10.23.65-20.08 8.98-20.08 6.38 0 9.63 5.77 9.75 13.07"/><path stroke="#000" d="M284.98-187.92l3.89-6.61-3.51 3.13.38-3.47h0l-.38 3.47-2.75-3.82 2.37 7.3h0z"/><text x="271" y="-211.4" font-family="Lato" font-size="12">!b</text></g></g></svg>