<?xml-stylesheet href="spot.css" type="text/css"?><svg width="547pt" height="256" viewBox="0 0 547.47 191.5" xmlns="http://www.w3.org/2000/svg"><g class="graph" transform="translate(4 187.5)"><path fill="#fff" stroke="transparent" d="M-4 4v-191.5h547.47V4H-4z"/><g class="node"><path fill="#ffffa0" stroke="#000" d="M426.47-101h-54v36h54v-36z"/><text text-anchor="middle" x="399.47" y="-86.4" font-family="Lato" font-size="12">2</text><text text-anchor="middle" x="399.47" y="-73.4" font-family="Lato" font-size="12">!a &amp; b</text></g><g class="edge"><path fill="none" stroke="#000" d="M276.96-162.46c12.16 1.89 51.35 9.16 77.51 27.46 10.59 7.41 20.16 17.97 27.65 27.64"/><path stroke="#000" d="M386.5-101.48l-1.66-7.5-.43 4.69-2.1-2.8h0l2.1 2.8-4.62-.92 6.71 3.73h0z"/><text text-anchor="middle" x="338.97" y="-152.4" font-family="Lato" font-size="12">!a &amp; b</text></g><g class="node"><path fill="#ffffa0" stroke="#000" d="M535.47-40h-54v36h54v-36z"/><path fill="none" stroke="#000" d="M539.47-44h-62V0h62v-44z"/><text text-anchor="middle" x="508.47" y="-18.9" font-family="Lato" font-size="12">3</text></g><g class="edge"><path fill="none" stroke="#000" d="M426.64-68.08c13.43 7.66 29.99 17.1 44.62 25.44"/><path stroke="#000" d="M477.4-39.14l-4.52-6.2 1.48 4.47-3.04-1.74h0l3.04 1.74-4.6 1 7.64.73h0z"/><text text-anchor="middle" x="451.97" y="-73.4" font-family="Lato" font-size="12">{a}</text><text text-anchor="middle" x="451.97" y="-60.4" font-family="Lato" font-size="12">{}</text></g><g class="node"><ellipse fill="#ffffa0" stroke="#000" cx="272.23" cy="-120" rx="33.47" ry="24.08"/><text text-anchor="middle" x="272.23" y="-123.4" font-family="Lato" font-size="12">1</text><text text-anchor="middle" x="272.23" y="-110.4" font-family="Lato" font-size="12">a &amp; !b</text></g><g class="edge"><path fill="none" stroke="#000" d="M147.46-182.44c7.74 3.01 44.72 17.57 73.54 32.44 6.36 3.28 13.03 7.03 19.36 10.75"/><path stroke="#000" d="M246.54-135.58l-4.41-6.28 1.4 4.5-3.01-1.79h0l3.01 1.79-4.62.91 7.63.87h0z"/><text text-anchor="middle" x="205.5" y="-167.4" font-family="Lato" font-size="12">a &amp; !b</text></g><g class="edge"><path fill="none" stroke="#000" d="M303.23-111.14c18.69 5.52 42.76 12.64 62.02 18.33"/><path stroke="#000" d="M372.12-90.79l-5.82-5 2.46 4.01-3.36-.99h0l3.36.99-4.25 2.03 7.61-1.04h0z"/><text text-anchor="middle" x="338.97" y="-121.4" font-family="Lato" font-size="12">{a, b}</text><text text-anchor="middle" x="338.97" y="-108.4" font-family="Lato" font-size="12">{}</text></g><g class="node"><path fill="#ffffa0" stroke="#000" d="M172-87h-54v36h54v-36z"/><text text-anchor="middle" x="145" y="-72.4" font-family="Lato" font-size="12">0</text><text text-anchor="middle" x="145" y="-59.4" font-family="Lato" font-size="12">a &amp; b</text></g><g class="edge"><path fill="none" stroke="#000" d="M249.27-102.53C240.83-96.54 230.86-90.27 221-86c-13.13 5.69-28.41 9.59-41.73 12.21"/><path stroke="#000" d="M172.09-72.46l7.45 1.82-4.01-2.46 3.44-.63h0l-3.44.63 2.87-3.73-6.31 4.37h0z"/><text text-anchor="middle" x="205.5" y="-102.4" font-family="Lato" font-size="12">{b}</text><text text-anchor="middle" x="205.5" y="-89.4" font-family="Lato" font-size="12">{}</text></g><g class="edge"><path fill="none" stroke="#000" d="M54.03-69h56.2"/><path stroke="#000" d="M117.65-69l-7-3.15 3.5 3.15h-3.5 3.5l-3.5 3.15 7-3.15h0z"/><text text-anchor="middle" x="86" y="-72.4" font-family="Lato" font-size="12">a &amp; b</text></g><g class="edge"><path fill="none" stroke="#000" d="M172.05-65.05c31.65 4.19 86.61 9.51 133.42 4.05 20.22-2.36 42.42-7.51 60.06-12.24"/><path stroke="#000" d="M372.3-75.09l-7.58-1.19 4.21 2.11-3.38.93h0l3.38-.93-2.55 3.97 5.92-4.89h0z"/><text text-anchor="middle" x="272.23" y="-77.4" font-family="Lato" font-size="12">{a}</text><text text-anchor="middle" x="272.23" y="-64.4" font-family="Lato" font-size="12">{}</text></g><g class="edge"><path fill="none" stroke="#000" d="M159.46-87.05c7.84-9.09 18.53-19.36 30.54-24.95 12.91-6.01 28.2-8.54 42.01-9.39"/><path stroke="#000" d="M239.08-121.69l-7.13-2.85 3.63 3-3.49.15h0l3.49-.15-3.36 3.3 6.86-3.45h0z"/><text text-anchor="middle" x="205.5" y="-136.4" font-family="Lato" font-size="12">{b}</text><text text-anchor="middle" x="205.5" y="-123.4" font-family="Lato" font-size="12">{}</text></g><g class="edge"><path fill="none" stroke="#000" d="M172.42-61.35c5.77 1.54 11.86 3.08 17.58 4.35 58.76 13.04 73.69 15.92 133.47 23 50.66 6 109.56 9.18 146.8 10.73"/><path stroke="#000" d="M477.42-22.99l-6.87-3.42 3.37 3.28-3.49-.14h0l3.49.14-3.62 3.01 7.12-2.87h0z"/><text text-anchor="middle" x="338.97" y="-50.4" font-family="Lato" font-size="12">{a}</text><text text-anchor="middle" x="338.97" y="-37.4" font-family="Lato" font-size="12">{}</text></g><g class="edge"><path fill="none" stroke="#000" d="M498.09-44.21C497.24-53.8 500.7-62 508.47-62c5.7 0 9.08 4.42 10.14 10.57"/><path stroke="#000" d="M518.84-44.21l2.92-7.1-3.03 3.6-.12-3.5h0l.12 3.5-3.26-3.4 3.37 6.9h0z"/><text text-anchor="middle" x="508.47" y="-78.4" font-family="Lato" font-size="12">{a}</text><text text-anchor="middle" x="508.47" y="-65.4" font-family="Lato" font-size="12">{0}</text></g></g></svg>