<?xml-stylesheet href="spot.css" type="text/css"?><svg width="613pt" height="167pt" viewBox="0 0 613 167.39" xmlns="http://www.w3.org/2000/svg"><g class="graph" transform="translate(4 163.39)"><path fill="#fff" stroke="transparent" d="M-4 4v-167.39h613V4H-4z"/><g class="node"><ellipse fill="#ffffa0" stroke="#000" cx="118" cy="-65.39" rx="27" ry="18"/><text text-anchor="middle" x="118" y="-62.29" font-family="Lato" font-size="12">init</text></g><g class="edge"><path fill="none" stroke="#000" d="M54.22-65.39H83.7"/><path stroke="#000" d="M90.97-65.39l-7-3.15 3.5 3.15h-3.5 3.5l-3.5 3.15 7-3.15h0z"/></g><g class="node"><path fill="#ffffa0" stroke="#000" d="M492-118.39h-54v36h54v-36z"/><text text-anchor="middle" x="465" y="-97.29" font-family="Lato" font-size="12">2</text></g><g class="edge"><path fill="none" stroke="#000" d="M135.59-79.15c7.87-5.86 17.66-12.24 27.41-16.24 92.98-38.16 124.82-47.3 224-31 14.82 2.43 30.63 7.34 44.04 12.24"/><path stroke="#000" d="M437.82-111.6l-5.44-5.42 2.16 4.18-3.27-1.23h0l3.27 1.23-4.38 1.72 7.66-.48h0z"/><text text-anchor="middle" x="299.5" y="-149.79" font-family="Lato" font-size="12">!a &amp; b</text><text text-anchor="middle" x="299.5" y="-136.79" font-family="Lato" font-size="12">{}</text></g><g class="node"><ellipse fill="#ffffa0" stroke="#000" cx="239" cy="-65.39" rx="27" ry="18"/><text text-anchor="middle" x="239" y="-62.29" font-family="Lato" font-size="12">1</text></g><g class="edge"><path fill="none" stroke="#000" d="M145.12-65.39h59.58"/><path stroke="#000" d="M211.95-65.39l-7-3.15 3.5 3.15h-3.5 3.5l-3.5 3.15 7-3.15h0z"/><text text-anchor="middle" x="178.5" y="-81.79" font-family="Lato" font-size="12">a &amp; !b</text><text text-anchor="middle" x="178.5" y="-68.79" font-family="Lato" font-size="12">{}</text></g><g class="node"><path fill="#ffffa0" stroke="#000" d="M387-50.39h-54v36h54v-36z"/><text text-anchor="middle" x="360" y="-29.29" font-family="Lato" font-size="12">3</text></g><g class="edge"><path fill="none" stroke="#000" d="M136.76-52.02c17.93 12.7 46.96 31.07 75.24 39.63 43.87 13.26 58.69 16.71 103 5 3.92-1.04 7.85-2.51 11.67-4.23"/><path stroke="#000" d="M332.96-14.72l-7.67.26 4.53 1.29-3.14 1.54h0l3.14-1.54-1.75 4.37 4.89-5.92h0z"/><text text-anchor="middle" x="239" y="-28.79" font-family="Lato" font-size="12">a &amp; b</text><text text-anchor="middle" x="239" y="-15.79" font-family="Lato" font-size="12">{}</text></g><g class="node"><path fill="#ffffa0" stroke="#000" d="M601-66.39h-54v36h54v-36z"/><path fill="none" stroke="#000" d="M605-70.39h-62v44h62v-44z"/><text text-anchor="middle" x="574" y="-45.29" font-family="Lato" font-size="12">4</text></g><g class="edge"><path fill="none" stroke="#000" d="M492.18-87.67c13.3 6.46 29.69 14.43 44.22 21.49"/><path stroke="#000" d="M542.93-63.01l-4.92-5.89 1.77 4.36-3.14-1.53h0l3.14 1.53-4.52 1.31 7.67.22h0z"/><text text-anchor="middle" x="517.5" y="-93.79" font-family="Lato" font-size="12">{a}</text><text text-anchor="middle" x="517.5" y="-80.79" font-family="Lato" font-size="12">{}</text></g><g class="edge"><path fill="none" stroke="#000" d="M262.01-75.23c6.92-2.73 14.66-5.42 21.99-7.16 50.05-11.94 109.77-15.97 146.28-17.33"/><path stroke="#000" d="M437.7-99.97l-7.1-2.91 3.6 3.03-3.49.12h0l3.49-.12-3.39 3.27 6.89-3.39h0z"/><text text-anchor="middle" x="360" y="-112.79" font-family="Lato" font-size="12">{a, b}</text><text text-anchor="middle" x="360" y="-99.79" font-family="Lato" font-size="12">{}</text></g><g class="edge"><path fill="none" stroke="#000" d="M264.08-58.72c17.78 4.94 42.2 11.71 61.82 17.15"/><path stroke="#000" d="M332.89-39.63l-5.9-4.91 2.53 3.97-3.38-.93h0l3.38.93-4.22 2.1 7.59-1.16h0z"/><text text-anchor="middle" x="299.5" y="-68.79" font-family="Lato" font-size="12">{b}</text><text text-anchor="middle" x="299.5" y="-55.79" font-family="Lato" font-size="12">{}</text></g><g class="edge"><path fill="none" stroke="#000" d="M387.01-46.38c10.45-5.88 22.48-12.97 32.99-20.01 5.3-3.56 10.8-7.54 16.04-11.5"/><path stroke="#000" d="M441.6-82.15l-7.48 1.76 4.7.37-2.78 2.13h0l2.78-2.13-.87 4.63 3.65-6.76h0z"/><text text-anchor="middle" x="412.5" y="-82.79" font-family="Lato" font-size="12">{a}</text><text text-anchor="middle" x="412.5" y="-69.79" font-family="Lato" font-size="12">{}</text></g><g class="edge"><path fill="none" stroke="#000" d="M332.84-17.89c-14.8 6.2-33.38 10.58-48.84 3.5-12.8-5.86-23.29-17.49-30.81-28.16"/><path stroke="#000" d="M249.11-48.68l1.26 7.58.68-4.66 1.94 2.91h0l-1.94-2.91 4.56 1.16-6.5-4.08h0z"/><text text-anchor="middle" x="299.5" y="-30.79" font-family="Lato" font-size="12">{b}</text><text text-anchor="middle" x="299.5" y="-17.79" font-family="Lato" font-size="12">{}</text></g><g class="edge"><path fill="none" stroke="#000" d="M387.42-34.39c37.36-2.82 105.78-7.98 148.29-11.19"/><path stroke="#000" d="M542.82-46.12l-7.22-2.61 3.73 2.88-3.49.26h0l3.49-.26-3.25 3.4 6.74-3.67h0z"/><text text-anchor="middle" x="465" y="-57.79" font-family="Lato" font-size="12">{a}</text><text text-anchor="middle" x="465" y="-44.79" font-family="Lato" font-size="12">{}</text></g><g class="edge"><path fill="none" stroke="#000" d="M563.63-70.61c-.85-9.58 2.6-17.78 10.37-17.78 5.7 0 9.08 4.42 10.14 10.57"/><path stroke="#000" d="M584.37-70.61l2.92-7.09-3.03 3.6-.11-3.5h0l.11 3.5-3.26-3.4 3.37 6.89h0z"/><text text-anchor="middle" x="574" y="-104.79" font-family="Lato" font-size="12">{a}</text><text text-anchor="middle" x="574" y="-91.79" font-family="Lato" font-size="12">{0}</text></g></g></svg>