<?xml-stylesheet href="spot.css" type="text/css"?><svg width="100pt" height="316" viewBox="0 0 100 237" xmlns="http://www.w3.org/2000/svg"><g class="graph" transform="translate(4 233)"><path fill="#fff" stroke="transparent" d="M-4 4v-237H96V4H-4z"/><text x="8" y="-216.4" font-family="Lato" font-size="12">Inf(</text><text x="25" y="-216.4" font-family="Lato" font-size="12" fill="#1f78b4">⓿</text><text x="38" y="-216.4" font-family="Lato" font-size="12">)&amp;Inf(</text><text x="67" y="-216.4" font-family="Lato" font-size="12" fill="#ff4da0">❶</text><text x="80" y="-216.4" font-family="Lato" font-size="12">)</text><text x="9" y="-204.4" font-family="Lato" font-size="12">[gen. Büchi 2]</text><g class="node"><circle fill="#ffffa0" stroke="#000" cx="65" cy="-18" r="18"/><text text-anchor="middle" x="65" y="-14.9" font-family="Lato" font-size="12">0</text></g><g class="edge"><path fill="none" stroke="#000" d="M10.15-18h29.48"/><path stroke="#000" d="M46.94-18l-7-3.15 3.5 3.15h-3.5 3.5l-3.5 3.15 7-3.15h0z"/></g><g class="edge"><path fill="none" stroke="#000" d="M63.37-36.15C63.12-45.54 63.66-54 65-54c.98 0 1.53 4.56 1.66 10.7"/><path stroke="#000" d="M66.63-36.15l3.18-6.99-3.17 3.49.02-3.5h0l-.02 3.5-3.13-3.52 3.12 7.02h0z"/><text x="48" y="-57.4" font-family="Lato" font-size="12">!a &amp; !b</text></g><g class="edge"><path fill="none" stroke="#000" d="M62.29-35.98C60.85-53.2 61.75-72 65-72c2.79 0 3.85 13.88 3.18 28.72"/><path stroke="#000" d="M67.71-35.98l3.59-6.78-3.37 3.29.23-3.49h0l-.23 3.49-2.92-3.7 2.7 7.19h0z"/><text x="49.5" y="-88.4" font-family="Lato" font-size="12">a &amp; !b</text><text x="58.5" y="-75.4" font-family="Lato" font-size="12" fill="#1f78b4">⓿</text></g><g class="edge"><path fill="none" stroke="#000" d="M61.72-35.85C58.53-62.44 59.62-98 65-98c4.92 0 6.25 29.71 4.01 55.13"/><path stroke="#000" d="M68.28-35.85l3.85-6.64-3.49 3.16.36-3.48h0l-.36 3.48-2.77-3.81 2.41 7.29h0z"/><text x="49.5" y="-114.4" font-family="Lato" font-size="12">!a &amp; b</text><text x="58.5" y="-101.4" font-family="Lato" font-size="12" fill="#ff4da0">❶</text></g><g class="edge"><path fill="none" stroke="#000" d="M61.3-35.94C56.24-70.89 57.48-124 65-124c7.02 0 8.57 46.29 4.63 80.88"/><path stroke="#000" d="M68.7-35.94l4.02-6.54-3.57 3.07.45-3.47h0l-.45 3.47-2.68-3.88 2.23 7.35h0z"/><text x="51" y="-139.4" font-family="Lato" font-size="12">a &amp; b</text><text x="52" y="-127.4" font-family="Lato" font-size="12" fill="#1f78b4">⓿</text><text x="65" y="-127.4" font-family="Lato" font-size="12" fill="#ff4da0">❶</text></g></g></svg>