<?xml-stylesheet href="spot.css" type="text/css"?><svg width="221pt" height="107pt" viewBox="0 0 221 107" xmlns="http://www.w3.org/2000/svg"><g class="graph"><path fill="#fff" stroke="transparent" d="M0 107V0h221v107H0z"/><text x="8" y="-86.4" font-family="Lato" font-size="12" transform="translate(4 103)">(Fin(</text><text x="33" y="-86.4" font-family="Lato" font-size="12" fill="#1f78b4" transform="translate(4 103)">⓿</text><text x="46" y="-86.4" font-family="Lato" font-size="12" transform="translate(4 103)">) &amp; Inf(</text><text x="81" y="-86.4" font-family="Lato" font-size="12" fill="#ff4da0" transform="translate(4 103)">❶</text><text x="94" y="-86.4" font-family="Lato" font-size="12" transform="translate(4 103)">)) | (Fin(</text><text x="136" y="-86.4" font-family="Lato" font-size="12" fill="#ff7f00" transform="translate(4 103)">❷</text><text x="149" y="-86.4" font-family="Lato" font-size="12" transform="translate(4 103)">) &amp; Inf(</text><text x="184" y="-86.4" font-family="Lato" font-size="12" fill="#6a3d9a" transform="translate(4 103)">❸</text><text x="197" y="-86.4" font-family="Lato" font-size="12" transform="translate(4 103)">))</text><text x="82.5" y="-74.4" font-family="Lato" font-size="12" transform="translate(4 103)">[Rabin 2]</text><g class="node" transform="translate(4 103)"><path fill="#ffffa0" stroke="#000" d="M90.5-36h-18c-6 0-12 6-12 12v12c0 6 6 12 12 12h18c6 0 12-6 12-12v-12c0-6-6-12-12-12"/><text x="78" y="-21.4" font-family="Lato" font-size="12">0</text><text x="68.5" y="-9.4" font-family="Lato" font-size="12" fill="#ff4da0">❶</text><text x="81.5" y="-9.4" font-family="Lato" font-size="12" fill="#ff7f00">❷</text></g><g class="edge" transform="translate(4 103)"><path fill="none" stroke="#000" d="M23.66-18h29.59"/><path stroke="#000" d="M60.34-18l-7-3.15 3.5 3.15h-3.5 3.5l-3.5 3.15 7-3.15h0z"/></g><g class="edge" transform="translate(4 103)"><path fill="none" stroke="#000" d="M74.63-36.15C73.57-45.54 75.86-54 81.5-54c4.14 0 6.48 4.56 7.01 10.7"/><path stroke="#000" d="M88.37-36.15l3.29-6.94-3.22 3.44.07-3.5h0l-.07 3.5-3.08-3.56 3.01 7.06h0z"/><text x="78" y="-57.4" font-family="Lato" font-size="12">a</text></g><g class="node" transform="translate(4 103)"><path fill="#ffffa0" stroke="#000" d="M178.5-36h-18c-6 0-12 6-12 12v12c0 6 6 12 12 12h18c6 0 12-6 12-12v-12c0-6-6-12-12-12"/><text x="166" y="-21.4" font-family="Lato" font-size="12">1</text><text x="156.5" y="-9.4" font-family="Lato" font-size="12" fill="#1f78b4">⓿</text><text x="169.5" y="-9.4" font-family="Lato" font-size="12" fill="#6a3d9a">❸</text></g><g class="edge" transform="translate(4 103)"><path fill="none" stroke="#000" d="M102.88-18h38.34"/><path stroke="#000" d="M148.27-18l-7-3.15 3.5 3.15h-3.5 3.5l-3.5 3.15 7-3.15h0z"/><text x="120.5" y="-21.4" font-family="Lato" font-size="12">!a</text></g><g class="edge" transform="translate(4 103)"><path fill="none" stroke="#000" d="M148.28-5.53C139.84-1.72 129.84.99 120.5-1c-3.62-.77-7.31-1.92-10.9-3.25"/><path stroke="#000" d="M102.87-7.01l5.29 5.57-2.05-4.24 3.24 1.33h0l-3.24-1.33 4.43-1.59-7.67.26h0z"/><text x="120.5" y="-4.4" font-family="Lato" font-size="12">!b</text></g><g class="edge" transform="translate(4 103)"><path fill="none" stroke="#000" d="M161.54-36.15C160.32-45.54 162.97-54 169.5-54c4.8 0 7.5 4.56 8.11 10.7"/><path stroke="#000" d="M177.46-36.15l3.3-6.93-3.22 3.43.07-3.5h0l-.07 3.5-3.08-3.57 3 7.07h0z"/><text x="166" y="-57.4" font-family="Lato" font-size="12">b</text></g></g></svg>