<?xml-stylesheet href="spot.css" type="text/css"?><svg width="301pt" height="280" viewBox="0 0 301 210.36" xmlns="http://www.w3.org/2000/svg"><g class="graph" transform="translate(4 206.36)"><path fill="#fff" stroke="transparent" d="M-4 4v-210.36h301V4H-4z"/><text x="128" y="-188.76" font-family="Lato" font-size="12">[Büchi]</text><g class="node"><circle fill="#ffffa0" stroke="#e31a1c" stroke-width="2" cx="56" cy="-47.36" r="18"/><text text-anchor="middle" x="56" y="-44.26" font-family="Lato" font-size="12">0</text></g><g class="edge"><path fill="none" stroke="#000" d="M1.15-47.36h29.48"/><path stroke="#000" d="M37.94-47.36l-7-3.15 3.5 3.15h-3.5 3.5l-3.5 3.15 7-3.15h0z"/></g><g class="edge"><path fill="none" stroke="#ff4da0" stroke-width="2" d="M49.62-64.4c-1.3-9.82.83-18.96 6.38-18.96 4.17 0 6.4 5.14 6.71 11.86"/><path fill="#ff4da0" stroke="#ff4da0" stroke-width="2" d="M62.38-64.4l3.47-6.84-2.81 3.37.17-3.49-.5-.03-.5-.02-.17 3.5-2.48-3.63 2.82 7.14h0z"/><text x="52.5" y="-86.76" font-family="Lato" font-size="12">1</text></g><g class="node"><circle fill="#ffffa0" stroke="#000" cx="271" cy="-128.36" r="18"/><circle fill="none" stroke="#000" cx="271" cy="-128.36" r="22"/><text x="267.5" y="-125.26" font-family="Lato" font-size="12">1</text></g><g class="edge"><path fill="none" stroke="#ff4da0" stroke-width="2" d="M69.15-59.95c14.8-14.5 41.26-37.8 68.85-49.41 33.7-14.17 76.04-18.09 103.55-19.01"/><path fill="#ff4da0" stroke="#ff4da0" stroke-width="2" d="M248.55-128.55l-7.08-2.97 3.57 2.56-3.5.09.01.5.01.5 3.5-.09-3.43 2.74 6.92-3.33h0z"/><text x="144.5" y="-124.76" font-family="Lato" font-size="12">!a &amp; b</text></g><g class="node"><circle fill="#ffffa0" stroke="#000" cx="160" cy="-47.36" r="18"/><circle fill="none" stroke="#000" cx="160" cy="-47.36" r="22"/><text text-anchor="middle" x="160" y="-44.26" font-family="Lato" font-size="12">2</text></g><g class="edge"><path fill="none" stroke="#ff4da0" stroke-width="2" d="M74.3-47.36h56.01"/><path fill="#ff4da0" stroke="#ff4da0" stroke-width="2" d="M137.71-47.36l-7-3.15 3.5 2.65h-3.5v1h3.5l-3.5 2.65 7-3.15h0z"/><text x="92" y="-50.76" font-family="Lato" font-size="12">a &amp; b</text></g><g class="node"><circle fill="#ffffa0" stroke="#000" cx="271" cy="-27.36" r="18"/><circle fill="none" stroke="#000" cx="271" cy="-27.36" r="22"/><text text-anchor="middle" x="271" y="-24.26" font-family="Lato" font-size="12">3</text></g><g class="edge"><path fill="none" stroke="#ff4da0" stroke-width="2" d="M71.01-36.9C86.47-26.06 112.56-9.82 138-3.36c36.27 9.22 79-2.58 105.8-12.65"/><path fill="#ff4da0" stroke="#ff4da0" stroke-width="2" d="M250.58-18.66l-7.66-.39 4.22 1.2-3.26 1.27.18.46.18.47 3.26-1.27-2.3 3.74 5.38-5.48h0z"/><text x="144.5" y="-6.76" font-family="Lato" font-size="12">a &amp; !b</text></g><g class="edge"><path fill="none" stroke="#000" d="M261.29-148.12c-1.65-10.59 1.59-20.24 9.71-20.24 6.22 0 9.57 5.66 10.06 13.06"/><path stroke="#000" d="M280.71-148.12l3.49-6.83-3.32 3.34.17-3.5h0l-.17 3.5-2.97-3.65 2.8 7.14h0z"/><text x="267.5" y="-171.76" font-family="Lato" font-size="12">b</text></g><g class="edge"><path fill="none" stroke="#000" d="M178.03-60.01c18.53-13.77 48.26-35.86 68.88-51.19"/><path stroke="#000" d="M252.73-115.52l-7.5 1.64 4.69.44-2.81 2.09h0l2.81-2.09-.93 4.62 3.74-6.7h0z"/><text x="200" y="-100.76" font-family="Lato" font-size="12">!a &amp; b</text></g><g class="edge"><path fill="none" stroke="#000" d="M150.29-67.12c-1.65-10.59 1.59-20.24 9.71-20.24 6.22 0 9.57 5.66 10.06 13.06"/><path stroke="#000" d="M169.71-67.12l3.49-6.83-3.32 3.34.17-3.5h0l-.17 3.5-2.97-3.65 2.8 7.14h0z"/><text x="146" y="-90.76" font-family="Lato" font-size="12">a &amp; b</text></g><g class="edge"><path fill="none" stroke="#000" d="M182.04-46.97c14.01.6 32.75 2.07 48.96 5.61 4.14.91 8.44 2.14 12.61 3.5"/><path stroke="#000" d="M250.45-35.49l-5.58-5.27 2.27 4.12-3.3-1.15h0l3.3 1.15-4.33 1.83 7.64-.68h0z"/><text x="200" y="-48.76" font-family="Lato" font-size="12">a &amp; !b</text></g><g class="edge"><path fill="none" stroke="#000" d="M249.11-23.17c-14.12 2.03-33.03 3.2-49.11-1.19-5.21-1.42-10.44-3.74-15.3-6.37"/><path stroke="#000" d="M178.35-34.45l4.45 6.26-1.43-4.49 3.02 1.77h0l-3.02-1.77 4.61-.95-7.63-.82h0z"/><text x="201.5" y="-27.76" font-family="Lato" font-size="12">a &amp; b</text></g><g class="edge"><path fill="none" stroke="#000" d="M261.29-47.12c-1.65-10.59 1.59-20.24 9.71-20.24 6.22 0 9.57 5.66 10.06 13.06"/><path stroke="#000" d="M280.71-47.12l3.49-6.83-3.32 3.34.17-3.5h0l-.17 3.5-2.97-3.65 2.8 7.14h0z"/><text x="255.5" y="-70.76" font-family="Lato" font-size="12">a &amp; !b</text></g></g></svg>