<?xml-stylesheet href="spot.css" type="text/css"?><svg width="421pt" height="257pt" viewBox="0 0 421 256.9" xmlns="http://www.w3.org/2000/svg"><g class="graph" transform="translate(4 252.9)"><path fill="#fff" stroke="transparent" d="M-4 4v-256.9h421V4H-4z"/><text x="108" y="-236.3" font-family="Lato" font-size="12">(Fin(</text><text x="133" y="-236.3" font-family="Lato" font-size="12" fill="#1f78b4">⓿</text><text x="146" y="-236.3" font-family="Lato" font-size="12">) &amp; Inf(</text><text x="181" y="-236.3" font-family="Lato" font-size="12" fill="#ff4da0">❶</text><text x="194" y="-236.3" font-family="Lato" font-size="12">)) | (Fin(</text><text x="236" y="-236.3" font-family="Lato" font-size="12" fill="#ff7f00">❷</text><text x="249" y="-236.3" font-family="Lato" font-size="12">) &amp; Inf(</text><text x="284" y="-236.3" font-family="Lato" font-size="12" fill="#6a3d9a">❸</text><text x="297" y="-236.3" font-family="Lato" font-size="12">))</text><text x="182.5" y="-224.3" font-family="Lato" font-size="12">[Rabin 2]</text><g class="node"><path fill="#ffffa0" stroke="#000" d="M68-61.9H50c-6 0-12 6-12 12v12c0 6 6 12 12 12h18c6 0 12-6 12-12v-12c0-6-6-12-12-12"/><text x="55.5" y="-47.3" font-family="Lato" font-size="12">0</text><text x="46" y="-35.3" font-family="Lato" font-size="12" fill="#1f78b4">⓿</text><text x="59" y="-35.3" font-family="Lato" font-size="12" fill="#ff7f00">❷</text></g><g class="edge"><path fill="none" stroke="#000" d="M1.16-43.9h29.59"/><path stroke="#000" d="M37.84-43.9l-7-3.15 3.5 3.15h-3.5 3.5l-3.5 3.15 7-3.15h0z"/></g><g class="edge"><path fill="none" stroke="#000" d="M52.13-62.05C51.07-71.44 53.36-79.9 59-79.9c4.14 0 6.48 4.56 7.01 10.7"/><path stroke="#000" d="M65.87-62.05l3.29-6.94-3.22 3.44.07-3.5h0l-.07 3.5-3.08-3.56 3.01 7.06h0z"/><text x="42" y="-83.3" font-family="Lato" font-size="12">!a &amp; !b</text></g><g class="node"><path fill="#ffffa0" stroke="#000" d="M180-155.9h-18c-6 0-12 6-12 12v12c0 6 6 12 12 12h18c6 0 12-6 12-12v-12c0-6-6-12-12-12"/><text x="167.5" y="-141.3" font-family="Lato" font-size="12">1</text><text x="158" y="-129.3" font-family="Lato" font-size="12" fill="#ff4da0">❶</text><text x="171" y="-129.3" font-family="Lato" font-size="12" fill="#ff7f00">❷</text></g><g class="edge"><path fill="none" stroke="#000" d="M65.19-62.16C70.75-78.49 81.12-101.94 98-115.9c12.64-10.45 30.18-15.94 44.79-18.82"/><path stroke="#000" d="M149.69-135.94l-7.44-1.89 3.99 2.5-3.44.6h0l3.44-.6-2.9 3.71 6.35-4.32h0z"/><text x="99.5" y="-134.3" font-family="Lato" font-size="12">a &amp; !b</text></g><g class="node"><path fill="#ffffa0" stroke="#000" d="M401-92.9h-18c-6 0-12 6-12 12v12c0 6 6 12 12 12h18c6 0 12-6 12-12v-12c0-6-6-12-12-12"/><text x="388.5" y="-78.3" font-family="Lato" font-size="12">2</text><text x="379" y="-66.3" font-family="Lato" font-size="12" fill="#1f78b4">⓿</text><text x="392" y="-66.3" font-family="Lato" font-size="12" fill="#6a3d9a">❸</text></g><g class="edge"><path fill="none" stroke="#000" d="M80.22-35.79c5.67 1.94 11.89 3.77 17.78 4.89 63.79 12.08 81.49 12.3 146 5 49.39-5.59 63.11-5.9 109-25 3.88-1.61 7.8-3.61 11.59-5.76"/><path stroke="#000" d="M370.78-60.37l-7.62.9 4.62.9-3 1.8h0l3-1.8-1.38 4.5 4.38-6.3h0z"/><text x="211.5" y="-29.3" font-family="Lato" font-size="12">!a &amp; b</text></g><g class="node"><path fill="#ffffa0" stroke="#000" d="M292-92.9h-18c-6 0-12 6-12 12v12c0 6 6 12 12 12h18c6 0 12-6 12-12v-12c0-6-6-12-12-12"/><text x="279.5" y="-78.3" font-family="Lato" font-size="12">3</text><text x="270" y="-66.3" font-family="Lato" font-size="12" fill="#ff4da0">❶</text><text x="283" y="-66.3" font-family="Lato" font-size="12" fill="#6a3d9a">❸</text></g><g class="edge"><path fill="none" stroke="#000" d="M80.09-46.71c39.94-5.57 129.34-18.06 174.57-24.37"/><path stroke="#000" d="M261.79-72.08l-7.37-2.15 3.91 2.64-3.47.48h0l3.47-.48-3.03 3.6 6.49-4.09h0z"/><text x="157" y="-65.3" font-family="Lato" font-size="12">a &amp; b</text></g><g class="edge"><path fill="none" stroke="#000" d="M154.34-119.7c-6.51 6.97-14.39 14.7-22.34 20.8-13.74 10.53-20.05 8.75-34 19-5.27 3.87-10.58 8.41-15.49 12.94"/><path stroke="#000" d="M77.36-62.08l7.25-2.53-4.71.12 2.54-2.4h0l-2.54 2.4.38-4.69-2.92 7.1h0z"/><text x="98" y="-102.3" font-family="Lato" font-size="12">!a &amp; !b</text></g><g class="edge"><path fill="none" stroke="#000" d="M160.87-156.05c-1.56-9.39 1.82-17.85 10.13-17.85 6.1 0 9.55 4.56 10.33 10.7"/><path stroke="#000" d="M181.13-156.05l3.34-6.91-3.24 3.41.09-3.5h0l-.09 3.5-3.05-3.59 2.95 7.09h0z"/><text x="155.5" y="-177.3" font-family="Lato" font-size="12">a &amp; !b</text></g><g class="edge"><path fill="none" stroke="#000" d="M183.44-156.12c6.6-8.82 15.74-18.6 26.56-23.78 57.33-27.44 92.11-38.08 143 0 24.76 18.52 33.42 54.72 36.43 79.38"/><path stroke="#000" d="M390.19-93.26l2.4-7.3-2.77 3.81-.36-3.48h0l.36 3.48-3.5-3.15 3.87 6.64h0z"/><text x="267.5" y="-207.3" font-family="Lato" font-size="12">!a &amp; b</text></g><g class="edge"><path fill="none" stroke="#000" d="M192.13-134.69c15.14 3.08 35.92 8.79 51.87 18.79 7.45 4.67 14.39 11.17 20.24 17.62"/><path stroke="#000" d="M268.89-92.91l-2.2-7.35-.09 4.71-2.29-2.65h0l2.29 2.65-4.67-.59 6.96 3.23h0z"/><text x="213" y="-133.3" font-family="Lato" font-size="12">a &amp; b</text></g><g class="edge"><path fill="none" stroke="#000" d="M377.54-56.81c-6.61 7.75-15.17 16.3-24.54 21.91-43.1 25.82-59.21 23.27-109 30-64.69 8.74-84.53 5.96-146-16-3.91-1.4-7.85-3.22-11.64-5.23"/><path stroke="#000" d="M80.15-29.66l4.53 6.2-1.49-4.47 3.05 1.73h0l-3.05-1.73 4.6-1.01-7.64-.72h0z"/><text x="210" y="-8.3" font-family="Lato" font-size="12">!a &amp; !b</text></g><g class="edge"><path fill="none" stroke="#000" d="M370.78-91.46c-16.9-13.05-42.13-30.77-66.78-41.44-25.13-10.88-32.8-10.87-60-14-15.01-1.73-18.99-1.75-34 0-3.44.4-7.02 1-10.54 1.7"/><path stroke="#000" d="M192.35-143.64l7.52 1.58-4.1-2.33 3.42-.75h0l-3.42.75 2.75-3.83-6.17 4.58h0z"/><text x="267.5" y="-147.3" font-family="Lato" font-size="12">a &amp; !b</text></g><g class="edge"><path fill="none" stroke="#000" d="M382.23-93.05c-1.5-9.39 1.75-17.85 9.77-17.85 5.89 0 9.21 4.56 9.96 10.7"/><path stroke="#000" d="M401.77-93.05l3.33-6.92-3.24 3.42.1-3.5h0l-.1 3.5-3.05-3.58 2.96 7.08h0z"/><text x="376.5" y="-114.3" font-family="Lato" font-size="12">!a &amp; b</text></g><g class="edge"><path fill="none" stroke="#000" d="M370.96-74.9h-59.75"/><path stroke="#000" d="M304.13-74.9l7 3.15-3.5-3.15h3.5-3.5l3.5-3.15-7 3.15h0z"/><text x="323.5" y="-78.3" font-family="Lato" font-size="12">a &amp; b</text></g><g class="edge"><path fill="none" stroke="#000" d="M261.94-64.3c-17.8 8.78-44.82 20.56-69.94 25.4-35.61 6.86-77.59 3.34-104.49-.36"/><path stroke="#000" d="M80.34-40.3l6.48 4.12-3.01-3.62 3.46.51h0l-3.46-.51 3.91-2.61-7.38 2.11h0z"/><text x="154" y="-42.3" font-family="Lato" font-size="12">!a &amp; !b</text></g><g class="edge"><path fill="none" stroke="#000" d="M261.95-78.87c-15.1-3.62-35.88-9.95-51.95-20.03-6.75-4.23-13.16-9.9-18.74-15.6"/><path stroke="#000" d="M186.38-119.7l2.49 7.26-.09-4.71 2.39 2.56h0l-2.39-2.56 4.69.4-7.09-2.95h0z"/><text x="211.5" y="-102.3" font-family="Lato" font-size="12">a &amp; !b</text></g><g class="edge"><path fill="none" stroke="#000" d="M304.37-63.91c5.56 2.48 11.69 4.74 17.63 6.01 13.47 2.88 17.53 2.88 31 0 3.62-.77 7.31-1.92 10.9-3.25"/><path stroke="#000" d="M370.63-63.91l-7.67-.26 4.43 1.59-3.24 1.33h0l3.24-1.33-2.05 4.24 5.29-5.57h0z"/><text x="322" y="-61.3" font-family="Lato" font-size="12">!a &amp; b</text></g><g class="edge"><path fill="none" stroke="#000" d="M273.23-93.05c-1.5-9.39 1.75-17.85 9.77-17.85 5.89 0 9.21 4.56 9.96 10.7"/><path stroke="#000" d="M292.77-93.05l3.33-6.92-3.24 3.42.1-3.5h0l-.1 3.5-3.05-3.58 2.96 7.08h0z"/><text x="269" y="-114.3" font-family="Lato" font-size="12">a &amp; b</text></g></g></svg>