<?xml-stylesheet href="spot.css" type="text/css"?><svg width="299pt" height="146pt" viewBox="0 0 299 145.59" xmlns="http://www.w3.org/2000/svg"><g class="graph"><path fill="#fff" stroke="transparent" d="M0 145.59V0h299v145.59H0z"/><text x="118.5" y="-123.99" font-family="Lato" font-size="12" transform="translate(4 141.59)">[co-Büchi]</text><g class="node" transform="translate(4 141.59)"><circle fill="#ffffa0" stroke="#000" cx="60" cy="-52.59" r="18"/><circle fill="none" stroke="#000" cx="60" cy="-52.59" r="22"/><text text-anchor="middle" x="60" y="-49.49" font-family="Lato" font-size="12">0</text></g><g class="edge" transform="translate(4 141.59)"><path fill="none" stroke="#000" d="M1.17-52.59h29.54"/><path stroke="#000" d="M37.86-52.59l-7-3.15 3.5 3.15h-3.5 3.5l-3.5 3.15 7-3.15h0z"/></g><g class="node" transform="translate(4 141.59)"><circle fill="#ffffa0" stroke="#000" cx="273" cy="-42.59" r="18"/><text text-anchor="middle" x="273" y="-39.49" font-family="Lato" font-size="12">1</text></g><g class="edge" transform="translate(4 141.59)"><path fill="none" stroke="#000" d="M77.62-66.41c24.06-18.27 70.1-46.74 110.38-34.18 25.62 7.98 50.31 26.81 66.22 40.86"/><path stroke="#000" d="M259.67-54.79l-3.08-7.04.48 4.69-2.59-2.35h0l2.59 2.35-4.71-.02 7.31 2.37h0z"/><text x="153" y="-106.99" font-family="Lato" font-size="12">!a &amp; !b</text></g><g class="node" transform="translate(4 141.59)"><circle fill="#ffffa0" stroke="#000" cx="170" cy="-42.59" r="18"/><text text-anchor="middle" x="170" y="-39.49" font-family="Lato" font-size="12">2</text></g><g class="edge" transform="translate(4 141.59)"><path fill="none" stroke="#000" d="M82.14-52.07c14.6.51 34.45 1.52 51.86 3.48 3.58.4 7.36.94 11.05 1.52"/><path stroke="#000" d="M151.97-45.91l-6.39-4.27 2.93 3.69-3.45-.58h0l3.45.58-3.97 2.53 7.43-1.95h0z"/><text x="105.5" y="-53.99" font-family="Lato" font-size="12">a | b</text></g><g class="edge" transform="translate(4 141.59)"><path fill="none" stroke="#000" d="M257.56-33.25C241.38-23.38 214-8.46 188-2.59c-15.61 3.53-20.35 3.31-36 0-25.13-5.31-50.48-20.2-68.02-32.36"/><path stroke="#000" d="M77.89-39.28l3.88 6.62-1.03-4.6 2.85 2.03h0l-2.85-2.03 4.68-.53-7.53-1.49h0z"/><text x="165" y="-5.99" font-family="Lato" font-size="12">!b</text></g><g class="edge" transform="translate(4 141.59)"><path fill="none" stroke="#000" d="M264.37-58.51c-2.26-10.23.62-20.08 8.63-20.08 6.13 0 9.25 5.77 9.37 13.07"/><path stroke="#000" d="M281.63-58.51l3.87-6.63-3.5 3.15.37-3.48h0l-.37 3.48-2.77-3.81 2.4 7.29h0z"/><text x="269.5" y="-81.99" font-family="Lato" font-size="12">b</text></g><g class="edge" transform="translate(4 141.59)"><path fill="none" stroke="#000" d="M152.94-36.39c-14.09 4.58-35.06 9.31-52.94 4.8-5.02-1.27-10.1-3.32-14.86-5.66"/><path stroke="#000" d="M78.88-40.57l4.71 6.06-1.62-4.42 3.09 1.64h0l-3.09-1.64 4.57-1.14-7.66-.5h0z"/><text x="100" y="-34.99" font-family="Lato" font-size="12">!a &amp; !b</text></g><g class="edge" transform="translate(4 141.59)"><path fill="none" stroke="#000" d="M188.13-42.59h59.21"/><path stroke="#000" d="M254.78-42.59l-7-3.15 3.5 3.15h-3.5 3.5l-3.5 3.15 7-3.15h0z"/><text x="206" y="-45.99" font-family="Lato" font-size="12">!a &amp; b</text></g><g class="edge" transform="translate(4 141.59)"><path fill="none" stroke="#000" d="M161.37-58.51c-2.26-10.23.62-20.08 8.63-20.08 6.13 0 9.25 5.77 9.37 13.07"/><path stroke="#000" d="M178.63-58.51l3.87-6.63-3.5 3.15.37-3.48h0l-.37 3.48-2.77-3.81 2.4 7.29h0z"/><text x="166.5" y="-81.99" font-family="Lato" font-size="12">a</text></g></g></svg>