<?xml-stylesheet href="spot.css" type="text/css"?><svg width="384" height="208" viewBox="0 0 288 156" xmlns="http://www.w3.org/2000/svg"><g class="graph"><path fill="#fff" stroke="transparent" d="M0 156V0h288v156H0z"/><text x="71.5" y="-135.4" font-family="Lato" font-size="12" transform="translate(4 152)">Inf(</text><text x="88.5" y="-135.4" font-family="Lato" font-size="12" fill="#ff7f00" transform="translate(4 152)">❷</text><text x="101.5" y="-135.4" font-family="Lato" font-size="12" transform="translate(4 152)">) | (Fin(</text><text x="139.5" y="-135.4" font-family="Lato" font-size="12" fill="#ff4da0" transform="translate(4 152)">❶</text><text x="152.5" y="-135.4" font-family="Lato" font-size="12" transform="translate(4 152)">) &amp; Inf(</text><text x="187.5" y="-135.4" font-family="Lato" font-size="12" fill="#1f78b4" transform="translate(4 152)">⓿</text><text x="200.5" y="-135.4" font-family="Lato" font-size="12" transform="translate(4 152)">))</text><text x="89" y="-123.4" font-family="Lato" font-size="12" transform="translate(4 152)">[parity max even 3]</text><g class="node" transform="translate(4 152)"><path fill="#ffffa0" stroke="#000" d="M62-36H50c-6 0-12 6-12 12v12c0 6 6 12 12 12h12c6 0 12-6 12-12v-12c0-6-6-12-12-12"/><text text-anchor="middle" x="56" y="-14.9" font-family="Lato" font-size="12">0</text></g><g class="edge" transform="translate(4 152)"><path fill="none" stroke="#000" d="M1.15-18h29.48"/><path stroke="#000" d="M37.94-18l-7-3.15 3.5 3.15h-3.5 3.5l-3.5 3.15 7-3.15h0z"/></g><g class="edge" transform="translate(4 152)"><path fill="none" stroke="#000" d="M49.49-36.15C48.49-45.54 50.66-54 56-54c3.92 0 6.14 4.56 6.64 10.7"/><path stroke="#000" d="M62.51-36.15l3.28-6.95-3.22 3.45.07-3.5h0l-.07 3.5-3.08-3.56 3.02 7.06h0z"/><text x="51" y="-57.4" font-family="Lato" font-size="12">!a</text></g><g class="node" transform="translate(4 152)"><path fill="#ffffa0" stroke="#000" d="M165-85h-12c-6 0-12 6-12 12v12c0 6 6 12 12 12h12c6 0 12-6 12-12v-12c0-6-6-12-12-12"/><text text-anchor="middle" x="159" y="-63.9" font-family="Lato" font-size="12">1</text></g><g class="edge" transform="translate(4 152)"><path fill="none" stroke="#000" d="M74.13-26.31c16.54-8.03 41.73-20.25 60.19-29.2"/><path stroke="#000" d="M140.78-58.65l-7.67.22 4.52 1.31-3.15 1.53h0l3.15-1.53-1.77 4.36 4.92-5.89h0z"/><text x="92" y="-52.4" font-family="Lato" font-size="12">a &amp; !b</text></g><g class="node" transform="translate(4 152)"><path fill="#ffffa0" stroke="#000" d="M268-52h-12c-6 0-12 6-12 12v12c0 6 6 12 12 12h12c6 0 12-6 12-12v-12c0-6-6-12-12-12"/><text x="258.5" y="-37.4" font-family="Lato" font-size="12">2</text><text x="255.5" y="-24.4" font-family="Lato" font-size="12" fill="#1f78b4">⓿</text></g><g class="edge" transform="translate(4 152)"><path fill="none" stroke="#000" d="M74.09-19.24C97.37-20.93 140.35-24.1 177-27c20.11-1.59 42.93-3.5 59.7-4.92"/><path stroke="#000" d="M243.95-32.54l-7.24-2.54 3.75 2.84-3.48.3h0l3.48-.3-3.22 3.43 6.71-3.73h0z"/><text x="145" y="-30.4" font-family="Lato" font-size="12">a &amp; b</text></g><g class="edge" transform="translate(4 152)"><path fill="none" stroke="#000" d="M149.95-85.15C148.56-94.54 151.58-103 159-103c5.45 0 8.52 4.56 9.22 10.7"/><path stroke="#000" d="M168.05-85.15l3.32-6.92-3.24 3.42.09-3.5h0l-.09 3.5-3.06-3.58 2.98 7.08h0z"/><text x="154" y="-106.4" font-family="Lato" font-size="12">!b</text></g><g class="edge" transform="translate(4 152)"><path fill="none" stroke="#000" d="M177.19-69.6c13.71-1.35 33.15-1.61 48.81 4.6 4.88 1.93 9.52 4.87 13.74 8.17"/><path stroke="#000" d="M245.21-52.15l-3.27-6.94.61 4.66-2.66-2.27h0l2.66 2.27-4.71.12 7.37 2.16h0z"/><text x="207" y="-73.4" font-family="Lato" font-size="12">b</text></g><g class="edge" transform="translate(4 152)"><path fill="none" stroke="#000" d="M243.98-27.07C227.26-20.67 200.85-11.61 177-8c-32.97 4.99-71.44-.12-95.76-4.68"/><path stroke="#000" d="M74.17-14.07l6.27 4.44-2.83-3.77 3.43.68h0l-3.43-.68 4.04-2.41-7.48 1.74h0z"/><text x="146" y="-11.4" font-family="Lato" font-size="12">!a | b</text></g><g class="edge" transform="translate(4 152)"><path fill="none" stroke="#000" d="M243.8-36.26c-13.54-2.1-32.75-5.82-48.8-11.74-3.73-1.38-7.55-3.09-11.23-4.93"/><path stroke="#000" d="M177.34-56.31l4.73 6.05-1.63-4.42 3.1 1.63h0l-3.1-1.63 4.56-1.16-7.66-.47h0z"/><text x="195" y="-51.4" font-family="Lato" font-size="12">a &amp; !b</text></g></g></svg>