<?xml-stylesheet href="spot.css" type="text/css"?><svg width="324" height="157pt" viewBox="0 0 243 156.63" xmlns="http://www.w3.org/2000/svg"><g class="graph"><path fill="#fff" stroke="transparent" d="M0 156.63V0h243v156.63H0z"/><text x="49" y="-136.03" font-family="Lato" font-size="12" transform="translate(4 152.63)">Inf(</text><text x="66" y="-136.03" font-family="Lato" font-size="12" fill="#ff7f00" transform="translate(4 152.63)">❷</text><text x="79" y="-136.03" font-family="Lato" font-size="12" transform="translate(4 152.63)">) | (Fin(</text><text x="117" y="-136.03" font-family="Lato" font-size="12" fill="#ff4da0" transform="translate(4 152.63)">❶</text><text x="130" y="-136.03" font-family="Lato" font-size="12" transform="translate(4 152.63)">) &amp; Inf(</text><text x="165" y="-136.03" font-family="Lato" font-size="12" fill="#1f78b4" transform="translate(4 152.63)">⓿</text><text x="178" y="-136.03" font-family="Lato" font-size="12" transform="translate(4 152.63)">))</text><text x="66.5" y="-124.03" font-family="Lato" font-size="12" transform="translate(4 152.63)">[parity max even 3]</text><g class="node" transform="translate(4 152.63)"><path fill="#ffffa0" stroke="#000" d="M62-36.63H50c-6 0-12 6-12 12v12c0 6 6 12 12 12h12c6 0 12-6 12-12v-12c0-6-6-12-12-12"/><text x="52.5" y="-22.03" font-family="Lato" font-size="12">0</text><text x="49.5" y="-9.03" font-family="Lato" font-size="12" fill="#ff7f00">❷</text></g><g class="edge" transform="translate(4 152.63)"><path fill="none" stroke="#000" d="M1.15-18.63h29.48"/><path stroke="#000" d="M37.94-18.63l-7-3.15 3.5 3.15h-3.5 3.5l-3.5 3.15 7-3.15h0z"/></g><g class="node" transform="translate(4 152.63)"><path fill="#ffffa0" stroke="#000" d="M144-85.63h-12c-6 0-12 6-12 12v12c0 6 6 12 12 12h12c6 0 12-6 12-12v-12c0-6-6-12-12-12"/><text x="134.5" y="-71.03" font-family="Lato" font-size="12">1</text><text x="131.5" y="-58.03" font-family="Lato" font-size="12" fill="#ff4da0">❶</text></g><g class="edge" transform="translate(4 152.63)"><path fill="none" stroke="#000" d="M74.36-29.26c11.5-7.05 26.74-16.37 39.3-24.07"/><path stroke="#000" d="M119.95-57.18l-7.61.97 4.63.85-2.99 1.83h0l2.99-1.83-1.34 4.52 4.32-6.34h0z"/><text x="92" y="-49.03" font-family="Lato" font-size="12">!b</text></g><g class="node" transform="translate(4 152.63)"><path fill="#ffffa0" stroke="#000" d="M223-36.63h-12c-6 0-12 6-12 12v12c0 6 6 12 12 12h12c6 0 12-6 12-12v-12c0-6-6-12-12-12"/><text x="213.5" y="-22.03" font-family="Lato" font-size="12">2</text><text x="210.5" y="-9.03" font-family="Lato" font-size="12" fill="#ff4da0">❶</text></g><g class="edge" transform="translate(4 152.63)"><path fill="none" stroke="#000" d="M74.02-18.63h117.25"/><path stroke="#000" d="M198.62-18.63l-7-3.15 3.5 3.15h-3.5 3.5l-3.5 3.15 7-3.15h0z"/><text x="134.5" y="-22.03" font-family="Lato" font-size="12">b</text></g><g class="edge" transform="translate(4 152.63)"><path fill="none" stroke="#000" d="M131.13-85.78c-1.06-9.39 1.23-17.85 6.87-17.85 4.14 0 6.48 4.57 7.01 10.71"/><path stroke="#000" d="M144.87-85.78l3.29-6.94-3.22 3.44.07-3.5h0l-.07 3.5-3.08-3.56 3.01 7.06h0z"/><text x="133" y="-107.03" font-family="Lato" font-size="12">!b</text></g><g class="edge" transform="translate(4 152.63)"><path fill="none" stroke="#000" d="M156.09-56.75l36.92 23.49"/><path stroke="#000" d="M198.96-29.47l-4.22-6.42 1.27 4.54-2.96-1.88h0l2.96 1.88-4.65.78 7.6 1.1h0z"/><text x="174" y="-47.03" font-family="Lato" font-size="12">b</text></g><g class="edge" transform="translate(4 152.63)"><path fill="none" stroke="#000" d="M198.94-12.43C187.08-8.46 170.8-3.68 156-1.63c-15.85 2.21-20.14 2.11-36 0-13.11-1.73-27.37-5.42-39-8.92"/><path stroke="#000" d="M74.13-12.69l5.75 5.09-2.41-4.05 3.35 1.04h0l-3.35-1.04 4.28-1.97-7.62.93h0z"/><text x="134.5" y="-5.03" font-family="Lato" font-size="12">a</text></g><g class="edge" transform="translate(4 152.63)"><path fill="none" stroke="#000" d="M210.13-36.78c-1.06-9.39 1.23-17.85 6.87-17.85 4.14 0 6.48 4.57 7.01 10.71"/><path stroke="#000" d="M223.87-36.78l3.29-6.94-3.22 3.44.07-3.5h0l-.07 3.5-3.08-3.56 3.01 7.06h0z"/><text x="212" y="-58.03" font-family="Lato" font-size="12">!a</text></g></g></svg>