<?xml-stylesheet href="spot.css" type="text/css"?><svg width="296pt" height="143pt" viewBox="0 0 296 143" xmlns="http://www.w3.org/2000/svg"><g class="graph" transform="translate(4 139)"><path fill="#fff" stroke="transparent" d="M-4 4v-143h296V4H-4z"/><text x="125.5" y="-121.4" font-family="Lato" font-size="12">[Büchi]</text><g class="node"><circle fill="#ffffa0" stroke="#000" cx="56" cy="-61" r="18"/><text text-anchor="middle" x="56" y="-57.9" font-family="Lato" font-size="12">2</text></g><g class="edge"><path fill="none" stroke="#000" d="M1.15-61h29.48"/><path stroke="#000" d="M37.94-61l-7-3.15 3.5 3.15h-3.5 3.5l-3.5 3.15 7-3.15h0z"/></g><g class="edge"><path fill="none" stroke="#e31a1c" stroke-width="2" d="M49.62-78.04C48.32-87.86 50.45-97 56-97c4.17 0 6.4 5.14 6.71 11.86"/><path fill="#e31a1c" stroke="#e31a1c" stroke-width="2" d="M62.38-78.04l3.47-6.84-2.81 3.37.17-3.5-.5-.02-.5-.02-.17 3.49-2.48-3.62 2.82 7.14h0z"/><text x="40.5" y="-100.4" font-family="Lato" font-size="12">a &amp; !c</text></g><g class="node"><circle fill="#ffffa0" stroke="#000" cx="266" cy="-61" r="18"/><circle fill="none" stroke="#000" cx="266" cy="-61" r="22"/><text text-anchor="middle" x="266" y="-57.9" font-family="Lato" font-size="12">0</text></g><g class="edge"><path fill="none" stroke="#e31a1c" stroke-width="2" d="M73.86-65.15C100.77-71.24 155.06-81.31 201-76c12.18 1.41 25.41 4.28 36.67 7.13"/><path fill="#e31a1c" stroke="#e31a1c" stroke-width="2" d="M244.75-67.01l-5.97-4.82 2.71 3.45-3.39-.89-.12.48-.13.49 3.38.89-4.05 1.67 7.57-1.27h0z"/><text x="179.5" y="-80.4" font-family="Lato" font-size="12">c</text></g><g class="node"><circle fill="#ffffa0" stroke="#000" cx="183" cy="-18" r="18"/><text x="179.5" y="-14.9" font-family="Lato" font-size="12">1</text></g><g class="edge"><path fill="none" stroke="#33a02c" stroke-width="2" d="M73.34-55.38c21.81 7.5 60.54 20.83 85.39 29.38"/><path fill="#33a02c" stroke="#33a02c" stroke-width="2" d="M165.65-23.62l-5.59-5.26 2.45 3.65-3.31-1.14-.16.47-.17.47 3.31 1.14-4.17 1.37 7.64-.7h0z"/><text x="92" y="-51.4" font-family="Lato" font-size="12">!a &amp; b &amp; !c</text></g><g class="edge"><path fill="none" stroke="#33a02c" stroke-width="2" d="M258.32-81.99c-.95-10.1 1.61-19.01 7.68-19.01 4.55 0 7.13 5.01 7.74 11.78"/><path fill="#33a02c" stroke="#33a02c" stroke-width="2" d="M273.68-81.99l3.2-6.98-2.67 3.48.02-3.5h-1l-.02 3.5-2.63-3.52 3.1 7.02h0z"/><text x="262.5" y="-104.4" font-family="Lato" font-size="12">1</text></g><g class="edge"><path fill="none" stroke="#33a02c" stroke-width="2" d="M199.24-26.09c11.42-6.06 27.3-14.49 40.6-21.55"/><path fill="#33a02c" stroke="#33a02c" stroke-width="2" d="M246.13-50.98l-7.66.5 4.33.7-3.09 1.64.23.44.24.44 3.09-1.64-1.85 3.98 4.71-6.06h0z"/><text x="219" y="-42.4" font-family="Lato" font-size="12">c</text></g><g class="edge"><path fill="none" stroke="#000" d="M176.27-35.04C174.89-44.86 177.14-54 183-54c4.4 0 6.76 5.14 7.09 11.86"/><path stroke="#000" d="M189.73-35.04l3.5-6.83-3.32 3.34.17-3.5h0l-.17 3.5-2.98-3.65 2.8 7.14h0z"/><text x="167.5" y="-57.4" font-family="Lato" font-size="12">b &amp; !c</text></g></g></svg>