<?xml-stylesheet href="spot.css" type="text/css"?><svg width="185pt" height="163pt" viewBox="0 0 185 163.33" xmlns="http://www.w3.org/2000/svg"><g class="graph"><path fill="#fff" stroke="transparent" d="M0 163.33V0h185v163.33H0z"/><text x="71.5" y="-142.73" font-family="Lato" font-size="12" transform="translate(4 159.33)">Inf(</text><text x="88.5" y="-142.73" font-family="Lato" font-size="12" fill="#1f78b4" transform="translate(4 159.33)">⓿</text><text x="101.5" y="-142.73" font-family="Lato" font-size="12" transform="translate(4 159.33)">)</text><text x="70" y="-130.73" font-family="Lato" font-size="12" transform="translate(4 159.33)">[Büchi]</text><g class="node" transform="translate(4 159.33)"><circle fill="#ffffa0" stroke="#000" cx="56" cy="-30.33" r="18"/><text text-anchor="middle" x="56" y="-27.23" font-family="Lato" font-size="12">0</text></g><g class="edge" transform="translate(4 159.33)"><path fill="none" stroke="#000" d="M1.15-30.33h29.48"/><path stroke="#000" d="M37.94-30.33l-7-3.15 3.5 3.15h-3.5 3.5l-3.5 3.15 7-3.15h0z"/></g><g class="edge" transform="translate(4 159.33)"><path fill="none" stroke="#000" d="M49.62-47.37c-1.3-9.82.83-18.96 6.38-18.96 4.17 0 6.4 5.14 6.71 11.85"/><path stroke="#000" d="M62.38-47.37l3.47-6.85-3.31 3.35.17-3.49h0l-.17 3.49-2.98-3.64 2.82 7.14h0z"/><text x="51" y="-69.73" font-family="Lato" font-size="12">!a</text></g><g class="node" transform="translate(4 159.33)"><circle fill="#ffffa0" stroke="#000" cx="159" cy="-30.33" r="18"/><text text-anchor="middle" x="159" y="-27.23" font-family="Lato" font-size="12">1</text></g><g class="edge" transform="translate(4 159.33)"><path fill="none" stroke="#000" d="M74.07-32.09c5.7-.51 12.08-.99 17.93-1.24 13.77-.59 17.23-.59 31 0 3.47.14 7.13.38 10.73.65"/><path stroke="#000" d="M140.93-32.09l-6.72-3.72 3.23 3.43-3.49-.29h0l3.49.29-3.75 2.85 7.24-2.56h0z"/><text x="104" y="-49.73" font-family="Lato" font-size="12">a</text><text x="101" y="-36.73" font-family="Lato" font-size="12" fill="#1f78b4">⓿</text></g><g class="edge" transform="translate(4 159.33)"><path fill="none" stroke="#000" d="M145.93-17.8C139.68-12.22 131.57-6.26 123-3.33c-13.04 4.44-17.96 4.44-31 0-6.16-2.1-12.08-5.78-17.24-9.75"/><path stroke="#000" d="M69.07-17.8l3.37 6.89-.67-4.65 2.69 2.23h0l-2.69-2.23 4.7-.19-7.4-2.05h0z"/><text x="92" y="-19.73" font-family="Lato" font-size="12">!a &amp; b</text><text x="101" y="-6.73" font-family="Lato" font-size="12" fill="#1f78b4">⓿</text></g><g class="edge" transform="translate(4 159.33)"><path fill="none" stroke="#000" d="M154.51-48.12c-.77-9.53.73-18.21 4.49-18.21 2.76 0 4.3 4.68 4.62 10.94"/><path stroke="#000" d="M163.49-48.12l3.28-6.94-3.21 3.44.06-3.49h0l-.06 3.49-3.09-3.55 3.02 7.05h0z"/><text x="154" y="-69.73" font-family="Lato" font-size="12">!b</text></g><g class="edge" transform="translate(4 159.33)"><path fill="none" stroke="#000" d="M151.82-46.92c-4.49-17.58-2.1-37.41 7.18-37.41 8.05 0 10.91 14.91 8.6 30.34"/><path stroke="#000" d="M166.18-46.92l4.47-6.24-3.78 2.81.69-3.43h0l-.69 3.43-2.4-4.05 1.71 7.48h0z"/><text x="145" y="-100.73" font-family="Lato" font-size="12">a &amp; b</text><text x="152.5" y="-87.73" font-family="Lato" font-size="12" fill="#1f78b4">⓿</text></g></g></svg>