<?xml-stylesheet href="spot.css" type="text/css"?><svg width="164pt" height="107pt" viewBox="0 0 164 107" xmlns="http://www.w3.org/2000/svg"><g class="graph"><path fill="#fff" stroke="transparent" d="M0 107V0h164v107H0z"/><text x="38" y="-86.4" font-family="Lato" font-size="12" transform="translate(4 103)">Fin(</text><text x="60" y="-86.4" font-family="Lato" font-size="12" fill="#1f78b4" transform="translate(4 103)">⓿</text><text x="73" y="-86.4" font-family="Lato" font-size="12" transform="translate(4 103)">)|Fin(</text><text x="101" y="-86.4" font-family="Lato" font-size="12" fill="#ff4da0" transform="translate(4 103)">❶</text><text x="114" y="-86.4" font-family="Lato" font-size="12" transform="translate(4 103)">)</text><text x="32.5" y="-74.4" font-family="Lato" font-size="12" transform="translate(4 103)">[gen. co-Büchi 2]</text><g class="node" transform="translate(4 103)"><path fill="#ffffa0" stroke="#000" d="M62-36H50c-6 0-12 6-12 12v12c0 6 6 12 12 12h12c6 0 12-6 12-12v-12c0-6-6-12-12-12"/><text x="52.5" y="-21.4" font-family="Lato" font-size="12">0</text><text x="49.5" y="-8.4" font-family="Lato" font-size="12" fill="#1f78b4">⓿</text></g><g class="edge" transform="translate(4 103)"><path fill="none" stroke="#000" d="M1.15-18h29.48"/><path stroke="#000" d="M37.94-18l-7-3.15 3.5 3.15h-3.5 3.5l-3.5 3.15 7-3.15h0z"/></g><g class="edge" transform="translate(4 103)"><path fill="none" stroke="#000" d="M49.49-36.15C48.49-45.54 50.66-54 56-54c3.92 0 6.14 4.56 6.64 10.7"/><path stroke="#000" d="M62.51-36.15l3.28-6.95-3.22 3.45.07-3.5h0l-.07 3.5-3.08-3.56 3.02 7.06h0z"/><text x="52.5" y="-57.4" font-family="Lato" font-size="12">a</text></g><g class="node" transform="translate(4 103)"><path fill="#ffffa0" stroke="#000" d="M144-36h-12c-6 0-12 6-12 12v12c0 6 6 12 12 12h12c6 0 12-6 12-12v-12c0-6-6-12-12-12"/><text x="134.5" y="-21.4" font-family="Lato" font-size="12">1</text><text x="131.5" y="-8.4" font-family="Lato" font-size="12" fill="#ff4da0">❶</text></g><g class="edge" transform="translate(4 103)"><path fill="none" stroke="#000" d="M74.36-18h38.25"/><path stroke="#000" d="M119.95-18l-7-3.15 3.5 3.15h-3.5 3.5l-3.5 3.15 7-3.15h0z"/><text x="92" y="-21.4" font-family="Lato" font-size="12">!a</text></g><g class="edge" transform="translate(4 103)"><path fill="none" stroke="#000" d="M119.77-7.72C114.28-4.98 108.06-2.39 102-1 94.92.63 87.45-.81 80.68-3.43"/><path stroke="#000" d="M74.18-6.36l5.09 5.75-1.9-4.31 3.19 1.44h0l-3.19-1.44 4.49-1.43-7.68-.01h0z"/><text x="92" y="-4.4" font-family="Lato" font-size="12">!b</text></g><g class="edge" transform="translate(4 103)"><path fill="none" stroke="#000" d="M130.76-36.15C129.65-45.54 132.06-54 138-54c4.36 0 6.82 4.56 7.38 10.7"/><path stroke="#000" d="M145.24-36.15l3.28-6.94-3.21 3.44.06-3.5h0l-.06 3.5-3.08-3.56 3.01 7.06h0z"/><text x="134.5" y="-57.4" font-family="Lato" font-size="12">b</text></g></g></svg>