<?xml-stylesheet href="spot.css" type="text/css"?><svg width="236" height="76pt" viewBox="0 0 177 75.72" xmlns="http://www.w3.org/2000/svg"><g class="graph"><path fill="#fff" stroke="transparent" d="M0 75.72V0h177v75.72H0z"/><g class="node" transform="translate(4 71.72)"><circle fill="#ffffa0" stroke="#000" cx="56" cy="-18.72" r="18"/><text text-anchor="middle" x="56" y="-15.62" font-family="Lato" font-size="12">0</text></g><g class="edge" transform="translate(4 71.72)"><path fill="none" stroke="#000" d="M1.15-18.72h29.48"/><path stroke="#000" d="M37.94-18.72l-7-3.15 3.5 3.15h-3.5 3.5l-3.5 3.15 7-3.15h0z"/></g><g class="edge" transform="translate(4 71.72)"><path fill="none" stroke="#000" d="M49.62-35.76c-1.3-9.82.83-18.96 6.38-18.96 4.17 0 6.4 5.14 6.71 11.86"/><path stroke="#000" d="M62.38-35.76l3.47-6.84-3.31 3.35.17-3.5h0l-.17 3.5-2.98-3.65 2.82 7.14h0z"/><text x="51" y="-58.12" font-family="Lato" font-size="12">!b</text></g><g class="node" transform="translate(4 71.72)"><circle fill="#ffffa0" stroke="#000" cx="151" cy="-18.72" r="18"/><text text-anchor="middle" x="151" y="-15.62" font-family="Lato" font-size="12">1</text></g><g class="edge" transform="translate(4 71.72)"><path fill="none" stroke="#000" d="M74.06-18.72h51.59"/><path stroke="#000" d="M132.74-18.72l-7-3.15 3.5 3.15h-3.5 3.5l-3.5 3.15 7-3.15h0z"/><text x="100" y="-22.12" font-family="Lato" font-size="12">b</text></g><g class="edge" transform="translate(4 71.72)"><path fill="none" stroke="#000" d="M135.22-9.7c-6.04 3.19-13.24 6.38-20.22 7.98-9.96 2.29-13.04 2.29-23 0-4.58-1.05-9.25-2.79-13.64-4.76"/><path stroke="#000" d="M71.78-9.7l4.9 5.91-1.76-4.37 3.15 1.54h0l-3.15-1.54 4.53-1.29-7.67-.25h0z"/><text x="92" y="-5.12" font-family="Lato" font-size="12">a | b</text></g><g class="edge" transform="translate(4 71.72)"><path fill="none" stroke="#000" d="M142.98-35.01c-1.93-10.1.74-19.71 8.02-19.71 5.46 0 8.33 5.41 8.6 12.37"/><path stroke="#000" d="M159.02-35.01l3.69-6.73-3.41 3.24.27-3.49h0l-.27 3.49-2.87-3.74 2.59 7.23h0z"/><text x="134" y="-58.12" font-family="Lato" font-size="12">!a &amp; !b</text></g></g></svg>