<?xml-stylesheet href="spot.css" type="text/css"?><svg width="236" height="73pt" viewBox="0 0 177 73" xmlns="http://www.w3.org/2000/svg"><g class="graph" transform="translate(4 69)"><path fill="#fff" stroke="transparent" d="M-4 4v-73h177V4H-4z"/><text x="66" y="-51.4" font-family="Lato" font-size="12">[Büchi]</text><g class="node"><circle fill="#ffffa0" stroke="#000" cx="60" cy="-22" r="18"/><circle fill="none" stroke="#000" cx="60" cy="-22" r="22"/><text text-anchor="middle" x="60" y="-18.9" font-family="Lato" font-size="12">0</text></g><g class="edge"><path fill="none" stroke="#000" d="M1.17-22h29.54"/><path stroke="#000" d="M37.86-22l-7-3.15 3.5 3.15h-3.5 3.5l-3.5 3.15 7-3.15h0z"/></g><g class="node"><circle fill="#ffffa0" stroke="#000" cx="147" cy="-22" r="18"/><circle fill="none" stroke="#000" cx="147" cy="-22" r="22"/><text text-anchor="middle" x="147" y="-18.9" font-family="Lato" font-size="12">1</text></g><g class="edge"><path fill="none" stroke="#000" d="M82.01-22h35.89"/><path stroke="#000" d="M124.94-22l-7-3.15 3.5 3.15h-3.5 3.5l-3.5 3.15 7-3.15h0z"/><text text-anchor="middle" x="103.5" y="-25.4" font-family="Lato" font-size="12">1</text></g><g class="edge"><path fill="none" stroke="#000" d="M128.01-10.28C119.66-6.17 109.5-3.02 100-5c-4.46-.93-9.04-2.4-13.41-4.09"/><path stroke="#000" d="M79.92-11.9l5.23 5.62-2-4.26 3.22 1.36h0l-3.22-1.36 4.45-1.55-7.68.19h0z"/><text x="100" y="-8.4" font-family="Lato" font-size="12">a</text></g></g></svg>