<?xml-stylesheet href="spot.css" type="text/css"?><svg width="380" height="208" viewBox="0 0 285 156" xmlns="http://www.w3.org/2000/svg"><g class="graph" transform="translate(4 152)"><path fill="#fff" stroke="transparent" d="M-4 4v-156h285V4H-4z"/><text x="121.5" y="-135.4" font-family="Lato" font-size="12">Inf(</text><text x="138.5" y="-135.4" font-family="Lato" font-size="12" fill="#1f78b4">⓿</text><text x="151.5" y="-135.4" font-family="Lato" font-size="12">)</text><text x="120" y="-123.4" font-family="Lato" font-size="12">[Büchi]</text><g class="node"><path fill="#ffffa0" stroke="#000" d="M62-52H50c-6 0-12 6-12 12v12c0 6 6 12 12 12h12c6 0 12-6 12-12v-12c0-6-6-12-12-12"/><text x="52.5" y="-37.4" font-family="Lato" font-size="12">0</text><text x="49.5" y="-24.4" font-family="Lato" font-size="12" fill="#1f78b4">⓿</text></g><g class="edge"><path fill="none" stroke="#000" d="M1.15-34h29.48"/><path stroke="#000" d="M37.94-34l-7-3.15 3.5 3.15h-3.5 3.5l-3.5 3.15 7-3.15h0z"/></g><g class="edge"><path fill="none" stroke="#000" d="M49.49-52.15C48.49-61.54 50.66-70 56-70c3.92 0 6.14 4.56 6.64 10.7"/><path stroke="#000" d="M62.51-52.15l3.28-6.95-3.22 3.45.07-3.5h0l-.07 3.5-3.08-3.56 3.02 7.06h0z"/><text x="42" y="-73.4" font-family="Lato" font-size="12">a &amp; b</text></g><g class="node"><path fill="#ffffa0" stroke="#000" d="M162-85h-12c-6 0-12 6-12 12v12c0 6 6 12 12 12h12c6 0 12-6 12-12v-12c0-6-6-12-12-12"/><text text-anchor="middle" x="156" y="-63.9" font-family="Lato" font-size="12">1</text></g><g class="edge"><path fill="none" stroke="#000" d="M72.79-52.14C78.31-57.25 84.91-62.18 92-65c12.13-4.82 26.63-5.58 38.66-5.02"/><path stroke="#000" d="M137.78-69.53l-6.76-3.63 3.27 3.39-3.49-.24h0l3.49.24-3.71 2.9 7.2-2.66h0z"/><text x="101" y="-73.4" font-family="Lato" font-size="12">!b</text></g><g class="node"><path fill="#ffffa0" stroke="#000" d="M265-36h-12c-6 0-12 6-12 12v12c0 6 6 12 12 12h12c6 0 12-6 12-12v-12c0-6-6-12-12-12"/><text text-anchor="middle" x="259" y="-14.9" font-family="Lato" font-size="12">2</text></g><g class="edge"><path fill="none" stroke="#000" d="M74.06-32.47C90.45-31.01 115.91-28.78 138-27c33.21 2.68 71.62 5.51 95.86 7.27"/><path stroke="#000" d="M240.91-19.22l-6.76-3.65 3.26 3.4-3.49-.26h0l3.49.26-3.71 2.89 7.21-2.64h0z"/><text x="140.5" y="-30.4" font-family="Lato" font-size="12">!a &amp; b</text></g><g class="edge"><path fill="none" stroke="#000" d="M137.65-56.34c-5.5 3.03-11.69 6.11-17.65 8.34-12.43 4.65-26.84 7.99-38.74 10.24"/><path stroke="#000" d="M74.22-36.49l7.44 1.86-4-2.48 3.45-.62h0l-3.45.62 2.89-3.72-6.33 4.34h0z"/><text x="92" y="-51.4" font-family="Lato" font-size="12">a &amp; b</text></g><g class="edge"><path fill="none" stroke="#000" d="M146.95-85.15C145.56-94.54 148.58-103 156-103c5.45 0 8.52 4.56 9.22 10.7"/><path stroke="#000" d="M165.05-85.15l3.32-6.92-3.24 3.42.09-3.5h0l-.09 3.5-3.06-3.58 2.98 7.08h0z"/><text x="151" y="-106.4" font-family="Lato" font-size="12">!b</text></g><g class="edge"><path fill="none" stroke="#000" d="M174.13-58.69c16.54 8.03 41.73 20.25 60.19 29.2"/><path stroke="#000" d="M240.78-26.35l-4.92-5.89 1.77 4.36-3.15-1.53h0l3.15 1.53-4.52 1.31 7.67.22h0z"/><text x="192" y="-52.4" font-family="Lato" font-size="12">!a &amp; b</text></g><g class="edge"><path fill="none" stroke="#000" d="M240.82-13.72C217.43-8.51 174.34-1.1 138-7c-19.67-3.19-41.01-10.48-56.85-16.67"/><path stroke="#000" d="M74.29-26.43l5.32 5.53-2.08-4.22 3.25 1.3h0l-3.25-1.3 4.42-1.62-7.66.31h0z"/><text x="152.5" y="-10.4" font-family="Lato" font-size="12">a</text></g><g class="edge"><path fill="none" stroke="#000" d="M249.95-36.15C248.56-45.54 251.58-54 259-54c5.45 0 8.52 4.56 9.22 10.7"/><path stroke="#000" d="M268.05-36.15l3.32-6.92-3.24 3.42.09-3.5h0l-.09 3.5-3.06-3.58 2.98 7.08h0z"/><text x="254" y="-57.4" font-family="Lato" font-size="12">!a</text></g></g></svg>