<?xml-stylesheet href="spot.css" type="text/css"?><svg width="409pt" height="344" viewBox="0 0 409 257.51" xmlns="http://www.w3.org/2000/svg"><g class="graph" transform="translate(4 253.51)"><path fill="#fff" stroke="transparent" d="M-4 4v-257.51h409V4H-4z"/><text x="102" y="-236.91" font-family="Lato" font-size="12">(Fin(</text><text x="127" y="-236.91" font-family="Lato" font-size="12" fill="#1f78b4">⓿</text><text x="140" y="-236.91" font-family="Lato" font-size="12">) &amp; Inf(</text><text x="175" y="-236.91" font-family="Lato" font-size="12" fill="#ff4da0">❶</text><text x="188" y="-236.91" font-family="Lato" font-size="12">)) | (Fin(</text><text x="230" y="-236.91" font-family="Lato" font-size="12" fill="#ff7f00">❷</text><text x="243" y="-236.91" font-family="Lato" font-size="12">) &amp; Inf(</text><text x="278" y="-236.91" font-family="Lato" font-size="12" fill="#6a3d9a">❸</text><text x="291" y="-236.91" font-family="Lato" font-size="12">))</text><text x="176.5" y="-224.91" font-family="Lato" font-size="12">[Rabin 2]</text><g class="node"><path fill="#ffffa0" stroke="#000" d="M62-62.51H50c-6 0-12 6-12 12v12c0 6 6 12 12 12h12c6 0 12-6 12-12v-12c0-6-6-12-12-12"/><text x="52.5" y="-47.91" font-family="Lato" font-size="12">0</text><text x="49.5" y="-34.91" font-family="Lato" font-size="12" fill="#ff7f00">❷</text></g><g class="edge"><path fill="none" stroke="#000" d="M1.15-44.51h29.48"/><path stroke="#000" d="M37.94-44.51l-7-3.15 3.5 3.15h-3.5 3.5l-3.5 3.15 7-3.15h0z"/></g><g class="edge"><path fill="none" stroke="#000" d="M49.49-62.66c-1-9.39 1.17-17.85 6.51-17.85 3.92 0 6.14 4.56 6.64 10.7"/><path stroke="#000" d="M62.51-62.66l3.28-6.95-3.22 3.45.07-3.5h0l-.07 3.5-3.08-3.56 3.02 7.06h0z"/><text x="39" y="-83.91" font-family="Lato" font-size="12">!a &amp; !b</text></g><g class="node"><path fill="#ffffa0" stroke="#000" d="M174-156.51h-18c-6 0-12 6-12 12v12c0 6 6 12 12 12h18c6 0 12-6 12-12v-12c0-6-6-12-12-12"/><text x="161.5" y="-141.91" font-family="Lato" font-size="12">1</text><text x="152" y="-129.91" font-family="Lato" font-size="12" fill="#ff4da0">❶</text><text x="165" y="-129.91" font-family="Lato" font-size="12" fill="#ff7f00">❷</text></g><g class="edge"><path fill="none" stroke="#000" d="M61.4-62.75c4.85-16.32 14.23-39.76 30.6-53.76 12.55-10.73 30.25-16.23 44.95-19.05"/><path stroke="#000" d="M143.9-136.73l-7.43-1.94 3.98 2.52-3.45.59h0l3.45-.59-2.93 3.69 6.38-4.27h0z"/><text x="93.5" y="-135.91" font-family="Lato" font-size="12">a &amp; !b</text></g><g class="node"><path fill="#ffffa0" stroke="#000" d="M389-93.51h-12c-6 0-12 6-12 12v12c0 6 6 12 12 12h12c6 0 12-6 12-12v-12c0-6-6-12-12-12"/><text x="379.5" y="-78.91" font-family="Lato" font-size="12">2</text><text x="376.5" y="-65.91" font-family="Lato" font-size="12" fill="#6a3d9a">❸</text></g><g class="edge"><path fill="none" stroke="#000" d="M74.13-36.94c5.59 2.14 11.9 4.22 17.87 5.43 63.63 12.9 81.49 12.3 146 5 49.39-5.59 63.48-5.04 109-25 4.07-1.79 8.17-4.07 12.06-6.51"/><path stroke="#000" d="M364.95-61.93l-7.57 1.25 4.66.68-2.92 1.94h0l2.92-1.94-1.17 4.56 4.08-6.49h0z"/><text x="205.5" y="-29.91" font-family="Lato" font-size="12">!a &amp; b</text></g><g class="node"><path fill="#ffffa0" stroke="#000" d="M286-93.51h-18c-6 0-12 6-12 12v12c0 6 6 12 12 12h18c6 0 12-6 12-12v-12c0-6-6-12-12-12"/><text x="273.5" y="-78.91" font-family="Lato" font-size="12">3</text><text x="264" y="-66.91" font-family="Lato" font-size="12" fill="#ff4da0">❶</text><text x="277" y="-66.91" font-family="Lato" font-size="12" fill="#6a3d9a">❸</text></g><g class="edge"><path fill="none" stroke="#000" d="M74.18-46.94c37.91-5.37 128.93-18.25 174.65-24.73"/><path stroke="#000" d="M255.77-72.65l-7.38-2.14 3.91 2.63-3.47.49h0l3.47-.49-3.02 3.61 6.49-4.1h0z"/><text x="151" y="-65.91" font-family="Lato" font-size="12">a &amp; b</text></g><g class="edge"><path fill="none" stroke="#000" d="M148.34-120.31c-6.51 6.97-14.39 14.7-22.34 20.8-13.74 10.53-20.27 8.46-34 19-4.87 3.74-9.71 8.14-14.17 12.57"/><path stroke="#000" d="M72.8-62.78l7.14-2.81-4.7.3 2.44-2.5h0l-2.44 2.5.19-4.7-2.63 7.21h0z"/><text x="92" y="-102.91" font-family="Lato" font-size="12">!a &amp; !b</text></g><g class="edge"><path fill="none" stroke="#000" d="M154.87-156.66c-1.56-9.39 1.82-17.85 10.13-17.85 6.1 0 9.55 4.56 10.33 10.7"/><path stroke="#000" d="M175.13-156.66l3.34-6.92-3.24 3.42.09-3.5h0l-.09 3.5-3.05-3.59 2.95 7.09h0z"/><text x="149.5" y="-177.91" font-family="Lato" font-size="12">a &amp; !b</text></g><g class="edge"><path fill="none" stroke="#000" d="M177.44-156.73c6.6-8.82 15.74-18.6 26.56-23.78 57.33-27.45 92.6-38.72 143 0 24.3 18.67 31.91 54.83 34.19 79.45"/><path stroke="#000" d="M381.74-93.83l2.61-7.22-2.88 3.73-.26-3.49h0l.26 3.49-3.4-3.25 3.67 6.74h0z"/><text x="261.5" y="-207.91" font-family="Lato" font-size="12">!a &amp; b</text></g><g class="edge"><path fill="none" stroke="#000" d="M186.13-135.3c15.14 3.08 35.92 8.79 51.87 18.79 7.45 4.67 14.39 11.17 20.24 17.62"/><path stroke="#000" d="M262.89-93.52l-2.2-7.35-.09 4.7-2.29-2.64h0l2.29 2.64-4.67-.58 6.96 3.23h0z"/><text x="207" y="-133.91" font-family="Lato" font-size="12">a &amp; b</text></g><g class="edge"><path fill="none" stroke="#000" d="M369.87-57.4c-6.04 7.75-13.96 16.3-22.87 21.89-42.56 26.7-59.21 23.27-109 30-64.64 8.73-85.12 8.41-146-15-3.96-1.53-7.92-3.58-11.67-5.85"/><path stroke="#000" d="M74.26-30.33l4.14 6.47-1.21-4.55 2.93 1.91h0l-2.93-1.91 4.65-.73-7.58-1.19h0z"/><text x="204" y="-8.91" font-family="Lato" font-size="12">!a &amp; !b</text></g><g class="edge"><path fill="none" stroke="#000" d="M364.82-90.28c-16.21-13.2-41.7-32.11-66.82-43.23-38.62-17.1-52.05-18.9-94-14-3.44.4-7.02 1-10.54 1.7"/><path stroke="#000" d="M186.35-144.25l7.52 1.58-4.1-2.33 3.42-.75h0l-3.42.75 2.75-3.83-6.17 4.58h0z"/><text x="261.5" y="-150.91" font-family="Lato" font-size="12">a &amp; !b</text></g><g class="edge"><path fill="none" stroke="#000" d="M373.95-93.66c-1.39-9.39 1.63-17.85 9.05-17.85 5.45 0 8.52 4.56 9.22 10.7"/><path stroke="#000" d="M392.05-93.66l3.32-6.93-3.24 3.43.09-3.5h0l-.09 3.5-3.06-3.58 2.98 7.08h0z"/><text x="367.5" y="-114.91" font-family="Lato" font-size="12">!a &amp; b</text></g><g class="edge"><path fill="none" stroke="#000" d="M364.77-75.51h-59.55"/><path stroke="#000" d="M298.05-75.51l7 3.15-3.5-3.15h3.5-3.5l3.5-3.15-7 3.15h0z"/><text x="317.5" y="-78.91" font-family="Lato" font-size="12">a &amp; b</text></g><g class="edge"><path fill="none" stroke="#000" d="M255.94-64.91c-17.8 8.78-44.82 20.56-69.94 25.4-35.86 6.9-78.32 2.99-104.46-.76"/><path stroke="#000" d="M74.3-41.37l6.45 4.16-2.99-3.63 3.46.52h0l-3.46-.52 3.93-2.59-7.39 2.06h0z"/><text x="148" y="-42.91" font-family="Lato" font-size="12">!a &amp; !b</text></g><g class="edge"><path fill="none" stroke="#000" d="M255.95-79.49c-15.1-3.61-35.88-9.94-51.95-20.02-6.75-4.23-13.16-9.9-18.74-15.6"/><path stroke="#000" d="M180.38-120.32l2.49 7.27-.09-4.71 2.39 2.55h0l-2.39-2.55 4.69.4-7.09-2.96h0z"/><text x="205.5" y="-102.91" font-family="Lato" font-size="12">a &amp; !b</text></g><g class="edge"><path fill="none" stroke="#000" d="M298.37-64.52c5.56 2.47 11.69 4.74 17.63 6.01 13.47 2.87 17.57 3.09 31 0 3.79-.87 7.64-2.21 11.33-3.76"/><path stroke="#000" d="M364.77-65.24l-7.68.07 4.5 1.4-3.18 1.46h0l3.18-1.46-1.86 4.32 5.04-5.79h0z"/><text x="316" y="-61.91" font-family="Lato" font-size="12">!a &amp; b</text></g><g class="edge"><path fill="none" stroke="#000" d="M267.23-93.66c-1.5-9.39 1.75-17.85 9.77-17.85 5.89 0 9.21 4.56 9.96 10.7"/><path stroke="#000" d="M286.77-93.66l3.33-6.92-3.24 3.42.1-3.5h0l-.1 3.5-3.05-3.59 2.96 7.09h0z"/><text x="263" y="-114.91" font-family="Lato" font-size="12">a &amp; b</text></g></g></svg>