<?xml-stylesheet href="spot.css" type="text/css"?><svg width="624" height="263pt" viewBox="0 0 467.5 262.98" xmlns="http://www.w3.org/2000/svg"><g class="graph"><path fill="#fff" stroke="transparent" d="M0 262.98V0h467.5v262.98H0z"/><text x="131.25" y="-242.38" font-family="Lato" font-size="12" transform="translate(4 258.98)">(Fin(</text><text x="156.25" y="-242.38" font-family="Lato" font-size="12" fill="#1f78b4" transform="translate(4 258.98)">⓿</text><text x="169.25" y="-242.38" font-family="Lato" font-size="12" transform="translate(4 258.98)">) &amp; Inf(</text><text x="204.25" y="-242.38" font-family="Lato" font-size="12" fill="#ff4da0" transform="translate(4 258.98)">❶</text><text x="217.25" y="-242.38" font-family="Lato" font-size="12" transform="translate(4 258.98)">)) | (Fin(</text><text x="259.25" y="-242.38" font-family="Lato" font-size="12" fill="#ff7f00" transform="translate(4 258.98)">❷</text><text x="272.25" y="-242.38" font-family="Lato" font-size="12" transform="translate(4 258.98)">) &amp; Inf(</text><text x="307.25" y="-242.38" font-family="Lato" font-size="12" fill="#6a3d9a" transform="translate(4 258.98)">❸</text><text x="320.25" y="-242.38" font-family="Lato" font-size="12" transform="translate(4 258.98)">))</text><text x="205.75" y="-230.38" font-family="Lato" font-size="12" transform="translate(4 258.98)">[Rabin 2]</text><g class="node" transform="translate(4 258.98)"><path fill="#ffffa0" stroke="#000" d="M62-62.98H50c-6 0-12 6-12 12v12c0 6 6 12 12 12h12c6 0 12-6 12-12v-12c0-6-6-12-12-12"/><text x="52.5" y="-48.38" font-family="Lato" font-size="12">0</text><text x="49.5" y="-35.38" font-family="Lato" font-size="12" fill="#1f78b4">⓿</text></g><g class="edge" transform="translate(4 258.98)"><path fill="none" stroke="#000" d="M1.15-44.98h29.48"/><path stroke="#000" d="M37.94-44.98l-7-3.15 3.5 3.15h-3.5 3.5l-3.5 3.15 7-3.15h0z"/></g><g class="edge" transform="translate(4 258.98)"><path fill="none" stroke="#000" d="M49.49-63.13c-1-9.39 1.17-17.85 6.51-17.85 3.92 0 6.14 4.57 6.64 10.71"/><path stroke="#000" d="M62.51-63.13l3.28-6.94-3.22 3.44.07-3.5h0l-.07 3.5-3.08-3.55 3.02 7.05h0z"/><text x="32" y="-84.38" font-family="Lato" font-size="12">!p0 &amp; !p1</text></g><g class="node" transform="translate(4 258.98)"><path fill="#ffffa0" stroke="#000" d="M188-156.98h-12c-6 0-12 6-12 12v12c0 6 6 12 12 12h12c6 0 12-6 12-12v-12c0-6-6-12-12-12"/><text x="178.5" y="-142.38" font-family="Lato" font-size="12">1</text><text x="175.5" y="-129.38" font-family="Lato" font-size="12" fill="#ff4da0">❶</text></g><g class="edge" transform="translate(4 258.98)"><path fill="none" stroke="#000" d="M61.13-63.11c4.71-16.47 14.02-40.23 30.87-53.87 18.32-14.82 45.23-19.86 64.65-21.47"/><path stroke="#000" d="M163.7-138.91l-7.19-2.69 3.7 2.92-3.49.23h0l3.49-.23-3.29 3.37 6.78-3.6h0z"/><text x="93.5" y="-139.38" font-family="Lato" font-size="12">p0 &amp; !p1</text></g><g class="node" transform="translate(4 258.98)"><path fill="#ffffa0" stroke="#000" d="M446-93.98h-18c-6 0-12 6-12 12v12c0 6 6 12 12 12h18c6 0 12-6 12-12v-12c0-6-6-12-12-12"/><text x="433.5" y="-79.38" font-family="Lato" font-size="12">2</text><text x="424" y="-67.38" font-family="Lato" font-size="12" fill="#1f78b4">⓿</text><text x="437" y="-67.38" font-family="Lato" font-size="12" fill="#6a3d9a">❸</text></g><g class="edge" transform="translate(4 258.98)"><path fill="none" stroke="#000" d="M74.32-39.88c5.6 1.47 11.86 2.94 17.68 3.9 79.05 13.06 100.26 17.84 180 10 56.82-5.58 73.17-3.35 126-25 3.93-1.61 7.89-3.65 11.69-5.86"/><path stroke="#000" d="M415.9-60.69l-7.61 1.01 4.64.83-2.98 1.85h0l2.98-1.85-1.32 4.52 4.29-6.36h0z"/><text x="225.5" y="-29.38" font-family="Lato" font-size="12">!p0 &amp; p1</text></g><g class="node" transform="translate(4 258.98)"><path fill="#ffffa0" stroke="#000" d="M321.5-93.98h-18c-6 0-12 6-12 12v12c0 6 6 12 12 12h18c6 0 12-6 12-12v-12c0-6-6-12-12-12"/><text x="309" y="-79.38" font-family="Lato" font-size="12">3</text><text x="299.5" y="-67.38" font-family="Lato" font-size="12" fill="#ff4da0">❶</text><text x="312.5" y="-67.38" font-family="Lato" font-size="12" fill="#6a3d9a">❸</text></g><g class="edge" transform="translate(4 258.98)"><path fill="none" stroke="#000" d="M74.09-47.06c43.33-5.28 157.71-19.21 210.28-25.61"/><path stroke="#000" d="M291.36-73.52l-7.33-2.28 3.86 2.7-3.47.42h0l3.47-.42-3.09 3.55 6.56-3.97h0z"/><text x="161" y="-66.38" font-family="Lato" font-size="12">p0 &amp; p1</text></g><g class="edge" transform="translate(4 258.98)"><path fill="none" stroke="#000" d="M164.7-120.67c-7.07 7.15-15.76 14.98-24.7 20.69-19.33 12.36-28.91 6.27-48 19-5.43 3.63-10.68 8.21-15.39 12.89"/><path stroke="#000" d="M71.73-63.03l7.12-2.85-4.69.33 2.43-2.52h0l-2.43 2.52.16-4.71-2.59 7.23h0z"/><text x="92" y="-103.38" font-family="Lato" font-size="12">!p0 &amp; !p1</text></g><g class="edge" transform="translate(4 258.98)"><path fill="none" stroke="#000" d="M170.06-157.13c-1.84-9.39 2.14-17.85 11.94-17.85 7.19 0 11.25 4.57 12.17 10.71"/><path stroke="#000" d="M193.94-157.13l3.38-6.89-3.27 3.39.12-3.5h0l-.12 3.5-3.03-3.6 2.92 7.1h0z"/><text x="159.5" y="-178.38" font-family="Lato" font-size="12">p0 &amp; !p1</text></g><g class="edge" transform="translate(4 258.98)"><path fill="none" stroke="#000" d="M195.62-157.27c7.19-8.84 17.04-18.62 28.38-23.71 70.57-31.63 111.77-45.9 174 0 25.02 18.46 33.61 55.01 36.53 79.74"/><path stroke="#000" d="M435.27-93.98l2.42-7.29-2.78 3.8-.35-3.48h0l.35 3.48-3.48-3.16 3.84 6.65h0z"/><text x="290" y="-213.38" font-family="Lato" font-size="12">!p0 &amp; p1</text></g><g class="edge" transform="translate(4 258.98)"><path fill="none" stroke="#000" d="M200.12-137.59c18.73 2.15 49.13 7.49 71.88 20.61 7.76 4.48 14.97 10.92 21.06 17.38"/><path stroke="#000" d="M297.89-94.21l-2.33-7.32-.01 4.71-2.33-2.6h0l2.33 2.6-4.68-.5 7.02 3.11h0z"/><text x="227" y="-136.38" font-family="Lato" font-size="12">p0 &amp; p1</text></g><g class="edge" transform="translate(4 258.98)"><path fill="none" stroke="#000" d="M424.8-57.59c-6.65 9.37-15.9 20.13-26.8 26.61-49.15 29.23-69.12 20.2-126 26-80.03 8.17-104.21 7.96-180-19-3.94-1.4-7.91-3.26-11.71-5.31"/><path stroke="#000" d="M74.13-32.85l4.48 6.23-1.45-4.48 3.03 1.75h0l-3.03-1.75 4.6-.98-7.63-.77h0z"/><text x="224" y="-8.38" font-family="Lato" font-size="12">!p0 &amp; !p1</text></g><g class="edge" transform="translate(4 258.98)"><path fill="none" stroke="#000" d="M415.95-89.69c-19.81-13.01-51.34-32.29-80.95-44.29-26.77-10.85-34.33-12.41-63-16-21.17-2.64-26.85-2.78-48 0-5.43.72-11.15 1.94-16.55 3.32"/><path stroke="#000" d="M200.35-144.71l7.59 1.19-4.21-2.12 3.37-.92h0l-3.37.92 2.54-3.96-5.92 4.89h0z"/><text x="290" y="-150.38" font-family="Lato" font-size="12">p0 &amp; !p1</text></g><g class="edge" transform="translate(4 258.98)"><path fill="none" stroke="#000" d="M426.15-94.13c-1.67-9.39 1.94-17.85 10.85-17.85 6.54 0 10.23 4.57 11.07 10.71"/><path stroke="#000" d="M447.85-94.13l3.36-6.9-3.25 3.4.1-3.5h0l-.1 3.5-3.05-3.59 2.94 7.09h0z"/><text x="414.5" y="-115.38" font-family="Lato" font-size="12">!p0 &amp; p1</text></g><g class="edge" transform="translate(4 258.98)"><path fill="none" stroke="#000" d="M415.74-75.98h-74.99"/><path stroke="#000" d="M333.73-75.98l7 3.15-3.5-3.15h3.5-3.5l3.5-3.15-7 3.15h0z"/><text x="354.5" y="-79.38" font-family="Lato" font-size="12">p0 &amp; p1</text></g><g class="edge" transform="translate(4 258.98)"><path fill="none" stroke="#000" d="M291.48-68.13c-6.21 2.37-13.11 4.93-19.48 7.15-29.07 10.14-35.58 16.28-66 21-21.08 3.28-26.67.53-48 0-26.26-.65-56.33-2.24-76.78-3.46"/><path stroke="#000" d="M74.15-43.87l6.79 3.57-3.3-3.36 3.49.21h0l-3.49-.21 3.68-2.93-7.17 2.72h0z"/><text x="158" y="-43.38" font-family="Lato" font-size="12">!p0 &amp; !p1</text></g><g class="edge" transform="translate(4 258.98)"><path fill="none" stroke="#000" d="M291.32-78.63c-18.47-3.08-46.06-9.34-67.32-21.35-7.34-4.14-14.36-9.88-20.45-15.69"/><path stroke="#000" d="M198.23-120.97l2.73 7.17-.25-4.7 2.48 2.47h0l-2.48-2.47 4.7.24-7.18-2.71h0z"/><text x="225.5" y="-103.38" font-family="Lato" font-size="12">p0 &amp; !p1</text></g><g class="edge" transform="translate(4 258.98)"><path fill="none" stroke="#000" d="M333.89-65.33c6 2.6 12.68 5.03 19.11 6.35 19.59 4.04 25.44 4.18 45 0 3.62-.77 7.31-1.91 10.9-3.25"/><path stroke="#000" d="M415.63-64.98l-7.67-.27 4.43 1.59-3.24 1.33h0l3.24-1.33-2.05 4.24 5.29-5.56h0z"/><text x="353" y="-62.38" font-family="Lato" font-size="12">!p0 &amp; p1</text></g><g class="edge" transform="translate(4 258.98)"><path fill="none" stroke="#000" d="M301.28-94.13c-1.72-9.39 2.02-17.85 11.22-17.85 6.76 0 10.57 4.57 11.43 10.71"/><path stroke="#000" d="M323.72-94.13l3.36-6.9-3.26 3.4.11-3.5h0l-.11 3.5-3.04-3.59 2.94 7.09h0z"/><text x="291.5" y="-115.38" font-family="Lato" font-size="12">p0 &amp; p1</text></g></g></svg>