<?xml-stylesheet href="spot.css" type="text/css"?><svg width="185pt" height="133pt" viewBox="0 0 185 133.33" xmlns="http://www.w3.org/2000/svg"><g class="graph"><path fill="#fff" stroke="transparent" d="M0 133.33V0h185v133.33H0z"/><g class="node" transform="translate(4 129.33)"><circle fill="#ffffa0" stroke="#000" cx="56" cy="-45.33" r="18"/><text text-anchor="middle" x="56" y="-42.23" font-family="Lato" font-size="12">0</text></g><g class="edge" transform="translate(4 129.33)"><path fill="none" stroke="#000" d="M1.15-45.33h29.48"/><path stroke="#000" d="M37.94-45.33l-7-3.15 3.5 3.15h-3.5 3.5l-3.5 3.15 7-3.15h0z"/></g><g class="edge" transform="translate(4 129.33)"><path fill="none" stroke="#000" d="M52.76-63.11c-.55-9.53.53-18.22 3.24-18.22 1.99 0 3.1 4.69 3.33 10.95"/><path stroke="#000" d="M59.24-63.11l3.24-6.96-3.2 3.46.05-3.5h0l-.05 3.5-3.1-3.54 3.06 7.04h0z"/><text x="39" y="-84.73" font-family="Lato" font-size="12">!a &amp; !b</text></g><g class="edge" transform="translate(4 129.33)"><path fill="none" stroke="#000" d="M50.68-62.75C47.65-80.12 49.43-99.33 56-99.33c5.7 0 7.79 14.45 6.27 29.61"/><path stroke="#000" d="M61.32-62.75l4.07-6.51-3.6 3.04.47-3.46h0l-.47 3.46-2.65-3.89 2.18 7.36h0z"/><text x="40.5" y="-102.73" font-family="Lato" font-size="12">a &amp; !b</text></g><g class="node" transform="translate(4 129.33)"><circle fill="#ffffa0" stroke="#000" cx="159" cy="-45.33" r="18"/><text text-anchor="middle" x="159" y="-42.23" font-family="Lato" font-size="12">1</text></g><g class="edge" transform="translate(4 129.33)"><path fill="none" stroke="#000" d="M63.7-62.11C69.35-73.75 78.65-88.38 92-95.33c12.22-6.36 18.78-6.36 31 0 11.05 5.76 19.34 16.77 25.06 27.01"/><path stroke="#000" d="M151.3-62.11l-.44-7.66-1.18 4.56-1.61-3.11h0l1.61 3.11-4.41-1.65 6.03 4.75h0z"/><text x="92" y="-102.73" font-family="Lato" font-size="12">!a &amp; b</text></g><g class="edge" transform="translate(4 129.33)"><path fill="none" stroke="#000" d="M72.64-53.06c5.92-2.53 12.81-5 19.36-6.27 13.53-2.6 17.47-2.6 31 0 4.2.81 8.54 2.12 12.66 3.62"/><path stroke="#000" d="M142.36-53.06l-5.35-5.51 2.09 4.22-3.25-1.29h0l3.25 1.29-4.41 1.64 7.67-.35h0z"/><text x="93.5" y="-63.73" font-family="Lato" font-size="12">a &amp; b</text></g><g class="edge" transform="translate(4 129.33)"><path fill="none" stroke="#000" d="M140.93-43.57c-5.7.51-12.08.99-17.93 1.24-13.77.59-17.23.59-31 0-3.47-.15-7.13-.38-10.73-.65"/><path stroke="#000" d="M74.07-43.57l6.72 3.71-3.23-3.42 3.49.29h0l-3.49-.29 3.75-2.85-7.24 2.56h0z"/><text x="92" y="-45.73" font-family="Lato" font-size="12">a &amp; !b</text></g><g class="edge" transform="translate(4 129.33)"><path fill="none" stroke="#000" d="M144.16-34.66c-6.13 4.08-13.65 8.25-21.16 10.33-13.28 3.68-17.72 3.68-31 0-5.16-1.43-10.33-3.85-15.05-6.54"/><path stroke="#000" d="M70.84-34.66l4.29 6.37-1.32-4.52 2.98 1.84h0l-2.98-1.84 4.64-.84-7.61-1.01h0z"/><text x="92" y="-27.73" font-family="Lato" font-size="12">!a &amp; b</text></g><g class="edge" transform="translate(4 129.33)"><path fill="none" stroke="#000" d="M149.49-29.85c-6.05 9.28-15.1 20.27-26.49 25.52-12.51 5.77-18.49 5.77-31 0-9.08-4.18-16.67-12.01-22.44-19.71"/><path stroke="#000" d="M65.51-29.85l1.42 7.55.58-4.68 2.01 2.87h0l-2.01-2.87 4.59 1.07-6.59-3.94h0z"/><text x="93.5" y="-7.73" font-family="Lato" font-size="12">a &amp; b</text></g><g class="edge" transform="translate(4 129.33)"><path fill="none" stroke="#000" d="M150.37-61.24c-2.26-10.24.62-20.09 8.63-20.09 6.13 0 9.25 5.78 9.37 13.08"/><path stroke="#000" d="M167.63-61.24l3.87-6.63-3.5 3.15.37-3.48h0l-.37 3.48-2.77-3.81 2.4 7.29h0z"/><text x="142" y="-84.73" font-family="Lato" font-size="12">!a &amp; !b</text></g></g></svg>