<?xml-stylesheet href="spot.css" type="text/css"?><svg width="278pt" height="220" viewBox="0 0 278 164.67" xmlns="http://www.w3.org/2000/svg"><g class="graph" transform="translate(4 160.67)"><path fill="#fff" stroke="transparent" d="M-4 4v-164.67h278V4H-4z"/><text x="116.5" y="-143.07" font-family="Lato" font-size="12">[Büchi]</text><g class="node"><circle fill="#ffffa0" stroke="#000" cx="60" cy="-37.67" r="18"/><circle fill="none" stroke="#000" cx="60" cy="-37.67" r="22"/><text text-anchor="middle" x="60" y="-34.57" font-family="Lato" font-size="12">2</text></g><g class="edge"><path fill="none" stroke="#000" d="M1.17-37.67h29.54"/><path stroke="#000" d="M37.86-37.67l-7-3.15 3.5 3.15h-3.5 3.5l-3.5 3.15 7-3.15h0z"/></g><g class="node"><circle fill="#ffffa0" stroke="#000" cx="146" cy="-86.67" r="18"/><text text-anchor="middle" x="146" y="-83.57" font-family="Lato" font-size="12">0</text></g><g class="edge"><path fill="none" stroke="#000" d="M79.64-48.54c13.04-7.61 30.49-17.79 44.08-25.72"/><path stroke="#000" d="M130.05-77.95l-7.64.81 4.61.96-3.02 1.76h0l3.02-1.76-1.43 4.48 4.46-6.25h0z"/><text x="100" y="-68.07" font-family="Lato" font-size="12">!a</text></g><g class="node"><circle fill="#ffffa0" stroke="#000" cx="252" cy="-53.67" r="18"/><text text-anchor="middle" x="252" y="-50.57" font-family="Lato" font-size="12">1</text></g><g class="edge"><path fill="none" stroke="#000" d="M82.06-39.44L227-51.65"/><path stroke="#000" d="M234.02-52.24l-7.24-2.55 3.75 2.84-3.49.3h0l3.49-.3-3.22 3.44 6.71-3.73h0z"/><text x="142.5" y="-50.07" font-family="Lato" font-size="12">a</text></g><g class="edge"><path fill="none" stroke="#000" d="M138.97-103.33c-1.56-9.96.78-19.34 7.03-19.34 4.69 0 7.18 5.27 7.47 12.11"/><path stroke="#000" d="M153.03-103.33l3.57-6.8-3.36 3.3.22-3.49h0l-.22 3.49-2.93-3.68 2.72 7.18h0z"/><text x="141" y="-126.07" font-family="Lato" font-size="12">!a</text></g><g class="edge"><path fill="none" stroke="#000" d="M163.81-89.3c14.38-1.53 35.36-2.03 52.19 4.63 6.91 2.73 13.35 7.47 18.77 12.44"/><path stroke="#000" d="M239.84-67.26l-2.79-7.15.29 4.7-2.5-2.46h0l2.5 2.46-4.7-.21 7.2 2.66h0z"/><text x="195.5" y="-93.07" font-family="Lato" font-size="12">a</text></g><g class="edge"><path fill="none" stroke="#000" d="M238.49-41.19c-6.35 5.86-14.42 12.61-22.49 17.52-21.3 12.95-27.53 16.25-52 21-15.71 3.05-20.46 3.81-36 0-15.3-3.76-30.99-11.69-43.33-19.05"/><path stroke="#000" d="M78.53-25.5l4.31 6.35-1.32-4.51 2.98 1.83h0l-2.98-1.83 4.63-.85-7.62-.99h0z"/><text x="142.5" y="-6.07" font-family="Lato" font-size="12">b</text></g><g class="edge"><path fill="none" stroke="#000" d="M233.88-55.7c-14.2-2.02-34.76-5.75-51.88-11.97-4.71-1.71-9.57-3.98-14.1-6.36"/><path stroke="#000" d="M161.53-77.52l4.62 6.13-1.55-4.45 3.07 1.69h0l-3.07-1.69 4.58-1.07-7.65-.61h0z"/><text x="182" y="-71.07" font-family="Lato" font-size="12">!a &amp; !b</text></g><g class="edge"><path fill="none" stroke="#000" d="M243.02-69.59c-2.34-10.23.65-20.08 8.98-20.08 6.38 0 9.63 5.77 9.75 13.07"/><path stroke="#000" d="M260.98-69.59l3.89-6.61-3.51 3.13.38-3.47h0l-.38 3.47-2.75-3.82 2.37 7.3h0z"/><text x="236.5" y="-93.07" font-family="Lato" font-size="12">a &amp; !b</text></g></g></svg>