<?xml-stylesheet href="spot.css" type="text/css"?><svg width="293pt" height="145pt" viewBox="0 0 293 145" xmlns="http://www.w3.org/2000/svg"><g class="graph" transform="translate(4 141)"><path fill="#fff" stroke="transparent" d="M-4 4v-145h293V4H-4z"/><text x="124" y="-123.4" font-family="Lato" font-size="12">[Büchi]</text><g class="node"><circle fill="#ffffa0" stroke="#000" cx="60" cy="-34" r="18"/><circle fill="none" stroke="#000" cx="60" cy="-34" r="22"/><text text-anchor="middle" x="60" y="-30.9" font-family="Lato" font-size="12">0</text></g><g class="edge"><path fill="none" stroke="#000" d="M1.17-34h29.54"/><path stroke="#000" d="M37.86-34l-7-3.15 3.5 3.15h-3.5 3.5l-3.5 3.15 7-3.15h0z"/></g><g class="edge"><path fill="none" stroke="#000" d="M52.68-54.99C51.78-65.09 54.22-74 60-74c4.34 0 6.79 5.01 7.37 11.78"/><path stroke="#000" d="M67.32-54.99l3.2-6.98-3.18 3.48.03-3.5h0l-.03 3.5-3.12-3.52 3.1 7.02h0z"/><text x="46" y="-77.4" font-family="Lato" font-size="12">a &amp; b</text></g><g class="node"><circle fill="#ffffa0" stroke="#000" cx="164" cy="-67" r="18"/><text text-anchor="middle" x="164" y="-63.9" font-family="Lato" font-size="12">1</text></g><g class="edge"><path fill="none" stroke="#000" d="M75.87-49.55C82.61-55.54 91.07-61.72 100-65c12.34-4.53 26.96-5.25 39.01-4.74"/><path stroke="#000" d="M146.14-69.28l-6.79-3.59 3.3 3.37-3.5-.23h0l3.5.23-3.7 2.92 7.19-2.7h0z"/><text x="109" y="-72.4" font-family="Lato" font-size="12">!b</text></g><g class="node"><circle fill="#ffffa0" stroke="#000" cx="267" cy="-18" r="18"/><text text-anchor="middle" x="267" y="-14.9" font-family="Lato" font-size="12">2</text></g><g class="edge"><path fill="none" stroke="#000" d="M81.96-32.23c17.2 1.44 42.19 3.51 64.04 5.23 33.22 2.61 71.63 5.46 95.86 7.24"/><path stroke="#000" d="M248.91-19.24l-6.75-3.66 3.26 3.4-3.49-.25h0l3.49.25-3.72 2.89 7.21-2.63h0z"/><text x="148.5" y="-30.4" font-family="Lato" font-size="12">!a &amp; b</text></g><g class="edge"><path fill="none" stroke="#000" d="M148.46-57.87c-6.13 3.51-13.45 7.3-20.46 9.87-12.5 4.59-26.88 7.84-39.12 10.05"/><path stroke="#000" d="M81.96-36.77l7.43 1.93-3.98-2.52 3.45-.59h0l-3.45.59 2.92-3.69-6.37 4.28h0z"/><text x="100" y="-51.4" font-family="Lato" font-size="12">a &amp; b</text></g><g class="edge"><path fill="none" stroke="#000" d="M155.37-82.92c-2.26-10.23.62-20.08 8.63-20.08 6.13 0 9.25 5.77 9.37 13.07"/><path stroke="#000" d="M172.63-82.92l3.87-6.63-3.5 3.15.37-3.48h0L173-86.4l-2.77-3.81 2.4 7.29h0z"/><text x="159" y="-106.4" font-family="Lato" font-size="12">!b</text></g><g class="edge"><path fill="none" stroke="#000" d="M180.78-59.34c16.9 8.19 43.85 21.27 62.92 30.52"/><path stroke="#000" d="M250.33-25.6l-4.92-5.89 1.77 4.36-3.15-1.53h0l3.15 1.53-4.52 1.31 7.67.22h0z"/><text x="200" y="-52.4" font-family="Lato" font-size="12">!a &amp; b</text></g><g class="edge"><path fill="none" stroke="#000" d="M249.22-13.88C225.95-8.76 182.59-1.33 146-7c-20.22-3.13-42.21-10.22-58.75-16.35"/><path stroke="#000" d="M80.51-25.91l5.43 5.43-2.16-4.19 3.27 1.24h0l-3.27-1.24 4.39-1.7-7.66.46h0z"/><text x="160.5" y="-10.4" font-family="Lato" font-size="12">a</text></g><g class="edge"><path fill="none" stroke="#000" d="M258.37-33.92C256.11-44.15 258.99-54 267-54c6.13 0 9.25 5.77 9.37 13.07"/><path stroke="#000" d="M275.63-33.92l3.87-6.63-3.5 3.15.37-3.48h0L276-37.4l-2.77-3.81 2.4 7.29h0z"/><text x="262" y="-57.4" font-family="Lato" font-size="12">!a</text></g></g></svg>