<?xml-stylesheet href="spot.css" type="text/css"?><svg width="280pt" height="104pt" viewBox="0 0 280 104" xmlns="http://www.w3.org/2000/svg"><g class="graph" transform="translate(4 100)"><path fill="#fff" stroke="transparent" d="M-4 4v-104h280V4H-4z"/><text x="117.5" y="-82.4" font-family="Lato" font-size="12">[Büchi]</text><g class="node"><circle fill="#ffffa0" stroke="#000" cx="60" cy="-22" r="18"/><circle fill="none" stroke="#000" cx="60" cy="-22" r="22"/><text text-anchor="middle" x="60" y="-18.9" font-family="Lato" font-size="12">0</text></g><g class="edge"><path fill="none" stroke="#000" d="M1.17-22h29.54"/><path stroke="#000" d="M37.86-22l-7-3.15 3.5 3.15h-3.5 3.5l-3.5 3.15 7-3.15h0z"/></g><g class="edge"><path fill="none" stroke="#000" d="M52.68-42.99C51.78-53.09 54.22-62 60-62c4.34 0 6.79 5.01 7.37 11.78"/><path stroke="#000" d="M67.32-42.99l3.2-6.98-3.18 3.48.03-3.5h0l-.03 3.5-3.12-3.52 3.1 7.02h0z"/><text x="3.5" y="-65.4" font-family="Lato" font-size="12">!door_open | light_on</text></g><g class="node"><circle fill="#ffffa0" stroke="#000" cx="254" cy="-22" r="18"/><text text-anchor="middle" x="254" y="-18.9" font-family="Lato" font-size="12">1</text></g><g class="edge"><path fill="none" stroke="#000" d="M82.28-22h146.47"/><path stroke="#000" d="M235.84-22l-7-3.15 3.5 3.15h-3.5 3.5l-3.5 3.15 7-3.15h0z"/><text x="100" y="-25.4" font-family="Lato" font-size="12">door_open &amp; !light_on</text></g><g class="edge"><path fill="none" stroke="#000" d="M239.99-33.8C232.26-45.33 236.93-58 254-58c13.87 0 19.56 8.36 17.05 17.69"/><path stroke="#000" d="M268.01-33.8l5.81-5.01-4.33 1.84 1.48-3.17h0l-1.48 3.17-1.38-4.5-.1 7.67h0z"/><text text-anchor="middle" x="254" y="-61.4" font-family="Lato" font-size="12">1</text></g></g></svg>