<?xml-stylesheet href="spot.css" type="text/css"?><svg width="228" height="332" viewBox="0 0 171 249" xmlns="http://www.w3.org/2000/svg"><g class="graph" transform="translate(4 245)"><path fill="#fff" stroke="transparent" d="M-4 4v-249h171V4H-4z"/><text x="64.5" y="-228.4" font-family="Lato" font-size="12">Inf(</text><text x="81.5" y="-228.4" font-family="Lato" font-size="12" fill="#1f78b4">⓿</text><text x="94.5" y="-228.4" font-family="Lato" font-size="12">)</text><text x="63" y="-216.4" font-family="Lato" font-size="12">[Büchi]</text><g class="node"><circle fill="#ffffa0" stroke="#000" cx="56" cy="-82" r="18"/><text text-anchor="middle" x="56" y="-78.9" font-family="Lato" font-size="12">0</text></g><g class="edge"><path fill="none" stroke="#000" d="M1.15-82h29.48"/><path stroke="#000" d="M37.94-82l-7-3.15 3.5 3.15h-3.5 3.5l-3.5 3.15 7-3.15h0z"/></g><g class="node"><circle fill="#ffffa0" stroke="#000" cx="145" cy="-147" r="18"/><text text-anchor="middle" x="145" y="-143.9" font-family="Lato" font-size="12">1</text></g><g class="edge"><path fill="none" stroke="#000" d="M70.98-92.44c14.46-10.81 37.16-27.77 53.41-39.91"/><path stroke="#000" d="M130.06-136.58l-7.5 1.66 4.69.43-2.8 2.1h0l2.8-2.1-.92 4.62 3.73-6.71h0z"/><text x="93.5" y="-123.4" font-family="Lato" font-size="12">p0</text></g><g class="node"><circle fill="#ffffa0" stroke="#000" cx="145" cy="-18" r="18"/><text text-anchor="middle" x="145" y="-14.9" font-family="Lato" font-size="12">2</text></g><g class="edge"><path fill="none" stroke="#000" d="M70.98-71.72c14.46 10.64 37.16 27.34 53.41 39.29"/><path stroke="#000" d="M130.06-28.26l-3.78-6.68.96 4.61-2.82-2.08h0l2.82 2.08-4.69.46 7.51 1.61h0z"/><text x="92" y="-58.4" font-family="Lato" font-size="12">!p0</text></g><g class="edge"><path fill="none" stroke="#000" d="M137.33-163.29c-1.85-10.1.71-19.71 7.67-19.71 5.22 0 7.96 5.41 8.23 12.37"/><path stroke="#000" d="M152.67-163.29l3.67-6.74-3.41 3.25.27-3.49h0l-.27 3.49-2.87-3.73 2.61 7.22h0z"/><text x="141.5" y="-199.4" font-family="Lato" font-size="12">1</text><text x="138.5" y="-186.4" font-family="Lato" font-size="12" fill="#1f78b4">⓿</text></g><g class="edge"><path fill="none" stroke="#000" d="M141.05-35.78c-.68-9.53.64-18.22 3.95-18.22 2.43 0 3.79 4.68 4.07 10.95"/><path stroke="#000" d="M148.95-35.78l3.26-6.95-3.2 3.45.05-3.5h0l-.05 3.5-3.09-3.55 3.03 7.05h0z"/><text x="136.5" y="-57.4" font-family="Lato" font-size="12">!p1</text></g><g class="edge"><path fill="none" stroke="#000" d="M138.62-34.86C134.75-52.38 136.88-72 145-72c7.04 0 9.58 14.76 7.6 30.1"/><path stroke="#000" d="M151.38-34.86l4.3-6.36-3.7 2.91.6-3.45h0l-.6 3.45-2.51-3.99 1.91 7.44h0z"/><text x="138" y="-88.4" font-family="Lato" font-size="12">p1</text><text x="138.5" y="-75.4" font-family="Lato" font-size="12" fill="#1f78b4">⓿</text></g></g></svg>