<?xml-stylesheet href="spot.css" type="text/css"?><svg width="280pt" height="137pt" viewBox="0 0 280 137" xmlns="http://www.w3.org/2000/svg"><g class="graph" transform="translate(4 133)"><path fill="#fff" stroke="transparent" d="M-4 4v-137h280V4H-4z"/><text x="117.5" y="-115.4" font-family="Lato" font-size="12">[Büchi]</text><g class="node"><circle fill="#ffffa0" stroke="#000" cx="56" cy="-18" r="18"/><text text-anchor="middle" x="56" y="-14.9" font-family="Lato" font-size="12">0</text></g><g class="edge"><path fill="none" stroke="#000" d="M1.15-18h29.48"/><path stroke="#000" d="M37.94-18l-7-3.15 3.5 3.15h-3.5 3.5l-3.5 3.15 7-3.15h0z"/></g><g class="node"><circle fill="#ffffa0" stroke="#000" cx="139" cy="-55" r="18"/><circle fill="none" stroke="#000" cx="139" cy="-55" r="22"/><text text-anchor="middle" x="139" y="-51.9" font-family="Lato" font-size="12">1</text></g><g class="edge"><path fill="none" stroke="#000" d="M72.62-25.13c11.19-5.12 26.53-12.12 39.54-18.07"/><path stroke="#000" d="M118.71-46.19l-7.67.04 4.49 1.41-3.18 1.46h0l3.18-1.46-1.87 4.32 5.05-5.77h0z"/><text x="92" y="-39.4" font-family="Lato" font-size="12">a</text></g><g class="node"><circle fill="#ffffa0" stroke="#000" cx="250" cy="-35" r="18"/><circle fill="none" stroke="#000" cx="250" cy="-35" r="22"/><text text-anchor="middle" x="250" y="-31.9" font-family="Lato" font-size="12">2</text></g><g class="edge"><path fill="none" stroke="#000" d="M74.02-15.48C86.01-13.84 102.45-11.85 117-11c19.52 1.13 24.62 2.6 44 0 20.88-2.8 43.81-9.16 61.03-14.64"/><path stroke="#000" d="M229.04-27.92l-7.63-.83 4.3 1.91-3.32 1.09h0l3.32-1.09-2.35 4.08 5.68-5.16h0z"/><text x="134" y="-14.4" font-family="Lato" font-size="12">!a</text></g><g class="edge"><path fill="none" stroke="#000" d="M131.32-75.99C130.37-86.09 132.93-95 139-95c4.55 0 7.13 5.01 7.74 11.78"/><path stroke="#000" d="M146.68-75.99l3.2-6.98-3.17 3.48.02-3.5h0l-.02 3.5-3.13-3.52 3.1 7.02h0z"/><text x="125" y="-98.4" font-family="Lato" font-size="12">a &amp; b</text></g><g class="edge"><path fill="none" stroke="#000" d="M161.04-54.61c14.01.6 32.75 2.07 48.96 5.61 4.14.9 8.44 2.14 12.61 3.49"/><path stroke="#000" d="M229.45-43.14l-5.58-5.27 2.27 4.13-3.3-1.15h0l3.3 1.15-4.33 1.83 7.64-.69h0z"/><text x="179" y="-56.4" font-family="Lato" font-size="12">!a &amp; b</text></g><g class="edge"><path fill="none" stroke="#000" d="M228.11-30.81c-14.12 2.03-33.03 3.2-49.11-1.19-5.21-1.42-10.44-3.74-15.3-6.37"/><path stroke="#000" d="M157.35-42.09l4.45 6.25-1.43-4.48 3.02 1.77h0l-3.02-1.77 4.61-.95-7.63-.82h0z"/><text x="179" y="-35.4" font-family="Lato" font-size="12">a &amp; !b</text></g><g class="edge"><path fill="none" stroke="#000" d="M240.29-54.76C238.64-65.35 241.88-75 250-75c6.22 0 9.57 5.66 10.06 13.06"/><path stroke="#000" d="M259.71-54.76l3.49-6.83-3.32 3.34.17-3.5h0l-.17 3.5-2.97-3.65 2.8 7.14h0z"/><text x="233" y="-78.4" font-family="Lato" font-size="12">!a &amp; !b</text></g></g></svg>