<?xml-stylesheet href="spot.css" type="text/css"?><svg width="161pt" height="107pt" viewBox="0 0 161 107" xmlns="http://www.w3.org/2000/svg"><g class="graph"><path fill="#fff" stroke="transparent" d="M0 107V0h161v107H0z"/><text x="38.5" y="-86.4" font-family="Lato" font-size="12" transform="translate(4 103)">Inf(</text><text x="55.5" y="-86.4" font-family="Lato" font-size="12" fill="#1f78b4" transform="translate(4 103)">⓿</text><text x="68.5" y="-86.4" font-family="Lato" font-size="12" transform="translate(4 103)">)&amp;Inf(</text><text x="97.5" y="-86.4" font-family="Lato" font-size="12" fill="#ff4da0" transform="translate(4 103)">❶</text><text x="110.5" y="-86.4" font-family="Lato" font-size="12" transform="translate(4 103)">)</text><text x="39.5" y="-74.4" font-family="Lato" font-size="12" transform="translate(4 103)">[gen. Büchi 2]</text><g class="node" transform="translate(4 103)"><path fill="#ffffa0" stroke="#000" d="M62-36H50c-6 0-12 6-12 12v12c0 6 6 12 12 12h12c6 0 12-6 12-12v-12c0-6-6-12-12-12"/><text x="52.5" y="-21.4" font-family="Lato" font-size="12">0</text><text x="49.5" y="-8.4" font-family="Lato" font-size="12" fill="#ff4da0">❶</text></g><g class="edge" transform="translate(4 103)"><path fill="none" stroke="#000" d="M1.15-18h29.48"/><path stroke="#000" d="M37.94-18l-7-3.15 3.5 3.15h-3.5 3.5l-3.5 3.15 7-3.15h0z"/></g><g class="edge" transform="translate(4 103)"><path fill="none" stroke="#000" d="M49.49-36.15C48.49-45.54 50.66-54 56-54c3.92 0 6.14 4.56 6.64 10.7"/><path stroke="#000" d="M62.51-36.15l3.28-6.95-3.22 3.45.07-3.5h0l-.07 3.5-3.08-3.56 3.02 7.06h0z"/><text x="51" y="-57.4" font-family="Lato" font-size="12">!a</text></g><g class="node" transform="translate(4 103)"><path fill="#ffffa0" stroke="#000" d="M141-36h-12c-6 0-12 6-12 12v12c0 6 6 12 12 12h12c6 0 12-6 12-12v-12c0-6-6-12-12-12"/><text x="131.5" y="-21.4" font-family="Lato" font-size="12">1</text><text x="128.5" y="-8.4" font-family="Lato" font-size="12" fill="#1f78b4">⓿</text></g><g class="edge" transform="translate(4 103)"><path fill="none" stroke="#000" d="M74.09-18h35.6"/><path stroke="#000" d="M116.96-18l-7-3.15 3.5 3.15h-3.5 3.5l-3.5 3.15 7-3.15h0z"/><text x="92" y="-21.4" font-family="Lato" font-size="12">a</text></g><g class="edge" transform="translate(4 103)"><path fill="none" stroke="#000" d="M116.77-7.72C111.28-4.98 105.06-2.39 99-1 92.94.39 86.62-.69 80.77-2.86"/><path stroke="#000" d="M74.17-5.83l5.1 5.74-1.9-4.3 3.19 1.43h0l-3.19-1.43 4.48-1.44h-7.68 0z"/><text x="92" y="-4.4" font-family="Lato" font-size="12">b</text></g><g class="edge" transform="translate(4 103)"><path fill="none" stroke="#000" d="M128.13-36.15C127.07-45.54 129.36-54 135-54c4.14 0 6.48 4.56 7.01 10.7"/><path stroke="#000" d="M141.87-36.15l3.29-6.94-3.22 3.44.07-3.5h0l-.07 3.5-3.08-3.56 3.01 7.06h0z"/><text x="130" y="-57.4" font-family="Lato" font-size="12">!b</text></g></g></svg>