<?xml-stylesheet href="spot.css" type="text/css"?><svg width="403pt" height="340" viewBox="0 0 403 255.47" xmlns="http://www.w3.org/2000/svg"><g class="graph" transform="translate(4 251.47)"><path fill="#fff" stroke="transparent" d="M-4 4v-255.47h403V4H-4z"/><text x="159.5" y="-234.87" font-family="Lato" font-size="12">Inf(</text><text x="176.5" y="-234.87" font-family="Lato" font-size="12" fill="#1f78b4">⓿</text><text x="189.5" y="-234.87" font-family="Lato" font-size="12">)&amp;Inf(</text><text x="218.5" y="-234.87" font-family="Lato" font-size="12" fill="#ff4da0">❶</text><text x="231.5" y="-234.87" font-family="Lato" font-size="12">)</text><text x="160.5" y="-222.87" font-family="Lato" font-size="12">[gen. Büchi 2]</text><g class="node"><path fill="#ffffa0" stroke="#000" d="M68-60.47H50c-6 0-12 6-12 12v12c0 6 6 12 12 12h18c6 0 12-6 12-12v-12c0-6-6-12-12-12"/><text x="55.5" y="-45.87" font-family="Lato" font-size="12">0</text><text x="46" y="-33.87" font-family="Lato" font-size="12" fill="#1f78b4">⓿</text><text x="59" y="-33.87" font-family="Lato" font-size="12" fill="#ff4da0">❶</text></g><g class="edge"><path fill="none" stroke="#000" d="M1.16-42.47h29.59"/><path stroke="#000" d="M37.84-42.47l-7-3.15 3.5 3.15h-3.5 3.5l-3.5 3.15 7-3.15h0z"/></g><g class="edge"><path fill="none" stroke="#000" d="M52.13-60.62c-1.06-9.39 1.23-17.85 6.87-17.85 4.14 0 6.48 4.56 7.01 10.7"/><path stroke="#000" d="M65.87-60.62l3.29-6.94-3.22 3.44.07-3.5h0l-.07 3.5-3.08-3.56 3.01 7.06h0z"/><text x="45" y="-81.87" font-family="Lato" font-size="12">a &amp; b</text></g><g class="node"><path fill="#ffffa0" stroke="#000" d="M171-154.47h-12c-6 0-12 6-12 12v12c0 6 6 12 12 12h12c6 0 12-6 12-12v-12c0-6-6-12-12-12"/><text x="161.5" y="-139.87" font-family="Lato" font-size="12">1</text><text x="158.5" y="-126.87" font-family="Lato" font-size="12" fill="#1f78b4">⓿</text></g><g class="edge"><path fill="none" stroke="#000" d="M65.28-60.63C70.89-76.89 81.29-100.3 98-114.47c11.74-9.96 28.14-15.45 41.65-18.46"/><path stroke="#000" d="M146.82-134.36l-7.48-1.72 4.05 2.41-3.44.68h0l3.44-.68-2.82 3.77 6.25-4.46h0z"/><text x="98" y="-132.87" font-family="Lato" font-size="12">a &amp; !b</text></g><g class="node"><path fill="#ffffa0" stroke="#000" d="M383-91.47h-12c-6 0-12 6-12 12v12c0 6 6 12 12 12h12c6 0 12-6 12-12v-12c0-6-6-12-12-12"/><text x="373.5" y="-76.87" font-family="Lato" font-size="12">2</text><text x="370.5" y="-63.87" font-family="Lato" font-size="12" fill="#ff4da0">❶</text></g><g class="edge"><path fill="none" stroke="#000" d="M80.22-34.34c5.66 1.94 11.89 3.77 17.78 4.87 59.88 11.16 76.46 10.77 137 4 48-5.37 61.74-4.66 106-24 4.08-1.78 8.18-4.06 12.06-6.5"/><path stroke="#000" d="M358.96-59.88l-7.57 1.25 4.65.68-2.91 1.94h0l2.91-1.94-1.17 4.56 4.09-6.49h0z"/><text x="202.5" y="-28.87" font-family="Lato" font-size="12">!a &amp; b</text></g><g class="node"><path fill="#ffffa0" stroke="#000" d="M277-91.47h-12c-6 0-12 6-12 12v12c0 6 6 12 12 12h12c6 0 12-6 12-12v-12c0-6-6-12-12-12"/><text text-anchor="middle" x="271" y="-70.37" font-family="Lato" font-size="12">3</text></g><g class="edge"><path fill="none" stroke="#000" d="M80.14-45.44c38.83-5.74 123.92-18.3 165.72-24.47"/><path stroke="#000" d="M252.9-70.95l-7.38-2.09 3.92 2.6-3.46.51h0l3.46-.51-3 3.63 6.46-4.14h0z"/><text x="148" y="-63.87" font-family="Lato" font-size="12">!a &amp; !b</text></g><g class="edge"><path fill="none" stroke="#000" d="M149.66-118.35c-5.98 6.96-13.25 14.71-20.66 20.88-12.42 10.34-18.18 9.17-31 19-5.19 3.98-10.47 8.56-15.37 13.1"/><path stroke="#000" d="M77.48-60.49l7.25-2.52-4.71.11 2.55-2.4h0l-2.55 2.4.38-4.69-2.92 7.1h0z"/><text x="99.5" y="-100.87" font-family="Lato" font-size="12">a &amp; b</text></g><g class="edge"><path fill="none" stroke="#000" d="M155.95-154.62c-1.39-9.39 1.63-17.85 9.05-17.85 5.45 0 8.52 4.56 9.22 10.7"/><path stroke="#000" d="M174.05-154.62l3.32-6.92-3.24 3.42.09-3.5h0l-.09 3.5-3.06-3.58 2.98 7.08h0z"/><text x="149.5" y="-175.87" font-family="Lato" font-size="12">a &amp; !b</text></g><g class="edge"><path fill="none" stroke="#000" d="M176.23-154.66c6-8.82 14.43-18.6 24.77-23.81 55.56-28.01 90.59-37.82 140 0 24.34 18.63 31.93 54.8 34.2 79.43"/><path stroke="#000" d="M375.75-91.8l2.61-7.22-2.87 3.73-.27-3.49h0l.27 3.49-3.41-3.26 3.67 6.75h0z"/><text x="255.5" y="-205.87" font-family="Lato" font-size="12">!a &amp; b</text></g><g class="edge"><path fill="none" stroke="#000" d="M183.03-133.77c14.71 2.95 36.05 8.72 51.97 19.3 6.8 4.52 13.04 10.72 18.3 16.94"/><path stroke="#000" d="M257.84-91.87l-1.92-7.43-.27 4.7-2.19-2.73h0l2.19 2.73-4.65-.76 6.84 3.49h0z"/><text x="201" y="-131.87" font-family="Lato" font-size="12">!a &amp; !b</text></g><g class="edge"><path fill="none" stroke="#000" d="M364.29-55.28c-6.05 8.07-14.1 17.03-23.29 22.81-41.25 25.93-57.68 21.72-106 28-60.74 7.89-79.35 5.68-137-15-3.91-1.4-7.85-3.23-11.64-5.25"/><path stroke="#000" d="M80.15-28.24l4.54 6.2-1.49-4.47 3.04 1.73h0l-3.04-1.73 4.6-1.01-7.65-.72h0z"/><text x="204" y="-7.87" font-family="Lato" font-size="12">a &amp; b</text></g><g class="edge"><path fill="none" stroke="#000" d="M358.7-87.56c-16.86-13.09-43.69-32.27-69.7-43.91-22.63-10.13-29.41-10.87-54-14-14.99-1.91-19.01-1.9-34 0-3.57.45-7.29 1.15-10.92 1.96"/><path stroke="#000" d="M183.28-141.83l7.55 1.38-4.15-2.22 3.4-.84h0l-3.4.84 2.64-3.89-6.04 4.73h0z"/><text x="255.5" y="-145.87" font-family="Lato" font-size="12">a &amp; !b</text></g><g class="edge"><path fill="none" stroke="#000" d="M367.59-91.62c-1.44-9.39 1.69-17.85 9.41-17.85 5.67 0 8.87 4.56 9.59 10.7"/><path stroke="#000" d="M386.41-91.62l3.33-6.92-3.24 3.42.09-3.5h0l-.09 3.5-3.06-3.58 2.97 7.08h0z"/><text x="361.5" y="-112.87" font-family="Lato" font-size="12">!a &amp; b</text></g><g class="edge"><path fill="none" stroke="#000" d="M358.8-73.47h-62.4"/><path stroke="#000" d="M289.17-73.47l7 3.15-3.5-3.15h3.5-3.5l3.5-3.15-7 3.15h0z"/><text x="307" y="-76.87" font-family="Lato" font-size="12">!a &amp; !b</text></g><g class="edge"><path fill="none" stroke="#000" d="M252.97-64.06C235.88-55.2 208.49-42.54 183-37.47c-32.43 6.44-70.59 3.27-95.71-.25"/><path stroke="#000" d="M80.25-38.76l6.46 4.14-3-3.63 3.47.52h0l-3.47-.52 3.93-2.6-7.39 2.09h0z"/><text x="151" y="-40.87" font-family="Lato" font-size="12">a &amp; b</text></g><g class="edge"><path fill="none" stroke="#000" d="M252.75-76.92c-14.66-3.5-35.81-9.94-51.75-20.55-6.25-4.16-12.11-9.69-17.17-15.27"/><path stroke="#000" d="M179.04-118.29l2.18 7.35.1-4.7 2.29 2.65h0l-2.29-2.65 4.67.59-6.95-3.24h0z"/><text x="202.5" y="-100.87" font-family="Lato" font-size="12">a &amp; !b</text></g><g class="edge"><path fill="none" stroke="#000" d="M289.23-63.2c5.49 2.75 11.71 5.34 17.77 6.73 14.73 3.39 19.27 3.39 34 0 3.79-.87 7.64-2.21 11.33-3.76"/><path stroke="#000" d="M358.77-63.2l-7.68.07 4.5 1.4-3.18 1.46h0l3.18-1.46-1.86 4.32 5.04-5.79h0z"/><text x="308.5" y="-59.87" font-family="Lato" font-size="12">!a &amp; b</text></g><g class="edge"><path fill="none" stroke="#000" d="M261.59-91.62c-1.44-9.39 1.69-17.85 9.41-17.85 5.67 0 8.87 4.56 9.59 10.7"/><path stroke="#000" d="M280.41-91.62l3.33-6.92-3.24 3.42.09-3.5h0l-.09 3.5-3.06-3.58 2.97 7.08h0z"/><text x="254" y="-112.87" font-family="Lato" font-size="12">!a &amp; !b</text></g></g></svg>