<?xml-stylesheet href="spot.css" type="text/css"?><svg width="460pt" height="169pt" viewBox="0 0 459.6 168.8" xmlns="http://www.w3.org/2000/svg"><g class="graph"><path fill="#fff" stroke="transparent" d="M0 168.8V0h459.6v168.8H0z"/><text x="206.3" y="-148.2" font-family="Lato" font-size="12" transform="translate(4 164.8)">Fin(</text><text x="228.3" y="-148.2" font-family="Lato" font-size="12" fill="#1f78b4" transform="translate(4 164.8)">⓿</text><text x="241.3" y="-148.2" font-family="Lato" font-size="12" transform="translate(4 164.8)">)</text><text x="198.8" y="-136.2" font-family="Lato" font-size="12" transform="translate(4 164.8)">[co-Büchi]</text><g class="node" transform="translate(4 164.8)"><path fill="#ffffa0" stroke="#000" d="M112-72.8H50c-6 0-12 6-12 12v12c0 6 6 12 12 12h62c6 0 12-6 12-12v-12c0-6-6-12-12-12"/><text x="46" y="-51.7" font-family="Lato" font-size="12">GF(a &lt;-&gt; Xb)</text></g><g class="edge" transform="translate(4 164.8)"><path fill="none" stroke="#000" d="M1.06-54.8h29.55"/><path stroke="#000" d="M37.78-54.8l-7-3.15 3.5 3.15h-3.5 3.5l-3.5 3.15 7-3.15h0z"/></g><g class="node" transform="translate(4 164.8)"><circle fill="#ffffa0" stroke="#000" cx="171.8" cy="-124.8" r="1.8"/></g><g class="edge" transform="translate(4 164.8)"><path fill="none" stroke="#000" d="M98.66-72.95c11.43-11.76 27.36-26.88 43.34-37.85 6.65-4.57 15.02-8.46 21.02-10.97M162.22-124.09l7.42-.29-5.62 4.85-1.8-4.56z"/><text x="142" y="-119.2" font-family="Lato" font-size="12">!a</text></g><g class="node" transform="translate(4 164.8)"><circle fill="#ffffa0" stroke="#000" cx="171.8" cy="-1.8" r="1.8"/></g><g class="edge" transform="translate(4 164.8)"><path fill="none" stroke="#000" d="M112.56-36.56c18.37 10.96 40.25 24.02 51.22 30.57M165.22-7.98l4.75 5.69-7.26-1.49 2.51-4.2z"/><text x="143.5" y="-23.2" font-family="Lato" font-size="12">a</text></g><g class="node" transform="translate(4 164.8)"><circle fill="#ffffa0" stroke="#000" cx="171.8" cy="-47.8" r="1.8"/></g><g class="edge" transform="translate(4 164.8)"><path fill="none" stroke="#000" d="M124.22-52.02c9.16.67 18.8 1.42 27.78 2.22 3.51.31 7.37.71 10.69 1.07M163.1-51.14l6.68 3.22-7.23 1.64.55-4.86z"/><text x="143.5" y="-54.2" font-family="Lato" font-size="12">1</text></g><g class="edge" transform="translate(4 164.8)"><path fill="none" stroke="#000" d="M169.8-124.01c-5.82 4.59-35.83 28.24-59.16 46.63"/><path stroke="#000" d="M104.87-72.83l7.45-1.86-4.7-.3 2.75-2.17h0l-2.75 2.17.8-4.64-3.55 6.8h0z"/></g><g class="node" transform="translate(4 164.8)"><path fill="#ffffa0" stroke="#000" d="M357.6-107.8h-12c-6 0-12 6-12 12v12c0 6 6 12 12 12h12c6 0 12-6 12-12v-12c0-6-6-12-12-12"/><text x="346.6" y="-86.7" font-family="Lato" font-size="12">!b</text></g><g class="edge" transform="translate(4 164.8)"><path fill="none" stroke="#000" d="M173.94-124.65c8.81 1.18 67 9.08 113.66 18.85 12.99 2.72 27.34 6.32 39.06 9.41"/><path stroke="#000" d="M333.58-94.54l-5.95-4.85 2.57 3.95-3.38-.91h0l3.38.91-4.2 2.14 7.58-1.24h0z"/></g><g class="node" transform="translate(4 164.8)"><path fill="#ffffa0" stroke="#000" d="M439.6-80.8h-12c-6 0-12 6-12 12v12c0 6 6 12 12 12h12c6 0 12-6 12-12v-12c0-6-6-12-12-12"/><text text-anchor="middle" x="433.6" y="-59.7" font-family="Lato" font-size="12">t</text></g><g class="edge" transform="translate(4 164.8)"><path fill="none" stroke="#000" d="M369.96-83.94c11.4 3.85 26.46 8.93 38.95 13.15"/><path stroke="#000" d="M415.55-68.55l-5.63-5.23 2.31 4.11-3.31-1.12h0l3.31 1.12-4.32 1.86 7.64-.74h0z"/><text x="387.6" y="-81.2" font-family="Lato" font-size="12">!b</text></g><g class="edge" transform="translate(4 164.8)"><path fill="none" stroke="#000" d="M169.65-1.96c-4-.6-17.59-2.89-27.65-7.84-12.01-5.91-24.05-14.33-34.16-22.29"/><path stroke="#000" d="M102.12-36.71l3.47 6.85-.75-4.65 2.73 2.2h0l-2.73-2.2 4.71-.25-7.43-1.95h0z"/></g><g class="node" transform="translate(4 164.8)"><path fill="#ffffa0" stroke="#000" d="M357.6-53.8h-12c-6 0-12 6-12 12v12c0 6 6 12 12 12h12c6 0 12-6 12-12v-12c0-6-6-12-12-12"/><text x="348.1" y="-32.7" font-family="Lato" font-size="12">b</text></g><g class="edge" transform="translate(4 164.8)"><path fill="none" stroke="#000" d="M173.94-1.96c8.79-1.22 66.92-9.42 113.66-18.84 12.96-2.61 27.31-5.99 39.03-8.88"/><path stroke="#000" d="M333.56-31.4L326-32.77l4.16 2.21-3.39.85h0l3.39-.85-2.63 3.91 6.03-4.75h0z"/></g><g class="edge" transform="translate(4 164.8)"><path fill="none" stroke="#000" d="M369.77-40.9c8.42-2.57 18.69-5.78 27.83-8.9 3.68-1.26 7.56-2.64 11.34-4.01"/><path stroke="#000" d="M415.58-56.27l-7.66-.53 4.37 1.75-3.28 1.21h0l3.28-1.21-2.19 4.16 5.48-5.38h0z"/><text x="389.1" y="-53.2" font-family="Lato" font-size="12">b</text></g><g class="edge" transform="translate(4 164.8)"><path fill="none" stroke="#000" d="M169.73-47.88c-4.29-.34-20.95-1.66-38.61-3.05"/><path stroke="#000" d="M124.06-51.48l6.73 3.69-3.24-3.42 3.49.28h0l-3.49-.28 3.74-2.86-7.23 2.59h0z"/></g><g class="node" transform="translate(4 164.8)"><path fill="#ffffa0" stroke="#000" d="M275.6-65.8h-53c-6 0-12 6-12 12v12c0 6 6 12 12 12h53c6 0 12-6 12-12v-12c0-6-6-12-12-12"/><text x="218.6" y="-51.2" font-family="Lato" font-size="12">F(a &lt;-&gt; Xb)</text><text x="242.6" y="-38.2" font-family="Lato" font-size="12" fill="#1f78b4">⓿</text></g><g class="edge" transform="translate(4 164.8)"><path fill="none" stroke="#000" d="M173.65-47.8h29.34"/><path stroke="#000" d="M210.26-47.8l-7-3.15 3.5 3.15h-3.5 3.5l-3.5 3.15 7-3.15h0z"/></g><g class="edge" transform="translate(4 164.8)"><path fill="none" stroke="#000" d="M287.81-63.56c13.13-5.49 27.48-11.48 39.14-16.36"/><path stroke="#000" d="M333.48-82.65l-7.67-.2 4.44 1.55-3.23 1.35h0l3.23-1.35-2.01 4.26 5.24-5.61h0z"/><text x="305.6" y="-79.2" font-family="Lato" font-size="12">!a</text></g><g class="edge" transform="translate(4 164.8)"><path fill="none" stroke="#000" d="M287.81-43.3l38.49 4.6"/><path stroke="#000" d="M333.48-37.84l-6.58-3.96 3.1 3.54-3.47-.41h0l3.47.41-3.84 2.71 7.32-2.29h0z"/><text x="307.1" y="-45.2" font-family="Lato" font-size="12">a</text></g><g class="edge" transform="translate(4 164.8)"><path fill="none" stroke="#000" d="M238.97-65.95c-1.56-9.39 1.82-17.85 10.13-17.85 6.1 0 9.55 4.56 10.33 10.7"/><path stroke="#000" d="M259.23-65.95l3.34-6.91-3.24 3.41.09-3.5h0l-.09 3.5-3.05-3.59 2.95 7.09h0z"/><text x="245.6" y="-87.2" font-family="Lato" font-size="12">1</text></g><g class="edge" transform="translate(4 164.8)"><path fill="none" stroke="#000" d="M426.36-80.95c-1.11-9.39 1.3-17.85 7.24-17.85 4.36 0 6.82 4.56 7.38 10.7"/><path stroke="#000" d="M440.84-80.95l3.28-6.94-3.21 3.44.06-3.5h0l-.06 3.5-3.08-3.56 3.01 7.06h0z"/><text x="430.1" y="-102.2" font-family="Lato" font-size="12">1</text></g></g></svg>