<?xml-stylesheet href="spot.css" type="text/css"?><svg width="268pt" height="197pt" viewBox="0 0 268 197" xmlns="http://www.w3.org/2000/svg"><g class="graph" transform="translate(4 193)"><path fill="#fff" stroke="transparent" d="M-4 4v-197h268V4H-4z"/><text x="111.5" y="-175.4" font-family="Lato" font-size="12">[Büchi]</text><g class="node"><circle fill="#ffffa0" stroke="#000" cx="56" cy="-68" r="18"/><text text-anchor="middle" x="56" y="-64.9" font-family="Lato" font-size="12">0</text></g><g class="edge"><path fill="none" stroke="#000" d="M1.15-68h29.48"/><path stroke="#000" d="M37.94-68l-7-3.15 3.5 3.15h-3.5 3.5l-3.5 3.15 7-3.15h0z"/></g><g class="node"><circle fill="#ffffa0" stroke="#000" cx="149" cy="-115" r="18"/><circle fill="none" stroke="#000" cx="149" cy="-115" r="22"/><text text-anchor="middle" x="149" y="-111.9" font-family="Lato" font-size="12">1</text></g><g class="edge"><path fill="none" stroke="#000" d="M72.44-75.97c13.66-7.06 33.88-17.5 49.96-25.81"/><path stroke="#000" d="M129.01-105.19l-7.67.41 4.56 1.19-3.11 1.61h0l3.11-1.61-1.66 4.41 4.77-6.01h0z"/><text x="93.5" y="-97.4" font-family="Lato" font-size="12">p0</text></g><g class="node"><circle fill="#ffffa0" stroke="#000" cx="149" cy="-22" r="18"/><circle fill="none" stroke="#000" cx="149" cy="-22" r="22"/><text text-anchor="middle" x="149" y="-18.9" font-family="Lato" font-size="12">2</text></g><g class="edge"><path fill="none" stroke="#000" d="M72.44-60.2c13.66 6.91 33.88 17.13 49.96 25.26"/><path stroke="#000" d="M129.01-31.6l-4.83-5.97 1.71 4.39-3.13-1.58h0l3.13 1.58-4.55 1.23 7.67.35h0z"/><text x="92" y="-52.4" font-family="Lato" font-size="12">!p0</text></g><g class="edge"><path fill="none" stroke="#000" d="M140.27-135.58c-1.21-10.26 1.7-19.42 8.73-19.42 5.27 0 8.23 5.15 8.87 12.05"/><path stroke="#000" d="M157.73-135.58l3.28-6.94-3.21 3.44.06-3.5h0l-.06 3.5-3.09-3.56 3.02 7.06h0z"/><text text-anchor="middle" x="149" y="-158.4" font-family="Lato" font-size="12">1</text></g><g class="edge"><path fill="none" stroke="#000" d="M140.27-42.58C139.06-52.84 141.97-62 149-62c5.27 0 8.23 5.15 8.87 12.05"/><path stroke="#000" d="M157.73-42.58l3.28-6.94-3.21 3.44.06-3.5h0l-.06 3.5-3.09-3.56 3.02 7.06h0z"/><text x="142" y="-65.4" font-family="Lato" font-size="12">p1</text></g><g class="node"><circle fill="#ffffa0" stroke="#000" cx="242" cy="-22" r="18"/><text text-anchor="middle" x="242" y="-18.9" font-family="Lato" font-size="12">3</text></g><g class="edge"><path fill="none" stroke="#000" d="M171.11-22h45.78"/><path stroke="#000" d="M223.96-22l-7-3.15 3.5 3.15h-3.5 3.5l-3.5 3.15 7-3.15h0z"/><text x="189" y="-25.4" font-family="Lato" font-size="12">!p1</text></g><g class="edge"><path fill="none" stroke="#000" d="M226.22-12.98C220.18-9.8 212.98-6.61 206-5c-10.2 2.35-21.26.05-30.83-3.53"/><path stroke="#000" d="M168.49-11.31l5.25 5.6-2.02-4.26 3.23 1.35h0l-3.23-1.35 4.45-1.55-7.68.21h0z"/><text x="190.5" y="-8.4" font-family="Lato" font-size="12">p1</text></g><g class="edge"><path fill="none" stroke="#000" d="M234.33-38.29C232.48-48.39 235.04-58 242-58c5.22 0 7.96 5.41 8.23 12.37"/><path stroke="#000" d="M249.67-38.29l3.67-6.74-3.41 3.25.27-3.49h0l-.27 3.49-2.87-3.73 2.61 7.22h0z"/><text x="233.5" y="-61.4" font-family="Lato" font-size="12">!p1</text></g></g></svg>