<?xml-stylesheet href="spot.css" type="text/css"?><svg width="188pt" height="172pt" viewBox="0 0 188 172.34" xmlns="http://www.w3.org/2000/svg"><g class="graph" transform="translate(4 168.34)"><path fill="#fff" stroke="transparent" d="M-4 4v-172.34h188V4H-4z"/><text x="73" y="-151.74" font-family="Lato" font-size="12">Inf(</text><text x="90" y="-151.74" font-family="Lato" font-size="12" fill="#1f78b4">⓿</text><text x="103" y="-151.74" font-family="Lato" font-size="12">)</text><text x="71.5" y="-139.74" font-family="Lato" font-size="12">[Büchi]</text><g class="node"><circle fill="#ffffa0" stroke="#000" cx="56" cy="-39.34" r="18"/><text text-anchor="middle" x="56" y="-36.24" font-family="Lato" font-size="12">1</text></g><g class="edge"><path fill="none" stroke="#000" d="M1.15-39.34h29.48"/><path stroke="#000" d="M37.94-39.34l-7-3.15 3.5 3.15h-3.5 3.5l-3.5 3.15 7-3.15h0z"/></g><g class="edge"><path fill="none" stroke="#000" d="M52.76-57.12c-.55-9.53.53-18.22 3.24-18.22 1.99 0 3.1 4.69 3.33 10.95"/><path stroke="#000" d="M59.24-57.12l3.24-6.96-3.2 3.46.05-3.5h0l-.05 3.5-3.1-3.54 3.06 7.04h0z"/><text x="40.5" y="-78.74" font-family="Lato" font-size="12">a &amp; !b</text></g><g class="edge"><path fill="none" stroke="#000" d="M50.68-56.76C47.65-74.13 49.43-93.34 56-93.34c5.7 0 7.79 14.45 6.27 29.61"/><path stroke="#000" d="M61.32-56.76l4.07-6.51-3.6 3.04.47-3.46h0l-.47 3.46-2.65-3.89 2.18 7.36h0z"/><text x="42" y="-109.74" font-family="Lato" font-size="12">a &amp; b</text><text x="49.5" y="-96.74" font-family="Lato" font-size="12" fill="#1f78b4">⓿</text></g><g class="node"><circle fill="#ffffa0" stroke="#000" cx="162" cy="-39.34" r="18"/><text text-anchor="middle" x="162" y="-36.24" font-family="Lato" font-size="12">0</text></g><g class="edge"><path fill="none" stroke="#000" d="M69.07-51.87C75.32-57.45 83.43-63.42 92-66.34c14.3-4.87 19.7-4.87 34 0 6.16 2.1 12.08 5.78 17.24 9.75"/><path stroke="#000" d="M148.93-51.87l-3.37-6.9.67 4.66-2.69-2.23h0l2.69 2.23-4.7.19 7.4 2.05h0z"/><text x="92" y="-72.74" font-family="Lato" font-size="12">!a &amp; !b</text></g><g class="edge"><path fill="none" stroke="#000" d="M74.07-37.58c5.7.51 12.08.99 17.93 1.24 15.1.65 18.9.65 34 0 3.47-.15 7.13-.38 10.73-.65"/><path stroke="#000" d="M143.93-37.58l-7.24-2.56 3.75 2.85-3.49.29h0l3.49-.29-3.23 3.42 6.72-3.71h0z"/><text x="93.5" y="-52.74" font-family="Lato" font-size="12">!a &amp; b</text><text x="102.5" y="-39.74" font-family="Lato" font-size="12" fill="#1f78b4">⓿</text></g><g class="edge"><path fill="none" stroke="#000" d="M151.12-24.99C144.91-17.3 136.16-8.55 126-4.34c-13.96 5.79-20.04 5.79-34 0-7.78-3.22-14.73-9.1-20.35-15.14"/><path stroke="#000" d="M66.88-24.99l2.2 7.35.09-4.71 2.29 2.65h0l-2.29-2.65 4.67.59-6.96-3.23h0z"/><text x="105.5" y="-7.74" font-family="Lato" font-size="12">a</text></g><g class="edge"><path fill="none" stroke="#000" d="M153.02-55.25c-2.34-10.24.65-20.09 8.98-20.09 6.38 0 9.63 5.78 9.75 13.08"/><path stroke="#000" d="M170.98-55.25l3.89-6.62-3.51 3.14.38-3.48h0l-.38 3.48-2.75-3.82 2.37 7.3h0z"/><text x="157" y="-78.74" font-family="Lato" font-size="12">!a</text></g></g></svg>