<?xml-stylesheet href="spot.css" type="text/css"?><svg width="320" height="109pt" viewBox="0 0 240 109" xmlns="http://www.w3.org/2000/svg"><g class="graph"><path fill="#fff" stroke="transparent" d="M0 109V0h240v109H0z"/><text x="114" y="-87.4" font-family="Lato" font-size="12" transform="translate(4 105)">t</text><text x="106.5" y="-74.4" font-family="Lato" font-size="12" transform="translate(4 105)">[all]</text><g class="node" transform="translate(4 105)"><circle fill="#ffffa0" stroke="#1f78b4" stroke-width="2" cx="56" cy="-18" r="18"/><text text-anchor="middle" x="56" y="-14.9" font-family="Lato" font-size="12">1</text></g><g class="edge" transform="translate(4 105)"><path fill="none" stroke="#000" d="M1.15-18h29.48"/><path stroke="#000" d="M37.94-18l-7-3.15 3.5 3.15h-3.5 3.5l-3.5 3.15 7-3.15h0z"/></g><g class="node" transform="translate(4 105)"><circle fill="#ffffa0" stroke="#6a3d9a" stroke-width="2" cx="135" cy="-18" r="18"/><text text-anchor="middle" x="135" y="-14.9" font-family="Lato" font-size="12">2</text></g><g class="edge" transform="translate(4 105)"><path fill="none" stroke="#ff7f00" stroke-width="2" d="M74.09-18h35.6"/><path fill="#ff7f00" stroke="#ff7f00" stroke-width="2" d="M116.96-18l-7-3.15 3.5 2.65h-3.5v1h3.5l-3.5 2.65 7-3.15h0z"/><text text-anchor="middle" x="95.5" y="-21.4" font-family="Lato" font-size="12">1</text><text text-anchor="middle" x="81.09" y="-8.4" font-family="Lato" font-size="12">#2</text></g><g class="node" transform="translate(4 105)"><circle fill="#ffffa0" stroke="#000" cx="214" cy="-18" r="18"/><text text-anchor="middle" x="214" y="-14.9" font-family="Lato" font-size="12">0</text></g><g class="edge" transform="translate(4 105)"><path fill="none" stroke="#ff4da0" stroke-width="2" d="M207.27-35.04C205.89-44.86 208.14-54 214-54c4.4 0 6.76 5.14 7.09 11.86"/><path fill="#ff4da0" stroke="#ff4da0" stroke-width="2" d="M220.73-35.04l3.5-6.83-2.82 3.36.17-3.49-.5-.03-.5-.02-.17 3.49-2.48-3.62 2.8 7.14h0z"/><text text-anchor="middle" x="214" y="-57.4" font-family="Lato" font-size="12">1</text><text text-anchor="middle" x="200.27" y="-38.44" font-family="Lato" font-size="12">#1</text></g><g class="edge" transform="translate(4 105)"><path fill="none" stroke="#000" d="M153.09-18h35.6"/><path stroke="#000" d="M195.96-18l-7-3.15 3.5 3.15h-3.5 3.5l-3.5 3.15 7-3.15h0z"/><text x="171" y="-21.4" font-family="Lato" font-size="12">b</text><text text-anchor="middle" x="160.09" y="-8.4" font-family="Lato" font-size="12">#3</text></g><g class="edge" transform="translate(4 105)"><path fill="none" stroke="#000" d="M128.27-35.04C126.89-44.86 129.14-54 135-54c4.4 0 6.76 5.14 7.09 11.86"/><path stroke="#000" d="M141.73-35.04l3.5-6.83-3.32 3.34.17-3.5h0l-.17 3.5-2.98-3.65 2.8 7.14h0z"/><text x="119.5" y="-57.4" font-family="Lato" font-size="12">a &amp; !b</text><text text-anchor="middle" x="121.27" y="-38.44" font-family="Lato" font-size="12">#4</text></g></g></svg>