<?xml-stylesheet href="spot.css" type="text/css"?><svg width="380" height="169pt" viewBox="0 0 285 169" xmlns="http://www.w3.org/2000/svg"><g class="graph" transform="translate(4 165)"><path fill="#fff" stroke="transparent" d="M-4 4v-169h285V4H-4z"/><text x="121.5" y="-148.4" font-family="Lato" font-size="12">Inf(</text><text x="138.5" y="-148.4" font-family="Lato" font-size="12" fill="#1f78b4">⓿</text><text x="151.5" y="-148.4" font-family="Lato" font-size="12">)</text><text x="120" y="-136.4" font-family="Lato" font-size="12">[Büchi]</text><g class="node"><circle fill="#ffffa0" stroke="#000" cx="56" cy="-34" r="18"/><text text-anchor="middle" x="56" y="-30.9" font-family="Lato" font-size="12">0</text></g><g class="edge"><path fill="none" stroke="#000" d="M1.15-34h29.48"/><path stroke="#000" d="M37.94-34l-7-3.15 3.5 3.15h-3.5 3.5l-3.5 3.15 7-3.15h0z"/></g><g class="edge"><path fill="none" stroke="#000" d="M49.62-51.04C48.32-60.86 50.45-70 56-70c4.17 0 6.4 5.14 6.71 11.86"/><path stroke="#000" d="M62.38-51.04l3.47-6.84-3.31 3.35.17-3.5h0l-.17 3.5-2.98-3.65 2.82 7.14h0z"/><text x="42" y="-86.4" font-family="Lato" font-size="12">a &amp; b</text><text x="49.5" y="-73.4" font-family="Lato" font-size="12" fill="#1f78b4">⓿</text></g><g class="node"><circle fill="#ffffa0" stroke="#000" cx="156" cy="-80" r="18"/><text text-anchor="middle" x="156" y="-76.9" font-family="Lato" font-size="12">1</text></g><g class="edge"><path fill="none" stroke="#000" d="M68.82-47.15C75.13-53.42 83.36-60.51 92-65c11.98-6.23 26.58-9.91 38.71-12.07"/><path stroke="#000" d="M137.9-78.23l-7.41-1.99 3.95 2.55-3.45.56h0l3.45-.56-2.95 3.67 6.41-4.23h0z"/><text x="101" y="-90.4" font-family="Lato" font-size="12">!b</text><text x="99.5" y="-77.4" font-family="Lato" font-size="12" fill="#1f78b4">⓿</text></g><g class="node"><circle fill="#ffffa0" stroke="#000" cx="259" cy="-18" r="18"/><text text-anchor="middle" x="259" y="-14.9" font-family="Lato" font-size="12">2</text></g><g class="edge"><path fill="none" stroke="#000" d="M74.06-32.47C90.45-31.01 115.91-28.78 138-27c33.21 2.68 71.62 5.51 95.86 7.27"/><path stroke="#000" d="M240.91-19.22l-6.76-3.65 3.26 3.4-3.49-.26h0l3.49.26-3.71 2.89 7.21-2.64h0z"/><text x="140.5" y="-43.4" font-family="Lato" font-size="12">!a &amp; b</text><text x="149.5" y="-30.4" font-family="Lato" font-size="12" fill="#1f78b4">⓿</text></g><g class="edge"><path fill="none" stroke="#000" d="M143.59-66.69C137.28-60.12 128.91-52.64 120-48c-11.94 6.21-26.54 9.67-38.67 11.6"/><path stroke="#000" d="M74.13-35.39l7.37 2.15-3.9-2.63 3.46-.49h0l-3.46.49 3.02-3.61-6.49 4.09h0z"/><text x="92" y="-51.4" font-family="Lato" font-size="12">a &amp; b</text></g><g class="edge"><path fill="none" stroke="#000" d="M147.37-95.92c-2.26-10.23.62-20.08 8.63-20.08 6.13 0 9.25 5.77 9.37 13.07"/><path stroke="#000" d="M164.63-95.92l3.87-6.63-3.5 3.15.37-3.48h0L165-99.4l-2.77-3.81 2.4 7.29h0z"/><text x="151" y="-119.4" font-family="Lato" font-size="12">!b</text></g><g class="edge"><path fill="none" stroke="#000" d="M171.9-70.85c17.33 10.64 46.04 28.26 65.5 40.2"/><path stroke="#000" d="M243.36-26.98l-4.31-6.35 1.33 4.51-2.98-1.83h0l2.98 1.83-4.63.86 7.61.98h0z"/><text x="192" y="-61.4" font-family="Lato" font-size="12">!a &amp; b</text></g><g class="edge"><path fill="none" stroke="#000" d="M241.21-13.81C217.92-8.6 174.55-1.07 138-7c-20.3-3.29-42.39-10.95-58.37-17.27"/><path stroke="#000" d="M72.75-27.06l5.31 5.55L76-25.74l3.24 1.31h0L76-25.74l4.42-1.61-7.67.29h0z"/><text x="152.5" y="-10.4" font-family="Lato" font-size="12">a</text></g><g class="edge"><path fill="none" stroke="#000" d="M250.37-33.92C248.11-44.15 250.99-54 259-54c6.13 0 9.25 5.77 9.37 13.07"/><path stroke="#000" d="M267.63-33.92l3.87-6.63-3.5 3.15.37-3.48h0L268-37.4l-2.77-3.81 2.4 7.29h0z"/><text x="254" y="-57.4" font-family="Lato" font-size="12">!a</text></g></g></svg>