<?xml-stylesheet href="spot.css" type="text/css"?><svg width="161pt" height="151pt" viewBox="0 0 161 151" xmlns="http://www.w3.org/2000/svg"><g class="graph" transform="translate(4 147)"><path fill="#fff" stroke="transparent" d="M-4 4v-151h161V4H-4z"/><text x="59.5" y="-130.4" font-family="Lato" font-size="12">Inf(</text><text x="76.5" y="-130.4" font-family="Lato" font-size="12" fill="#1f78b4">⓿</text><text x="89.5" y="-130.4" font-family="Lato" font-size="12">)</text><text x="58" y="-118.4" font-family="Lato" font-size="12">[Büchi]</text><g class="node"><circle fill="#ffffa0" stroke="#000" cx="56" cy="-18" r="18"/><text text-anchor="middle" x="56" y="-14.9" font-family="Lato" font-size="12">0</text></g><g class="edge"><path fill="none" stroke="#000" d="M1.15-18h29.48"/><path stroke="#000" d="M37.94-18l-7-3.15 3.5 3.15h-3.5 3.5l-3.5 3.15 7-3.15h0z"/></g><g class="edge"><path fill="none" stroke="#000" d="M49.62-35.04C48.32-44.86 50.45-54 56-54c4.17 0 6.4 5.14 6.71 11.86"/><path stroke="#000" d="M62.38-35.04l3.47-6.84-3.31 3.35.17-3.5h0l-.17 3.5-2.98-3.65 2.82 7.14h0z"/><text x="51" y="-57.4" font-family="Lato" font-size="12">!a</text></g><g class="node"><circle fill="#ffffa0" stroke="#000" cx="135" cy="-18" r="18"/><text text-anchor="middle" x="135" y="-14.9" font-family="Lato" font-size="12">1</text></g><g class="edge"><path fill="none" stroke="#000" d="M74.09-18h35.6"/><path stroke="#000" d="M116.96-18l-7-3.15 3.5 3.15h-3.5 3.5l-3.5 3.15 7-3.15h0z"/><text x="92" y="-21.4" font-family="Lato" font-size="12">a</text></g><g class="edge"><path fill="none" stroke="#000" d="M131.58-35.78C131-45.31 132.14-54 135-54c2.1 0 3.27 4.68 3.51 10.95"/><path stroke="#000" d="M138.42-35.78l3.24-6.96-3.2 3.46.05-3.5h0l-.05 3.5-3.1-3.54 3.06 7.04h0z"/><text x="130" y="-57.4" font-family="Lato" font-size="12">!b</text></g><g class="edge"><path fill="none" stroke="#000" d="M129.44-35.14C126.17-52.58 128.02-72 135-72c6.05 0 8.25 14.6 6.59 29.85"/><path stroke="#000" d="M140.56-35.14l4.14-6.47-3.63 3.01.51-3.47h0l-.51 3.47-2.61-3.93 2.1 7.39h0z"/><text x="131.5" y="-88.4" font-family="Lato" font-size="12">b</text><text x="128.5" y="-75.4" font-family="Lato" font-size="12" fill="#1f78b4">⓿</text></g></g></svg>