<?xml-stylesheet href="spot.css" type="text/css"?><svg width="784" height="211pt" viewBox="0 0 587.84 211" xmlns="http://www.w3.org/2000/svg"><g class="graph"><path fill="#fff" stroke="transparent" d="M0 211V0h587.84v211H0z"/><text x="271.42" y="-189.4" font-family="Lato" font-size="12" transform="translate(4 207)">[Büchi]</text><g class="node" transform="translate(4 207)"><circle fill="#ffffa0" stroke="#000" cx="60" cy="-90" r="18"/><circle fill="none" stroke="#000" cx="60" cy="-90" r="22"/><text text-anchor="middle" x="60" y="-86.9" font-family="Lato" font-size="12">3</text></g><g class="edge" transform="translate(4 207)"><path fill="none" stroke="#000" d="M1.17-90h29.54"/><path stroke="#000" d="M37.86-90l-7-3.15 3.5 3.15h-3.5 3.5l-3.5 3.15 7-3.15h0z"/></g><g class="node" transform="translate(4 207)"><path fill="#ffffa0" stroke="#000" d="M162.21-157.85L135.04-140l27.17 17.85L189.38-140l-27.17-17.85z"/><path fill="none" stroke="#000" d="M162.21-162.62L127.79-140l34.42 22.62L196.63-140l-34.42-22.62z"/><text text-anchor="middle" x="162.21" y="-136.9" font-family="Lato" font-size="12">8</text></g><g class="edge" transform="translate(4 207)"><path fill="none" stroke="#000" d="M80.32-99.64c15.67-7.82 37.89-18.9 55.08-27.48"/><path stroke="#000" d="M141.95-130.39l-7.67.31 4.54 1.25-3.13 1.57h0l3.13-1.57-1.73 4.38 4.86-5.94h0z"/><text x="100" y="-116.4" font-family="Lato" font-size="12">!a</text></g><g class="node" transform="translate(4 207)"><path fill="#ffffa0" stroke="#000" d="M162.21-71.85L135.04-54l27.17 17.85L189.38-54l-27.17-17.85z"/><path fill="none" stroke="#000" d="M162.21-76.62L127.79-54l34.42 22.62L196.63-54l-34.42-22.62z"/><text text-anchor="middle" x="162.21" y="-50.9" font-family="Lato" font-size="12">9</text></g><g class="edge" transform="translate(4 207)"><path fill="none" stroke="#000" d="M81.28-82.71c14.81 5.32 35.09 12.6 51.52 18.5"/><path stroke="#000" d="M139.57-61.77l-5.52-5.33 2.23 4.14-3.29-1.18h0l3.29 1.18-4.36 1.79 7.65-.6h0z"/><text x="101.5" y="-79.4" font-family="Lato" font-size="12">a</text></g><g class="node" transform="translate(4 207)"><circle fill="#ffffa0" stroke="#000" cx="446.42" cy="-137" r="18"/><circle fill="none" stroke="#000" cx="446.42" cy="-137" r="22"/><text text-anchor="middle" x="446.42" y="-133.9" font-family="Lato" font-size="12">0</text></g><g class="node" transform="translate(4 207)"><path fill="#ffffa0" stroke="#000" d="M545.63-154.85L518.47-137l27.16 17.85L572.8-137l-27.17-17.85z"/><path fill="none" stroke="#000" d="M545.63-159.62L511.21-137l34.42 22.62L580.06-137l-34.43-22.62z"/><text text-anchor="middle" x="545.63" y="-133.9" font-family="Lato" font-size="12">4</text></g><g class="edge" transform="translate(4 207)"><path fill="none" stroke="#000" d="M468.52-137h35.71"/><path stroke="#000" d="M511.35-137l-7-3.15 3.5 3.15h-3.5 3.5l-3.5 3.15 7-3.15h0z"/><text x="486.42" y="-140.4" font-family="Lato" font-size="12">1</text></g><g class="edge" transform="translate(4 207)"><path fill="none" stroke="#000" d="M526.47-126.9c-11.39 5.13-26.44 9.74-40.05 6.9-4.46-.93-9.03-2.4-13.41-4.09"/><path stroke="#000" d="M466.34-126.9l5.24 5.62-2.01-4.26 3.23 1.36h0l-3.23-1.36 4.45-1.55-7.68.19h0z"/><text x="486.42" y="-123.4" font-family="Lato" font-size="12">1</text></g><g class="node" transform="translate(4 207)"><circle fill="#ffffa0" stroke="#000" cx="260.42" cy="-140" r="18"/><text x="256.92" y="-136.9" font-family="Lato" font-size="12">1</text></g><g class="node" transform="translate(4 207)"><path fill="#ffffa0" stroke="#000" d="M351.42-155l-27 18 27 18 27-18-27-18z"/><text text-anchor="middle" x="351.42" y="-133.9" font-family="Lato" font-size="12">5</text></g><g class="edge" transform="translate(4 207)"><path fill="none" stroke="#000" d="M278.58-139.42c11.25.38 26.31.89 39.74 1.34"/><path stroke="#000" d="M325.57-137.84l-6.89-3.38 3.39 3.26-3.49-.11h0l3.49.11-3.6 3.03 7.1-2.91h0z"/><text x="297.92" y="-141.4" font-family="Lato" font-size="12">1</text></g><g class="edge" transform="translate(4 207)"><path fill="none" stroke="#000" d="M378.82-137h38.17"/><path stroke="#000" d="M424.27-137l-7-3.15 3.5 3.15h-3.5 3.5l-3.5 3.15 7-3.15h0z"/><text x="396.42" y="-140.4" font-family="Lato" font-size="12">!b</text></g><g class="edge" transform="translate(4 207)"><path fill="none" stroke="#000" d="M336.74-128.73c-10.86 5.55-26.48 11.24-40.32 7.73-4.86-1.23-9.78-3.3-14.33-5.62"/><path stroke="#000" d="M275.73-130.13l4.6 6.14-1.53-4.45 3.06 1.7h0l-3.06-1.7 4.58-1.06-7.65-.63h0z"/><text x="297.92" y="-124.4" font-family="Lato" font-size="12">b</text></g><g class="node" transform="translate(4 207)"><circle fill="#ffffa0" stroke="#000" cx="260.42" cy="-45" r="18"/><text text-anchor="middle" x="260.42" y="-41.9" font-family="Lato" font-size="12">2</text></g><g class="node" transform="translate(4 207)"><path fill="#ffffa0" stroke="#000" d="M351.42-99l-27 18 27 18 27-18-27-18z"/><text text-anchor="middle" x="351.42" y="-77.9" font-family="Lato" font-size="12">6</text></g><g class="edge" transform="translate(4 207)"><path fill="none" stroke="#000" d="M277.33-51.44c13.88-5.61 34.18-13.82 49.87-20.17"/><path stroke="#000" d="M334.05-74.38l-7.67-.29 4.42 1.61-3.24 1.31h0l3.24-1.31-2.06 4.23 5.31-5.55h0z"/><text x="296.42" y="-66.4" font-family="Lato" font-size="12">!a</text></g><g class="node" transform="translate(4 207)"><path fill="#ffffa0" stroke="#000" d="M351.42-36l-27 18 27 18 27-18-27-18z"/><text text-anchor="middle" x="351.42" y="-14.9" font-family="Lato" font-size="12">7</text></g><g class="edge" transform="translate(4 207)"><path fill="none" stroke="#000" d="M277.75-40.05c13.4 4.07 32.6 9.89 47.9 14.53"/><path stroke="#000" d="M332.36-23.48l-5.78-5.04 2.44 4.03-3.35-1.02h0l3.35 1.02-4.27 1.99 7.61-.98h0z"/><text x="297.92" y="-37.4" font-family="Lato" font-size="12">a</text></g><g class="edge" transform="translate(4 207)"><path fill="none" stroke="#000" d="M366.14-89.26c14.4-8.67 37.34-22.48 54.84-33.02"/><path stroke="#000" d="M427.16-126l-7.62.91 4.62.89-3 1.81h0l3-1.81-1.37 4.51 4.37-6.31h0z"/><text x="397.92" y="-115.4" font-family="Lato" font-size="12">1</text></g><g class="edge" transform="translate(4 207)"><path fill="none" stroke="#000" d="M331.37-13.29c-10.6 1.73-23.85 2.39-34.95-1.71-6.87-2.54-13.3-7.1-18.72-11.91"/><path stroke="#000" d="M272.62-31.73l2.91 7.11-.37-4.7 2.54 2.41h0l-2.54-2.41 4.71.13-7.25-2.54h0z"/><text x="297.92" y="-18.4" font-family="Lato" font-size="12">1</text></g><g class="edge" transform="translate(4 207)"><path fill="none" stroke="#000" d="M183.25-148.88c15.74-6.47 38.39-14.68 59.17-18.12 25.17-4.17 98.31-4.11 136 3 14.35 2.71 29.51 8.54 41.77 14.09"/><path stroke="#000" d="M426.68-146.88l-5.01-5.81 1.84 4.33-3.17-1.48h0l3.17 1.48-4.51 1.37 7.68.11h0z"/><text x="296.42" y="-172.4" font-family="Lato" font-size="12">!b</text></g><g class="edge" transform="translate(4 207)"><path fill="none" stroke="#000" d="M196.59-140h38.45"/><path stroke="#000" d="M242.31-140l-7-3.15 3.5 3.15h-3.5 3.5l-3.5 3.15 7-3.15h0z"/><text x="215.92" y="-143.4" font-family="Lato" font-size="12">b</text></g><g class="edge" transform="translate(4 207)"><path fill="none" stroke="#000" d="M131.13-51.65C120.94-51.84 109.7-53.17 100-57c-6.93-2.73-13.51-7.23-19.23-12.03"/><path stroke="#000" d="M75.37-73.88l3.1 7.02-.5-4.68 2.6 2.33h0l-2.6-2.33 4.71-.01-7.31-2.33h0z"/><text x="101.5" y="-60.4" font-family="Lato" font-size="12">b</text></g><g class="edge" transform="translate(4 207)"><path fill="none" stroke="#000" d="M192.6-51.25c13.58 1.27 29.52 2.76 42.43 3.97"/><path stroke="#000" d="M242.23-46.61l-6.67-3.79 3.19 3.47-3.49-.33h0l3.49.33-3.78 2.81 7.26-2.49h0z"/><text x="214.42" y="-52.4" font-family="Lato" font-size="12">!b</text></g></g></svg>