<?xml-stylesheet href="spot.css" type="text/css"?><svg width="360" height="256" viewBox="0 0 270 192" xmlns="http://www.w3.org/2000/svg"><g class="graph"><path fill="#fff" stroke="transparent" d="M0 192V0h270v192H0z"/><text x="87.5" y="-171.4" font-family="Lato" font-size="12" transform="translate(4 188)">Fin(</text><text x="109.5" y="-171.4" font-family="Lato" font-size="12" fill="#1f78b4" transform="translate(4 188)">⓿</text><text x="122.5" y="-171.4" font-family="Lato" font-size="12" transform="translate(4 188)">) &amp; Inf(</text><text x="157.5" y="-171.4" font-family="Lato" font-size="12" fill="#ff4da0" transform="translate(4 188)">❶</text><text x="170.5" y="-171.4" font-family="Lato" font-size="12" transform="translate(4 188)">)</text><text x="107" y="-159.4" font-family="Lato" font-size="12" transform="translate(4 188)">[Rabin 1]</text><g class="node" transform="translate(4 188)"><path fill="#ffffa0" stroke="#000" d="M62-78H50c-6 0-12 6-12 12v12c0 6 6 12 12 12h12c6 0 12-6 12-12v-12c0-6-6-12-12-12"/><text text-anchor="middle" x="56" y="-56.9" font-family="Lato" font-size="12">1</text></g><g class="edge" transform="translate(4 188)"><path fill="none" stroke="#000" d="M1.15-60h29.48"/><path stroke="#000" d="M37.94-60l-7-3.15 3.5 3.15h-3.5 3.5l-3.5 3.15 7-3.15h0z"/></g><g class="edge" transform="translate(4 188)"><path fill="none" stroke="#000" d="M49.49-78.15C48.49-87.54 50.66-96 56-96c3.92 0 6.14 4.56 6.64 10.7"/><path stroke="#000" d="M62.51-78.15l3.28-6.95-3.22 3.45.07-3.5h0l-.07 3.5-3.08-3.56 3.02 7.06h0z"/><text x="40.5" y="-99.4" font-family="Lato" font-size="12">a &amp; !b</text></g><g class="node" transform="translate(4 188)"><path fill="#ffffa0" stroke="#000" d="M168-121h-12c-6 0-12 6-12 12v12c0 6 6 12 12 12h12c6 0 12-6 12-12v-12c0-6-6-12-12-12"/><text text-anchor="middle" x="162" y="-99.9" font-family="Lato" font-size="12">0</text></g><g class="edge" transform="translate(4 188)"><path fill="none" stroke="#000" d="M74.17-67.1c17.17-7.1 43.69-18.06 62.91-26.01"/><path stroke="#000" d="M143.8-95.89l-7.67-.24 4.44 1.58-3.24 1.34h0l3.24-1.34-2.03 4.25 5.26-5.59h0z"/><text x="92" y="-90.4" font-family="Lato" font-size="12">!a &amp; !b</text></g><g class="node" transform="translate(4 188)"><path fill="#ffffa0" stroke="#000" d="M168-36h-12c-6 0-12 6-12 12v12c0 6 6 12 12 12h12c6 0 12-6 12-12v-12c0-6-6-12-12-12"/><text x="158.5" y="-21.4" font-family="Lato" font-size="12">3</text><text x="155.5" y="-8.4" font-family="Lato" font-size="12" fill="#ff4da0">❶</text></g><g class="edge" transform="translate(4 188)"><path fill="none" stroke="#000" d="M74.17-53.06c17.17 6.93 43.69 17.64 62.91 25.4"/><path stroke="#000" d="M143.8-24.95l-5.31-5.54 2.07 4.23-3.25-1.31h0l3.25 1.31-4.43 1.61 7.67-.3h0z"/><text x="105.5" y="-48.4" font-family="Lato" font-size="12">b</text></g><g class="edge" transform="translate(4 188)"><path fill="none" stroke="#000" d="M154.76-121.15c-1.11-9.39 1.3-17.85 7.24-17.85 4.36 0 6.82 4.56 7.38 10.7"/><path stroke="#000" d="M169.24-121.15l3.28-6.94-3.21 3.44.06-3.5h0l-.06 3.5-3.08-3.56 3.01 7.06h0z"/><text text-anchor="middle" x="162" y="-142.4" font-family="Lato" font-size="12">1</text></g><g class="edge" transform="translate(4 188)"><path fill="none" stroke="#000" d="M154.76-36.15C153.65-45.54 156.06-54 162-54c4.36 0 6.82 4.56 7.38 10.7"/><path stroke="#000" d="M169.24-36.15l3.28-6.94-3.21 3.44.06-3.5h0l-.06 3.5-3.08-3.56 3.01 7.06h0z"/><text x="158.5" y="-57.4" font-family="Lato" font-size="12">b</text></g><g class="node" transform="translate(4 188)"><path fill="#ffffa0" stroke="#000" d="M250-36h-12c-6 0-12 6-12 12v12c0 6 6 12 12 12h12c6 0 12-6 12-12v-12c0-6-6-12-12-12"/><text text-anchor="middle" x="244" y="-14.9" font-family="Lato" font-size="12">2</text></g><g class="edge" transform="translate(4 188)"><path fill="none" stroke="#000" d="M180.36-18h38.25"/><path stroke="#000" d="M225.95-18l-7-3.15 3.5 3.15h-3.5 3.5l-3.5 3.15 7-3.15h0z"/><text x="198" y="-21.4" font-family="Lato" font-size="12">!b</text></g><g class="edge" transform="translate(4 188)"><path fill="none" stroke="#000" d="M225.77-7.72C220.28-4.98 214.06-2.39 208-1c-7.08 1.63-14.55.19-21.32-2.43"/><path stroke="#000" d="M180.18-6.36l5.09 5.75-1.9-4.31 3.19 1.44h0l-3.19-1.44 4.49-1.43-7.68-.01h0z"/><text x="199.5" y="-4.4" font-family="Lato" font-size="12">b</text></g><g class="edge" transform="translate(4 188)"><path fill="none" stroke="#000" d="M236.76-36.15C235.65-45.54 238.06-54 244-54c4.36 0 6.82 4.56 7.38 10.7"/><path stroke="#000" d="M251.24-36.15l3.28-6.94-3.21 3.44.06-3.5h0l-.06 3.5-3.08-3.56 3.01 7.06h0z"/><text x="239" y="-57.4" font-family="Lato" font-size="12">!b</text></g></g></svg>