<?xml-stylesheet href="spot.css" type="text/css"?><svg width="251pt" height="104pt" viewBox="0 0 251 104" xmlns="http://www.w3.org/2000/svg"><g class="graph"><path fill="#fff" stroke="transparent" d="M0 104V0h251v104H0z"/><text x="103" y="-82.4" font-family="Lato" font-size="12" transform="translate(4 100)">[Büchi]</text><g class="node" transform="translate(4 100)"><circle fill="#ffffa0" stroke="#000" cx="56" cy="-22" r="18"/><text text-anchor="middle" x="56" y="-18.9" font-family="Lato" font-size="12">0</text></g><g class="edge" transform="translate(4 100)"><path fill="none" stroke="#000" d="M1.15-22h29.48"/><path stroke="#000" d="M37.94-22l-7-3.15 3.5 3.15h-3.5 3.5l-3.5 3.15 7-3.15h0z"/></g><g class="edge" transform="translate(4 100)"><path fill="none" stroke="#000" d="M49.62-39.04C48.32-48.86 50.45-58 56-58c4.17 0 6.4 5.14 6.71 11.86"/><path stroke="#000" d="M62.38-39.04l3.47-6.84-3.31 3.35.17-3.5h0l-.17 3.5-2.98-3.65 2.82 7.14h0z"/><text x="40.5" y="-61.4" font-family="Lato" font-size="12">a &amp; !b</text></g><g class="node" transform="translate(4 100)"><circle fill="#ffffa0" stroke="#000" cx="139" cy="-22" r="18"/><circle fill="none" stroke="#000" cx="139" cy="-22" r="22"/><text text-anchor="middle" x="139" y="-18.9" font-family="Lato" font-size="12">2</text></g><g class="edge" transform="translate(4 100)"><path fill="none" stroke="#000" d="M74.18-22h35.5"/><path stroke="#000" d="M116.81-22l-7-3.15 3.5 3.15h-3.5 3.5l-3.5 3.15 7-3.15h0z"/><text x="92" y="-25.4" font-family="Lato" font-size="12">b</text></g><g class="edge" transform="translate(4 100)"><path fill="none" stroke="#000" d="M131.32-42.99C130.37-53.09 132.93-62 139-62c4.55 0 7.13 5.01 7.74 11.78"/><path stroke="#000" d="M146.68-42.99l3.2-6.98-3.17 3.48.02-3.5h0l-.02 3.5-3.13-3.52 3.1 7.02h0z"/><text x="135.5" y="-65.4" font-family="Lato" font-size="12">b</text></g><g class="node" transform="translate(4 100)"><circle fill="#ffffa0" stroke="#000" cx="225" cy="-22" r="18"/><text text-anchor="middle" x="225" y="-18.9" font-family="Lato" font-size="12">1</text></g><g class="edge" transform="translate(4 100)"><path fill="none" stroke="#000" d="M161.2-22h38.36"/><path stroke="#000" d="M206.77-22l-7-3.15 3.5 3.15h-3.5 3.5l-3.5 3.15 7-3.15h0z"/><text x="179" y="-25.4" font-family="Lato" font-size="12">!b</text></g><g class="edge" transform="translate(4 100)"><path fill="none" stroke="#000" d="M209.22-12.98C203.18-9.8 195.98-6.61 189-5c-8.06 1.85-16.65.19-24.34-2.71"/><path stroke="#000" d="M157.88-10.65l5.16 5.67-1.95-4.28 3.21 1.39h0l-3.21-1.39 4.46-1.49-7.67.1h0z"/><text x="180.5" y="-8.4" font-family="Lato" font-size="12">b</text></g><g class="edge" transform="translate(4 100)"><path fill="none" stroke="#000" d="M217.97-38.66C216.41-48.62 218.75-58 225-58c4.69 0 7.18 5.27 7.47 12.11"/><path stroke="#000" d="M232.03-38.66l3.57-6.8-3.36 3.3.22-3.49h0l-.22 3.49-2.93-3.68 2.72 7.18h0z"/><text x="220" y="-61.4" font-family="Lato" font-size="12">!b</text></g></g></svg>