<?xml-stylesheet href="spot.css" type="text/css"?><svg width="344pt" height="560" viewBox="0 0 344 419.59" xmlns="http://www.w3.org/2000/svg"><g class="graph" transform="translate(4 415.59)"><path fill="#fff" stroke="transparent" d="M-4 4v-419.59h344V4H-4z"/><text x="149.5" y="-397.99" font-family="Lato" font-size="12">[Büchi]</text><g class="node"><circle fill="#ffffa0" stroke="#000" cx="60" cy="-209.59" r="18"/><circle fill="none" stroke="#000" cx="60" cy="-209.59" r="22"/><text text-anchor="middle" x="60" y="-206.49" font-family="Lato" font-size="12">6</text></g><g class="edge"><path fill="none" stroke="#000" d="M1.17-209.59h29.54"/><path stroke="#000" d="M37.86-209.59l-7-3.15 3.5 3.15h-3.5 3.5l-3.5 3.15 7-3.15h0z"/></g><g class="edge"><path fill="none" stroke="#000" d="M52.68-230.58c-.9-10.1 1.54-19.01 7.32-19.01 4.34 0 6.79 5.01 7.37 11.78"/><path stroke="#000" d="M67.32-230.58l3.2-6.98-3.18 3.48.03-3.5h0l-.03 3.5-3.12-3.53 3.1 7.03h0z"/><text x="35.5" y="-252.99" font-family="Lato" font-size="12">a &amp; b &amp; c</text></g><g class="node"><circle fill="#ffffa0" stroke="#000" cx="314" cy="-337.59" r="18"/><circle fill="none" stroke="#000" cx="314" cy="-337.59" r="22"/><text text-anchor="middle" x="314" y="-334.49" font-family="Lato" font-size="12">0</text></g><g class="edge"><path fill="none" stroke="#000" d="M68.6-230.1c6.73-16.52 17.61-39.83 31.4-57.49 25.22-32.3 31.57-45.79 70-60 38.3-14.17 86.26-6.07 115.75 1.58"/><path stroke="#000" d="M292.83-344.09l-5.93-4.88 2.56 3.96-3.38-.92h0l3.38.92-4.21 2.13 7.58-1.21h0z"/><text x="170" y="-357.99" font-family="Lato" font-size="12">!a &amp; !b &amp; c</text></g><g class="node"><circle fill="#ffffa0" stroke="#000" cx="197.5" cy="-285.59" r="18"/><circle fill="none" stroke="#000" cx="197.5" cy="-285.59" r="22"/><text text-anchor="middle" x="197.5" y="-282.49" font-family="Lato" font-size="12">1</text></g><g class="edge"><path fill="none" stroke="#000" d="M75.43-225.8c6.91-7.07 15.62-15.04 24.57-20.79 21.75-13.99 49.34-24.53 69.45-31.1"/><path stroke="#000" d="M176.23-279.85l-7.63-.88 4.29 1.94-3.33 1.06h0l3.33-1.06-2.38 4.06 5.72-5.12h0z"/><text x="100" y="-273.99" font-family="Lato" font-size="12">!a &amp; b &amp; c</text></g><g class="node"><circle fill="#ffffa0" stroke="#000" cx="314" cy="-232.59" r="18"/><circle fill="none" stroke="#000" cx="314" cy="-232.59" r="22"/><text text-anchor="middle" x="314" y="-229.49" font-family="Lato" font-size="12">2</text></g><g class="edge"><path fill="none" stroke="#000" d="M82.05-211.52c45.21-4.12 151.62-13.83 202.67-18.49"/><path stroke="#000" d="M291.83-230.66l-7.26-2.5 3.78 2.82-3.49.31h0l3.49-.31-3.2 3.45 6.68-3.77h0z"/><text x="170" y="-226.99" font-family="Lato" font-size="12">!a &amp; b &amp; !c</text></g><g class="node"><circle fill="#ffffa0" stroke="#000" cx="314" cy="-50.59" r="18"/><circle fill="none" stroke="#000" cx="314" cy="-50.59" r="22"/><text text-anchor="middle" x="314" y="-47.49" font-family="Lato" font-size="12">3</text></g><g class="edge"><path fill="none" stroke="#000" d="M64.27-187.89C72.43-142.73 98.45-40.1 170-6.59c40.63 19.02 91.52-7.65 120.34-27.02"/><path stroke="#000" d="M296.14-37.61l-7.55 1.38 4.67.6-2.88 1.99h0l2.88-1.99-1.09 4.58 3.97-6.56h0z"/><text x="170" y="-9.99" font-family="Lato" font-size="12">a &amp; !b &amp; !c</text></g><g class="node"><circle fill="#ffffa0" stroke="#000" cx="197.5" cy="-143.59" r="18"/><circle fill="none" stroke="#000" cx="197.5" cy="-143.59" r="22"/><text text-anchor="middle" x="197.5" y="-140.49" font-family="Lato" font-size="12">4</text></g><g class="edge"><path fill="none" stroke="#000" d="M80.13-200.28c23.8 11.6 64.54 31.44 90.95 44.31"/><path stroke="#000" d="M177.47-152.86l-4.91-5.9 1.76 4.36-3.14-1.53h0l3.14 1.53-4.52 1.3 7.67.24h0z"/><text x="100" y="-192.99" font-family="Lato" font-size="12">a &amp; !b &amp; c</text></g><g class="node"><circle fill="#ffffa0" stroke="#000" cx="197.5" cy="-50.59" r="18"/><circle fill="none" stroke="#000" cx="197.5" cy="-50.59" r="22"/><text text-anchor="middle" x="197.5" y="-47.49" font-family="Lato" font-size="12">5</text></g><g class="edge"><path fill="none" stroke="#000" d="M71.88-190.83c7.37 12.17 17.65 28.14 28.12 41.24 23.67 29.59 54.85 60.34 75.27 79.56"/><path stroke="#000" d="M180.48-65.16l-2.96-7.08.4 4.69-2.56-2.39h0l2.56 2.39-4.71-.09 7.27 2.48h0z"/><text x="100" y="-152.99" font-family="Lato" font-size="12">a &amp; b &amp; !c</text></g><g class="edge"><path fill="none" stroke="#000" d="M304.29-357.35c-1.65-10.59 1.59-20.24 9.71-20.24 6.22 0 9.57 5.65 10.06 13.06"/><path stroke="#000" d="M323.71-357.35l3.49-6.84-3.32 3.34.17-3.49h0l-.17 3.49-2.97-3.65 2.8 7.15h0z"/><text x="310.5" y="-380.99" font-family="Lato" font-size="12">c</text></g><g class="edge"><path fill="none" stroke="#000" d="M215.55-298.79c8.01-5.74 17.88-12.2 27.45-16.8 13.46-6.49 29.28-11.65 42.47-15.34"/><path stroke="#000" d="M292.5-332.82l-7.58-1.22 4.2 2.13-3.38.91h0l3.38-.91-2.56 3.95 5.94-4.86h0z"/><text x="243" y="-329.99" font-family="Lato" font-size="12">!b &amp; c</text></g><g class="edge"><path fill="none" stroke="#000" d="M186.79-304.94c-2-10.75 1.57-20.65 10.71-20.65 7 0 10.73 5.8 11.2 13.35"/><path stroke="#000" d="M208.21-304.94l3.61-6.77-3.37 3.28.23-3.49h0l-.23 3.49-2.91-3.7 2.67 7.19h0z"/><text x="183.5" y="-328.99" font-family="Lato" font-size="12">b &amp; c</text></g><g class="edge"><path fill="none" stroke="#000" d="M219.56-288.16c15.85-.96 37.63-.16 54.44 8.57 9.79 5.08 18.06 13.78 24.43 22.34"/><path stroke="#000" d="M302.53-251.41l-1.44-7.53-.57 4.67-2.01-2.87h0l2.01 2.87-4.58-1.06 6.59 3.92h0z"/><text x="243" y="-290.99" font-family="Lato" font-size="12">b &amp; !c</text></g><g class="edge"><path fill="none" stroke="#000" d="M304.29-252.35c-1.65-10.59 1.59-20.24 9.71-20.24 6.22 0 9.57 5.65 10.06 13.06"/><path stroke="#000" d="M323.71-252.35l3.49-6.84-3.32 3.34.17-3.49h0l-.17 3.49-2.97-3.65 2.8 7.15h0z"/><text x="310.5" y="-275.99" font-family="Lato" font-size="12">b</text></g><g class="edge"><path fill="none" stroke="#000" d="M304.29-70.35c-1.65-10.59 1.59-20.24 9.71-20.24 6.22 0 9.57 5.65 10.06 13.06"/><path stroke="#000" d="M323.71-70.35l3.49-6.84-3.32 3.34.17-3.49h0l-.17 3.49-2.97-3.65 2.8 7.15h0z"/><text x="310.5" y="-93.99" font-family="Lato" font-size="12">a</text></g><g class="edge"><path fill="none" stroke="#000" d="M210.5-161.44c15.32-23.02 42.38-64.47 63.5-101.15 9.27-16.11 18.91-34.63 26.29-49.23"/><path stroke="#000" d="M303.51-318.24l-5.96 4.84 4.39-1.71-1.57 3.13h0l1.57-3.13 1.24 4.54.33-7.67h0z"/><text x="243" y="-265.99" font-family="Lato" font-size="12">!a &amp; c</text></g><g class="edge"><path fill="none" stroke="#000" d="M218.82-137.91c16.27 5.32 38.98 14.53 55.18 28.32 10.73 9.13 19.68 21.93 26.28 33.27"/><path stroke="#000" d="M303.71-70.2l-.67-7.65-1.04 4.6-1.71-3.06h0l1.71 3.06-4.46-1.52 6.17 4.57h0z"/><text x="243" y="-131.99" font-family="Lato" font-size="12">a &amp; !c</text></g><g class="edge"><path fill="none" stroke="#000" d="M186.79-162.94c-2-10.75 1.57-20.65 10.71-20.65 7 0 10.73 5.8 11.2 13.35"/><path stroke="#000" d="M208.21-162.94l3.61-6.77-3.37 3.28.23-3.49h0l-.23 3.49-2.91-3.7 2.67 7.19h0z"/><text x="183.5" y="-186.99" font-family="Lato" font-size="12">a &amp; c</text></g><g class="edge"><path fill="none" stroke="#000" d="M218.77-56.89c17.15-6.35 41.12-17.8 55.23-35.7 25.52-32.39 34.35-80.47 37.4-111.01"/><path stroke="#000" d="M312.03-210.59l-3.77 6.69 3.45-3.21-.31 3.49h0l.31-3.49 2.83 3.77-2.51-7.25h0z"/><text x="243" y="-95.99" font-family="Lato" font-size="12">!a &amp; b</text></g><g class="edge"><path fill="none" stroke="#000" d="M219.5-50.59h65.13"/><path stroke="#000" d="M291.74-50.59l-7-3.15 3.5 3.15h-3.5 3.5l-3.5 3.15 7-3.15h0z"/><text x="243" y="-53.99" font-family="Lato" font-size="12">a &amp; !b</text></g><g class="edge"><path fill="none" stroke="#000" d="M186.79-69.94c-2-10.75 1.57-20.65 10.71-20.65 7 0 10.73 5.8 11.2 13.35"/><path stroke="#000" d="M208.21-69.94l3.61-6.77-3.37 3.28.23-3.49h0l-.23 3.49-2.91-3.7 2.67 7.19h0z"/><text x="183.5" y="-93.99" font-family="Lato" font-size="12">a &amp; b</text></g></g></svg>