<?xml-stylesheet href="spot.css" type="text/css"?><svg width="161pt" height="372" viewBox="0 0 161 279" xmlns="http://www.w3.org/2000/svg"><g class="graph" transform="translate(4 275)"><path fill="#fff" stroke="transparent" d="M-4 4v-279h161V4H-4z"/><text x="74.5" y="-257.4" font-family="Lato" font-size="12">t</text><text x="67" y="-244.4" font-family="Lato" font-size="12">[all]</text><g class="node"><circle fill="#ffffa0" stroke="#000" cx="56" cy="-103" r="18"/><text text-anchor="middle" x="56" y="-99.9" font-family="Lato" font-size="12">0</text></g><g class="edge"><path fill="none" stroke="#000" d="M1.15-103h29.48"/><path stroke="#000" d="M37.94-103l-7-3.15 3.5 3.15h-3.5 3.5l-3.5 3.15 7-3.15h0z"/></g><g class="node"><circle fill="#ffffa0" stroke="#000" cx="135" cy="-188" r="18"/><text text-anchor="middle" x="135" y="-184.9" font-family="Lato" font-size="12">1</text></g><g class="edge"><path fill="none" stroke="#000" d="M68.69-115.91c13.01-14.35 34.11-37.65 48.79-53.86"/><path stroke="#000" d="M122.2-174.97l-7.04 3.07 4.69-.47-2.35 2.59h0l2.35-2.59-.02 4.7 2.37-7.3h0z"/><text x="92" y="-151.4" font-family="Lato" font-size="12">a</text></g><g class="node"><circle fill="#ffffa0" stroke="#000" cx="135" cy="-103" r="18"/><text text-anchor="middle" x="135" y="-99.9" font-family="Lato" font-size="12">2</text></g><g class="edge"><path fill="none" stroke="#000" d="M74.09-103h35.6"/><path stroke="#000" d="M116.96-103l-7-3.15 3.5 3.15h-3.5 3.5l-3.5 3.15 7-3.15h0z"/><text x="92" y="-106.4" font-family="Lato" font-size="12">b</text></g><g class="node"><circle fill="#ffffa0" stroke="#000" cx="135" cy="-18" r="18"/><text text-anchor="middle" x="135" y="-14.9" font-family="Lato" font-size="12">3</text></g><g class="edge"><path fill="none" stroke="#000" d="M68.69-90.09c13.01 14.35 34.11 37.65 48.79 53.86"/><path stroke="#000" d="M122.2-31.03l-2.37-7.3.02 4.7-2.35-2.59h0l2.35 2.59-4.69-.47 7.04 3.07h0z"/><text x="92" y="-66.4" font-family="Lato" font-size="12">c</text></g><g class="edge"><path fill="none" stroke="#000" d="M128.27-205.04c-1.38-9.82.87-18.96 6.73-18.96 4.4 0 6.76 5.14 7.09 11.86"/><path stroke="#000" d="M141.73-205.04l3.5-6.83-3.32 3.34.17-3.5h0l-.17 3.5-2.98-3.65 2.8 7.14h0z"/><text x="131.5" y="-227.4" font-family="Lato" font-size="12">a</text></g><g class="edge"><path fill="none" stroke="#000" d="M128.27-120.04c-1.38-9.82.87-18.96 6.73-18.96 4.4 0 6.76 5.14 7.09 11.86"/><path stroke="#000" d="M141.73-120.04l3.5-6.83-3.32 3.34.17-3.5h0l-.17 3.5-2.98-3.65 2.8 7.14h0z"/><text x="131.5" y="-142.4" font-family="Lato" font-size="12">b</text></g><g class="edge"><path fill="none" stroke="#000" d="M128.27-35.04C126.89-44.86 129.14-54 135-54c4.4 0 6.76 5.14 7.09 11.86"/><path stroke="#000" d="M141.73-35.04l3.5-6.83-3.32 3.34.17-3.5h0l-.17 3.5-2.98-3.65 2.8 7.14h0z"/><text x="131.5" y="-57.4" font-family="Lato" font-size="12">c</text></g></g></svg>