<?xml-stylesheet href="spot.css" type="text/css"?><svg width="349pt" height="332" viewBox="0 0 349 249" xmlns="http://www.w3.org/2000/svg"><g class="graph" transform="translate(4 245)"><path fill="#fff" stroke="transparent" d="M-4 4v-249h349V4H-4z"/><text x="153.5" y="-228.4" font-family="Lato" font-size="12">Inf(</text><text x="170.5" y="-228.4" font-family="Lato" font-size="12" fill="#1f78b4">⓿</text><text x="183.5" y="-228.4" font-family="Lato" font-size="12">)</text><text x="152" y="-216.4" font-family="Lato" font-size="12">[Büchi]</text><g class="node"><circle fill="#ffffa0" stroke="#000" cx="56" cy="-67" r="18"/><text text-anchor="middle" x="56" y="-63.9" font-family="Lato" font-size="12">0</text></g><g class="edge"><path fill="none" stroke="#000" d="M1.15-67h29.48"/><path stroke="#000" d="M37.94-67l-7-3.15 3.5 3.15h-3.5 3.5l-3.5 3.15 7-3.15h0z"/></g><g class="node"><circle fill="#ffffa0" stroke="#000" cx="241" cy="-84" r="18"/><text text-anchor="middle" x="241" y="-80.9" font-family="Lato" font-size="12">1</text></g><g class="edge"><path fill="none" stroke="#000" d="M72.62-74.45C84.49-79.69 101.38-86.23 117-89c33.94-6.03 73.95-2.47 98.9.98"/><path stroke="#000" d="M223.13-86.96l-6.47-4.13 3.01 3.62-3.46-.5h0l3.46.5-3.92 2.61 7.38-2.1h0z"/><text x="130" y="-95.4" font-family="Lato" font-size="12">!a</text></g><g class="node"><circle fill="#ffffa0" stroke="#000" cx="135" cy="-18" r="18"/><text text-anchor="middle" x="135" y="-14.9" font-family="Lato" font-size="12">3</text></g><g class="edge"><path fill="none" stroke="#000" d="M71.48-57.78c11.76 7.48 28.49 18.12 41.68 26.52"/><path stroke="#000" d="M119.32-27.34l-4.21-6.42 1.26 4.54-2.96-1.88h0l2.96 1.88-4.65.78 7.6 1.1h0z"/><text x="92" y="-46.4" font-family="Lato" font-size="12">a</text></g><g class="node"><circle fill="#ffffa0" stroke="#000" cx="323" cy="-116" r="18"/><text text-anchor="middle" x="323" y="-112.9" font-family="Lato" font-size="12">2</text></g><g class="edge"><path fill="none" stroke="#000" d="M258.19-90.48c11.9-4.75 28.21-11.28 41.37-16.54"/><path stroke="#000" d="M306.11-109.64l-7.67-.33 4.42 1.63-3.25 1.3h0l3.25-1.3-2.08 4.22 5.33-5.52h0z"/><text x="277" y="-104.4" font-family="Lato" font-size="12">!b</text></g><g class="node"><circle fill="#ffffa0" stroke="#000" cx="323" cy="-18" r="18"/><text text-anchor="middle" x="323" y="-14.9" font-family="Lato" font-size="12">4</text></g><g class="edge"><path fill="none" stroke="#000" d="M255.57-72.8l47.55 39.22"/><path stroke="#000" d="M308.63-29.03l-3.4-6.89.7 4.66-2.7-2.23h0l2.7 2.23-4.7.2 7.4 2.03h0z"/><text x="278.5" y="-57.4" font-family="Lato" font-size="12">b</text></g><g class="edge"><path fill="none" stroke="#000" d="M150.9-27.46c18.02-11.43 48.44-30.74 68.64-43.56"/><path stroke="#000" d="M225.46-74.77l-7.6 1.09 4.65.78-2.96 1.88h0l2.96-1.88-1.27 4.54 4.22-6.41h0z"/><text x="171" y="-63.4" font-family="Lato" font-size="12">!a &amp; !b</text></g><g class="edge"><path fill="none" stroke="#000" d="M128.27-35.04C126.89-44.86 129.14-54 135-54c4.4 0 6.76 5.14 7.09 11.86"/><path stroke="#000" d="M141.73-35.04l3.5-6.83-3.32 3.34.17-3.5h0l-.17 3.5-2.98-3.65 2.8 7.14h0z"/><text x="119.5" y="-70.4" font-family="Lato" font-size="12">a &amp; !b</text><text x="128.5" y="-57.4" font-family="Lato" font-size="12" fill="#1f78b4">⓿</text></g><g class="edge"><path fill="none" stroke="#000" d="M153.17-18h144.56"/><path stroke="#000" d="M304.88-18l-7-3.15 3.5 3.15h-3.5 3.5l-3.5 3.15 7-3.15h0z"/><text x="237.5" y="-21.4" font-family="Lato" font-size="12">b</text></g><g class="edge"><path fill="none" stroke="#000" d="M319.4-133.78c-.61-9.53.59-18.22 3.6-18.22 2.21 0 3.44 4.68 3.7 10.95"/><path stroke="#000" d="M326.6-133.78l3.25-6.96-3.2 3.46.05-3.5h0l-.05 3.5-3.1-3.55 3.05 7.05h0z"/><text x="319.5" y="-155.4" font-family="Lato" font-size="12">b</text></g><g class="edge"><path fill="none" stroke="#000" d="M317.15-133.14C313.71-150.58 315.66-170 323-170c6.37 0 8.68 14.6 6.94 29.85"/><path stroke="#000" d="M328.85-133.14l4.19-6.44-3.65 2.98.53-3.46h0l-.53 3.46-2.58-3.94 2.04 7.4h0z"/><text x="318" y="-186.4" font-family="Lato" font-size="12">!b</text><text x="316.5" y="-173.4" font-family="Lato" font-size="12" fill="#1f78b4">⓿</text></g><g class="edge"><path fill="none" stroke="#000" d="M315.97-34.66C314.41-44.62 316.75-54 323-54c4.69 0 7.18 5.27 7.47 12.11"/><path stroke="#000" d="M330.03-34.66l3.57-6.8-3.36 3.3.22-3.49h0l-.22 3.49-2.93-3.68 2.72 7.18h0z"/><text x="319.5" y="-70.4" font-family="Lato" font-size="12">1</text><text x="316.5" y="-57.4" font-family="Lato" font-size="12" fill="#1f78b4">⓿</text></g></g></svg>