<?xml-stylesheet href="spot.css" type="text/css"?><svg width="596" height="197pt" viewBox="0 0 447 197" xmlns="http://www.w3.org/2000/svg"><g class="graph" transform="translate(4 193)"><path fill="#fff" stroke="transparent" d="M-4 4v-197h447V4H-4z"/><text x="201" y="-175.4" font-family="Lato" font-size="12">[Büchi]</text><g class="node"><circle fill="#ffffa0" stroke="#000" cx="56" cy="-67" r="18"/><text text-anchor="middle" x="56" y="-63.9" font-family="Lato" font-size="12">0</text></g><g class="edge"><path fill="none" stroke="#000" d="M1.15-67h29.48"/><path stroke="#000" d="M37.94-67l-7-3.15 3.5 3.15h-3.5 3.5l-3.5 3.15 7-3.15h0z"/></g><g class="node"><circle fill="#ffffa0" stroke="#000" cx="249" cy="-84" r="18"/><text text-anchor="middle" x="249" y="-80.9" font-family="Lato" font-size="12">1</text></g><g class="edge"><path fill="none" stroke="#000" d="M73.04-72.85C84.98-76.89 101.77-81.88 117-84c36.91-5.13 80.22-3.69 106.64-1.99"/><path stroke="#000" d="M230.94-85.49l-6.77-3.62 3.28 3.38-3.49-.24h0l3.49.24-3.71 2.9 7.2-2.66h0z"/><text x="134" y="-90.4" font-family="Lato" font-size="12">!a</text></g><g class="node"><circle fill="#ffffa0" stroke="#000" cx="139" cy="-22" r="18"/><circle fill="none" stroke="#000" cx="139" cy="-22" r="22"/><text text-anchor="middle" x="139" y="-18.9" font-family="Lato" font-size="12">2</text></g><g class="edge"><path fill="none" stroke="#000" d="M72.24-58.54c11.5 6.39 27.52 15.3 40.87 22.71"/><path stroke="#000" d="M119.42-32.32l-4.59-6.16 1.53 4.46-3.06-1.7h0l3.06 1.7-4.59 1.05 7.65.65h0z"/><text x="92" y="-51.4" font-family="Lato" font-size="12">a</text></g><g class="node"><circle fill="#ffffa0" stroke="#000" cx="335" cy="-115" r="18"/><circle fill="none" stroke="#000" cx="335" cy="-115" r="22"/><text text-anchor="middle" x="335" y="-111.9" font-family="Lato" font-size="12">4</text></g><g class="edge"><path fill="none" stroke="#000" d="M266.2-89.98c11.61-4.28 27.51-10.15 41-15.13"/><path stroke="#000" d="M314-107.62l-7.66-.53 4.38 1.74-3.29 1.21h0l3.29-1.21-2.2 4.17 5.48-5.38h0z"/><text x="285" y="-103.4" font-family="Lato" font-size="12">!b</text></g><g class="node"><circle fill="#ffffa0" stroke="#000" cx="335" cy="-22" r="18"/><circle fill="none" stroke="#000" cx="335" cy="-22" r="22"/><text text-anchor="middle" x="335" y="-18.9" font-family="Lato" font-size="12">5</text></g><g class="edge"><path fill="none" stroke="#000" d="M263.87-73.76c12.84 9.47 32.16 23.73 47.27 34.89"/><path stroke="#000" d="M316.91-34.61l-3.76-6.69.95 4.61-2.82-2.08h0l2.82 2.08-4.69.46 7.5 1.62h0z"/><text x="286.5" y="-60.4" font-family="Lato" font-size="12">b</text></g><g class="edge"><path fill="none" stroke="#000" d="M158.81-32.8c18.9-10.85 47.97-27.54 67.75-38.89"/><path stroke="#000" d="M232.88-75.32l-7.64.75 4.61.99-3.04 1.74h0l3.04-1.74-1.47 4.47 4.5-6.21h0z"/><text x="179" y="-66.4" font-family="Lato" font-size="12">!a &amp; !b</text></g><g class="edge"><path fill="none" stroke="#000" d="M131.32-42.99C130.37-53.09 132.93-62 139-62c4.55 0 7.13 5.01 7.74 11.78"/><path stroke="#000" d="M146.68-42.99l3.2-6.98-3.17 3.48.02-3.5h0l-.02 3.5-3.13-3.52 3.1 7.02h0z"/><text x="123.5" y="-65.4" font-family="Lato" font-size="12">a &amp; !b</text></g><g class="edge"><path fill="none" stroke="#000" d="M161.13-22h144.32"/><path stroke="#000" d="M312.9-22l-7-3.15 3.5 3.15h-3.5 3.5l-3.5 3.15 7-3.15h0z"/><text x="245.5" y="-25.4" font-family="Lato" font-size="12">b</text></g><g class="edge"><path fill="none" stroke="#000" d="M326.99-135.58c-1.1-10.26 1.56-19.42 8.01-19.42 4.83 0 7.54 5.15 8.13 12.05"/><path stroke="#000" d="M343.01-135.58l3.26-6.95-3.21 3.45.06-3.5h0l-.06 3.5-3.09-3.55 3.04 7.05h0z"/><text x="330" y="-158.4" font-family="Lato" font-size="12">!b</text></g><g class="node"><circle fill="#ffffa0" stroke="#000" cx="421" cy="-115" r="18"/><text text-anchor="middle" x="421" y="-111.9" font-family="Lato" font-size="12">3</text></g><g class="edge"><path fill="none" stroke="#000" d="M357.2-115h38.36"/><path stroke="#000" d="M402.77-115l-7-3.15 3.5 3.15h-3.5 3.5l-3.5 3.15 7-3.15h0z"/><text x="376.5" y="-118.4" font-family="Lato" font-size="12">b</text></g><g class="edge"><path fill="none" stroke="#000" d="M326.99-42.58C325.89-52.84 328.55-62 335-62c4.83 0 7.54 5.15 8.13 12.05"/><path stroke="#000" d="M343.01-42.58l3.26-6.95-3.21 3.45.06-3.5h0l-.06 3.5-3.09-3.55 3.04 7.05h0z"/><text text-anchor="middle" x="335" y="-65.4" font-family="Lato" font-size="12">1</text></g><g class="edge"><path fill="none" stroke="#000" d="M405.22-105.98c-6.04 3.18-13.24 6.37-20.22 7.98-8.06 1.85-16.65.19-24.34-2.71"/><path stroke="#000" d="M353.88-103.65l5.16 5.67-1.95-4.28 3.21 1.39h0l-3.21-1.39 4.46-1.49-7.67.1h0z"/><text x="375" y="-101.4" font-family="Lato" font-size="12">!b</text></g><g class="edge"><path fill="none" stroke="#000" d="M413.97-131.66c-1.56-9.96.78-19.34 7.03-19.34 4.69 0 7.18 5.27 7.47 12.11"/><path stroke="#000" d="M428.03-131.66l3.57-6.8-3.36 3.3.22-3.49h0l-.22 3.49-2.93-3.68 2.72 7.18h0z"/><text x="417.5" y="-154.4" font-family="Lato" font-size="12">b</text></g></g></svg>