<?xml-stylesheet href="spot.css" type="text/css"?><svg width="421pt" height="344" viewBox="0 0 421 257.52" xmlns="http://www.w3.org/2000/svg"><g class="graph"><path fill="#fff" stroke="transparent" d="M0 257.52V0h421v257.52H0z"/><text x="110.5" y="-236.92" font-family="Lato" font-size="12" transform="translate(4 253.52)">(Fin(</text><text x="135.5" y="-236.92" font-family="Lato" font-size="12" fill="#1f78b4" transform="translate(4 253.52)">⓿</text><text x="148.5" y="-236.92" font-family="Lato" font-size="12" transform="translate(4 253.52)">) | Inf(</text><text x="178.5" y="-236.92" font-family="Lato" font-size="12" fill="#ff4da0" transform="translate(4 253.52)">❶</text><text x="191.5" y="-236.92" font-family="Lato" font-size="12" transform="translate(4 253.52)">)) &amp; (Fin(</text><text x="238.5" y="-236.92" font-family="Lato" font-size="12" fill="#ff7f00" transform="translate(4 253.52)">❷</text><text x="251.5" y="-236.92" font-family="Lato" font-size="12" transform="translate(4 253.52)">) | Inf(</text><text x="281.5" y="-236.92" font-family="Lato" font-size="12" fill="#6a3d9a" transform="translate(4 253.52)">❸</text><text x="294.5" y="-236.92" font-family="Lato" font-size="12" transform="translate(4 253.52)">))</text><text x="180.5" y="-224.92" font-family="Lato" font-size="12" transform="translate(4 253.52)">[Streett 2]</text><g class="node" transform="translate(4 253.52)"><path fill="#ffffa0" stroke="#000" d="M68-61.52H50c-6 0-12 6-12 12v12c0 6 6 12 12 12h18c6 0 12-6 12-12v-12c0-6-6-12-12-12"/><text x="55.5" y="-46.92" font-family="Lato" font-size="12">0</text><text x="46" y="-34.92" font-family="Lato" font-size="12" fill="#ff4da0">❶</text><text x="59" y="-34.92" font-family="Lato" font-size="12" fill="#6a3d9a">❸</text></g><g class="edge" transform="translate(4 253.52)"><path fill="none" stroke="#000" d="M1.16-43.52h29.59"/><path stroke="#000" d="M37.84-43.52l-7-3.15 3.5 3.15h-3.5 3.5l-3.5 3.15 7-3.15h0z"/></g><g class="edge" transform="translate(4 253.52)"><path fill="none" stroke="#000" d="M52.13-61.67c-1.06-9.39 1.23-17.85 6.87-17.85 4.14 0 6.48 4.56 7.01 10.71"/><path stroke="#000" d="M65.87-61.67l3.29-6.94-3.22 3.44.07-3.5h0l-.07 3.5-3.08-3.56 3.01 7.06h0z"/><text x="45" y="-82.92" font-family="Lato" font-size="12">a &amp; b</text></g><g class="node" transform="translate(4 253.52)"><path fill="#ffffa0" stroke="#000" d="M177-155.52h-18c-6 0-12 6-12 12v12c0 6 6 12 12 12h18c6 0 12-6 12-12v-12c0-6-6-12-12-12"/><text x="164.5" y="-140.92" font-family="Lato" font-size="12">1</text><text x="155" y="-128.92" font-family="Lato" font-size="12" fill="#1f78b4">⓿</text><text x="168" y="-128.92" font-family="Lato" font-size="12" fill="#6a3d9a">❸</text></g><g class="edge" transform="translate(4 253.52)"><path fill="none" stroke="#000" d="M65.23-61.73c5.58-16.3 15.97-39.73 32.77-53.79 11.82-9.89 28.15-15.36 41.96-18.36"/><path stroke="#000" d="M146.91-135.24l-7.48-1.75 4.04 2.42-3.43.67h0l3.43-.67-2.83 3.76 6.27-4.43h0z"/><text x="98" y="-133.92" font-family="Lato" font-size="12">!a &amp; b</text></g><g class="node" transform="translate(4 253.52)"><path fill="#ffffa0" stroke="#000" d="M401-92.52h-18c-6 0-12 6-12 12v12c0 6 6 12 12 12h18c6 0 12-6 12-12v-12c0-6-6-12-12-12"/><text x="388.5" y="-77.92" font-family="Lato" font-size="12">2</text><text x="379" y="-65.92" font-family="Lato" font-size="12" fill="#ff4da0">❶</text><text x="392" y="-65.92" font-family="Lato" font-size="12" fill="#ff7f00">❷</text></g><g class="edge" transform="translate(4 253.52)"><path fill="none" stroke="#000" d="M80.22-35.41c5.67 1.94 11.89 3.77 17.78 4.89 62.48 11.87 79.79 11.97 143 5 50.7-5.59 64.86-5.54 112-25 3.88-1.6 7.81-3.59 11.59-5.73"/><path stroke="#000" d="M370.79-59.96l-7.62.89 4.62.91-3 1.79h0l3-1.79-1.39 4.5 4.39-6.3h0z"/><text x="208.5" y="-28.92" font-family="Lato" font-size="12">a &amp; !b</text></g><g class="node" transform="translate(4 253.52)"><path fill="#ffffa0" stroke="#000" d="M289-92.52h-18c-6 0-12 6-12 12v12c0 6 6 12 12 12h18c6 0 12-6 12-12v-12c0-6-6-12-12-12"/><text x="276.5" y="-77.92" font-family="Lato" font-size="12">3</text><text x="267" y="-65.92" font-family="Lato" font-size="12" fill="#1f78b4">⓿</text><text x="280" y="-65.92" font-family="Lato" font-size="12" fill="#ff7f00">❷</text></g><g class="edge" transform="translate(4 253.52)"><path fill="none" stroke="#000" d="M80.21-46.38c39.52-5.59 127.05-17.98 171.6-24.29"/><path stroke="#000" d="M258.84-71.66l-7.37-2.14 3.9 2.63-3.46.49h0l3.46-.49-3.02 3.61 6.49-4.1h0z"/><text x="151" y="-64.92" font-family="Lato" font-size="12">!a &amp; !b</text></g><g class="edge" transform="translate(4 253.52)"><path fill="none" stroke="#000" d="M151.21-119.48c-6.52 6.94-14.38 14.71-22.21 20.96-12.62 10.09-18.18 9.17-31 19-5.19 3.98-10.47 8.57-15.37 13.11"/><path stroke="#000" d="M77.48-61.54l7.25-2.52-4.71.12 2.55-2.41h0l-2.55 2.41.38-4.7-2.92 7.1h0z"/><text x="99.5" y="-101.92" font-family="Lato" font-size="12">a &amp; b</text></g><g class="edge" transform="translate(4 253.52)"><path fill="none" stroke="#000" d="M158.23-155.67c-1.5-9.39 1.75-17.85 9.77-17.85 5.89 0 9.21 4.56 9.96 10.71"/><path stroke="#000" d="M177.77-155.67l3.33-6.92-3.24 3.42.1-3.5h0l-.1 3.5-3.05-3.58 2.96 7.08h0z"/><text x="152.5" y="-176.92" font-family="Lato" font-size="12">!a &amp; b</text></g><g class="edge" transform="translate(4 253.52)"><path fill="none" stroke="#000" d="M180.44-155.74c6.6-8.82 15.74-18.6 26.56-23.78 58.53-28.02 93.98-38.78 146 0 24.79 18.48 33.44 54.69 36.44 79.37"/><path stroke="#000" d="M390.2-92.9l2.4-7.29-2.76 3.81-.37-3.48h0l.37 3.48-3.5-3.15 3.86 6.63h0z"/><text x="264.5" y="-207.92" font-family="Lato" font-size="12">a &amp; !b</text></g><g class="edge" transform="translate(4 253.52)"><path fill="none" stroke="#000" d="M189.13-134.31c15.14 3.08 35.92 8.79 51.87 18.79 7.45 4.67 14.39 11.17 20.24 17.63"/><path stroke="#000" d="M265.89-92.53l-2.2-7.35-.09 4.71-2.29-2.65h0l2.29 2.65-4.67-.59 6.96 3.23h0z"/><text x="207" y="-132.92" font-family="Lato" font-size="12">!a &amp; !b</text></g><g class="edge" transform="translate(4 253.52)"><path fill="none" stroke="#000" d="M378.01-56.32c-6.64 8.07-15.34 17.03-25.01 22.8-44.15 26.37-60.99 22.5-112 29-63.44 8.08-82.82 5.63-143-16-3.91-1.4-7.85-3.23-11.64-5.25"/><path stroke="#000" d="M80.16-29.29l4.53 6.2-1.49-4.47 3.04 1.73h0l-3.04-1.73 4.6-1.01-7.64-.72h0z"/><text x="210" y="-7.92" font-family="Lato" font-size="12">a &amp; b</text></g><g class="edge" transform="translate(4 253.52)"><path fill="none" stroke="#000" d="M370.69-90.52c-17.53-13.08-44.02-31.12-69.69-42-25.21-10.68-32.8-10.87-60-14-15.01-1.73-18.99-1.75-34 0-3.44.4-7.02 1-10.54 1.7"/><path stroke="#000" d="M189.35-143.26l7.52 1.58-4.1-2.33 3.42-.75h0l-3.42.75 2.75-3.82-6.17 4.57h0z"/><text x="264.5" y="-146.92" font-family="Lato" font-size="12">!a &amp; b</text></g><g class="edge" transform="translate(4 253.52)"><path fill="none" stroke="#000" d="M381.87-92.67c-1.56-9.39 1.82-17.85 10.13-17.85 6.1 0 9.55 4.56 10.33 10.71"/><path stroke="#000" d="M402.13-92.67l3.34-6.91-3.24 3.41.09-3.5h0l-.09 3.5-3.05-3.59 2.95 7.09h0z"/><text x="376.5" y="-113.92" font-family="Lato" font-size="12">a &amp; !b</text></g><g class="edge" transform="translate(4 253.52)"><path fill="none" stroke="#000" d="M370.95-74.52h-62.66"/><path stroke="#000" d="M301.18-74.52l7 3.15-3.5-3.15h3.5-3.5l3.5-3.15-7 3.15h0z"/><text x="319" y="-77.92" font-family="Lato" font-size="12">!a &amp; !b</text></g><g class="edge" transform="translate(4 253.52)"><path fill="none" stroke="#000" d="M258.94-63.92c-17.8 8.78-44.82 20.56-69.94 25.4-34.6 6.66-75.36 3.26-101.66-.36"/><path stroke="#000" d="M80.33-39.9l6.47 4.12-3.01-3.62 3.46.5h0l-3.46-.5 3.92-2.61-7.38 2.11h0z"/><text x="154" y="-41.92" font-family="Lato" font-size="12">a &amp; b</text></g><g class="edge" transform="translate(4 253.52)"><path fill="none" stroke="#000" d="M258.95-78.49c-15.1-3.62-35.88-9.95-51.95-20.03-6.75-4.23-13.16-9.9-18.74-15.6"/><path stroke="#000" d="M183.38-119.32l2.49 7.26-.09-4.71 2.39 2.56h0l-2.39-2.56 4.69.41-7.09-2.96h0z"/><text x="208.5" y="-101.92" font-family="Lato" font-size="12">!a &amp; b</text></g><g class="edge" transform="translate(4 253.52)"><path fill="none" stroke="#000" d="M301.37-63.53c5.56 2.48 11.69 4.74 17.63 6.01 14.78 3.16 19.22 3.16 34 0 3.62-.77 7.31-1.91 10.9-3.25"/><path stroke="#000" d="M370.63-63.53l-7.67-.26 4.43 1.59-3.24 1.33h0l3.24-1.33-2.05 4.24 5.29-5.57h0z"/><text x="320.5" y="-60.92" font-family="Lato" font-size="12">a &amp; !b</text></g><g class="edge" transform="translate(4 253.52)"><path fill="none" stroke="#000" d="M269.87-92.67c-1.56-9.39 1.82-17.85 10.13-17.85 6.1 0 9.55 4.56 10.33 10.71"/><path stroke="#000" d="M290.13-92.67l3.34-6.91-3.24 3.41.09-3.5h0l-.09 3.5-3.05-3.59 2.95 7.09h0z"/><text x="263" y="-113.92" font-family="Lato" font-size="12">!a &amp; !b</text></g></g></svg>