<?xml-stylesheet href="spot.css" type="text/css"?><svg width="625pt" height="419pt" viewBox="0 0 625 418.65" xmlns="http://www.w3.org/2000/svg"><g class="graph" transform="translate(4 414.65)"><path fill="#fff" stroke="transparent" d="M-4 4v-418.65h625V4H-4z"/><g class="node"><ellipse fill="#ffffa0" stroke="#000" cx="118" cy="-311.65" rx="27" ry="18"/><text text-anchor="middle" x="118" y="-308.55" font-family="Lato" font-size="12">init</text></g><g class="edge"><path fill="none" stroke="#000" d="M54.22-311.65H83.7"/><path stroke="#000" d="M90.97-311.65l-7-3.15 3.5 3.15h-3.5 3.5l-3.5 3.15 7-3.15h0z"/></g><g class="node"><ellipse fill="#ffffa0" stroke="#000" cx="242" cy="-161.65" rx="27" ry="18"/><text text-anchor="middle" x="242" y="-158.55" font-family="Lato" font-size="12">3</text></g><g class="edge"><path fill="none" stroke="#000" d="M128.74-295.14c8.45 13.91 21.33 34.09 34.26 50.49 18.04 22.87 41.15 46.91 57.52 63.2"/><path stroke="#000" d="M225.8-176.24l-2.77-7.16.28 4.7-2.49-2.46h0l2.49 2.46-4.7-.22 7.19 2.68h0z"/><text text-anchor="middle" x="180" y="-261.05" font-family="Lato" font-size="12">!a &amp; !b</text><text text-anchor="middle" x="180" y="-248.05" font-family="Lato" font-size="12">{}</text></g><g class="node"><ellipse fill="#ffffa0" stroke="#000" cx="360" cy="-243.65" rx="27" ry="18"/><text text-anchor="middle" x="360" y="-240.55" font-family="Lato" font-size="12">2</text></g><g class="edge"><path fill="none" stroke="#000" d="M144.24-307.36c37.8 6.82 111.06 21.56 170.76 42.71 5.62 1.99 11.48 4.47 17.02 7.03"/><path stroke="#000" d="M338.34-254.61l-4.96-5.86 1.8 4.35-3.16-1.5h0l3.16 1.5-4.51 1.34 7.67.17h0z"/><text text-anchor="middle" x="242" y="-309.05" font-family="Lato" font-size="12">!a &amp; b</text><text text-anchor="middle" x="242" y="-296.05" font-family="Lato" font-size="12">{}</text></g><g class="node"><ellipse fill="#ffffa0" stroke="#000" cx="590" cy="-210.65" rx="27" ry="18"/><text text-anchor="middle" x="590" y="-207.55" font-family="Lato" font-size="12">4</text></g><g class="edge"><path fill="none" stroke="#000" d="M132.77-326.78c21.07-21.38 63.55-57.87 108.23-57.87h235c70.23 0 99.03 100.94 108.77 149.06"/><path stroke="#000" d="M586.12-228.62l1.76-7.47-2.42 4.03-.67-3.43h0l.67 3.43-3.76-2.83 4.42 6.27h0z"/><text text-anchor="middle" x="360" y="-401.05" font-family="Lato" font-size="12">a &amp; !b</text><text text-anchor="middle" x="360" y="-388.05" font-family="Lato" font-size="12">{}</text></g><g class="node"><path fill="#ffffa0" stroke="#000" d="M502-212.65h-54v36h54v-36z"/><text text-anchor="middle" x="475" y="-191.55" font-family="Lato" font-size="12">1</text></g><g class="edge"><path fill="none" stroke="#000" d="M143.9-317.34c29.94-5.96 81.59-13.4 125.1-5.31 75.39 14.01 101.15 14.07 161 62 13.76 11.02 24.77 27.53 32.33 41.27"/><path stroke="#000" d="M465.76-212.88l-.49-7.66-1.15 4.56-1.63-3.09h0l1.63 3.09-4.42-1.62 6.06 4.72h0z"/><text text-anchor="middle" x="301" y="-335.05" font-family="Lato" font-size="12">a &amp; b</text><text text-anchor="middle" x="301" y="-322.05" font-family="Lato" font-size="12">{}</text></g><g class="edge"><path fill="none" stroke="#000" d="M266.31-169.97c14.75-5.9 33.78-14.7 48.69-25.68 10.1-7.45 19.71-17.45 27.36-26.41"/><path stroke="#000" d="M346.85-227.46l-6.89 3.36 4.66-.67-2.24 2.69h0l2.24-2.69.18 4.7 2.05-7.39h0z"/><text text-anchor="middle" x="301" y="-212.05" font-family="Lato" font-size="12">{b}</text><text text-anchor="middle" x="301" y="-199.05" font-family="Lato" font-size="12">{}</text></g><g class="edge"><path fill="none" stroke="#000" d="M244.46-143.55c3.11 26.59 12.79 76.04 42.54 103.9C334.68 5 365.35 3.7 430-5.65c52.75-7.64 77.99 4.35 115-34C583.35-79.4 589.52-147.91 589.8-185"/><path stroke="#000" d="M589.78-192.42l-3.13 7.01 3.14-3.51.01 3.5h0l-.01-3.5 3.16 3.49-3.17-6.99h0z"/><text text-anchor="middle" x="417.5" y="-22.05" font-family="Lato" font-size="12">{a}</text><text text-anchor="middle" x="417.5" y="-9.05" font-family="Lato" font-size="12">{}</text></g><g class="edge"><path fill="none" stroke="#000" d="M260.34-148.31c27.1 19.16 81.11 50.49 126.66 34.66 29.81-10.36 55.04-37.25 70.54-57.22"/><path stroke="#000" d="M461.84-176.56l-6.74 3.69 4.63-.89-2.11 2.79h0l2.11-2.79.4 4.69 1.71-7.49h0z"/><text text-anchor="middle" x="360" y="-130.05" font-family="Lato" font-size="12">{a, b}</text><text text-anchor="middle" x="360" y="-117.05" font-family="Lato" font-size="12">{}</text></g><g class="edge"><path fill="none" stroke="#000" d="M333.23-239.92c-14.59 3.08-32.59 8.58-46.23 18.27-13.28 9.42-24.14 24.11-31.76 36.59"/><path stroke="#000" d="M251.56-178.77l6.26-4.45-4.49 1.43 1.77-3.02h0l-1.77 3.02-.95-4.61-.82 7.63h0z"/><text text-anchor="middle" x="301" y="-251.05" font-family="Lato" font-size="12">{b}</text><text text-anchor="middle" x="301" y="-238.05" font-family="Lato" font-size="12">{1}</text></g><g class="edge"><path fill="none" stroke="#000" d="M382.47-253.77c7.02-2.81 14.96-5.47 22.53-6.88 10.92-2.04 13.96-1.28 25 0 52.15 6.04 65.79 8.69 115 27 5.92 2.2 12.06 5.03 17.81 7.94"/><path stroke="#000" d="M569.33-222.28l-4.73-6.05 1.64 4.42-3.1-1.63h0l3.1 1.63-4.57 1.16 7.66.47h0z"/><text text-anchor="middle" x="475" y="-274.05" font-family="Lato" font-size="12">{a, b}</text><text text-anchor="middle" x="475" y="-261.05" font-family="Lato" font-size="12">{1}</text></g><g class="edge"><path fill="none" stroke="#000" d="M385.49-237.41c13.44 3.81 30.22 9.21 44.51 15.76 3.76 1.72 7.59 3.69 11.35 5.78"/><path stroke="#000" d="M447.58-212.28l-4.5-6.23 1.46 4.48-3.03-1.75h0l3.03 1.75-4.6.98 7.64.77h0z"/><text text-anchor="middle" x="417.5" y="-247.05" font-family="Lato" font-size="12">{a}</text><text text-anchor="middle" x="417.5" y="-234.05" font-family="Lato" font-size="12">{1}</text></g><g class="edge"><path fill="none" stroke="#000" d="M578.51-194.29c-8.13 11.77-20.21 27.47-33.51 38.64-44.63 37.48-58.54 48.54-115 63-62.29 15.94-87.08 9.73-143-22-10.95-6.22-20.78-16.06-28.36-25.14"/><path stroke="#000" d="M254.23-145.3l1.91 7.43.27-4.7 2.19 2.73h0l-2.19-2.73 4.65.76-6.83-3.49h0z"/><text text-anchor="middle" x="417.5" y="-109.05" font-family="Lato" font-size="12">{a}</text><text text-anchor="middle" x="417.5" y="-96.05" font-family="Lato" font-size="12">{0}</text></g><g class="edge"><path fill="none" stroke="#000" d="M577.32-226.59c-14.97-18.89-42.9-49.29-75.32-61.06-40.88-14.86-57.9-6.07-97 13-7.33 3.57-14.78 8.31-21.41 13.01"/><path stroke="#000" d="M377.76-257.38l7.51-1.59-4.69-.47 2.83-2.07h0l-2.83 2.07.97-4.61-3.79 6.67h0z"/><text text-anchor="middle" x="475" y="-311.05" font-family="Lato" font-size="12">{a, b}</text><text text-anchor="middle" x="475" y="-298.05" font-family="Lato" font-size="12">{0}</text></g><g class="edge"><path fill="none" stroke="#000" d="M579.01-193.94c-7.72 11.15-19.52 24.91-34.01 31.29-14.78 6.5-31.18-.51-44.28-9.61"/><path stroke="#000" d="M494.94-176.54l3.75 6.7-.94-4.62 2.81 2.09h0l-2.81-2.09 4.69-.44-7.5-1.64h0z"/><text text-anchor="middle" x="532.5" y="-179.05" font-family="Lato" font-size="12">{b}</text><text text-anchor="middle" x="532.5" y="-166.05" font-family="Lato" font-size="12">{0}</text></g><g class="edge"><path fill="none" stroke="#000" d="M447.67-186.03c-5.77 1.65-11.89 3.22-17.67 4.38-53.28 10.63-116.31 15.89-153.9 18.27"/><path stroke="#000" d="M268.93-162.94l7.18 2.71-3.68-2.93 3.49-.21h0l-3.49.21 3.3-3.36-6.8 3.58h0z"/><text text-anchor="middle" x="360" y="-190.05" font-family="Lato" font-size="12">{a, b}</text><text text-anchor="middle" x="360" y="-177.05" font-family="Lato" font-size="12">{0,1}</text></g><g class="edge"><path fill="none" stroke="#000" d="M447.98-187.99c-13.42 2.1-29.71 2.49-42.98-3.66-13.13-6.09-23.75-18.24-31.28-29.26"/><path stroke="#000" d="M369.87-226.87l1.15 7.59.75-4.65 1.9 2.94h0l-1.9-2.94 4.55 1.23-6.45-4.17h0z"/><text text-anchor="middle" x="417.5" y="-208.05" font-family="Lato" font-size="12">{a}</text><text text-anchor="middle" x="417.5" y="-195.05" font-family="Lato" font-size="12">{0,1}</text></g><g class="edge"><path fill="none" stroke="#000" d="M502.21-198.37c16.09-2.27 36.83-5.21 54-7.64"/><path stroke="#000" d="M563.32-207.02l-7.37-2.14 3.91 2.63-3.47.49h0l3.47-.49-3.03 3.61 6.49-4.1h0z"/><text text-anchor="middle" x="532.5" y="-220.05" font-family="Lato" font-size="12">{b}</text><text text-anchor="middle" x="532.5" y="-207.05" font-family="Lato" font-size="12">{0,1}</text></g></g></svg>