<?xml-stylesheet href="spot.css" type="text/css"?><svg width="625pt" height="419pt" viewBox="0 0 625 418.65" xmlns="http://www.w3.org/2000/svg"><g class="graph" transform="translate(4 414.65)"><path fill="#fff" stroke="transparent" d="M-4 4v-418.65h625V4H-4z"/><g class="node"><ellipse fill="#ffffa0" stroke="#000" cx="118" cy="-311.65" rx="27" ry="18"/><text text-anchor="middle" x="118" y="-308.55" font-family="Lato" font-size="12">init</text></g><g class="edge"><path fill="none" stroke="#000" d="M54.22-311.65H83.7"/><path stroke="#000" d="M90.97-311.65l-7-3.15 3.5 3.15h-3.5 3.5l-3.5 3.15 7-3.15h0z"/></g><g class="node"><ellipse fill="#ffffa0" stroke="#000" cx="242" cy="-161.65" rx="27" ry="18"/><text text-anchor="middle" x="242" y="-158.55" font-family="Lato" font-size="12">2</text></g><g class="edge"><path fill="none" stroke="#000" d="M128.74-295.14c8.45 13.91 21.33 34.09 34.26 50.49 18.04 22.87 41.15 46.91 57.52 63.2"/><path stroke="#000" d="M225.8-176.24l-2.77-7.16.28 4.7-2.49-2.46h0l2.49 2.46-4.7-.22 7.19 2.68h0z"/><text text-anchor="middle" x="180" y="-261.05" font-family="Lato" font-size="12">!a &amp; !b</text><text text-anchor="middle" x="180" y="-248.05" font-family="Lato" font-size="12">{}</text></g><g class="node"><ellipse fill="#ffffa0" stroke="#000" cx="360" cy="-243.65" rx="27" ry="18"/><text text-anchor="middle" x="360" y="-240.55" font-family="Lato" font-size="12">3</text></g><g class="edge"><path fill="none" stroke="#000" d="M144.24-307.36c37.8 6.82 111.06 21.56 170.76 42.71 5.62 1.99 11.48 4.47 17.02 7.03"/><path stroke="#000" d="M338.34-254.61l-4.96-5.86 1.8 4.35-3.16-1.5h0l3.16 1.5-4.51 1.34 7.67.17h0z"/><text text-anchor="middle" x="242" y="-309.05" font-family="Lato" font-size="12">!a &amp; b</text><text text-anchor="middle" x="242" y="-296.05" font-family="Lato" font-size="12">{}</text></g><g class="node"><ellipse fill="#ffffa0" stroke="#000" cx="590" cy="-210.65" rx="27" ry="18"/><text text-anchor="middle" x="590" y="-207.55" font-family="Lato" font-size="12">4</text></g><g class="edge"><path fill="none" stroke="#000" d="M132.77-326.78c21.07-21.38 63.55-57.87 108.23-57.87h235c70.23 0 99.03 100.94 108.77 149.06"/><path stroke="#000" d="M586.12-228.62l1.76-7.47-2.42 4.03-.67-3.43h0l.67 3.43-3.76-2.83 4.42 6.27h0z"/><text text-anchor="middle" x="360" y="-401.05" font-family="Lato" font-size="12">a &amp; !b</text><text text-anchor="middle" x="360" y="-388.05" font-family="Lato" font-size="12">{}</text></g><g class="node"><ellipse fill="#ffffa0" stroke="#000" cx="475" cy="-161.65" rx="27" ry="18"/><text text-anchor="middle" x="475" y="-158.55" font-family="Lato" font-size="12">1</text></g><g class="edge"><path fill="none" stroke="#000" d="M142.81-319.38c49.32-14.48 164.66-40.39 244.19 4.73 24.94 14.14 60.06 89.75 77.04 129.12"/><path stroke="#000" d="M466.8-179.08l.14-7.67-1.52 4.45-1.38-3.21h0l1.38 3.21-4.27-1.98 5.65 5.2h0z"/><text text-anchor="middle" x="301" y="-356.05" font-family="Lato" font-size="12">a &amp; b</text><text text-anchor="middle" x="301" y="-343.05" font-family="Lato" font-size="12">{}</text></g><g class="edge"><path fill="none" stroke="#000" d="M231.72-178.69c-2.1-9.82 1.33-18.96 10.28-18.96 6.71 0 10.32 5.14 10.82 11.85"/><path stroke="#000" d="M252.28-178.69l3.67-6.74-3.41 3.25.27-3.49h0l-.27 3.49-2.88-3.73 2.62 7.22h0z"/><text text-anchor="middle" x="242" y="-214.05" font-family="Lato" font-size="12">{}</text><text text-anchor="middle" x="242" y="-201.05" font-family="Lato" font-size="12">{}</text></g><g class="edge"><path fill="none" stroke="#000" d="M266.31-169.97c14.75-5.9 33.78-14.7 48.69-25.68 10.1-7.45 19.71-17.45 27.36-26.41"/><path stroke="#000" d="M346.85-227.46l-6.89 3.36 4.66-.67-2.24 2.69h0l2.24-2.69.18 4.7 2.05-7.39h0z"/><text text-anchor="middle" x="301" y="-212.05" font-family="Lato" font-size="12">{b}</text><text text-anchor="middle" x="301" y="-199.05" font-family="Lato" font-size="12">{}</text></g><g class="edge"><path fill="none" stroke="#000" d="M244.46-143.55c3.11 26.59 12.79 76.04 42.54 103.9C334.68 5 365.35 3.7 430-5.65c52.75-7.64 77.99 4.35 115-34C583.35-79.4 589.52-147.91 589.8-185"/><path stroke="#000" d="M589.78-192.42l-3.13 7.01 3.14-3.51.01 3.5h0l-.01-3.5 3.16 3.49-3.17-6.99h0z"/><text text-anchor="middle" x="417.5" y="-22.05" font-family="Lato" font-size="12">{a}</text><text text-anchor="middle" x="417.5" y="-9.05" font-family="Lato" font-size="12">{}</text></g><g class="edge"><path fill="none" stroke="#000" d="M260.87-148.7c17.42 11.78 45.16 28.3 72.13 35.05 23.28 5.82 30.62 5.4 54 0 23.35-5.4 46.98-19.08 63.71-30.46"/><path stroke="#000" d="M456.55-148.18l-7.55 1.42 4.68.58-2.87 2.01h0l2.87-2.01-1.07 4.59 3.94-6.59h0z"/><text text-anchor="middle" x="360" y="-130.05" font-family="Lato" font-size="12">{a, b}</text><text text-anchor="middle" x="360" y="-117.05" font-family="Lato" font-size="12">{}</text></g><g class="edge"><path fill="none" stroke="#000" d="M333.23-239.92c-14.59 3.08-32.59 8.58-46.23 18.27-13.28 9.42-24.14 24.11-31.76 36.59"/><path stroke="#000" d="M251.56-178.77l6.26-4.45-4.49 1.43 1.77-3.02h0l-1.77 3.02-.95-4.61-.82 7.63h0z"/><text text-anchor="middle" x="301" y="-251.05" font-family="Lato" font-size="12">{b}</text><text text-anchor="middle" x="301" y="-238.05" font-family="Lato" font-size="12">{1}</text></g><g class="edge"><path fill="none" stroke="#000" d="M350.08-260.69c-2.03-9.82 1.28-18.96 9.92-18.96 6.48 0 9.96 5.14 10.44 11.85"/><path stroke="#000" d="M369.92-260.69l3.65-6.75-3.39 3.26.25-3.49h0l-.25 3.49-2.89-3.72 2.63 7.21h0z"/><text text-anchor="middle" x="360" y="-296.05" font-family="Lato" font-size="12">{}</text><text text-anchor="middle" x="360" y="-283.05" font-family="Lato" font-size="12">{}</text></g><g class="edge"><path fill="none" stroke="#000" d="M385.53-249.58c6.31-1.28 13.11-2.43 19.47-3.07 11.05-1.12 13.95-1.19 25 0 52.01 5.58 64.9 9.97 115 25 4.96 1.48 10.16 3.27 15.17 5.13"/><path stroke="#000" d="M566.85-219.98l-5.42-5.43 2.15 4.18-3.27-1.24h0l3.27 1.24-4.39 1.7 7.66-.45h0z"/><text text-anchor="middle" x="475" y="-266.05" font-family="Lato" font-size="12">{a, b}</text><text text-anchor="middle" x="475" y="-253.05" font-family="Lato" font-size="12">{1}</text></g><g class="edge"><path fill="none" stroke="#000" d="M383.58-234.61c14.07 6.2 32.13 15.23 46.42 25.96 9.73 7.3 19.15 16.89 26.75 25.51"/><path stroke="#000" d="M461.71-177.38l-2.18-7.36-.1 4.71-2.29-2.66h0l2.29 2.66-4.67-.6 6.95 3.25h0z"/><text text-anchor="middle" x="417.5" y="-239.05" font-family="Lato" font-size="12">{a}</text><text text-anchor="middle" x="417.5" y="-226.05" font-family="Lato" font-size="12">{1}</text></g><g class="edge"><path fill="none" stroke="#000" d="M579-193.91c-8.05 12.47-20.25 29.33-34 41.26-44.17 38.34-58.38 49.3-115 64-62.6 16.24-86.91 5.2-143-27-10.43-5.99-19.95-15.21-27.45-23.82"/><path stroke="#000" d="M254.7-145.29l2.07 7.39.17-4.71 2.25 2.69h0l-2.25-2.69 4.67.68-6.91-3.36h0z"/><text text-anchor="middle" x="417.5" y="-105.05" font-family="Lato" font-size="12">{a}</text><text text-anchor="middle" x="417.5" y="-92.05" font-family="Lato" font-size="12">{0}</text></g><g class="edge"><path fill="none" stroke="#000" d="M575.79-226.03c-15.63-16.9-43.39-43.03-73.79-53.62-39.48-13.76-86.84 5.31-115.39 20.52"/><path stroke="#000" d="M380.47-255.76l7.65-.61-4.59-1.08 3.07-1.68h0l-3.07 1.68 1.56-4.44-4.62 6.13h0z"/><text text-anchor="middle" x="475" y="-300.05" font-family="Lato" font-size="12">{a, b}</text><text text-anchor="middle" x="475" y="-287.05" font-family="Lato" font-size="12">{0}</text></g><g class="edge"><path fill="none" stroke="#000" d="M580.08-227.69c-2.03-9.82 1.28-18.96 9.92-18.96 6.48 0 9.96 5.14 10.44 11.85"/><path stroke="#000" d="M599.92-227.69l3.65-6.75-3.39 3.26.25-3.49h0l-.25 3.49-2.89-3.72 2.63 7.21h0z"/><text text-anchor="middle" x="590" y="-263.05" font-family="Lato" font-size="12">{}</text><text text-anchor="middle" x="590" y="-250.05" font-family="Lato" font-size="12">{}</text></g><g class="edge"><path fill="none" stroke="#000" d="M578.98-194.01c-7.73 11.13-19.54 24.88-33.98 31.36-11.22 5.03-24.55 6.19-36.48 5.77"/><path stroke="#000" d="M501.31-157.33l6.79 3.58-3.3-3.36 3.49.21h0l-3.49-.21 3.69-2.93-7.18 2.71h0z"/><text text-anchor="middle" x="532.5" y="-179.05" font-family="Lato" font-size="12">{b}</text><text text-anchor="middle" x="532.5" y="-166.05" font-family="Lato" font-size="12">{0}</text></g><g class="edge"><path fill="none" stroke="#000" d="M447.69-161.65H276.15"/><path stroke="#000" d="M269.05-161.65l7 3.15-3.5-3.15h3.5-3.5l3.5-3.15-7 3.15h0z"/><text text-anchor="middle" x="360" y="-178.05" font-family="Lato" font-size="12">{a, b}</text><text text-anchor="middle" x="360" y="-165.05" font-family="Lato" font-size="12">{0,1}</text></g><g class="edge"><path fill="none" stroke="#000" d="M447.89-163.58c-13.76-2.07-30.34-6.33-42.89-15.07-14.7-10.25-25.91-27.12-33.33-41.1"/><path stroke="#000" d="M368.33-226.34l.35 7.66 1.23-4.54 1.58 3.12h0l-1.58-3.12 4.39 1.7-5.97-4.82h0z"/><text text-anchor="middle" x="417.5" y="-195.05" font-family="Lato" font-size="12">{a}</text><text text-anchor="middle" x="417.5" y="-182.05" font-family="Lato" font-size="12">{0,1}</text></g><g class="edge"><path fill="none" stroke="#000" d="M494.29-174.25c7.7-4.94 16.91-10.37 25.71-14.4 11.94-5.48 25.63-10.15 37.65-13.76"/><path stroke="#000" d="M564.51-204.41l-7.6-1.06 4.24 2.04-3.36.98h0l3.36-.98-2.47 4.01 5.83-4.99h0z"/><text text-anchor="middle" x="532.5" y="-214.05" font-family="Lato" font-size="12">{b}</text><text text-anchor="middle" x="532.5" y="-201.05" font-family="Lato" font-size="12">{0,1}</text></g><g class="edge"><path fill="none" stroke="#000" d="M465.08-178.69c-2.03-9.82 1.28-18.96 9.92-18.96 6.48 0 9.96 5.14 10.44 11.85"/><path stroke="#000" d="M484.92-178.69l3.65-6.75-3.39 3.26.25-3.49h0l-.25 3.49-2.89-3.72 2.63 7.21h0z"/><text text-anchor="middle" x="475" y="-214.05" font-family="Lato" font-size="12">{}</text><text text-anchor="middle" x="475" y="-201.05" font-family="Lato" font-size="12">{0,1}</text></g></g></svg>