<?xml-stylesheet href="spot.css" type="text/css"?><svg width="248pt" height="104pt" viewBox="0 0 248 104" xmlns="http://www.w3.org/2000/svg"><g class="graph" transform="translate(4 100)"><path fill="#fff" stroke="transparent" d="M-4 4v-104h248V4H-4z"/><text x="101.5" y="-82.4" font-family="Lato" font-size="12">[Büchi]</text><g class="node"><circle fill="#ffffa0" stroke="#ff4da0" stroke-width="2" cx="56" cy="-22" r="18"/><text text-anchor="middle" x="56" y="-18.9" font-family="Lato" font-size="12">0</text></g><g class="edge"><path fill="none" stroke="#000" d="M1.15-22h29.48"/><path stroke="#000" d="M37.94-22l-7-3.15 3.5 3.15h-3.5 3.5l-3.5 3.15 7-3.15h0z"/></g><g class="edge"><path fill="none" stroke="#ff4da0" stroke-width="2" d="M49.62-39.04C48.32-48.86 50.45-58 56-58c4.17 0 6.4 5.14 6.71 11.86"/><path fill="#ff4da0" stroke="#ff4da0" stroke-width="2" d="M62.38-39.04l3.47-6.84-2.81 3.37.17-3.5-.5-.02-.5-.02-.17 3.49-2.48-3.62 2.82 7.14h0z"/><text x="52.5" y="-61.4" font-family="Lato" font-size="12">a</text></g><g class="node"><circle fill="#ffffa0" stroke="#000" cx="135" cy="-22" r="18"/><text text-anchor="middle" x="135" y="-18.9" font-family="Lato" font-size="12">1</text></g><g class="edge"><path fill="none" stroke="#ff4da0" stroke-width="2" d="M74.09-22h35.6"/><path fill="#ff4da0" stroke="#ff4da0" stroke-width="2" d="M116.96-22l-7-3.15 3.5 2.65h-3.5v1h3.5l-3.5 2.65 7-3.15h0z"/><text text-anchor="middle" x="95.5" y="-25.4" font-family="Lato" font-size="12">1</text></g><g class="node"><circle fill="#ffffa0" stroke="#000" cx="218" cy="-22" r="18"/><circle fill="none" stroke="#000" cx="218" cy="-22" r="22"/><text text-anchor="middle" x="218" y="-18.9" font-family="Lato" font-size="12">2</text></g><g class="edge"><path fill="none" stroke="#000" d="M153.18-22h35.5"/><path stroke="#000" d="M195.81-22l-7-3.15 3.5 3.15h-3.5 3.5l-3.5 3.15 7-3.15h0z"/><text x="171" y="-25.4" font-family="Lato" font-size="12">b</text></g><g class="edge"><path fill="none" stroke="#000" d="M210.32-42.99C209.37-53.09 211.93-62 218-62c4.55 0 7.13 5.01 7.74 11.78"/><path stroke="#000" d="M225.68-42.99l3.2-6.98-3.17 3.48.02-3.5h0l-.02 3.5-3.13-3.52 3.1 7.02h0z"/><text text-anchor="middle" x="218" y="-65.4" font-family="Lato" font-size="12">1</text></g></g></svg>