<?xml-stylesheet href="spot.css" type="text/css"?><svg width="472" height="119pt" viewBox="0 0 354 119" xmlns="http://www.w3.org/2000/svg"><g class="graph" transform="translate(4 115)"><path fill="#fff" stroke="transparent" d="M-4 4v-119h354V4H-4z"/><text x="154.5" y="-97.4" font-family="Lato" font-size="12">[Büchi]</text><g class="node"><circle fill="#ffffa0" stroke="#000" cx="56" cy="-61" r="18"/><text text-anchor="middle" x="56" y="-57.9" font-family="Lato" font-size="12">2</text></g><g class="edge"><path fill="none" stroke="#000" d="M1.15-61h29.48"/><path stroke="#000" d="M37.94-61l-7-3.15 3.5 3.15h-3.5 3.5l-3.5 3.15 7-3.15h0z"/></g><g class="node"><circle fill="#ffffa0" stroke="#000" cx="241" cy="-67" r="18"/><text x="237.5" y="-63.9" font-family="Lato" font-size="12">1</text></g><g class="edge"><path fill="none" stroke="#000" d="M73.35-66.24C85.3-69.79 101.97-74.15 117-76c34.28-4.22 74.2.45 99.04 4.49"/><path stroke="#000" d="M223.24-70.29l-6.38-4.28 2.93 3.69-3.45-.58h0l3.45.58-3.98 2.52 7.43-1.93h0z"/><text x="130" y="-80.4" font-family="Lato" font-size="12">!a</text></g><g class="node"><circle fill="#ffffa0" stroke="#000" cx="135" cy="-18" r="18"/><text text-anchor="middle" x="135" y="-14.9" font-family="Lato" font-size="12">3</text></g><g class="edge"><path fill="none" stroke="#000" d="M72.21-52.5c11.5 6.41 27.43 15.31 40.24 22.46"/><path stroke="#000" d="M118.82-26.48l-4.58-6.16 1.52 4.46-3.05-1.71h0l3.05 1.71-4.59 1.04 7.65.66h0z"/><text x="92" y="-43.4" font-family="Lato" font-size="12">a</text></g><g class="node"><circle fill="#ffffa0" stroke="#000" cx="324" cy="-34" r="18"/><circle fill="none" stroke="#000" cx="324" cy="-34" r="22"/><text text-anchor="middle" x="324" y="-30.9" font-family="Lato" font-size="12">0</text></g><g class="edge"><path fill="none" stroke="#000" d="M316.32-54.99C315.37-65.09 317.93-74 324-74c4.55 0 7.13 5.01 7.74 11.78"/><path stroke="#000" d="M331.68-54.99l3.2-6.98-3.17 3.48.02-3.5h0l-.02 3.5-3.13-3.52 3.1 7.02h0z"/><text x="320.5" y="-77.4" font-family="Lato" font-size="12">1</text></g><g class="edge"><path fill="none" stroke="#000" d="M258-60.48c10.97 4.47 25.78 10.5 38.5 15.68"/><path stroke="#000" d="M303.31-42.02l-5.3-5.56 2.06 4.24-3.25-1.32h0l3.25 1.32-4.43 1.59 7.67-.27h0z"/><text x="277" y="-55.4" font-family="Lato" font-size="12">b</text></g><g class="edge"><path fill="none" stroke="#000" d="M153.13-19.06c23.78-1.51 68.13-4.5 105.87-7.94 11.78-1.07 24.76-2.46 35.93-3.71"/><path stroke="#000" d="M301.98-31.51l-7.31-2.34 3.83 2.74-3.48.39h0l3.48-.39-3.12 3.52 6.6-3.92h0z"/><text x="237.5" y="-30.4" font-family="Lato" font-size="12">b</text></g><g class="edge"><path fill="none" stroke="#000" d="M151.8-25.44c17.66-8.32 46.39-21.86 66.24-31.21"/><path stroke="#000" d="M224.4-59.65l-7.68.14 4.51 1.35-3.17 1.5h0l3.17-1.5-1.82 4.34 4.99-5.83h0z"/><text x="171" y="-52.4" font-family="Lato" font-size="12">!a &amp; !b</text></g><g class="edge"><path fill="none" stroke="#000" d="M128.27-35.04C126.89-44.86 129.14-54 135-54c4.4 0 6.76 5.14 7.09 11.86"/><path stroke="#000" d="M141.73-35.04l3.5-6.83-3.32 3.34.17-3.5h0l-.17 3.5-2.98-3.65 2.8 7.14h0z"/><text x="119.5" y="-57.4" font-family="Lato" font-size="12">a &amp; !b</text></g></g></svg>