<?xml-stylesheet href="spot.css" type="text/css"?><svg width="362pt" height="204" viewBox="0 0 362 153" xmlns="http://www.w3.org/2000/svg"><g class="graph"><path fill="#fff" stroke="transparent" d="M0 153V0h362v153H0z"/><text x="158.5" y="-131.4" font-family="Lato" font-size="12" transform="translate(4 149)">[Büchi]</text><g class="node" transform="translate(4 149)"><circle fill="#ffffa0" stroke="#000" cx="56" cy="-34" r="18"/><text text-anchor="middle" x="56" y="-30.9" font-family="Lato" font-size="12">2</text></g><g class="edge" transform="translate(4 149)"><path fill="none" stroke="#000" d="M1.15-34h29.48"/><path stroke="#000" d="M37.94-34l-7-3.15 3.5 3.15h-3.5 3.5l-3.5 3.15 7-3.15h0z"/></g><g class="node" transform="translate(4 149)"><circle fill="#ffffa0" stroke="#000" cx="139" cy="-71" r="18"/><circle fill="none" stroke="#000" cx="139" cy="-71" r="22"/><text x="135.5" y="-67.9" font-family="Lato" font-size="12">1</text></g><g class="edge" transform="translate(4 149)"><path fill="none" stroke="#000" d="M72.62-41.13c11.19-5.12 26.53-12.12 39.54-18.07"/><path stroke="#000" d="M118.71-62.19l-7.67.04 4.49 1.41-3.18 1.46h0l3.18-1.46-1.87 4.32 5.05-5.77h0z"/><text x="92" y="-55.4" font-family="Lato" font-size="12">a</text></g><g class="node" transform="translate(4 149)"><circle fill="#ffffa0" stroke="#000" cx="249" cy="-18" r="18"/><text text-anchor="middle" x="249" y="-14.9" font-family="Lato" font-size="12">3</text></g><g class="edge" transform="translate(4 149)"><path fill="none" stroke="#000" d="M74.05-31.79c11.99 1.5 28.43 3.45 42.95 4.79 37.19 3.44 80.43 6.17 106.75 7.68"/><path stroke="#000" d="M231.02-18.91l-6.81-3.54 3.32 3.34-3.5-.19h0l3.5.19-3.68 2.95 7.17-2.75h0z"/><text x="134" y="-30.4" font-family="Lato" font-size="12">!a</text></g><g class="node" transform="translate(4 149)"><circle fill="#ffffa0" stroke="#000" cx="332" cy="-61" r="18"/><circle fill="none" stroke="#000" cx="332" cy="-61" r="22"/><text text-anchor="middle" x="332" y="-57.9" font-family="Lato" font-size="12">0</text></g><g class="edge" transform="translate(4 149)"><path fill="none" stroke="#000" d="M324.32-81.99c-.95-10.1 1.61-19.01 7.68-19.01 4.55 0 7.13 5.01 7.74 11.78"/><path stroke="#000" d="M339.68-81.99l3.2-6.98-3.17 3.48.02-3.5h0l-.02 3.5-3.13-3.52 3.1 7.02h0z"/><text x="328.5" y="-104.4" font-family="Lato" font-size="12">1</text></g><g class="edge" transform="translate(4 149)"><path fill="none" stroke="#000" d="M161.2-73.82c25.27-2.91 68.76-6.46 105.8-2.18 12.18 1.41 25.41 4.28 36.67 7.13"/><path stroke="#000" d="M310.75-67.01l-5.97-4.82 2.58 3.93-3.38-.89h0l3.38.89-4.18 2.16 7.57-1.27h0z"/><text x="245.5" y="-80.4" font-family="Lato" font-size="12">b</text></g><g class="edge" transform="translate(4 149)"><path fill="none" stroke="#000" d="M131.32-91.99c-.95-10.1 1.61-19.01 7.68-19.01 4.55 0 7.13 5.01 7.74 11.78"/><path stroke="#000" d="M146.68-91.99l3.2-6.98-3.17 3.48.02-3.5h0l-.02 3.5-3.13-3.52 3.1 7.02h0z"/><text x="123.5" y="-114.4" font-family="Lato" font-size="12">a &amp; !b</text></g><g class="edge" transform="translate(4 149)"><path fill="none" stroke="#000" d="M159.06-61.65c18.82 9.24 47.58 23.35 67.26 33.01"/><path stroke="#000" d="M232.62-25.55l-4.89-5.91 1.75 4.37-3.14-1.54h0l3.14 1.54-4.53 1.29 7.67.25h0z"/><text x="179" y="-53.4" font-family="Lato" font-size="12">!a &amp; !b</text></g><g class="edge" transform="translate(4 149)"><path fill="none" stroke="#000" d="M265.24-26.09c11.42-6.06 27.3-14.49 40.6-21.55"/><path stroke="#000" d="M312.13-50.98l-7.66.5 4.56 1.14-3.09 1.64h0l3.09-1.64-1.61 4.42 4.71-6.06h0z"/><text x="285" y="-42.4" font-family="Lato" font-size="12">b</text></g><g class="edge" transform="translate(4 149)"><path fill="none" stroke="#000" d="M242.27-35.04C240.89-44.86 243.14-54 249-54c4.4 0 6.76 5.14 7.09 11.86"/><path stroke="#000" d="M255.73-35.04l3.5-6.83-3.32 3.34.17-3.5h0l-.17 3.5-2.98-3.65 2.8 7.14h0z"/><text x="244" y="-57.4" font-family="Lato" font-size="12">!b</text></g></g></svg>