<?xml-stylesheet href="spot.css" type="text/css"?><svg width="388" height="182pt" viewBox="0 0 291 182.33" xmlns="http://www.w3.org/2000/svg"><g class="graph" transform="translate(4 178.33)"><path fill="#fff" stroke="transparent" d="M-4 4v-182.33h291V4H-4z"/><text x="124.5" y="-161.73" font-family="Lato" font-size="12">Inf(</text><text x="141.5" y="-161.73" font-family="Lato" font-size="12" fill="#1f78b4">⓿</text><text x="154.5" y="-161.73" font-family="Lato" font-size="12">)</text><text x="123" y="-149.73" font-family="Lato" font-size="12">[Büchi]</text><g class="node"><circle fill="#ffffa0" stroke="#000" cx="56" cy="-64.33" r="18"/><text text-anchor="middle" x="56" y="-61.23" font-family="Lato" font-size="12">0</text></g><g class="edge"><path fill="none" stroke="#000" d="M1.15-64.33h29.48"/><path stroke="#000" d="M37.94-64.33l-7-3.15 3.5 3.15h-3.5 3.5l-3.5 3.15 7-3.15h0z"/></g><g class="edge"><path fill="none" stroke="#000" d="M49.62-81.37c-1.3-9.82.83-18.96 6.38-18.96 4.17 0 6.4 5.14 6.71 11.86"/><path stroke="#000" d="M62.38-81.37l3.47-6.84-3.31 3.35.17-3.5h0l-.17 3.5-2.98-3.65 2.82 7.14h0z"/><text x="52.5" y="-116.73" font-family="Lato" font-size="12">a</text><text x="49.5" y="-103.73" font-family="Lato" font-size="12" fill="#1f78b4">⓿</text></g><g class="node"><circle fill="#ffffa0" stroke="#000" cx="265" cy="-55.33" r="18"/><text text-anchor="middle" x="265" y="-52.23" font-family="Lato" font-size="12">1</text></g><g class="edge"><path fill="none" stroke="#000" d="M68.45-77.55c20.81-22.34 66.58-63.73 108.55-48.78 28.71 10.23 54.8 34.44 70.76 51.75"/><path stroke="#000" d="M252.78-69.01l-2.34-7.31-.01 4.71-2.34-2.6h0l2.34 2.6-4.68-.5 7.03 3.1h0z"/><text x="142" y="-132.73" font-family="Lato" font-size="12">!a &amp; !b</text></g><g class="node"><circle fill="#ffffa0" stroke="#000" cx="159" cy="-55.33" r="18"/><text text-anchor="middle" x="159" y="-52.23" font-family="Lato" font-size="12">2</text></g><g class="edge"><path fill="none" stroke="#000" d="M73.94-67.04c13.4-1.68 32.54-3.04 49.06-.29 4.14.69 8.45 1.81 12.57 3.1"/><path stroke="#000" d="M142.26-61.96l-5.62-5.24 2.3 4.11-3.31-1.12h0l3.31 1.12-4.32 1.86 7.64-.73h0z"/><text x="92" y="-71.73" font-family="Lato" font-size="12">!a &amp; b</text></g><g class="edge"><path fill="none" stroke="#000" d="M251.17-43.42C229.29-24.59 183.03 8.83 141-2.33c-27.07-7.19-52.07-28.29-67.63-43.89"/><path stroke="#000" d="M68.46-51.27l2.62 7.22-.18-4.71 2.44 2.51h0l-2.44-2.51 4.7.32-7.14-2.83h0z"/><text x="155.5" y="-18.73" font-family="Lato" font-size="12">a</text><text x="152.5" y="-5.73" font-family="Lato" font-size="12" fill="#1f78b4">⓿</text></g><g class="edge"><path fill="none" stroke="#000" d="M256.02-71.24c-2.34-10.24.65-20.09 8.98-20.09 6.38 0 9.63 5.78 9.75 13.08"/><path stroke="#000" d="M273.98-71.24l3.89-6.62-3.51 3.14.38-3.48h0l-.38 3.48-2.75-3.83 2.37 7.31h0z"/><text x="260" y="-94.73" font-family="Lato" font-size="12">!a</text></g><g class="edge"><path fill="none" stroke="#000" d="M143.28-45.79c-6.03 3.38-13.24 6.76-20.28 8.46-13.39 3.24-17.96 4.45-31 0-6.16-2.1-12.08-5.77-17.24-9.74"/><path stroke="#000" d="M69.07-51.8l3.37 6.9-.67-4.66 2.69 2.24h0l-2.69-2.24 4.7-.18-7.4-2.06h0z"/><text x="104" y="-53.73" font-family="Lato" font-size="12">a</text><text x="101" y="-40.73" font-family="Lato" font-size="12" fill="#1f78b4">⓿</text></g><g class="edge"><path fill="none" stroke="#000" d="M177.17-55.33h62.4"/><path stroke="#000" d="M246.8-55.33l-7-3.15 3.5 3.15h-3.5 3.5l-3.5 3.15 7-3.15h0z"/><text x="195" y="-58.73" font-family="Lato" font-size="12">!a &amp; !b</text></g><g class="edge"><path fill="none" stroke="#000" d="M150.37-71.24c-2.26-10.24.62-20.09 8.63-20.09 6.13 0 9.25 5.78 9.37 13.08"/><path stroke="#000" d="M167.63-71.24l3.87-6.64-3.5 3.16.37-3.49h0l-.37 3.49-2.77-3.82 2.4 7.3h0z"/><text x="143.5" y="-107.73" font-family="Lato" font-size="12">!a &amp; b</text><text x="152.5" y="-94.73" font-family="Lato" font-size="12" fill="#1f78b4">⓿</text></g></g></svg>