<?xml-stylesheet href="spot.css" type="text/css"?><svg width="500pt" height="340pt" viewBox="0 0 500 340" xmlns="http://www.w3.org/2000/svg"><g class="graph" transform="translate(4 336)"><path fill="#fff" stroke="transparent" d="M-4 4v-340h500V4H-4z"/><text x="205" y="-319.4" font-family="Lato" font-size="12">Fin(</text><text x="227" y="-319.4" font-family="Lato" font-size="12" fill="#1f78b4">⓿</text><text x="240" y="-319.4" font-family="Lato" font-size="12">) | Inf(</text><text x="270" y="-319.4" font-family="Lato" font-size="12" fill="#ff4da0">❶</text><text x="283" y="-319.4" font-family="Lato" font-size="12">)</text><text x="220" y="-307.4" font-family="Lato" font-size="12">[Streett 1]</text><g class="node"><path fill="#ffffa0" stroke="#000" d="M62-191H50c-6 0-12 6-12 12v12c0 6 6 12 12 12h12c6 0 12-6 12-12v-12c0-6-6-12-12-12"/><text x="52.5" y="-176.4" font-family="Lato" font-size="12">2</text><text x="49.5" y="-163.4" font-family="Lato" font-size="12" fill="#ff4da0">❶</text></g><g class="edge"><path fill="none" stroke="#000" d="M1.15-173h29.48"/><path stroke="#000" d="M37.94-173l-7-3.15 3.5 3.15h-3.5 3.5l-3.5 3.15 7-3.15h0z"/></g><g class="node"><path fill="#ffffa0" stroke="#000" d="M165-242h-12c-6 0-12 6-12 12v12c0 6 6 12 12 12h12c6 0 12-6 12-12v-12c0-6-6-12-12-12"/><text x="155.5" y="-227.4" font-family="Lato" font-size="12">1</text><text x="152.5" y="-214.4" font-family="Lato" font-size="12" fill="#ff4da0">❶</text></g><g class="edge"><path fill="none" stroke="#000" d="M74.02-190.7c5.38-4.85 11.6-9.74 17.98-13.3 13.05-7.29 29.07-12.23 42.06-15.37"/><path stroke="#000" d="M140.93-220.94l-7.52-1.51 4.11 2.29-3.41.78h0l3.41-.78-2.71 3.85 6.12-4.63h0z"/><text x="92" y="-219.4" font-family="Lato" font-size="12">a &amp; !b</text></g><g class="edge"><path fill="none" stroke="#000" d="M74.26-173.85c13.92-1.32 33.62-4.67 48.74-13.15 6.25-3.5 12.04-8.49 17.05-13.68"/><path stroke="#000" d="M144.78-205.88l-7.04 3.06 4.69-.47-2.36 2.59h0l2.36-2.59-.03 4.71 2.38-7.3h0z"/><text x="93.5" y="-190.4" font-family="Lato" font-size="12">a &amp; b</text></g><g class="node"><path fill="#ffffa0" stroke="#000" d="M271-152h-12c-6 0-12 6-12 12v12c0 6 6 12 12 12h12c6 0 12-6 12-12v-12c0-6-6-12-12-12"/><text x="261.5" y="-137.4" font-family="Lato" font-size="12">3</text><text x="258.5" y="-124.4" font-family="Lato" font-size="12" fill="#ff4da0">❶</text></g><g class="edge"><path fill="none" stroke="#000" d="M74.29-169.74c36.85 6.94 123.19 23.21 165.49 31.18"/><path stroke="#000" d="M246.9-137.22l-6.29-4.39 2.85 3.74-3.44-.65h0l3.44.65-4.02 2.45 7.46-1.8h0z"/><text x="142" y="-159.4" font-family="Lato" font-size="12">!a &amp; !b</text></g><g class="edge"><path fill="none" stroke="#000" d="M74.19-162c16.42 9.81 42.23 23.45 66.81 29 33.56 7.58 73.59 5.23 98.66 2.44"/><path stroke="#000" d="M246.62-131.39l-7.32-2.3 3.85 2.71-3.48.41h0l3.48-.41-3.11 3.54 6.58-3.95h0z"/><text x="143.5" y="-136.4" font-family="Lato" font-size="12">!a &amp; b</text></g><g class="node"><path fill="#ffffa0" stroke="#000" d="M480-176h-12c-6 0-12 6-12 12v12c0 6 6 12 12 12h12c6 0 12-6 12-12v-12c0-6-6-12-12-12"/><text x="470.5" y="-161.4" font-family="Lato" font-size="12">0</text><text x="467.5" y="-148.4" font-family="Lato" font-size="12" fill="#ff4da0">❶</text></g><g class="edge"><path fill="none" stroke="#000" d="M471.74-176.15c-.35-9.39.4-17.85 2.26-17.85 1.36 0 2.13 4.56 2.31 10.7"/><path stroke="#000" d="M476.26-176.15l3.19-6.98-3.17 3.48.02-3.5h0l-.02 3.5-3.13-3.52 3.11 7.02h0z"/><text x="457" y="-197.4" font-family="Lato" font-size="12">!a &amp; !b</text></g><g class="edge"><path fill="none" stroke="#000" d="M470.21-176.26c-1.97-17.14-.7-35.74 3.79-35.74 3.86 0 5.34 13.73 4.43 28.48"/><path stroke="#000" d="M477.79-176.26l3.75-6.7-3.44 3.22.3-3.49h0l-.3 3.49-2.84-3.77 2.53 7.25h0z"/><text x="458.5" y="-215.4" font-family="Lato" font-size="12">a &amp; !b</text></g><g class="edge"><path fill="none" stroke="#000" d="M469.26-176.08c-4.2-24.33-2.62-53.92 4.74-53.92 6.67 0 8.59 24.3 5.77 46.97"/><path stroke="#000" d="M478.74-176.08l4.14-6.46-3.62 3 .51-3.46h0l-.51 3.46-2.61-3.92 2.09 7.38h0z"/><text x="458.5" y="-233.4" font-family="Lato" font-size="12">!a &amp; b</text></g><g class="edge"><path fill="none" stroke="#000" d="M468.57-176.11C461.89-207.24 463.7-248 474-248c9.54 0 11.8 34.93 6.78 64.82"/><path stroke="#000" d="M479.43-176.11l4.41-6.29-3.75 2.85.65-3.44h0l-.65 3.44-2.44-4.03 1.78 7.47h0z"/><text x="460" y="-251.4" font-family="Lato" font-size="12">a &amp; b</text></g><g class="edge"><path fill="none" stroke="#000" d="M177.18-231.31C223.76-249.91 354.62-293.7 438-238c18.25 12.19 27.05 36.18 31.26 54.72"/><path stroke="#000" d="M470.7-176.22l1.68-7.49-2.38 4.06-.7-3.43h0l.7 3.43-3.79-2.8 4.49 6.23h0z"/><text x="302.5" y="-268.4" font-family="Lato" font-size="12">!a &amp; b</text></g><g class="edge"><path fill="none" stroke="#000" d="M177.24-222.2C221.36-217.29 341.7-202.07 438-173c3.72 1.12 7.57 2.52 11.31 4.01"/><path stroke="#000" d="M455.84-166.26l-5.24-5.61 2.01 4.26-3.23-1.35h0l3.23 1.35-4.45 1.55 7.68-.2h0z"/><text x="304" y="-207.4" font-family="Lato" font-size="12">a &amp; b</text></g><g class="edge"><path fill="none" stroke="#000" d="M149.95-242.15c-1.39-9.39 1.63-17.85 9.05-17.85 5.45 0 8.52 4.56 9.22 10.7"/><path stroke="#000" d="M168.05-242.15l3.32-6.92-3.24 3.42.09-3.5h0l-.09 3.5-3.06-3.58 2.98 7.08h0z"/><text x="143.5" y="-263.4" font-family="Lato" font-size="12">a &amp; !b</text></g><g class="edge"><path fill="none" stroke="#000" d="M177.08-210.8c5.69 4.39 12.08 9.31 17.92 13.8 15.09 11.59 19.86 13.27 34 26 4.63 4.17 9.36 8.84 13.79 13.43"/><path stroke="#000" d="M247.82-152.26l-2.53-7.25.12 4.71-2.41-2.54h0l2.41 2.54-4.69-.37 7.1 2.91h0z"/><text x="195" y="-200.4" font-family="Lato" font-size="12">!a &amp; !b</text></g><g class="edge"><path fill="none" stroke="#000" d="M283.1-142.12c5.58-2.3 11.9-4.54 17.9-5.88 51.57-11.49 113.86-11.89 147.53-11.03"/><path stroke="#000" d="M455.66-158.81l-6.9-3.36 3.4 3.25-3.5-.1h0l3.5.1-3.59 3.05 7.09-2.94h0z"/><text x="355.5" y="-161.4" font-family="Lato" font-size="12">!a &amp; b</text></g><g class="edge"><path fill="none" stroke="#000" d="M283.2-133.72c23.86.17 68.3-.32 105.8-5.28 20.31-2.69 42.94-7.94 59.59-12.24"/><path stroke="#000" d="M455.79-153.14l-7.57-1.26 4.19 2.15-3.39.89h0l3.39-.89-2.58 3.94 5.96-4.83h0z"/><text x="357" y="-142.4" font-family="Lato" font-size="12">a &amp; b</text></g><g class="node"><path fill="#ffffa0" stroke="#000" d="M377-36h-12c-6 0-12 6-12 12v12c0 6 6 12 12 12h12c6 0 12-6 12-12v-12c0-6-6-12-12-12"/><text x="367.5" y="-21.4" font-family="Lato" font-size="12">4</text><text x="364.5" y="-8.4" font-family="Lato" font-size="12" fill="#1f78b4">⓿</text></g><g class="edge"><path fill="none" stroke="#000" d="M282.25-115.88c17.91 19.98 46.77 52.18 66.47 74.15"/><path stroke="#000" d="M353.52-36.38l-2.33-7.32-.01 4.71-2.33-2.6h0l2.33 2.6-4.68-.5 7.02 3.11h0z"/><text x="301" y="-97.4" font-family="Lato" font-size="12">!a &amp; !b</text></g><g class="edge"><path fill="none" stroke="#000" d="M268.26-115.95C271.77-95.38 280.41-62.01 301-42c12.01 11.67 29.97 17.68 44.57 20.77"/><path stroke="#000" d="M352.84-19.86l-6.3-4.39 2.86 3.74-3.44-.64h0l3.44.64-4.02 2.45 7.46-1.8h0z"/><text x="302.5" y="-45.4" font-family="Lato" font-size="12">a &amp; !b</text></g><g class="edge"><path fill="none" stroke="#000" d="M385.85-36.27C399.34-54.16 420.35-82.26 438-107c6.22-8.72 12.91-18.39 18.76-26.95"/><path stroke="#000" d="M460.85-139.95l-6.55 4.01 4.58-1.12-1.97 2.89h0l1.97-2.89.63 4.67 1.34-7.56h0z"/><text x="407" y="-110.4" font-family="Lato" font-size="12">!a &amp; b</text></g><g class="edge"><path fill="none" stroke="#000" d="M389.24-21.95C404.13-26.22 425.21-34.45 438-49c20.69-23.54 29.17-59.43 32.63-83.53"/><path stroke="#000" d="M471.56-139.61l-4.03 6.54 3.57-3.07-.45 3.47h0l.45-3.47 2.68 3.88-2.22-7.35h0z"/><text x="408.5" y="-52.4" font-family="Lato" font-size="12">a &amp; b</text></g><g class="edge"><path fill="none" stroke="#000" d="M366.48-36.15c-.7-9.39.81-17.85 4.52-17.85 2.73 0 4.26 4.56 4.61 10.7"/><path stroke="#000" d="M375.52-36.15l3.24-6.96-3.19 3.46.04-3.5h0l-.04 3.5-3.11-3.54 3.06 7.04h0z"/><text x="354" y="-57.4" font-family="Lato" font-size="12">!a &amp; !b</text></g><g class="edge"><path fill="none" stroke="#000" d="M363.42-36.26C359.49-53.4 362.02-72 371-72c7.72 0 10.67 13.73 8.86 28.48"/><path stroke="#000" d="M378.58-36.26l4.31-6.35-3.7 2.91.6-3.45h0l-.6 3.45-2.5-4 1.89 7.44h0z"/><text x="355.5" y="-75.4" font-family="Lato" font-size="12">a &amp; !b</text></g></g></svg>