<?xml-stylesheet href="spot.css" type="text/css"?><svg width="185pt" height="205pt" viewBox="0 0 185 205" xmlns="http://www.w3.org/2000/svg"><g class="graph" transform="translate(4 201)"><path fill="#fff" stroke="transparent" d="M-4 4v-205h185V4H-4z"/><text x="71.5" y="-184.4" font-family="Lato" font-size="12">Inf(</text><text x="88.5" y="-184.4" font-family="Lato" font-size="12" fill="#1f78b4">⓿</text><text x="101.5" y="-184.4" font-family="Lato" font-size="12">)</text><text x="70" y="-172.4" font-family="Lato" font-size="12">[Büchi]</text><g class="node"><circle fill="#ffffa0" stroke="#ff4da0" stroke-width="2" cx="56" cy="-67" r="18"/><text text-anchor="middle" x="56" y="-63.9" font-family="Lato" font-size="12">0</text></g><g class="edge"><path fill="none" stroke="#000" d="M1.15-67h29.48"/><path stroke="#000" d="M37.94-67l-7-3.15 3.5 3.15h-3.5 3.5l-3.5 3.15 7-3.15h0z"/></g><g class="edge"><path fill="none" stroke="#000" d="M49.62-84.04C48.32-93.86 50.45-103 56-103c4.17 0 6.4 5.14 6.71 11.86"/><path stroke="#000" d="M62.38-84.04l3.47-6.84-3.31 3.35.17-3.5h0l-.17 3.5-2.98-3.65 2.82 7.14h0z"/><text x="52.5" y="-119.4" font-family="Lato" font-size="12">a</text><text x="49.5" y="-106.4" font-family="Lato" font-size="12" fill="#1f78b4">⓿</text></g><g class="node"><circle fill="#ffffa0" stroke="#000" cx="159" cy="-116" r="18"/><text text-anchor="middle" x="159" y="-112.9" font-family="Lato" font-size="12">1</text></g><g class="edge"><path fill="none" stroke="#ff4da0" stroke-width="2" d="M69.9-78.64C76.22-83.88 84.14-89.82 92-94c13.4-7.14 29.56-12.57 42.53-16.25"/><path fill="#ff4da0" stroke="#ff4da0" stroke-width="2" d="M141.37-112.12l-7.58-1.2 4.07 1.64-3.37.92.13.48.13.49 3.38-.92-2.68 3.47 5.92-4.88h0z"/><text x="102.5" y="-109.4" font-family="Lato" font-size="12">!a</text></g><g class="node"><circle fill="#ffffa0" stroke="#000" cx="159" cy="-18" r="18"/><text text-anchor="middle" x="159" y="-14.9" font-family="Lato" font-size="12">2</text></g><g class="edge"><path fill="none" stroke="#ff4da0" stroke-width="2" d="M67.55-53.09C73.86-45.72 82.48-37.16 92-32c12.74 6.91 28.58 10.41 41.55 12.19"/><path fill="#ff4da0" stroke="#ff4da0" stroke-width="2" d="M140.81-18.96l-6.59-3.95 3.17 3.05-3.48-.41-.05.49-.06.5 3.47.41-3.78 2.22 7.32-2.31h0z"/><text x="92" y="-35.4" font-family="Lato" font-size="12">!a &amp; b</text></g><g class="edge"><path fill="none" stroke="#000" d="M148.45-101.09c-9.67 15-23.48 36.04-25.45 37.09-12.9 6.87-29.31 6.16-42.54 3.71"/><path stroke="#000" d="M73.49-61.79l6.18 4.55-2.76-3.82 3.42.74h0l-3.42-.74 4.08-2.34-7.5 1.61h0z"/><text x="104" y="-80.4" font-family="Lato" font-size="12">a</text><text x="101" y="-67.4" font-family="Lato" font-size="12" fill="#1f78b4">⓿</text></g><g class="edge"><path fill="none" stroke="#000" d="M150.37-131.92c-2.26-10.23.62-20.08 8.63-20.08 6.13 0 9.25 5.77 9.37 13.07"/><path stroke="#000" d="M167.63-131.92l3.87-6.63-3.5 3.15.37-3.48h0l-.37 3.48-2.77-3.81 2.4 7.29h0z"/><text x="154" y="-155.4" font-family="Lato" font-size="12">!a</text></g><g class="edge"><path fill="none" stroke="#000" d="M150.37-33.92C148.11-44.15 150.99-54 159-54c6.13 0 9.25 5.77 9.37 13.07"/><path stroke="#000" d="M167.63-33.92l3.87-6.63-3.5 3.15.37-3.48h0L168-37.4l-2.77-3.81 2.4 7.29h0z"/><text x="155.5" y="-70.4" font-family="Lato" font-size="12">b</text><text x="152.5" y="-57.4" font-family="Lato" font-size="12" fill="#1f78b4">⓿</text></g></g></svg>