<?xml-stylesheet href="spot.css" type="text/css"?><svg width="280pt" height="143pt" viewBox="0 0 280 143" xmlns="http://www.w3.org/2000/svg"><g class="graph" transform="translate(4 139)"><path fill="#fff" stroke="transparent" d="M-4 4v-143h280V4H-4z"/><text x="117.5" y="-121.4" font-family="Lato" font-size="12">[Büchi]</text><g class="node"><circle fill="#ffffa0" stroke="#ff4da0" stroke-width="2" cx="60" cy="-61" r="18"/><circle fill="none" stroke="#ff4da0" stroke-width="2" cx="60" cy="-61" r="22"/><text text-anchor="middle" x="60" y="-57.9" font-family="Lato" font-size="12">0</text></g><g class="edge"><path fill="none" stroke="#000" d="M1.17-61h29.54"/><path stroke="#000" d="M37.86-61l-7-3.15 3.5 3.15h-3.5 3.5l-3.5 3.15 7-3.15h0z"/></g><g class="edge"><path fill="none" stroke="#ff4da0" stroke-width="2" d="M52.68-81.99C51.78-92.09 54.22-101 60-101c4.34 0 6.79 5.01 7.37 11.78"/><path fill="#ff4da0" stroke="#ff4da0" stroke-width="2" d="M67.32-81.99l3.2-6.98-2.68 3.48.03-3.5h-1l-.03 3.5-2.62-3.52 3.1 7.02h0z"/><text x="44.5" y="-104.4" font-family="Lato" font-size="12">!a &amp; b</text></g><g class="node"><circle fill="#ffffa0" stroke="#000" cx="250" cy="-61" r="18"/><circle fill="none" stroke="#000" cx="250" cy="-61" r="22"/><text text-anchor="middle" x="250" y="-57.9" font-family="Lato" font-size="12">1</text></g><g class="edge"><path fill="none" stroke="#000" d="M81.62-66.48C106.22-72.32 148.6-80.21 185-76c12.18 1.41 25.41 4.28 36.67 7.13"/><path stroke="#000" d="M228.75-67.01l-5.97-4.82 2.58 3.93-3.38-.89h0l3.38.89-4.18 2.16 7.57-1.27h0z"/><text x="153" y="-80.4" font-family="Lato" font-size="12">a &amp; b</text></g><g class="node"><circle fill="#ffffa0" stroke="#000" cx="167" cy="-18" r="18"/><text text-anchor="middle" x="167" y="-14.9" font-family="Lato" font-size="12">2</text></g><g class="edge"><path fill="none" stroke="#ff4da0" stroke-width="2" d="M80.75-52.91c17.88 7.32 44.21 18.1 62.86 25.74"/><path fill="#ff4da0" stroke="#ff4da0" stroke-width="2" d="M150.11-24.51l-5.28-5.56 2.23 3.77-3.24-1.32-.19.46-.19.46 3.24 1.33-4.24 1.13 7.67-.27h0z"/><text x="100" y="-47.4" font-family="Lato" font-size="12">!a &amp; b</text></g><g class="edge"><path fill="none" stroke="#000" d="M242.32-81.99c-.95-10.1 1.61-19.01 7.68-19.01 4.55 0 7.13 5.01 7.74 11.78"/><path stroke="#000" d="M257.68-81.99l3.2-6.98-3.17 3.48.02-3.5h0l-.02 3.5-3.13-3.52 3.1 7.02h0z"/><text text-anchor="middle" x="250" y="-104.4" font-family="Lato" font-size="12">1</text></g><g class="edge"><path fill="none" stroke="#000" d="M183.24-26.09c11.42-6.06 27.3-14.49 40.6-21.55"/><path stroke="#000" d="M230.13-50.98l-7.66.5 4.56 1.14-3.09 1.64h0l3.09-1.64-1.61 4.42 4.71-6.06h0z"/><text x="203" y="-42.4" font-family="Lato" font-size="12">a</text></g><g class="edge"><path fill="none" stroke="#000" d="M160.27-35.04C158.89-44.86 161.14-54 167-54c4.4 0 6.76 5.14 7.09 11.86"/><path stroke="#000" d="M173.73-35.04l3.5-6.83-3.32 3.34.17-3.5h0l-.17 3.5-2.98-3.65 2.8 7.14h0z"/><text x="162" y="-57.4" font-family="Lato" font-size="12">!a</text></g></g></svg>