<?xml-stylesheet href="spot.css" type="text/css"?><svg width="301pt" height="149pt" viewBox="0 0 301 149" xmlns="http://www.w3.org/2000/svg"><g class="graph" transform="translate(4 145)"><path fill="#fff" stroke="transparent" d="M-4 4v-149h301V4H-4z"/><text x="128" y="-127.4" font-family="Lato" font-size="12">[Büchi]</text><g class="node"><circle fill="#ffffa0" stroke="#ff4da0" stroke-width="2" cx="56" cy="-67" r="18"/><text text-anchor="middle" x="56" y="-63.9" font-family="Lato" font-size="12">0</text></g><g class="edge"><path fill="none" stroke="#000" d="M1.15-67h29.48"/><path stroke="#000" d="M37.94-67l-7-3.15 3.5 3.15h-3.5 3.5l-3.5 3.15 7-3.15h0z"/></g><g class="edge"><path fill="none" stroke="#ff4da0" stroke-width="2" d="M49.62-84.04C48.32-93.86 50.45-103 56-103c4.17 0 6.4 5.14 6.71 11.86"/><path fill="#ff4da0" stroke="#ff4da0" stroke-width="2" d="M62.38-84.04l3.47-6.84-2.81 3.37.17-3.5-.5-.02-.5-.02-.17 3.49-2.48-3.62 2.82 7.14h0z"/><text x="52.5" y="-106.4" font-family="Lato" font-size="12">b</text></g><g class="node"><circle fill="#ffffa0" stroke="#000" cx="271" cy="-67" r="18"/><circle fill="none" stroke="#000" cx="271" cy="-67" r="22"/><text text-anchor="middle" x="271" y="-63.9" font-family="Lato" font-size="12">1</text></g><g class="edge"><path fill="none" stroke="#ff4da0" stroke-width="2" d="M73.59-71.54C89.86-75.73 115.42-81.66 138-84c36.13-3.75 77.67 3.52 104.35 9.68"/><path fill="#ff4da0" stroke="#ff4da0" stroke-width="2" d="M249.46-72.62l-6.08-4.69 2.79 3.39-3.4-.81-.12.49-.12.48 3.41.82-4.02 1.76 7.54-1.44h0z"/><text x="144.5" y="-88.4" font-family="Lato" font-size="12">!a &amp; b</text></g><g class="node"><circle fill="#ffffa0" stroke="#000" cx="160" cy="-22" r="18"/><circle fill="none" stroke="#000" cx="160" cy="-22" r="22"/><text text-anchor="middle" x="160" y="-18.9" font-family="Lato" font-size="12">2</text></g><g class="edge"><path fill="none" stroke="#ff4da0" stroke-width="2" d="M72.94-59.97c16.07 7.09 41.13 18.15 60.08 26.51"/><path fill="#ff4da0" stroke="#ff4da0" stroke-width="2" d="M139.69-30.52l-5.13-5.7 2.13 3.83-3.2-1.41-.2.46-.2.45 3.2 1.42-4.27 1.01 7.67-.06h0z"/><text x="92" y="-54.4" font-family="Lato" font-size="12">a &amp; b</text></g><g class="edge"><path fill="none" stroke="#000" d="M261.29-86.76C259.64-97.35 262.88-107 271-107c6.22 0 9.57 5.66 10.06 13.06"/><path stroke="#000" d="M280.71-86.76l3.49-6.83-3.32 3.34.17-3.5h0l-.17 3.5-2.97-3.65 2.8 7.14h0z"/><text x="267.5" y="-110.4" font-family="Lato" font-size="12">b</text></g><g class="edge"><path fill="none" stroke="#000" d="M180.49-30.05l63.24-26.1"/><path stroke="#000" d="M250.31-58.87l-7.67-.24 4.44 1.57-3.24 1.34h0l3.24-1.34-2.03 4.25 5.26-5.58h0z"/><text x="200" y="-52.4" font-family="Lato" font-size="12">!a &amp; b</text></g><g class="edge"><path fill="none" stroke="#000" d="M150.29-41.76C148.64-52.35 151.88-62 160-62c6.22 0 9.57 5.66 10.06 13.06"/><path stroke="#000" d="M169.71-41.76l3.49-6.83-3.32 3.34.17-3.5h0l-.17 3.5-2.97-3.65 2.8 7.14h0z"/><text x="156.5" y="-65.4" font-family="Lato" font-size="12">a</text></g></g></svg>