<?xml-stylesheet href="spot.css" type="text/css"?><svg width="172pt" height="104pt" viewBox="0 0 172 104" xmlns="http://www.w3.org/2000/svg"><g class="graph" transform="translate(4 100)"><path fill="#fff" stroke="transparent" d="M-4 4v-104h172V4H-4z"/><text x="63.5" y="-82.4" font-family="Lato" font-size="12">[Büchi]</text><g class="node"><circle fill="#ffffa0" stroke="#000" cx="60" cy="-22" r="18"/><circle fill="none" stroke="#000" cx="60" cy="-22" r="22"/><text text-anchor="middle" x="60" y="-18.9" font-family="Lato" font-size="12">0</text></g><g class="edge"><path fill="none" stroke="#000" d="M1.17-22h29.54"/><path stroke="#000" d="M37.86-22l-7-3.15 3.5 3.15h-3.5 3.5l-3.5 3.15 7-3.15h0z"/></g><g class="edge"><path fill="none" stroke="#000" d="M52.68-42.99C51.78-53.09 54.22-62 60-62c4.34 0 6.79 5.01 7.37 11.78"/><path stroke="#000" d="M67.32-42.99l3.2-6.98-3.18 3.48.03-3.5h0l-.03 3.5-3.12-3.52 3.1 7.02h0z"/><text x="56.5" y="-65.4" font-family="Lato" font-size="12">a</text></g><g class="node"><circle fill="#ffffa0" stroke="#000" cx="146" cy="-22" r="18"/><text text-anchor="middle" x="146" y="-18.9" font-family="Lato" font-size="12">1</text></g><g class="edge"><path fill="none" stroke="#000" d="M82.2-22h38.36"/><path stroke="#000" d="M127.77-22l-7-3.15 3.5 3.15h-3.5 3.5l-3.5 3.15 7-3.15h0z"/><text x="100" y="-25.4" font-family="Lato" font-size="12">!a</text></g><g class="edge"><path fill="none" stroke="#000" d="M130.22-12.98C124.18-9.8 116.98-6.61 110-5c-8.06 1.85-16.65.19-24.34-2.71"/><path stroke="#000" d="M78.88-10.65l5.16 5.67-1.95-4.28 3.21 1.39h0l-3.21-1.39 4.46-1.49-7.67.1h0z"/><text x="101.5" y="-8.4" font-family="Lato" font-size="12">a</text></g><g class="edge"><path fill="none" stroke="#000" d="M138.97-38.66C137.41-48.62 139.75-58 146-58c4.69 0 7.18 5.27 7.47 12.11"/><path stroke="#000" d="M153.03-38.66l3.57-6.8-3.36 3.3.22-3.49h0l-.22 3.49-2.93-3.68 2.72 7.18h0z"/><text x="141" y="-61.4" font-family="Lato" font-size="12">!a</text></g></g></svg>