<?xml-stylesheet href="spot.css" type="text/css"?><svg width="188pt" height="160" viewBox="0 0 188 119.66" xmlns="http://www.w3.org/2000/svg"><g class="graph" transform="translate(4 115.66)"><path fill="#fff" stroke="transparent" d="M-4 4v-119.66h188V4H-4z"/><text x="70.5" y="-99.06" font-family="Lato" font-size="12">Fin(</text><text x="92.5" y="-99.06" font-family="Lato" font-size="12" fill="#1f78b4">⓿</text><text x="105.5" y="-99.06" font-family="Lato" font-size="12">)</text><text x="63" y="-87.06" font-family="Lato" font-size="12">[co-Büchi]</text><g class="node"><circle fill="#ffffa0" stroke="#000" cx="56" cy="-30.66" r="18"/><text text-anchor="middle" x="56" y="-27.56" font-family="Lato" font-size="12">0</text></g><g class="edge"><path fill="none" stroke="#000" d="M1.15-30.66h29.48"/><path stroke="#000" d="M37.94-30.66l-7-3.15 3.5 3.15h-3.5 3.5l-3.5 3.15 7-3.15h0z"/></g><g class="edge"><path fill="none" stroke="#000" d="M49.62-47.69c-1.3-9.82.83-18.97 6.38-18.97 4.17 0 6.4 5.15 6.71 11.86"/><path stroke="#000" d="M62.38-47.69l3.47-6.85-3.31 3.35.17-3.5h0l-.17 3.5-2.98-3.64 2.82 7.14h0z"/><text x="51" y="-70.06" font-family="Lato" font-size="12">!a</text></g><g class="node"><circle fill="#ffffa0" stroke="#000" cx="162" cy="-30.66" r="18"/><text text-anchor="middle" x="162" y="-27.56" font-family="Lato" font-size="12">1</text></g><g class="edge"><path fill="none" stroke="#000" d="M74.07-32.41c5.7-.51 12.08-1 17.93-1.25 15.1-.64 18.9-.64 34 0 3.47.15 7.13.38 10.73.65"/><path stroke="#000" d="M143.93-32.41l-6.72-3.72 3.23 3.43-3.49-.29h0l3.49.29-3.75 2.85 7.24-2.56h0z"/><text x="105.5" y="-50.06" font-family="Lato" font-size="12">a</text><text x="102.5" y="-37.06" font-family="Lato" font-size="12" fill="#1f78b4">⓿</text></g><g class="edge"><path fill="none" stroke="#000" d="M148.93-18.13C142.68-12.54 134.57-6.58 126-3.66c-14.3 4.88-19.7 4.88-34 0-6.16-2.1-12.08-5.77-17.24-9.74"/><path stroke="#000" d="M69.07-18.13l3.37 6.9-.67-4.66 2.69 2.24h0l-2.69-2.24 4.7-.18-7.4-2.06h0z"/><text x="92" y="-20.06" font-family="Lato" font-size="12">!a &amp; !b</text><text x="102.5" y="-7.06" font-family="Lato" font-size="12" fill="#1f78b4">⓿</text></g><g class="edge"><path fill="none" stroke="#000" d="M153.02-46.57c-2.34-10.24.65-20.09 8.98-20.09 6.38 0 9.63 5.78 9.75 13.08"/><path stroke="#000" d="M170.98-46.57l3.89-6.62-3.51 3.14.38-3.48h0l-.38 3.48-2.75-3.82 2.37 7.3h0z"/><text x="150.5" y="-70.06" font-family="Lato" font-size="12">a | b</text></g></g></svg>