<?xml-stylesheet href="spot.css" type="text/css"?><svg width="164pt" height="332" viewBox="0 0 164 249" xmlns="http://www.w3.org/2000/svg"><g class="graph" transform="translate(4 245)"><path fill="#fff" stroke="transparent" d="M-4 4v-249h164V4H-4z"/><text x="61" y="-228.4" font-family="Lato" font-size="12">Inf(</text><text x="78" y="-228.4" font-family="Lato" font-size="12" fill="#1f78b4">⓿</text><text x="91" y="-228.4" font-family="Lato" font-size="12">)</text><text x="59.5" y="-216.4" font-family="Lato" font-size="12">[Büchi]</text><g class="node"><circle fill="#ffffa0" stroke="#000" cx="56" cy="-82" r="18"/><text text-anchor="middle" x="56" y="-78.9" font-family="Lato" font-size="12">0</text></g><g class="edge"><path fill="none" stroke="#000" d="M1.15-82h29.48"/><path stroke="#000" d="M37.94-82l-7-3.15 3.5 3.15h-3.5 3.5l-3.5 3.15 7-3.15h0z"/></g><g class="edge"><path fill="none" stroke="#000" d="M49.62-99.04c-1.3-9.82.83-18.96 6.38-18.96 4.17 0 6.4 5.14 6.71 11.86"/><path stroke="#000" d="M62.38-99.04l3.47-6.84-3.31 3.35.17-3.5h0l-.17 3.5-2.98-3.65 2.82 7.14h0z"/><text x="52.5" y="-121.4" font-family="Lato" font-size="12">1</text></g><g class="node"><circle fill="#ffffa0" stroke="#000" cx="138" cy="-147" r="18"/><text x="134.5" y="-143.9" font-family="Lato" font-size="12">1</text></g><g class="edge"><path fill="none" stroke="#000" d="M70.57-93.03c13.07-10.61 32.94-26.76 47.55-38.63"/><path stroke="#000" d="M123.63-136.14l-7.42 1.97 4.7.24-2.71 2.21h0l2.71-2.21-.73 4.65 3.45-6.86h0z"/><text x="92" y="-121.4" font-family="Lato" font-size="12">!a</text></g><g class="node"><circle fill="#ffffa0" stroke="#000" cx="138" cy="-18" r="18"/><text text-anchor="middle" x="138" y="-14.9" font-family="Lato" font-size="12">2</text></g><g class="edge"><path fill="none" stroke="#000" d="M70.57-71.14c12.99 10.39 32.7 26.16 47.28 37.82"/><path stroke="#000" d="M123.36-28.91l-3.5-6.83.77 4.64-2.73-2.18h0l2.73 2.18-4.7.28 7.43 1.91h0z"/><text x="93.5" y="-56.4" font-family="Lato" font-size="12">a</text></g><g class="edge"><path fill="none" stroke="#000" d="M130.97-163.66c-1.56-9.96.78-19.34 7.03-19.34 4.69 0 7.18 5.27 7.47 12.11"/><path stroke="#000" d="M145.03-163.66l3.57-6.8-3.36 3.3.22-3.49h0l-.22 3.49-2.93-3.68 2.72 7.18h0z"/><text x="133" y="-199.4" font-family="Lato" font-size="12">!a</text><text x="131.5" y="-186.4" font-family="Lato" font-size="12" fill="#1f78b4">⓿</text></g><g class="edge"><path fill="none" stroke="#000" d="M134.4-35.78c-.61-9.53.59-18.22 3.6-18.22 2.21 0 3.44 4.68 3.7 10.95"/><path stroke="#000" d="M141.6-35.78l3.25-6.96-3.2 3.46.05-3.5h0l-.05 3.5-3.1-3.55 3.05 7.05h0z"/><text x="122.5" y="-57.4" font-family="Lato" font-size="12">!a &amp; b</text></g><g class="edge"><path fill="none" stroke="#000" d="M132.15-35.14C128.71-52.58 130.66-72 138-72c6.37 0 8.68 14.6 6.94 29.85"/><path stroke="#000" d="M143.85-35.14l4.19-6.44-3.65 2.98.53-3.46h0l-.53 3.46-2.58-3.94 2.04 7.4h0z"/><text x="134.5" y="-88.4" font-family="Lato" font-size="12">a</text><text x="131.5" y="-75.4" font-family="Lato" font-size="12" fill="#1f78b4">⓿</text></g></g></svg>