<?xml-stylesheet href="spot.css" type="text/css"?><svg width="299pt" height="193pt" viewBox="0 0 299 193" xmlns="http://www.w3.org/2000/svg"><g class="graph"><path fill="#fff" stroke="transparent" d="M0 193V0h299v193H0z"/><text x="127" y="-171.4" font-family="Lato" font-size="12" transform="translate(4 189)">[Büchi]</text><g class="node" transform="translate(4 189)"><circle fill="#ffffa0" stroke="#ff4da0" stroke-width="2" cx="56" cy="-75" r="18"/><text text-anchor="middle" x="56" y="-71.9" font-family="Lato" font-size="12">0</text></g><g class="edge" transform="translate(4 189)"><path fill="none" stroke="#000" d="M1.15-75h29.48"/><path stroke="#000" d="M37.94-75l-7-3.15 3.5 3.15h-3.5 3.5l-3.5 3.15 7-3.15h0z"/></g><g class="edge" transform="translate(4 189)"><path fill="none" stroke="#ff4da0" stroke-width="2" d="M49.62-92.04c-1.3-9.82.83-18.96 6.38-18.96 4.17 0 6.4 5.14 6.71 11.86"/><path fill="#ff4da0" stroke="#ff4da0" stroke-width="2" d="M62.38-92.04l3.47-6.84-2.81 3.37.17-3.5-.5-.02-.5-.02-.17 3.49-2.48-3.62 2.82 7.14h0z"/><text x="51" y="-114.4" font-family="Lato" font-size="12">!a</text></g><g class="node" transform="translate(4 189)"><circle fill="#ffffa0" stroke="#ff4da0" stroke-width="2" cx="166" cy="-111" r="18"/><text text-anchor="middle" x="166" y="-107.9" font-family="Lato" font-size="12">1</text></g><g class="edge" transform="translate(4 189)"><path fill="none" stroke="#000" d="M72.92-81.71C78.86-84.12 85.7-86.8 92-89c16.28-5.7 34.9-11.29 49.25-15.42"/><path stroke="#000" d="M148.34-106.43l-7.59-1.12 4.22 2.08-3.36.95h0l3.36-.95-2.5 3.98 5.87-4.94h0z"/><text x="105.5" y="-103.4" font-family="Lato" font-size="12">a</text></g><g class="node" transform="translate(4 189)"><circle fill="#ffffa0" stroke="#000" cx="166" cy="-22" r="18"/><circle fill="none" stroke="#000" cx="166" cy="-22" r="22"/><text text-anchor="middle" x="166" y="-18.9" font-family="Lato" font-size="12">2</text></g><g class="edge" transform="translate(4 189)"><path fill="none" stroke="#ff4da0" stroke-width="2" d="M70.85-64.45C77.11-59.96 84.72-54.88 92-51c14.79 7.88 32.2 14.88 46.31 20.02"/><path fill="#ff4da0" stroke="#ff4da0" stroke-width="2" d="M144.95-28.6l-5.53-5.33 2.4 3.68-3.3-1.18-.16.47-.17.47 3.29 1.18-4.19 1.32 7.66-.61h0z"/><text x="104" y="-54.4" font-family="Lato" font-size="12">!a</text></g><g class="edge" transform="translate(4 189)"><path fill="none" stroke="#000" d="M154.95-96.22C147.98-87.37 137.85-76.91 126-72c-14.21 5.88-31.5 5.12-45.21 2.89"/><path stroke="#000" d="M73.57-70.46l6.3 4.39-2.86-3.75 3.44.65h0l-3.44-.65 4.03-2.45-7.47 1.81h0z"/><text x="92" y="-75.4" font-family="Lato" font-size="12">!a &amp; !b</text></g><g class="edge" transform="translate(4 189)"><path fill="none" stroke="#ff4da0" stroke-width="2" d="M157.37-126.92c-2.26-10.23.62-20.08 8.63-20.08 6.13 0 9.25 5.77 9.37 13.07"/><path fill="#ff4da0" stroke="#ff4da0" stroke-width="2" d="M174.63-126.92l3.87-6.63-3 3.21.36-3.49-.49-.05-.5-.05-.37 3.48-2.27-3.76 2.4 7.29h0z"/><text x="154.5" y="-150.4" font-family="Lato" font-size="12">a | b</text></g><g class="node" transform="translate(4 189)"><circle fill="#ffffa0" stroke="#000" cx="269" cy="-111" r="18"/><circle fill="none" stroke="#000" cx="269" cy="-111" r="22"/><text text-anchor="middle" x="269" y="-107.9" font-family="Lato" font-size="12">3</text></g><g class="edge" transform="translate(4 189)"><path fill="none" stroke="#ff4da0" stroke-width="2" d="M184.13-111h55.46"/><path fill="#ff4da0" stroke="#ff4da0" stroke-width="2" d="M246.92-111l-7-3.15 3.5 2.65h-3.5v1h3.5l-3.5 2.65 7-3.15h0z"/><text x="206" y="-114.4" font-family="Lato" font-size="12">a | b</text></g><g class="edge" transform="translate(4 189)"><path fill="none" stroke="#000" d="M156.95-42.17C155.56-52.6 158.58-62 166-62c5.68 0 8.78 5.51 9.3 12.77"/><path stroke="#000" d="M175.05-42.17l3.39-6.88-3.27 3.38.13-3.5h0l-.13 3.5-3.02-3.61 2.9 7.11h0z"/><text x="161" y="-65.4" font-family="Lato" font-size="12">!a</text></g><g class="edge" transform="translate(4 189)"><path fill="none" stroke="#000" d="M259.95-131.17C258.56-141.6 261.58-151 269-151c5.68 0 8.78 5.51 9.3 12.77"/><path stroke="#000" d="M278.05-131.17l3.39-6.88-3.27 3.38.13-3.5h0l-.13 3.5-3.02-3.61 2.9 7.11h0z"/><text x="257.5" y="-154.4" font-family="Lato" font-size="12">a | b</text></g></g></svg>