<?xml-stylesheet href="spot.css" type="text/css"?><svg width="413pt" height="185pt" viewBox="0 0 413 185.08" xmlns="http://www.w3.org/2000/svg"><g class="graph"><path fill="#fff" stroke="transparent" d="M0 185.08V0h413v185.08H0z"/><text x="184" y="-163.48" font-family="Lato" font-size="12" transform="translate(4 181.08)">[Büchi]</text><g class="node" transform="translate(4 181.08)"><circle fill="#ffffa0" stroke="#000" cx="60" cy="-74.08" r="18"/><circle fill="none" stroke="#000" cx="60" cy="-74.08" r="22"/><text text-anchor="middle" x="60" y="-70.98" font-family="Lato" font-size="12">0</text></g><g class="edge" transform="translate(4 181.08)"><path fill="none" stroke="#000" d="M1.17-74.08h29.54"/><path stroke="#000" d="M37.86-74.08l-7-3.15 3.5 3.15h-3.5 3.5l-3.5 3.15 7-3.15h0z"/></g><g class="edge" transform="translate(4 181.08)"><path fill="none" stroke="#000" d="M52.68-95.07c-.9-10.1 1.54-19.01 7.32-19.01 4.34 0 6.79 5.01 7.37 11.78"/><path stroke="#000" d="M67.32-95.07l3.2-6.98-3.18 3.48.03-3.5h0l-.03 3.5-3.12-3.53 3.1 7.03h0z"/><text x="56.5" y="-117.48" font-family="Lato" font-size="12">a</text></g><g class="node" transform="translate(4 181.08)"><circle fill="#ffffa0" stroke="#000" cx="387" cy="-107.08" r="18"/><text text-anchor="middle" x="387" y="-103.98" font-family="Lato" font-size="12">1</text></g><g class="edge" transform="translate(4 181.08)"><path fill="none" stroke="#000" d="M74.93-90.8c6.94-7.55 15.82-16.14 25.07-22.28 19.59-13.02 25.92-15.47 49-20 47.04-9.23 92.58-11.12 202 13 4.14.91 8.44 2.2 12.56 3.62"/><path stroke="#000" d="M370.25-113.99l-5.48-5.38 2.2 4.17-3.29-1.21h0l3.29 1.21-4.38 1.74 7.66-.53h0z"/><text x="203" y="-142.48" font-family="Lato" font-size="12">!a &amp; !b</text></g><g class="node" transform="translate(4 181.08)"><circle fill="#ffffa0" stroke="#000" cx="167" cy="-106.08" r="18"/><text text-anchor="middle" x="167" y="-102.98" font-family="Lato" font-size="12">2</text></g><g class="edge" transform="translate(4 181.08)"><path fill="none" stroke="#000" d="M81.94-70.66c14.3 1.45 33.42 1.63 49.06-4.42 6.93-2.69 13.37-7.41 18.8-12.38"/><path stroke="#000" d="M154.86-92.44l-7.2 2.67 4.7-.21-2.49 2.45h0l2.49-2.45-.28 4.7 2.78-7.16h0z"/><text x="100" y="-78.48" font-family="Lato" font-size="12">!a &amp; b</text></g><g class="edge" transform="translate(4 181.08)"><path fill="none" stroke="#000" d="M377.93-91.4C364.96-68.22 337.04-25.84 299-10.08 223.46 21.21 128.07-29.88 84.57-57.8"/><path stroke="#000" d="M78.53-61.73l4.14 6.46-1.21-4.55 2.93 1.91h0l-2.93-1.91 4.66-.73-7.59-1.18h0z"/><text x="216.5" y="-8.48" font-family="Lato" font-size="12">a</text></g><g class="edge" transform="translate(4 181.08)"><path fill="none" stroke="#000" d="M378.02-123c-2.34-10.23.65-20.08 8.98-20.08 6.38 0 9.63 5.77 9.75 13.07"/><path stroke="#000" d="M395.98-123l3.89-6.62-3.51 3.14.38-3.48h0l-.38 3.48-2.75-3.82 2.37 7.3h0z"/><text x="382" y="-146.48" font-family="Lato" font-size="12">!a</text></g><g class="edge" transform="translate(4 181.08)"><path fill="none" stroke="#000" d="M149.35-101.93c-13.41 3.44-32.7 8.6-49.35 13.85-4.04 1.27-8.29 2.7-12.44 4.15"/><path stroke="#000" d="M80.74-81.51l7.65.63-4.35-1.8 3.29-1.17h0l-3.29 1.17 2.24-4.14-5.54 5.31h0z"/><text x="112" y="-99.48" font-family="Lato" font-size="12">a</text></g><g class="edge" transform="translate(4 181.08)"><path fill="none" stroke="#000" d="M185.11-106.16c38.52-.18 132.17-.61 176.66-.81"/><path stroke="#000" d="M368.97-107.01l-7.01-3.11 3.51 3.13-3.5.02h0l3.5-.02-3.48 3.17 6.98-3.19h0z"/><text x="260" y="-109.48" font-family="Lato" font-size="12">!a &amp; !b</text></g><g class="node" transform="translate(4 181.08)"><circle fill="#ffffa0" stroke="#000" cx="277" cy="-41.08" r="18"/><circle fill="none" stroke="#000" cx="277" cy="-41.08" r="22"/><text text-anchor="middle" x="277" y="-37.98" font-family="Lato" font-size="12">3</text></g><g class="edge" transform="translate(4 181.08)"><path fill="none" stroke="#000" d="M183.02-97.05c17.75 10.69 47.54 28.62 68.61 41.3"/><path stroke="#000" d="M257.87-52l-4.37-6.3 1.37 4.5-3-1.81h0l3 1.81-4.62.89 7.62.91h0z"/><text x="204.5" y="-86.48" font-family="Lato" font-size="12">!a &amp; b</text></g><g class="edge" transform="translate(4 181.08)"><path fill="none" stroke="#000" d="M255.04-43.32C221.96-46.98 155.66-54.89 100-65.08c-3.76-.69-7.7-1.5-11.58-2.35"/><path stroke="#000" d="M81.57-68.97l6.14 4.61-2.72-3.84 3.41.77h0l-3.41-.77 4.1-2.3-7.52 1.53h0z"/><text x="163.5" y="-59.48" font-family="Lato" font-size="12">a</text></g><g class="edge" transform="translate(4 181.08)"><path fill="none" stroke="#000" d="M296.32-52.28c19.01-11.62 48.69-29.75 68.64-41.95"/><path stroke="#000" d="M371.07-97.96l-7.61.96 4.63.86-2.99 1.83h0l2.99-1.83-1.35 4.52 4.33-6.34h0z"/><text x="317" y="-86.48" font-family="Lato" font-size="12">!a &amp; !b</text></g><g class="edge" transform="translate(4 181.08)"><path fill="none" stroke="#000" d="M266.93-60.84c-1.71-10.59 1.65-20.24 10.07-20.24 6.45 0 9.93 5.65 10.43 13.06"/><path stroke="#000" d="M287.07-60.84l3.5-6.83-3.32 3.33.18-3.49h0l-.18 3.49-2.97-3.65 2.79 7.15h0z"/><text x="261.5" y="-84.48" font-family="Lato" font-size="12">!a &amp; b</text></g></g></svg>