<?xml-stylesheet href="spot.css" type="text/css"?><svg width="380" height="109pt" viewBox="0 0 285 109" xmlns="http://www.w3.org/2000/svg"><g class="graph" transform="translate(4 105)"><path fill="#fff" stroke="transparent" d="M-4 4v-109h285V4H-4z"/><text x="136.5" y="-87.4" font-family="Lato" font-size="12">t</text><text x="129" y="-74.4" font-family="Lato" font-size="12">[all]</text><g class="node"><circle fill="#ffffa0" stroke="#ff4da0" stroke-width="2" cx="56" cy="-18" r="18"/><text text-anchor="middle" x="56" y="-14.9" font-family="Lato" font-size="12">0</text></g><g class="edge"><path fill="none" stroke="#000" d="M1.15-18h29.48"/><path stroke="#000" d="M37.94-18l-7-3.15 3.5 3.15h-3.5 3.5l-3.5 3.15 7-3.15h0z"/></g><g class="edge"><path fill="none" stroke="#ff4da0" stroke-width="2" d="M49.62-35.04C48.32-44.86 50.45-54 56-54c4.17 0 6.4 5.14 6.71 11.86"/><path fill="#ff4da0" stroke="#ff4da0" stroke-width="2" d="M62.38-35.04l3.47-6.84-2.81 3.37.17-3.5-.5-.02-.5-.02-.17 3.49-2.48-3.62 2.82 7.14h0z"/><text x="52.5" y="-57.4" font-family="Lato" font-size="12">b</text></g><g class="node"><circle fill="#ffffa0" stroke="#000" cx="156" cy="-18" r="18"/><text text-anchor="middle" x="156" y="-14.9" font-family="Lato" font-size="12">2</text></g><g class="edge"><path fill="none" stroke="#ff4da0" stroke-width="2" d="M74.07-18h56.57"/><path fill="#ff4da0" stroke="#ff4da0" stroke-width="2" d="M137.8-18l-7-3.15 3.5 2.65h-3.5v1h3.5l-3.5 2.65 7-3.15h0z"/><text x="92" y="-21.4" font-family="Lato" font-size="12">a &amp; b</text></g><g class="edge"><path fill="none" stroke="#000" d="M147.37-33.92C145.11-44.15 147.99-54 156-54c6.13 0 9.25 5.77 9.37 13.07"/><path stroke="#000" d="M164.63-33.92l3.87-6.63-3.5 3.15.37-3.48h0L165-37.4l-2.77-3.81 2.4 7.29h0z"/><text x="152.5" y="-57.4" font-family="Lato" font-size="12">a</text></g><g class="node"><circle fill="#ffffa0" stroke="#000" cx="259" cy="-18" r="18"/><text text-anchor="middle" x="259" y="-14.9" font-family="Lato" font-size="12">1</text></g><g class="edge"><path fill="none" stroke="#000" d="M174.13-18h59.21"/><path stroke="#000" d="M240.78-18l-7-3.15 3.5 3.15h-3.5 3.5l-3.5 3.15 7-3.15h0z"/><text x="192" y="-21.4" font-family="Lato" font-size="12">!a &amp; b</text></g><g class="edge"><path fill="none" stroke="#000" d="M250.37-33.92C248.11-44.15 250.99-54 259-54c6.13 0 9.25 5.77 9.37 13.07"/><path stroke="#000" d="M267.63-33.92l3.87-6.63-3.5 3.15.37-3.48h0L268-37.4l-2.77-3.81 2.4 7.29h0z"/><text x="255.5" y="-57.4" font-family="Lato" font-size="12">b</text></g></g></svg>