<?xml-stylesheet href="spot.css" type="text/css"?><svg width="386pt" height="208" viewBox="0 0 386 155.54" xmlns="http://www.w3.org/2000/svg"><g class="graph" transform="translate(4 151.54)"><path fill="#fff" stroke="transparent" d="M-4 4v-155.54h386V4H-4z"/><text x="170.5" y="-133.94" font-family="Lato" font-size="12">[Büchi]</text><g class="node"><circle fill="#ffffa0" stroke="#000" cx="56" cy="-80.54" r="18"/><text text-anchor="middle" x="56" y="-77.44" font-family="Lato" font-size="12">2</text></g><g class="edge"><path fill="none" stroke="#000" d="M1.15-80.54h29.48"/><path stroke="#000" d="M37.94-80.54l-7-3.15 3.5 3.15h-3.5 3.5l-3.5 3.15 7-3.15h0z"/></g><g class="node"><circle fill="#ffffa0" stroke="#000" cx="356" cy="-43.54" r="18"/><circle fill="none" stroke="#000" cx="356" cy="-43.54" r="22"/><text text-anchor="middle" x="356" y="-40.44" font-family="Lato" font-size="12">1</text></g><g class="edge"><path fill="none" stroke="#000" d="M73-86.7c38.87-13.97 140.75-44.64 218-14.84 18.48 7.13 34.94 22.35 46.53 35.41"/><path stroke="#000" d="M342.19-60.7l-2.16-7.36-.12 4.71-2.27-2.66h0l2.27 2.66-4.66-.61 6.94 3.26h0z"/><text x="206" y="-116.94" font-family="Lato" font-size="12">a &amp; b</text></g><g class="node"><circle fill="#ffffa0" stroke="#000" cx="163" cy="-39.54" r="18"/><circle fill="none" stroke="#000" cx="163" cy="-39.54" r="22"/><text text-anchor="middle" x="163" y="-36.44" font-family="Lato" font-size="12">3</text></g><g class="edge"><path fill="none" stroke="#000" d="M72.95-74.31c16.62 6.49 42.96 16.77 62.69 24.48"/><path stroke="#000" d="M142.32-47.23l-5.38-5.48 2.12 4.21-3.26-1.27h0l3.26 1.27-4.41 1.66 7.67-.39h0z"/><text x="92" y="-68.94" font-family="Lato" font-size="12">!a &amp; b</text></g><g class="node"><circle fill="#ffffa0" stroke="#000" cx="273" cy="-43.54" r="18"/><text text-anchor="middle" x="273" y="-40.44" font-family="Lato" font-size="12">0</text></g><g class="edge"><path fill="none" stroke="#000" d="M266.27-60.58c-1.38-9.82.87-18.96 6.73-18.96 4.4 0 6.76 5.14 7.09 11.86"/><path stroke="#000" d="M279.73-60.58l3.5-6.83-3.32 3.34.17-3.5h0l-.17 3.5-2.98-3.66 2.8 7.15h0z"/><text x="268" y="-82.94" font-family="Lato" font-size="12">!a</text></g><g class="edge"><path fill="none" stroke="#000" d="M291.18-43.54h35.5"/><path stroke="#000" d="M333.81-43.54l-7-3.15 3.5 3.15h-3.5 3.5l-3.5 3.15 7-3.15h0z"/><text x="309" y="-46.94" font-family="Lato" font-size="12">a</text></g><g class="edge"><path fill="none" stroke="#000" d="M348.32-64.53c-.95-10.1 1.61-19.01 7.68-19.01 4.55 0 7.13 5.01 7.74 11.78"/><path stroke="#000" d="M363.68-64.53l3.2-6.98-3.17 3.48.02-3.5h0l-.02 3.5-3.13-3.52 3.1 7.02h0z"/><text text-anchor="middle" x="356" y="-86.94" font-family="Lato" font-size="12">1</text></g><g class="edge"><path fill="none" stroke="#000" d="M185.08-40.32c17.99-.67 43.87-1.63 62.71-2.32"/><path stroke="#000" d="M254.88-42.91l-7.11-2.89 3.61 3.02-3.49.13h0l3.49-.13L248-39.5l6.88-3.41h0z"/><text x="203" y="-44.94" font-family="Lato" font-size="12">!a &amp; !b</text></g><g class="edge"><path fill="none" stroke="#000" d="M182.1-27.93C206.74-13.61 252.23 7.58 291-3.54c15.12-4.34 30.14-13.41 41.82-21.81"/><path stroke="#000" d="M338.61-29.66l-7.5 1.65 4.69.44-2.81 2.09h0l2.81-2.09-.93 4.62 3.74-6.71h0z"/><text x="269.5" y="-6.94" font-family="Lato" font-size="12">a</text></g><g class="edge"><path fill="none" stroke="#000" d="M153.29-59.3c-1.65-10.59 1.59-20.24 9.71-20.24 6.22 0 9.57 5.66 10.06 13.06"/><path stroke="#000" d="M172.71-59.3l3.49-6.83-3.32 3.34.17-3.5h0l-.17 3.5-2.97-3.66 2.8 7.15h0z"/><text x="147.5" y="-82.94" font-family="Lato" font-size="12">!a &amp; b</text></g></g></svg>