<?xml-stylesheet href="spot.css" type="text/css"?><svg width="391pt" height="110pt" viewBox="0 0 391 110.32" xmlns="http://www.w3.org/2000/svg"><g class="graph" transform="translate(4 106.32)"><path fill="#fff" stroke="transparent" d="M-4 4v-110.32h391V4H-4z"/><text x="189.5" y="-88.72" font-family="Lato" font-size="12">t</text><text x="182" y="-75.72" font-family="Lato" font-size="12">[all]</text><g class="node"><circle fill="#ffffa0" stroke="#000" cx="56" cy="-19.32" r="18"/><text text-anchor="middle" x="56" y="-16.22" font-family="Lato" font-size="12">2</text></g><g class="edge"><path fill="none" stroke="#000" d="M1.15-19.32h29.48"/><path stroke="#000" d="M37.94-19.32l-7-3.15 3.5 3.15h-3.5 3.5l-3.5 3.15 7-3.15h0z"/></g><g class="edge"><path fill="none" stroke="#000" d="M49.62-36.35c-1.3-9.82.83-18.97 6.38-18.97 4.17 0 6.4 5.15 6.71 11.86"/><path stroke="#000" d="M62.38-36.35l3.47-6.85-3.31 3.35.17-3.5h0l-.17 3.5-2.98-3.64 2.82 7.14h0z"/><text x="40.5" y="-58.72" font-family="Lato" font-size="12">!a &amp; b</text></g><g class="node"><circle fill="#ffffa0" stroke="#000" cx="159" cy="-19.32" r="18"/><text text-anchor="middle" x="159" y="-16.22" font-family="Lato" font-size="12">1</text></g><g class="edge"><path fill="none" stroke="#000" d="M74.13-19.32h59.21"/><path stroke="#000" d="M140.78-19.32l-7-3.15 3.5 3.15h-3.5 3.5l-3.5 3.15 7-3.15h0z"/><text x="93.5" y="-22.72" font-family="Lato" font-size="12">a &amp; b</text></g><g class="node"><circle fill="#ffffa0" stroke="#000" cx="365" cy="-19.32" r="18"/><text text-anchor="middle" x="365" y="-16.22" font-family="Lato" font-size="12">0</text></g><g class="edge"><path fill="none" stroke="#000" d="M356.37-35.23c-2.26-10.24.62-20.09 8.63-20.09 6.13 0 9.25 5.78 9.37 13.08"/><path stroke="#000" d="M373.63-35.23l3.87-6.63-3.5 3.15.37-3.48h0l-.37 3.48-2.77-3.81 2.4 7.29h0z"/><text x="361.5" y="-58.72" font-family="Lato" font-size="12">b</text></g><g class="edge"><path fill="none" stroke="#000" d="M143.22-10.3c-6.04 3.19-13.24 6.38-20.22 7.98-13.43 3.09-17.57 3.09-31 0-4.58-1.05-9.25-2.79-13.64-4.76"/><path stroke="#000" d="M71.78-10.3l4.9 5.91-1.76-4.37 3.15 1.54h0l-3.15-1.54 4.53-1.29-7.67-.25h0z"/><text x="92" y="-5.72" font-family="Lato" font-size="12">!a &amp; b</text></g><g class="edge"><path fill="none" stroke="#000" d="M150.37-35.23c-2.26-10.24.62-20.09 8.63-20.09 6.13 0 9.25 5.78 9.37 13.08"/><path stroke="#000" d="M167.63-35.23l3.87-6.63-3.5 3.15.37-3.48h0l-.37 3.48-2.77-3.81 2.4 7.29h0z"/><text x="145" y="-58.72" font-family="Lato" font-size="12">a &amp; b</text></g><g class="node"><circle fill="#ffffa0" stroke="#000" cx="262" cy="-19.32" r="18"/><text text-anchor="middle" x="262" y="-16.22" font-family="Lato" font-size="12">3</text></g><g class="edge"><path fill="none" stroke="#000" d="M177.13-19.32h59.21"/><path stroke="#000" d="M243.78-19.32l-7-3.15 3.5 3.15h-3.5 3.5l-3.5 3.15 7-3.15h0z"/><text x="195" y="-22.72" font-family="Lato" font-size="12">a &amp; !b</text></g><g class="edge"><path fill="none" stroke="#000" d="M280.13-19.32h59.21"/><path stroke="#000" d="M346.78-19.32l-7-3.15 3.5 3.15h-3.5 3.5l-3.5 3.15 7-3.15h0z"/><text x="298" y="-22.72" font-family="Lato" font-size="12">!a &amp; b</text></g><g class="edge"><path fill="none" stroke="#000" d="M253.37-35.23c-2.26-10.24.62-20.09 8.63-20.09 6.13 0 9.25 5.78 9.37 13.08"/><path stroke="#000" d="M270.63-35.23l3.87-6.63-3.5 3.15.37-3.48h0l-.37 3.48-2.77-3.81 2.4 7.29h0z"/><text x="258.5" y="-58.72" font-family="Lato" font-size="12">a</text></g></g></svg>