<?xml-stylesheet href="spot.css" type="text/css"?><svg width="564" height="104pt" viewBox="0 0 423 104" xmlns="http://www.w3.org/2000/svg"><g class="graph" transform="translate(4 100)"><path fill="#fff" stroke="transparent" d="M-4 4v-104h423V4H-4z"/><text x="189" y="-82.4" font-family="Lato" font-size="12">[Büchi]</text><g class="node"><circle fill="#ffffa0" stroke="#000" cx="60" cy="-22" r="18"/><circle fill="none" stroke="#000" cx="60" cy="-22" r="22"/><text text-anchor="middle" x="60" y="-18.9" font-family="Lato" font-size="12">2</text></g><g class="edge"><path fill="none" stroke="#000" d="M1.17-22h29.54"/><path stroke="#000" d="M37.86-22l-7-3.15 3.5 3.15h-3.5 3.5l-3.5 3.15 7-3.15h0z"/></g><g class="edge"><path fill="none" stroke="#000" d="M52.68-42.99C51.78-53.09 54.22-62 60-62c4.34 0 6.79 5.01 7.37 11.78"/><path stroke="#000" d="M67.32-42.99l3.2-6.98-3.18 3.48.03-3.5h0l-.03 3.5-3.12-3.52 3.1 7.02h0z"/><text x="44.5" y="-65.4" font-family="Lato" font-size="12">!a &amp; b</text></g><g class="node"><circle fill="#ffffa0" stroke="#000" cx="171" cy="-22" r="18"/><circle fill="none" stroke="#000" cx="171" cy="-22" r="22"/><text text-anchor="middle" x="171" y="-18.9" font-family="Lato" font-size="12">1</text></g><g class="edge"><path fill="none" stroke="#000" d="M82.02-22h59.54"/><path stroke="#000" d="M148.68-22l-7-3.15 3.5 3.15h-3.5 3.5l-3.5 3.15 7-3.15h0z"/><text x="101.5" y="-25.4" font-family="Lato" font-size="12">a &amp; b</text></g><g class="node"><circle fill="#ffffa0" stroke="#000" cx="393" cy="-22" r="18"/><circle fill="none" stroke="#000" cx="393" cy="-22" r="22"/><text text-anchor="middle" x="393" y="-18.9" font-family="Lato" font-size="12">0</text></g><g class="edge"><path fill="none" stroke="#000" d="M383.29-41.76C381.64-52.35 384.88-62 393-62c6.22 0 9.57 5.66 10.06 13.06"/><path stroke="#000" d="M402.71-41.76l3.49-6.83-3.32 3.34.17-3.5h0l-.17 3.5-2.97-3.65 2.8 7.14h0z"/><text x="389.5" y="-65.4" font-family="Lato" font-size="12">b</text></g><g class="edge"><path fill="none" stroke="#000" d="M151.08-11.9C144.86-9.09 137.8-6.42 131-5c-13.49 2.81-17.51 2.81-31 0-4.46-.93-9.04-2.4-13.41-4.09"/><path stroke="#000" d="M79.92-11.9l5.23 5.62-2-4.26 3.22 1.36h0l-3.22-1.36 4.45-1.55-7.68.19h0z"/><text x="100" y="-8.4" font-family="Lato" font-size="12">!a &amp; b</text></g><g class="edge"><path fill="none" stroke="#000" d="M161.29-41.76C159.64-52.35 162.88-62 171-62c6.22 0 9.57 5.66 10.06 13.06"/><path stroke="#000" d="M180.71-41.76l3.49-6.83-3.32 3.34.17-3.5h0l-.17 3.5-2.97-3.65 2.8 7.14h0z"/><text x="157" y="-65.4" font-family="Lato" font-size="12">a &amp; b</text></g><g class="node"><circle fill="#ffffa0" stroke="#000" cx="282" cy="-22" r="18"/><circle fill="none" stroke="#000" cx="282" cy="-22" r="22"/><text text-anchor="middle" x="282" y="-18.9" font-family="Lato" font-size="12">3</text></g><g class="edge"><path fill="none" stroke="#000" d="M193.02-22h59.54"/><path stroke="#000" d="M259.68-22l-7-3.15 3.5 3.15h-3.5 3.5l-3.5 3.15 7-3.15h0z"/><text x="211" y="-25.4" font-family="Lato" font-size="12">a &amp; !b</text></g><g class="edge"><path fill="none" stroke="#000" d="M304.02-22h59.54"/><path stroke="#000" d="M370.68-22l-7-3.15 3.5 3.15h-3.5 3.5l-3.5 3.15 7-3.15h0z"/><text x="322" y="-25.4" font-family="Lato" font-size="12">!a &amp; b</text></g><g class="edge"><path fill="none" stroke="#000" d="M272.29-41.76C270.64-52.35 273.88-62 282-62c6.22 0 9.57 5.66 10.06 13.06"/><path stroke="#000" d="M291.71-41.76l3.49-6.83-3.32 3.34.17-3.5h0l-.17 3.5-2.97-3.65 2.8 7.14h0z"/><text x="278.5" y="-65.4" font-family="Lato" font-size="12">a</text></g></g></svg>