<?xml-stylesheet href="spot.css" type="text/css"?><svg width="412pt" height="335pt" viewBox="0 0 412 335" xmlns="http://www.w3.org/2000/svg"><g class="graph" transform="translate(4 331)"><path fill="#fff" stroke="transparent" d="M-4 4v-335h412V4H-4z"/><g class="node"><circle fill="#ffffa0" stroke="#000" cx="56" cy="-150" r="18"/><text text-anchor="middle" x="56" y="-146.9" font-family="Lato" font-size="12">0</text></g><g class="edge"><path fill="none" stroke="#000" d="M1.15-150h29.48"/><path stroke="#000" d="M37.94-150l-7-3.15 3.5 3.15h-3.5 3.5l-3.5 3.15 7-3.15h0z"/></g><g class="edge"><path fill="none" stroke="#000" d="M49.62-167.04c-1.3-9.82.83-18.96 6.38-18.96 4.17 0 6.4 5.14 6.71 11.86"/><path stroke="#000" d="M62.38-167.04l3.47-6.84-3.31 3.35.17-3.5h0l-.17 3.5-2.98-3.65 2.82 7.14h0z"/><text x="39" y="-202.4" font-family="Lato" font-size="12">!a &amp; !c</text><text x="49.5" y="-189.4" font-family="Lato" font-size="12" fill="#1f78b4">⓿</text></g><g class="node"><circle fill="#ffffa0" stroke="#000" cx="386" cy="-152" r="18"/><text text-anchor="middle" x="386" y="-148.9" font-family="Lato" font-size="12">1</text></g><g class="edge"><path fill="none" stroke="#000" d="M72.76-157.23c5.92-2.47 12.79-5.05 19.24-6.77 30.36-8.12 38.65-7.77 70-10 72.7-5.17 158.42 9.01 199.17 16.99"/><path stroke="#000" d="M368.24-155.6l-6.25-4.46 2.82 3.77-3.43-.68h0l3.43.68-4.05 2.41 7.48-1.72h0z"/><text x="250.5" y="-177.4" font-family="Lato" font-size="12">c</text></g><g class="node"><circle fill="#ffffa0" stroke="#000" cx="192" cy="-116" r="18"/><text text-anchor="middle" x="192" y="-112.9" font-family="Lato" font-size="12">2</text></g><g class="edge"><path fill="none" stroke="#000" d="M73.94-148.5c17.73 1.85 46.25 5.63 70.06 12.5 8.35 2.41 17.19 5.91 24.93 9.3"/><path stroke="#000" d="M175.68-123.64l-5.08-5.76 1.89 4.32-3.19-1.45h0l3.19 1.45-4.49 1.42 7.68.02h0z"/><text x="102.5" y="-150.4" font-family="Lato" font-size="12">a &amp; !c</text></g><g class="node"><circle fill="#ffffa0" stroke="#000" cx="192" cy="-18" r="18"/><text text-anchor="middle" x="192" y="-14.9" font-family="Lato" font-size="12">3</text></g><g class="edge"><path fill="none" stroke="#000" d="M63.01-133.13C68.79-118.64 78.61-97.79 92-83c22.01 24.31 55.02 43.56 76.78 54.62"/><path stroke="#000" d="M175.15-25.22l-4.86-5.93 1.73 4.38-3.14-1.56h0l3.14 1.56-4.54 1.26 7.67.29h0z"/><text x="92" y="-86.4" font-family="Lato" font-size="12">a &amp; b &amp; !c</text></g><g class="edge"><path fill="none" stroke="#000" d="M378.97-168.66c-1.56-9.96.78-19.34 7.03-19.34 4.69 0 7.18 5.27 7.47 12.11"/><path stroke="#000" d="M393.03-168.66l3.57-6.8-3.36 3.3.22-3.49h0l-.22 3.49-2.93-3.68 2.72 7.18h0z"/><text x="382.5" y="-204.4" font-family="Lato" font-size="12">1</text><text x="379.5" y="-191.4" font-family="Lato" font-size="12" fill="#1f78b4">⓿</text></g><g class="edge"><path fill="none" stroke="#000" d="M175.02-109.43c-20.35 7.28-56.1 16.41-83.02 3.43-9.53-4.6-17.26-13.19-23.01-21.56"/><path stroke="#000" d="M64.98-133.86l1.1 7.6.78-4.65 1.88 2.95h0l-1.88-2.95 4.54 1.26-6.42-4.21h0z"/><text x="101" y="-122.4" font-family="Lato" font-size="12">!a &amp; !c</text><text x="111.5" y="-109.4" font-family="Lato" font-size="12" fill="#1f78b4">⓿</text></g><g class="edge"><path fill="none" stroke="#000" d="M210.04-119.19c34.24-6.43 111.5-20.91 150.88-28.3"/><path stroke="#000" d="M368.27-148.86l-7.46-1.81 4.02 2.45-3.44.65h0l3.44-.65-2.86 3.74 6.3-4.38h0z"/><text x="288.5" y="-143.4" font-family="Lato" font-size="12">!a &amp; c</text></g><g class="edge"><path fill="none" stroke="#000" d="M181.63-130.79c-3.38-10.63.08-21.21 10.37-21.21 7.88 0 11.75 6.2 11.62 13.88"/><path stroke="#000" d="M202.37-130.79l4.28-6.37-3.69 2.92.59-3.45h0l-.59 3.45-2.52-3.98 1.93 7.43h0z"/><text x="176.5" y="-155.4" font-family="Lato" font-size="12">a &amp; !c</text></g><g class="node"><circle fill="#ffffa0" stroke="#000" cx="304" cy="-67" r="18"/><text text-anchor="middle" x="304" y="-63.9" font-family="Lato" font-size="12">4</text></g><g class="edge"><path fill="none" stroke="#000" d="M208.76-108.98c18.87 8.41 50.6 22.54 71.96 32.06"/><path stroke="#000" d="M287.27-74.01l-5.11-5.72 1.91 4.3-3.2-1.43h0l3.2 1.43-4.48 1.45 7.68-.03h0z"/><text x="240" y="-98.4" font-family="Lato" font-size="12">a &amp; c</text></g><g class="edge"><path fill="none" stroke="#000" d="M181.63-32.79C178.25-43.42 181.71-54 192-54c7.88 0 11.75 6.2 11.62 13.88"/><path stroke="#000" d="M202.37-32.79l4.28-6.37-3.69 2.92.59-3.45h0l-.59 3.45-2.52-3.98 1.93 7.43h0z"/><text x="188.5" y="-70.4" font-family="Lato" font-size="12">b</text><text x="185.5" y="-57.4" font-family="Lato" font-size="12" fill="#1f78b4">⓿</text></g><g class="edge"><path fill="none" stroke="#000" d="M317.15-79.91c13.59-14.44 35.69-37.92 50.95-54.14"/><path stroke="#000" d="M373-139.25l-7.09 2.94 4.69-.39-2.4 2.55h0l2.4-2.55-.11 4.71 2.51-7.26h0z"/><text x="340" y="-118.4" font-family="Lato" font-size="12">!a</text></g><g class="edge"><path fill="none" stroke="#000" d="M296.97-83.66c-1.56-9.96.78-19.34 7.03-19.34 4.69 0 7.18 5.27 7.47 12.11"/><path stroke="#000" d="M311.03-83.66l3.57-6.8-3.36 3.3.22-3.49h0l-.22 3.49-2.93-3.68 2.72 7.18h0z"/><text x="300.5" y="-106.4" font-family="Lato" font-size="12">a</text></g><g class="node"><circle fill="#ffffa0" stroke="#000" cx="56" cy="-266" r="18"/><text text-anchor="middle" x="56" y="-262.9" font-family="Lato" font-size="12">1</text></g><g class="edge"><path fill="none" stroke="#000" d="M1.15-266h29.48"/><path stroke="#000" d="M37.94-266l-7-3.15 3.5 3.15h-3.5 3.5l-3.5 3.15 7-3.15h0z"/></g><g class="edge"><path fill="none" stroke="#000" d="M49.62-283.04c-1.3-9.82.83-18.96 6.38-18.96 4.17 0 6.4 5.14 6.71 11.86"/><path stroke="#000" d="M62.38-283.04l3.47-6.84-3.31 3.35.17-3.5h0l-.17 3.5-2.98-3.65 2.82 7.14h0z"/><text x="40.5" y="-305.4" font-family="Lato" font-size="12">a &amp; !b</text></g><g class="node"><circle fill="#ffffa0" stroke="#000" cx="192" cy="-266" r="26"/><circle fill="none" stroke="#000" cx="192" cy="-266" r="30"/><text text-anchor="middle" x="192" y="-262.9" font-family="Lato" font-size="12">0</text></g><g class="edge"><path fill="none" stroke="#000" d="M74.24-266h80.44"/><path stroke="#000" d="M161.82-266l-7-3.15 3.5 3.15h-3.5 3.5l-3.5 3.15 7-3.15h0z"/><text x="114.5" y="-269.4" font-family="Lato" font-size="12">b</text></g><g class="edge"><path fill="none" stroke="#000" d="M180.42-294.1c-.51-10.87 3.35-19.9 11.58-19.9 6.3 0 10.04 5.29 11.22 12.65"/><path stroke="#000" d="M203.58-294.1l2.8-7.15-2.97 3.65-.18-3.49h0l.18 3.49-3.32-3.34 3.49 6.84h0z"/><text text-anchor="middle" x="192" y="-317.4" font-family="Lato" font-size="12">1</text></g></g></svg>