<?xml-stylesheet href="spot.css" type="text/css"?><svg width="635pt" height="572pt" viewBox="0 0 634.72 571.72" xmlns="http://www.w3.org/2000/svg"><g class="graph"><path fill="#fff" stroke="transparent" d="M0 571.72V0h634.72v571.72H0z"/><text x="311.36" y="-550.12" font-family="Lato" font-size="12" transform="translate(4 567.72)">t</text><text x="303.86" y="-537.12" font-family="Lato" font-size="12" transform="translate(4 567.72)">[all]</text><g class="node" transform="translate(4 567.72)"><path fill="#ffffa0" stroke="#000" d="M130-282.86H51c-6 0-12 6-12 12v12c0 6 6 12 12 12h79c6 0 12-6 12-12v-12c0-6-6-12-12-12"/><text x="77.5" y="-268.26" font-family="Lato" font-size="12">x0y0</text><text x="47" y="-255.26" font-family="Lato" font-size="12">!odd_x &amp; !odd_y</text></g><g class="edge" transform="translate(4 567.72)"><path fill="none" stroke="#000" d="M1.07-264.86h30.54"/><path stroke="#000" d="M38.64-264.86l-7-3.15 3.5 3.15h-3.5 3.5l-3.5 3.15 7-3.15h0z"/></g><g class="node" transform="translate(4 567.72)"><path fill="#ffffa0" stroke="#000" d="M614.72-368.59h-76c-6 0-12 6-12 12v12c0 6 6 12 12 12h76c6 0 12-6 12-12v-12c0-6-6-12-12-12"/><text x="563.72" y="-353.99" font-family="Lato" font-size="12">x0y1</text><text x="534.72" y="-340.99" font-family="Lato" font-size="12">!odd_x &amp; odd_y</text></g><g class="edge" transform="translate(4 567.72)"><path fill="none" stroke="#000" d="M142.07-273.95c91.56-16.15 281.83-49.7 377.34-66.54"/><path stroke="#000" d="M526.4-341.72l-7.44-1.89 4 2.5-3.45.6h0l3.45-.6-2.9 3.71 6.34-4.32h0z"/></g><g class="node" transform="translate(4 567.72)"><path fill="#ffffa0" stroke="#000" d="M335.64-529.72h-76c-6 0-12 6-12 12v12c0 6 6 12 12 12h76c6 0 12-6 12-12v-12c0-6-6-12-12-12"/><text x="284.64" y="-515.12" font-family="Lato" font-size="12">x1y0</text><text x="255.64" y="-502.12" font-family="Lato" font-size="12">odd_x &amp; !odd_y</text></g><g class="edge" transform="translate(4 567.72)"><path fill="none" stroke="#000" d="M105.73-283.01c36.89-43.96 130.99-156.11 172.14-205.15"/><path stroke="#000" d="M282.39-493.54l-6.92 3.33 4.67-.65-2.25 2.68h0l2.25-2.68.16 4.7 2.09-7.38h0z"/></g><g class="node" transform="translate(4 567.72)"><path fill="#ffffa0" stroke="#000" d="M188.65-121.73h-79c-6 0-12 6-12 12v12c0 6 6 12 12 12h79c6 0 12-6 12-12v-12c0-6-6-12-12-12"/><text x="136.15" y="-107.13" font-family="Lato" font-size="12">x0y2</text><text x="105.65" y="-94.13" font-family="Lato" font-size="12">!odd_x &amp; !odd_y</text></g><g class="edge" transform="translate(4 567.72)"><path fill="none" stroke="#000" d="M545.28-332.44C468.12-287.9 269.67-173.32 186.6-125.36"/><path stroke="#000" d="M180.34-121.75l7.64-.77-4.61-.98 3.04-1.75h0l-3.04 1.75 1.46-4.47-4.49 6.22h0z"/></g><g class="node" transform="translate(4 567.72)"><path fill="#ffffa0" stroke="#000" d="M503-499.95h-73c-6 0-12 6-12 12v12c0 6 6 12 12 12h73c6 0 12-6 12-12v-12c0-6-6-12-12-12"/><text x="453.5" y="-485.35" font-family="Lato" font-size="12">x1y1</text><text x="426" y="-472.35" font-family="Lato" font-size="12">odd_x &amp; odd_y</text></g><g class="edge" transform="translate(4 567.72)"><path fill="none" stroke="#000" d="M561.4-368.86c-19.58-23.33-53.5-63.75-75.04-89.42"/><path stroke="#000" d="M481.7-463.84l2.09 7.39.16-4.71 2.25 2.68h0l-2.25-2.68 4.66.66-6.91-3.34h0z"/></g><g class="edge" transform="translate(4 567.72)"><path fill="none" stroke="#000" d="M347.85-502.87c19.83 3.5 42.69 7.53 63.01 11.11"/><path stroke="#000" d="M417.94-490.51l-6.35-4.32 2.9 3.71-3.44-.61h0l3.44.61-3.99 2.5 7.44-1.89h0z"/></g><g class="node" transform="translate(4 567.72)"><path fill="#ffffa0" stroke="#000" d="M188.65-443.99h-79c-6 0-12 6-12 12v12c0 6 6 12 12 12h79c6 0 12-6 12-12v-12c0-6-6-12-12-12"/><text x="136.15" y="-429.39" font-family="Lato" font-size="12">x2y0</text><text x="105.65" y="-416.39" font-family="Lato" font-size="12">!odd_x &amp; !odd_y</text></g><g class="edge" transform="translate(4 567.72)"><path fill="none" stroke="#000" d="M266.15-493.54c-23.31 13.46-55.15 31.84-79.73 46.03"/><path stroke="#000" d="M180.34-444l7.63-.77-4.6-.98 3.03-1.75h0l-3.03 1.75 1.45-4.47-4.48 6.22h0z"/></g><g class="edge" transform="translate(4 567.72)"><path fill="none" stroke="#000" d="M142.53-121.9c-10.51-28.89-31.07-85.37-42.95-118.02"/><path stroke="#000" d="M97.18-246.51l-.57 7.66 1.77-4.37 1.19 3.29h0l-1.19-3.29 4.15 2.21-5.35-5.5h0z"/></g><g class="node" transform="translate(4 567.72)"><path fill="#ffffa0" stroke="#000" d="M335.64-36h-76c-6 0-12 6-12 12v12c0 6 6 12 12 12h76c6 0 12-6 12-12v-12c0-6-6-12-12-12"/><text x="284.64" y="-21.4" font-family="Lato" font-size="12">x1y2</text><text x="255.64" y="-8.4" font-family="Lato" font-size="12">odd_x &amp; !odd_y</text></g><g class="edge" transform="translate(4 567.72)"><path fill="none" stroke="#000" d="M180.64-85.55c23.31 13.46 55.15 31.84 79.73 46.03"/><path stroke="#000" d="M266.45-36.01l-4.49-6.23 1.46 4.48-3.03-1.75h0l3.03 1.75-4.61.98 7.64.77h0z"/></g><g class="edge" transform="translate(4 567.72)"><path fill="none" stroke="#000" d="M459.88-463.76L306.77-43.08"/><path stroke="#000" d="M304.21-36.06l5.36-5.5-4.16 2.21 1.2-3.29h0l-1.2 3.29-1.76-4.37.56 7.66h0z"/></g><g class="node" transform="translate(4 567.72)"><path fill="#ffffa0" stroke="#000" d="M614.72-197.13h-76c-6 0-12 6-12 12v12c0 6 6 12 12 12h76c6 0 12-6 12-12v-12c0-6-6-12-12-12"/><text x="563.72" y="-182.53" font-family="Lato" font-size="12">x2y1</text><text x="534.72" y="-169.53" font-family="Lato" font-size="12">!odd_x &amp; odd_y</text></g><g class="edge" transform="translate(4 567.72)"><path fill="none" stroke="#000" d="M473.07-463.91c18.79 51.63 72.84 200.12 94.5 259.65"/><path stroke="#000" d="M570.05-197.45l.57-7.66-1.77 4.37-1.19-3.29h0l1.19 3.29-4.15-2.21 5.35 5.5h0z"/></g><g class="edge" transform="translate(4 567.72)"><path fill="none" stroke="#000" d="M142.53-407.82c-10.51 28.89-31.07 85.37-42.95 118.02"/><path stroke="#000" d="M97.18-283.21l5.35-5.5-4.15 2.21 1.19-3.29h0l-1.19 3.29-1.77-4.37.57 7.66h0z"/></g><g class="edge" transform="translate(4 567.72)"><path fill="none" stroke="#000" d="M180.59-407.84c77.15 44.55 275.6 159.13 358.68 207.09"/><path stroke="#000" d="M545.52-197.14l-4.48-6.23 1.45 4.48-3.03-1.75h0l3.03 1.75-4.6.98 7.63.77h0z"/></g><g class="edge" transform="translate(4 567.72)"><path fill="none" stroke="#000" d="M297.64-36.16v-450.4"/><path stroke="#000" d="M297.64-493.66l-3.15 7 3.15-3.5v3.5h0v-3.5l3.15 3.5-3.15-7h0z"/></g><g class="node" transform="translate(4 567.72)"><path fill="#ffffa0" stroke="#000" d="M506-65.78h-79c-6 0-12 6-12 12v12c0 6 6 12 12 12h79c6 0 12-6 12-12v-12c0-6-6-12-12-12"/><text x="453.5" y="-51.18" font-family="Lato" font-size="12">x2y2</text><text x="423" y="-38.18" font-family="Lato" font-size="12">!odd_x &amp; !odd_y</text></g><g class="edge" transform="translate(4 567.72)"><path fill="none" stroke="#000" d="M347.85-26.85c18.79-3.32 40.3-7.11 59.8-10.55"/><path stroke="#000" d="M414.73-38.65l-7.44-1.88 4 2.49-3.45.61h0l3.45-.61-2.9 3.71 6.34-4.32h0z"/></g><g class="edge" transform="translate(4 567.72)"><path fill="none" stroke="#000" d="M576.72-197.15v-128.38"/><path stroke="#000" d="M576.72-332.55l-3.15 7 3.15-3.5v3.5h0v-3.5l3.15 3.5-3.15-7h0z"/></g><g class="edge" transform="translate(4 567.72)"><path fill="none" stroke="#000" d="M561.4-160.86c-19.58 23.33-53.5 63.75-75.04 89.42"/><path stroke="#000" d="M481.7-65.88l6.91-3.34-4.66.65 2.25-2.68h0l-2.25 2.68-.16-4.7-2.09 7.39h0z"/></g><g class="edge" transform="translate(4 567.72)"><path fill="none" stroke="#000" d="M414.81-56.89c-56.71-10-147.54-26.02-206.91-36.48"/><path stroke="#000" d="M200.82-94.62l6.35 4.32-2.9-3.71 3.44.6h0l-3.44-.6 3.99-2.5-7.44 1.89h0z"/></g><g class="edge" transform="translate(4 567.72)"><path fill="none" stroke="#000" d="M451.2-66.02c-52.27-62.29-223.67-266.56-282.24-336.35"/><path stroke="#000" d="M164.3-407.93l2.09 7.39.16-4.71 2.25 2.68h0l-2.25-2.68 4.66.66-6.91-3.34h0z"/></g></g></svg>