<?xml-stylesheet href="spot.css" type="text/css"?><svg width="560pt" height="232pt" viewBox="0 0 560 232" xmlns="http://www.w3.org/2000/svg"><g class="graph"><path fill="#fff" stroke="transparent" d="M0 232V0h560v232H0z"/><text x="249" y="-210.4" font-family="Lato" font-size="12" transform="translate(4 228)">[co-Büchi]</text><g class="node" transform="translate(4 228)"><circle fill="#ffffa0" stroke="#000" cx="60" cy="-103" r="18"/><circle fill="none" stroke="#000" cx="60" cy="-103" r="22"/><text text-anchor="middle" x="60" y="-99.9" font-family="Lato" font-size="12">0</text></g><g class="edge" transform="translate(4 228)"><path fill="none" stroke="#000" d="M1.17-103h29.54"/><path stroke="#000" d="M37.86-103l-7-3.15 3.5 3.15h-3.5 3.5l-3.5 3.15 7-3.15h0z"/></g><g class="node" transform="translate(4 228)"><circle fill="#ffffa0" stroke="#000" cx="170" cy="-18" r="18"/><text text-anchor="middle" x="170" y="-14.9" font-family="Lato" font-size="12">1</text></g><g class="edge" transform="translate(4 228)"><path fill="none" stroke="#000" d="M77.88-89.72c19.43 15.3 51.31 40.39 71.75 56.47"/><path stroke="#000" d="M155.32-28.77l-3.55-6.8.8 4.64-2.75-2.16h0l2.75 2.16-4.7.31 7.45 1.85h0z"/><text text-anchor="middle" x="117" y="-73.4" font-family="Lato" font-size="12">1</text></g><g class="node" transform="translate(4 228)"><circle fill="#ffffa0" stroke="#000" cx="328" cy="-67" r="18"/><text text-anchor="middle" x="328" y="-63.9" font-family="Lato" font-size="12">2</text></g><g class="edge" transform="translate(4 228)"><path fill="none" stroke="#000" d="M82.11-103.55c41.14-.56 134.57.71 209.89 20.55 4.41 1.16 8.96 2.84 13.25 4.68"/><path stroke="#000" d="M311.74-75.35l-5.05-5.78 1.87 4.32-3.18-1.45h0l3.18 1.45-4.49 1.41 7.67.05h0z"/><text text-anchor="middle" x="170" y="-105.4" font-family="Lato" font-size="12">1</text></g><g class="node" transform="translate(4 228)"><circle fill="#ffffa0" stroke="#000" cx="431" cy="-101" r="18"/><text text-anchor="middle" x="431" y="-97.9" font-family="Lato" font-size="12">3</text></g><g class="edge" transform="translate(4 228)"><path fill="none" stroke="#000" d="M80.51-111.32c6.13-2.26 12.99-4.42 19.49-5.68 22.71-4.4 28.89-1.12 52-2 86.2-3.29 108.57-17.96 194-6 21.16 2.96 44.47 9.93 61.15 15.6"/><path stroke="#000" d="M413.87-107.06l-5.58-5.28 2.28 4.13-3.31-1.15h0l3.31 1.15-4.34 1.83 7.64-.68h0z"/><text text-anchor="middle" x="249" y="-132.4" font-family="Lato" font-size="12">1</text></g><g class="node" transform="translate(4 228)"><circle fill="#ffffa0" stroke="#000" cx="534" cy="-101" r="18"/><text text-anchor="middle" x="534" y="-97.9" font-family="Lato" font-size="12">4</text></g><g class="edge" transform="translate(4 228)"><path fill="none" stroke="#000" d="M72.45-121.45C89.87-146.99 125.66-190 169-190h263c40.68 0 72.73 41.14 89.08 67.48"/><path stroke="#000" d="M524.71-116.5l-.92-7.62-.89 4.62-1.8-3h0l1.8 3-4.5-1.37 6.31 4.37h0z"/><text text-anchor="middle" x="328" y="-193.4" font-family="Lato" font-size="12">1</text></g><g class="edge" transform="translate(4 228)"><path fill="none" stroke="#000" d="M151.8-16.97c-15.02.03-36.73-2.13-51.8-13.03-15.04-10.88-24.84-29.37-30.85-45.02"/><path stroke="#000" d="M66.65-81.98l-.59 7.66 1.78-4.36 1.18 3.29h0l-1.18-3.29 4.15 2.22-5.34-5.52h0z"/><text x="100" y="-33.4" font-family="Lato" font-size="12">!a &amp; !b</text></g><g class="edge" transform="translate(4 228)"><path fill="none" stroke="#000" d="M161.02-33.92C158.68-44.15 161.67-54 170-54c6.38 0 9.63 5.77 9.75 13.07"/><path stroke="#000" d="M178.98-33.92l3.89-6.61-3.51 3.13.38-3.47h0l-.38 3.47-2.75-3.82 2.37 7.3h0z"/><text x="156" y="-57.4" font-family="Lato" font-size="12">a &amp; b</text></g><g class="edge" transform="translate(4 228)"><path fill="none" stroke="#000" d="M182.35-31.15C188.66-37.58 197.02-44.82 206-49c31.18-14.54 71.36-17.89 96.66-18.38"/><path stroke="#000" d="M309.69-67.45l-7.03-3.08 3.53 3.11-3.5.04h0l3.5-.04-3.47 3.19 6.97-3.22h0z"/><text x="206" y="-69.4" font-family="Lato" font-size="12">(!a &amp; b) | (a &amp; !b)</text></g><g class="edge" transform="translate(4 228)"><path fill="none" stroke="#000" d="M316.63-52.74C310.38-45.26 301.75-36.71 292-32c-31.02 14.99-71.56 16.57-96.94 15.74"/><path stroke="#000" d="M188.01-16.57l6.85 3.46-3.36-3.3 3.5.15h0l-3.5-.15 3.64-3-7.13 2.84h0z"/><text x="233.5" y="-35.4" font-family="Lato" font-size="12">!a &amp; b</text></g><g class="edge" transform="translate(4 228)"><path fill="none" stroke="#000" d="M319.37-82.92c-2.26-10.23.62-20.08 8.63-20.08 6.13 0 9.25 5.77 9.37 13.07"/><path stroke="#000" d="M336.63-82.92l3.87-6.63-3.5 3.15.37-3.48h0L337-86.4l-2.77-3.81 2.4 7.29h0z"/><text x="285" y="-106.4" font-family="Lato" font-size="12">(!a &amp; !b) | (a &amp; b)</text></g><g class="edge" transform="translate(4 228)"><path fill="none" stroke="#000" d="M345.23-72.46c16.64-5.6 42.67-14.37 61.5-20.71"/><path stroke="#000" d="M413.81-95.55l-7.64-.75 4.33 1.87-3.32 1.11h0l3.32-1.11-2.32 4.1 5.63-5.22h0z"/><text x="364" y="-92.4" font-family="Lato" font-size="12">a &amp; !b</text></g><g class="edge" transform="translate(4 228)"><path fill="none" stroke="#000" d="M422.37-116.92c-2.26-10.23.62-20.08 8.63-20.08 6.13 0 9.25 5.77 9.37 13.07"/><path stroke="#000" d="M439.63-116.92l3.87-6.63-3.5 3.15.37-3.48h0l-.37 3.48-2.77-3.81 2.4 7.29h0z"/><text x="418" y="-140.4" font-family="Lato" font-size="12">!a | b</text></g><g class="edge" transform="translate(4 228)"><path fill="none" stroke="#000" d="M449.13-101h59.21"/><path stroke="#000" d="M515.78-101l-7-3.15 3.5 3.15h-3.5 3.5l-3.5 3.15 7-3.15h0z"/><text x="467" y="-104.4" font-family="Lato" font-size="12">a &amp; !b</text></g><g class="edge" transform="translate(4 228)"><path fill="none" stroke="#000" d="M517.43-93.4C479.81-75.52 380.55-31.16 292-16c-33.22 5.69-72.31 3.46-96.88 1.01"/><path stroke="#000" d="M187.99-15.75l6.62 3.87-3.14-3.5 3.48.37h0l-3.48-.37 3.81-2.76-7.29 2.39h0z"/><text x="364" y="-45.4" font-family="Lato" font-size="12">a &amp; !b</text></g><g class="edge" transform="translate(4 228)"><path fill="none" stroke="#000" d="M525.37-116.92c-2.26-10.23.62-20.08 8.63-20.08 6.13 0 9.25 5.77 9.37 13.07"/><path stroke="#000" d="M542.63-116.92l3.87-6.63-3.5 3.15.37-3.48h0l-.37 3.48-2.77-3.81 2.4 7.29h0z"/><text x="521" y="-140.4" font-family="Lato" font-size="12">!a | b</text></g></g></svg>