<?xml-stylesheet href="spot.css" type="text/css"?><svg width="283pt" height="133pt" viewBox="0 0 283 133" xmlns="http://www.w3.org/2000/svg"><g class="graph" transform="translate(4 129)"><path fill="#fff" stroke="transparent" d="M-4 4v-133h283V4H-4z"/><text x="119" y="-111.4" font-family="Lato" font-size="12">[Büchi]</text><g class="node"><circle fill="#ffffa0" stroke="#000" cx="60" cy="-22" r="18"/><circle fill="none" stroke="#000" cx="60" cy="-22" r="22"/><text text-anchor="middle" x="60" y="-18.9" font-family="Lato" font-size="12">2</text></g><g class="edge"><path fill="none" stroke="#000" d="M1.17-22h29.54"/><path stroke="#000" d="M37.86-22l-7-3.15 3.5 3.15h-3.5 3.5l-3.5 3.15 7-3.15h0z"/></g><g class="edge"><path fill="none" stroke="#000" d="M52.68-42.99C51.78-53.09 54.22-62 60-62c4.34 0 6.79 5.01 7.37 11.78"/><path stroke="#000" d="M67.32-42.99l3.2-6.98-3.18 3.48.03-3.5h0l-.03 3.5-3.12-3.52 3.1 7.02h0z"/><text x="44.5" y="-65.4" font-family="Lato" font-size="12">!b &amp; c</text></g><g class="node"><circle fill="#ffffa0" stroke="#000" cx="170" cy="-55" r="18"/><text text-anchor="middle" x="170" y="-51.9" font-family="Lato" font-size="12">0</text></g><g class="edge"><path fill="none" stroke="#000" d="M81.31-28.21c18.32-5.59 45.24-13.82 64.41-19.68"/><path stroke="#000" d="M152.66-50.01l-7.62-.96 4.27 1.99-3.35 1.02h0l3.35-1.02-2.43 4.03 5.78-5.06h0z"/><text x="100" y="-46.4" font-family="Lato" font-size="12">!b &amp; !c</text></g><g class="node"><circle fill="#ffffa0" stroke="#000" cx="253" cy="-22" r="18"/><circle fill="none" stroke="#000" cx="253" cy="-22" r="22"/><text text-anchor="middle" x="253" y="-18.9" font-family="Lato" font-size="12">1</text></g><g class="edge"><path fill="none" stroke="#000" d="M82.12-19.42C107.33-16.67 150.74-12.97 188-15c11.81-.64 24.79-1.95 35.96-3.26"/><path stroke="#000" d="M231.01-19.12l-7.33-2.28 3.85 2.7-3.47.42h0l3.47-.42-3.09 3.55 6.57-3.97h0z"/><text x="166.5" y="-18.4" font-family="Lato" font-size="12">b</text></g><g class="edge"><path fill="none" stroke="#000" d="M163.27-72.04C161.89-81.86 164.14-91 170-91c4.4 0 6.76 5.14 7.09 11.86"/><path stroke="#000" d="M176.73-72.04l3.5-6.83-3.32 3.34.17-3.5h0l-.17 3.5-2.98-3.65 2.8 7.14h0z"/><text x="165" y="-94.4" font-family="Lato" font-size="12">!b</text></g><g class="edge"><path fill="none" stroke="#000" d="M187-48.48c10.97 4.47 25.78 10.5 38.5 15.68"/><path stroke="#000" d="M232.31-30.02l-5.3-5.56 2.06 4.24-3.25-1.32h0l3.25 1.32-4.43 1.59 7.67-.27h0z"/><text x="206" y="-43.4" font-family="Lato" font-size="12">b</text></g><g class="edge"><path fill="none" stroke="#000" d="M245.32-42.99C244.37-53.09 246.93-62 253-62c4.55 0 7.13 5.01 7.74 11.78"/><path stroke="#000" d="M260.68-42.99l3.2-6.98-3.17 3.48.02-3.5h0l-.02 3.5-3.13-3.52 3.1 7.02h0z"/><text text-anchor="middle" x="253" y="-65.4" font-family="Lato" font-size="12">1</text></g></g></svg>