<?xml-stylesheet href="spot.css" type="text/css"?><svg width="82pt" height="151pt" viewBox="0 0 82 151" xmlns="http://www.w3.org/2000/svg"><g class="graph" transform="translate(4 147)"><path fill="#fff" stroke="transparent" d="M-4 4v-151h82V4H-4z"/><text x="17.5" y="-130.4" font-family="Lato" font-size="12">Fin(</text><text x="39.5" y="-130.4" font-family="Lato" font-size="12" fill="#1f78b4">⓿</text><text x="52.5" y="-130.4" font-family="Lato" font-size="12">)</text><text x="10" y="-118.4" font-family="Lato" font-size="12">[co-Büchi]</text><g class="node"><circle fill="#ffffa0" stroke="#000" cx="56" cy="-18" r="18"/><text text-anchor="middle" x="56" y="-14.9" font-family="Lato" font-size="12">0</text></g><g class="edge"><path fill="none" stroke="#000" d="M1.15-18h29.48"/><path stroke="#000" d="M37.94-18l-7-3.15 3.5 3.15h-3.5 3.5l-3.5 3.15 7-3.15h0z"/></g><g class="edge"><path fill="none" stroke="#000" d="M52.76-35.78C52.21-45.31 53.29-54 56-54c1.99 0 3.1 4.68 3.33 10.95"/><path stroke="#000" d="M59.24-35.78l3.24-6.96-3.2 3.46.05-3.5h0l-.05 3.5-3.1-3.54 3.06 7.04h0z"/><text x="51" y="-70.4" font-family="Lato" font-size="12">!a</text><text x="49.5" y="-57.4" font-family="Lato" font-size="12" fill="#1f78b4">⓿</text></g><g class="edge"><path fill="none" stroke="#000" d="M50.94-35.28C47.56-55.25 49.25-80 56-80c5.96 0 7.97 19.29 6.04 37.55"/><path stroke="#000" d="M61.06-35.28l4.07-6.51-3.59 3.04.47-3.47h0l-.47 3.47-2.65-3.89 2.17 7.36h0z"/><text x="52.5" y="-83.4" font-family="Lato" font-size="12">a</text></g></g></svg>