<?xml-stylesheet href="spot.css" type="text/css"?><svg width="476pt" height="284" viewBox="0 0 476 213.07" xmlns="http://www.w3.org/2000/svg"><g class="graph" transform="translate(4 209.07)"><path fill="#fff" stroke="transparent" d="M-4 4v-213.07h476V4H-4z"/><text x="214.5" y="-192.47" font-family="Lato" font-size="12">Fin(</text><text x="236.5" y="-192.47" font-family="Lato" font-size="12" fill="#1f78b4">⓿</text><text x="249.5" y="-192.47" font-family="Lato" font-size="12">)</text><text x="207" y="-180.47" font-family="Lato" font-size="12">[co-Büchi]</text><g class="node"><circle fill="#ffffa0" stroke="#000" cx="56" cy="-80.07" r="18"/><text text-anchor="middle" x="56" y="-76.97" font-family="Lato" font-size="12">0</text></g><g class="edge"><path fill="none" stroke="#000" d="M1.15-80.07h29.48"/><path stroke="#000" d="M37.94-80.07l-7-3.15 3.5 3.15h-3.5 3.5l-3.5 3.15 7-3.15h0z"/></g><g class="edge"><path fill="none" stroke="#000" d="M52.76-97.86c-.55-9.53.53-18.21 3.24-18.21 1.99 0 3.1 4.68 3.33 10.94"/><path stroke="#000" d="M59.24-97.86l3.24-6.96-3.2 3.46.05-3.5h0l-.05 3.5-3.1-3.54 3.06 7.04h0z"/><text x="40.5" y="-119.47" font-family="Lato" font-size="12">!a &amp; b</text></g><g class="edge"><path fill="none" stroke="#000" d="M50.68-97.49c-3.03-17.38-1.25-36.58 5.32-36.58 5.7 0 7.79 14.44 6.27 29.61"/><path stroke="#000" d="M61.32-97.49l4.07-6.51-3.6 3.04.47-3.47h0l-.47 3.47-2.65-3.9 2.18 7.37h0z"/><text x="39" y="-150.47" font-family="Lato" font-size="12">!a &amp; !b</text><text x="49.5" y="-137.47" font-family="Lato" font-size="12" fill="#1f78b4">⓿</text></g><g class="node"><circle fill="#ffffa0" stroke="#000" cx="135" cy="-80.07" r="18"/><text text-anchor="middle" x="135" y="-76.97" font-family="Lato" font-size="12">1</text></g><g class="edge"><path fill="none" stroke="#000" d="M74.09-80.07h35.6"/><path stroke="#000" d="M116.96-80.07l-7-3.15 3.5 3.15h-3.5 3.5l-3.5 3.15 7-3.15h0z"/><text x="92" y="-83.47" font-family="Lato" font-size="12">a</text></g><g class="edge"><path fill="none" stroke="#000" d="M128.27-97.11c-1.38-9.82.87-18.96 6.73-18.96 4.4 0 6.76 5.14 7.09 11.85"/><path stroke="#000" d="M141.73-97.11l3.5-6.84-3.32 3.34.17-3.49h0l-.17 3.49-2.98-3.65 2.8 7.15h0z"/><text x="131.5" y="-119.47" font-family="Lato" font-size="12">a</text></g><g class="node"><circle fill="#ffffa0" stroke="#000" cx="241" cy="-31.07" r="18"/><text text-anchor="middle" x="241" y="-27.97" font-family="Lato" font-size="12">2</text></g><g class="edge"><path fill="none" stroke="#000" d="M151.8-72.63c17.66 8.32 46.39 21.86 66.24 31.21"/><path stroke="#000" d="M224.4-38.43l-4.99-5.83 1.82 4.34-3.17-1.49h0l3.17 1.49-4.51 1.36 7.68.13h0z"/><text x="171" y="-65.47" font-family="Lato" font-size="12">!a &amp; !b</text></g><g class="node"><circle fill="#ffffa0" stroke="#000" cx="347" cy="-88.07" r="18"/><text text-anchor="middle" x="347" y="-84.97" font-family="Lato" font-size="12">3</text></g><g class="edge"><path fill="none" stroke="#000" d="M151.69-87.16c30.92-12.99 101.73-37.86 159.31-21.91 5.16 1.43 10.33 3.84 15.05 6.54"/><path stroke="#000" d="M332.16-98.74l-4.29-6.37 1.32 4.52-2.98-1.84h0l2.98 1.84-4.64.84 7.61 1.01h0z"/><text x="225.5" y="-116.47" font-family="Lato" font-size="12">!a &amp; b</text></g><g class="edge"><path fill="none" stroke="#000" d="M232.02-46.99c-2.34-10.23.65-20.08 8.98-20.08 6.38 0 9.63 5.77 9.75 13.07"/><path stroke="#000" d="M249.98-46.99l3.89-6.62-3.51 3.14.38-3.48h0l-.38 3.48-2.75-3.82 2.37 7.3h0z"/><text x="224" y="-83.47" font-family="Lato" font-size="12">!a &amp; !b</text><text x="234.5" y="-70.47" font-family="Lato" font-size="12" fill="#1f78b4">⓿</text></g><g class="edge"><path fill="none" stroke="#000" d="M258.83-34.1c14.58-3.14 35.85-9.03 52.17-18.97 6.97-4.25 13.58-10.16 19.14-15.91"/><path stroke="#000" d="M334.94-74.18l-7.06 3.01 4.68-.43-2.37 2.57h0l2.37-2.57-.06 4.7 2.44-7.28h0z"/><text x="278.5" y="-56.47" font-family="Lato" font-size="12">!a &amp; b</text></g><g class="node"><circle fill="#ffffa0" stroke="#000" cx="450" cy="-35.07" r="18"/><text text-anchor="middle" x="450" y="-31.97" font-family="Lato" font-size="12">4</text></g><g class="edge"><path fill="none" stroke="#000" d="M259.29-31.41c36.85-.71 123.19-2.38 165.49-3.2"/><path stroke="#000" d="M431.9-34.74l-7.06-3.02 3.56 3.08-3.5.07h0l3.5-.07-3.44 3.22 6.94-3.28h0z"/><text x="343.5" y="-36.47" font-family="Lato" font-size="12">a</text></g><g class="edge"><path fill="none" stroke="#000" d="M329.17-85.05c-14.58 3.14-35.85 9.03-52.17 18.98-6.97 4.24-13.58 10.15-19.14 15.91"/><path stroke="#000" d="M253.06-44.97l7.06-3.01-4.68.44 2.37-2.58h0l-2.37 2.58.06-4.71-2.44 7.28h0z"/><text x="277" y="-95.47" font-family="Lato" font-size="12">!a &amp; !b</text><text x="287.5" y="-82.47" font-family="Lato" font-size="12" fill="#1f78b4">⓿</text></g><g class="edge"><path fill="none" stroke="#000" d="M338.37-103.99c-2.26-10.23.62-20.08 8.63-20.08 6.13 0 9.25 5.77 9.37 13.07"/><path stroke="#000" d="M355.63-103.99l3.87-6.63-3.5 3.15.37-3.48h0l-.37 3.48-2.77-3.81 2.4 7.29h0z"/><text x="343.5" y="-127.47" font-family="Lato" font-size="12">b</text></g><g class="edge"><path fill="none" stroke="#000" d="M358.97-74.02c6.31 7.22 14.81 15.6 24.03 20.95 12.91 7.49 29.06 11.96 42.15 14.58"/><path stroke="#000" d="M432.07-37.22l-6.32-4.36 2.88 3.72-3.45-.63h0l3.45.63-4.01 2.47 7.45-1.83h0z"/><text x="383" y="-69.47" font-family="Lato" font-size="12">a &amp; !b</text><text x="392" y="-56.47" font-family="Lato" font-size="12" fill="#1f78b4">⓿</text></g><g class="edge"><path fill="none" stroke="#000" d="M433.73-27.05C417.29-18.91 390.09-6.83 365-2.07c-35.66 6.75-76.6-7.34-101.1-18.15"/><path stroke="#000" d="M257.44-23.16l5.06 5.77-1.88-4.32 3.19 1.45h0l-3.19-1.45 4.5-1.42-7.68-.03h0z"/><text x="330" y="-18.47" font-family="Lato" font-size="12">!a &amp; !b</text><text x="340.5" y="-5.47" font-family="Lato" font-size="12" fill="#1f78b4">⓿</text></g><g class="edge"><path fill="none" stroke="#000" d="M440.74-50.69c-6.04-9.81-15.2-21.82-26.74-28.38-12.52-7.13-28.48-9.45-41.57-9.96"/><path stroke="#000" d="M365.1-89.14l6.95 3.26-3.45-3.2 3.5.05h0l-3.5-.05 3.55-3.1-7.05 3.04h0z"/><text x="383" y="-104.47" font-family="Lato" font-size="12">!a &amp; b</text><text x="392" y="-91.47" font-family="Lato" font-size="12" fill="#1f78b4">⓿</text></g><g class="edge"><path fill="none" stroke="#000" d="M441.37-50.99c-2.26-10.23.62-20.08 8.63-20.08 6.13 0 9.25 5.77 9.37 13.07"/><path stroke="#000" d="M458.63-50.99l3.87-6.63-3.5 3.15.37-3.48h0l-.37 3.48-2.77-3.81 2.4 7.29h0z"/><text x="446.5" y="-74.47" font-family="Lato" font-size="12">a</text></g></g></svg>