<?xml-stylesheet href="spot.css" type="text/css"?><svg width="706pt" height="296pt" viewBox="0 0 706 296" xmlns="http://www.w3.org/2000/svg"><g class="graph" transform="translate(4 292)"><path fill="#fff" stroke="transparent" d="M-4 4v-296h706V4H-4z"/><text x="329.5" y="-275.4" font-family="Lato" font-size="12">Fin(</text><text x="351.5" y="-275.4" font-family="Lato" font-size="12" fill="#1f78b4">⓿</text><text x="364.5" y="-275.4" font-family="Lato" font-size="12">)</text><text x="322" y="-263.4" font-family="Lato" font-size="12">[co-Büchi]</text><g class="node"><circle fill="#ffffa0" stroke="#000" cx="56" cy="-194" r="18"/><text text-anchor="middle" x="56" y="-190.9" font-family="Lato" font-size="12">0</text></g><g class="edge"><path fill="none" stroke="#000" d="M1.15-194h29.48"/><path stroke="#000" d="M37.94-194l-7-3.15 3.5 3.15h-3.5 3.5l-3.5 3.15 7-3.15h0z"/></g><g class="edge"><path fill="none" stroke="#000" d="M49.62-211.04c-1.3-9.82.83-18.96 6.38-18.96 4.17 0 6.4 5.14 6.71 11.86"/><path stroke="#000" d="M62.38-211.04l3.47-6.84-3.31 3.35.17-3.5h0l-.17 3.5-2.98-3.65 2.82 7.14h0z"/><text x="39" y="-246.4" font-family="Lato" font-size="12">!a &amp; !b</text><text x="49.5" y="-233.4" font-family="Lato" font-size="12" fill="#1f78b4">⓿</text></g><g class="node"><circle fill="#ffffa0" stroke="#000" cx="162" cy="-145" r="18"/><text text-anchor="middle" x="162" y="-141.9" font-family="Lato" font-size="12">1</text></g><g class="edge"><path fill="none" stroke="#000" d="M73.81-190.38c14.39 3.49 35.37 9.56 52.19 18.38 5.67 2.97 11.36 6.87 16.45 10.78"/><path stroke="#000" d="M148.12-156.68l-3.5-6.84.77 4.65-2.74-2.19h0l2.74 2.19-4.7.27 7.43 1.92h0z"/><text x="93.5" y="-188.4" font-family="Lato" font-size="12">!a &amp; b</text></g><g class="node"><circle fill="#ffffa0" stroke="#000" cx="365" cy="-181" r="18"/><text text-anchor="middle" x="365" y="-177.9" font-family="Lato" font-size="12">2</text></g><g class="edge"><path fill="none" stroke="#000" d="M73.61-198.53c5.78-1.38 12.33-2.73 18.39-3.47 22.94-2.81 28.89-.78 52-1 16-.15 20.03-.91 36 0 66.54 3.78 82.89 8.51 149 17 3.47.45 7.13.94 10.72 1.44"/><path stroke="#000" d="M346.92-183.54l-6.49-4.1 3.03 3.61-3.47-.49h0l3.47.49-3.91 2.63 7.37-2.14h0z"/><text x="208.5" y="-204.4" font-family="Lato" font-size="12">a</text></g><g class="edge"><path fill="none" stroke="#000" d="M144.63-139.82c-14.67 3.65-36.33 6.5-52.63-2.18-11.53-6.14-19.95-17.96-25.63-28.78"/><path stroke="#000" d="M63.18-177.33l.23 7.67 1.3-4.52 1.53 3.14h0l-1.53-3.14 4.37 1.76-5.9-4.91h0z"/><text x="92" y="-158.4" font-family="Lato" font-size="12">!a &amp; !b</text><text x="102.5" y="-145.4" font-family="Lato" font-size="12" fill="#1f78b4">⓿</text></g><g class="edge"><path fill="none" stroke="#000" d="M153.37-160.92c-2.26-10.23.62-20.08 8.63-20.08 6.13 0 9.25 5.77 9.37 13.07"/><path stroke="#000" d="M170.63-160.92l3.87-6.63-3.5 3.15.37-3.48h0l-.37 3.48-2.77-3.81 2.4 7.29h0z"/><text x="146.5" y="-184.4" font-family="Lato" font-size="12">!a &amp; b</text></g><g class="edge"><path fill="none" stroke="#000" d="M179.79-148.01c35.69-6.39 119.2-21.35 160.38-28.72"/><path stroke="#000" d="M347.12-177.98l-7.45-1.86 4 2.48-3.45.62h0l3.45-.62-2.89 3.72 6.34-4.34h0z"/><text x="246.5" y="-168.4" font-family="Lato" font-size="12">a &amp; !b</text></g><g class="node"><circle fill="#ffffa0" stroke="#000" cx="262" cy="-96" r="18"/><text text-anchor="middle" x="262" y="-92.9" font-family="Lato" font-size="12">3</text></g><g class="edge"><path fill="none" stroke="#000" d="M178.31-137.34c16.3 8.15 42.25 21.12 60.72 30.36"/><path stroke="#000" d="M245.47-103.76l-4.85-5.95 1.72 4.38-3.13-1.56h0l3.13 1.56-4.54 1.25 7.67.32h0z"/><text x="198" y="-130.4" font-family="Lato" font-size="12">a &amp; b</text></g><g class="edge"><path fill="none" stroke="#000" d="M356.37-196.92c-2.26-10.23.62-20.08 8.63-20.08 6.13 0 9.25 5.77 9.37 13.07"/><path stroke="#000" d="M373.63-196.92l3.87-6.63-3.5 3.15.37-3.48h0l-.37 3.48-2.77-3.81 2.4 7.29h0z"/><text x="361.5" y="-220.4" font-family="Lato" font-size="12">a</text></g><g class="node"><circle fill="#ffffa0" stroke="#000" cx="471" cy="-103" r="18"/><text text-anchor="middle" x="471" y="-99.9" font-family="Lato" font-size="12">4</text></g><g class="edge"><path fill="none" stroke="#000" d="M380.03-170.48c18.16 13.62 49.93 37.45 70.44 52.83"/><path stroke="#000" d="M456.2-113.35l-3.71-6.72.91 4.62-2.8-2.1h0l2.8 2.1-4.69.42 7.49 1.68h0z"/><text x="401" y="-156.4" font-family="Lato" font-size="12">!a &amp; !b</text></g><g class="node"><circle fill="#ffffa0" stroke="#000" cx="577" cy="-166" r="18"/><text text-anchor="middle" x="577" y="-162.9" font-family="Lato" font-size="12">5</text></g><g class="edge"><path fill="none" stroke="#000" d="M382.83-185.12C414.51-192.15 484.9-204.17 541-188c5.43 1.57 10.83 4.25 15.71 7.22"/><path stroke="#000" d="M562.57-176.94l-4.13-6.47 1.2 4.55-2.92-1.92h0l2.92 1.92-4.65.71 7.58 1.21h0z"/><text x="455.5" y="-199.4" font-family="Lato" font-size="12">!a &amp; b</text></g><g class="edge"><path fill="none" stroke="#000" d="M276.2-107.11l69-58.07"/><path stroke="#000" d="M350.79-169.89l-7.38 2.1 4.7.16-2.67 2.25h0l2.67-2.25-.64 4.66 3.32-6.92h0z"/><text x="298" y="-154.4" font-family="Lato" font-size="12">a &amp; !b</text></g><g class="edge"><path fill="none" stroke="#000" d="M253.37-111.92c-2.26-10.23.62-20.08 8.63-20.08 6.13 0 9.25 5.77 9.37 13.07"/><path stroke="#000" d="M270.63-111.92l3.87-6.63-3.5 3.15.37-3.48h0l-.37 3.48-2.77-3.81 2.4 7.29h0z"/><text x="248" y="-135.4" font-family="Lato" font-size="12">a &amp; b</text></g><g class="edge"><path fill="none" stroke="#000" d="M280.29-96.58c36.85-1.25 123.19-4.17 165.49-5.6"/><path stroke="#000" d="M452.9-102.42l-7.1-2.91 3.6 3.03-3.49.11h0l3.49-.11-3.39 3.26 6.89-3.38h0z"/><text x="348" y="-103.4" font-family="Lato" font-size="12">!a &amp; !b</text></g><g class="node"><circle fill="#ffffa0" stroke="#000" cx="365" cy="-18" r="18"/><text text-anchor="middle" x="365" y="-14.9" font-family="Lato" font-size="12">6</text></g><g class="edge"><path fill="none" stroke="#000" d="M276.62-85.48c17.55 13.55 48.15 37.18 68.08 52.58"/><path stroke="#000" d="M350.27-28.6l-3.61-6.77.84 4.63-2.77-2.14h0l2.77 2.14-4.69.35 7.46 1.79h0z"/><text x="298" y="-72.4" font-family="Lato" font-size="12">!a &amp; b</text></g><g class="edge"><path fill="none" stroke="#000" d="M462.02-118.92c-2.34-10.23.65-20.08 8.98-20.08 6.38 0 9.63 5.77 9.75 13.07"/><path stroke="#000" d="M479.98-118.92l3.89-6.61-3.51 3.13.38-3.47h0l-.38 3.47-2.75-3.82 2.37 7.3h0z"/><text x="454" y="-155.4" font-family="Lato" font-size="12">!a &amp; !b</text><text x="464.5" y="-142.4" font-family="Lato" font-size="12" fill="#1f78b4">⓿</text></g><g class="edge"><path fill="none" stroke="#000" d="M488.51-107.64c14.58-4.56 36-12.43 52.49-23.36 6.8-4.51 13.37-10.49 18.94-16.22"/><path stroke="#000" d="M564.76-152.38l-7.08 2.96 4.69-.4-2.39 2.56h0l2.39-2.56-.09 4.71 2.48-7.27h0z"/><text x="520.5" y="-134.4" font-family="Lato" font-size="12">b</text></g><g class="node"><circle fill="#ffffa0" stroke="#000" cx="680" cy="-97" r="18"/><text text-anchor="middle" x="680" y="-93.9" font-family="Lato" font-size="12">7</text></g><g class="edge"><path fill="none" stroke="#000" d="M486.31-93.51C502.94-83.15 531.63-67.32 559-62c35.24 6.85 75.05-9.77 98.81-22.39"/><path stroke="#000" d="M664.06-87.82l-7.65.6 4.59 1.08-3.07 1.69h0l3.07-1.69-1.56 4.45 4.62-6.13h0z"/><text x="561.5" y="-65.4" font-family="Lato" font-size="12">a &amp; !b</text></g><g class="edge"><path fill="none" stroke="#000" d="M558.97-163.29c-14.71 2.94-36.05 8.71-51.97 19.29-8.04 5.34-15.28 13.03-21.06 20.31"/><path stroke="#000" d="M481.44-117.73l6.73-3.69-4.62.9 2.11-2.79h0l-2.11 2.79-.41-4.69-1.7 7.48h0z"/><text x="507" y="-174.4" font-family="Lato" font-size="12">!a &amp; !b</text><text x="517.5" y="-161.4" font-family="Lato" font-size="12" fill="#1f78b4">⓿</text></g><g class="edge"><path fill="none" stroke="#000" d="M568.37-181.92c-2.26-10.23.62-20.08 8.63-20.08 6.13 0 9.25 5.77 9.37 13.07"/><path stroke="#000" d="M585.63-181.92l3.87-6.63-3.5 3.15.37-3.48h0l-.37 3.48-2.77-3.81 2.4 7.29h0z"/><text x="573.5" y="-205.4" font-family="Lato" font-size="12">b</text></g><g class="edge"><path fill="none" stroke="#000" d="M595.16-167.61c14.24-.46 34.42.97 48.84 10.61 12.69 8.48 21.39 23.24 26.94 36"/><path stroke="#000" d="M673.7-114.17l.3-7.67-1.61 4.42-1.31-3.24h0l1.31 3.24-4.23-2.06 5.54 5.31h0z"/><text x="613" y="-182.4" font-family="Lato" font-size="12">a &amp; !b</text><text x="622" y="-169.4" font-family="Lato" font-size="12" fill="#1f78b4">⓿</text></g><g class="edge"><path fill="none" stroke="#000" d="M379.6-29.11c18.21-14.89 50.64-41.4 71.31-58.28"/><path stroke="#000" d="M456.4-91.89l-7.41 2 4.7.22-2.71 2.21h0l2.71-2.21-.72 4.65 3.43-6.87h0z"/><text x="401" y="-77.4" font-family="Lato" font-size="12">!a &amp; !b</text></g><g class="edge"><path fill="none" stroke="#000" d="M356.37-33.92C354.11-44.15 356.99-54 365-54c6.13 0 9.25 5.77 9.37 13.07"/><path stroke="#000" d="M373.63-33.92l3.87-6.63-3.5 3.15.37-3.48h0L374-37.4l-2.77-3.81 2.4 7.29h0z"/><text x="361.5" y="-57.4" font-family="Lato" font-size="12">b</text></g><g class="edge"><path fill="none" stroke="#000" d="M383.04-17.31C428.23-16.19 553.79-17.66 644-63c7.04-3.54 13.58-8.99 19.06-14.5"/><path stroke="#000" d="M668.17-82.97L661.09-80l4.69-.41-2.39 2.56h0l2.39-2.56-.09 4.71 2.48-7.27h0z"/><text x="508.5" y="-33.4" font-family="Lato" font-size="12">a &amp; !b</text></g><g class="edge"><path fill="none" stroke="#000" d="M661.9-97.5c-36.67-1.06-123-3.56-165.45-4.79"/><path stroke="#000" d="M489.29-102.5l6.91 3.35-3.41-3.25 3.5.1h0l-3.5-.1 3.59-3.04-7.09 2.94h0z"/><text x="560" y="-117.4" font-family="Lato" font-size="12">!a &amp; !b</text><text x="570.5" y="-104.4" font-family="Lato" font-size="12" fill="#1f78b4">⓿</text></g><g class="edge"><path fill="none" stroke="#000" d="M662.53-102.33c-14-5.01-34.21-13.43-49.53-24.67-7.33-5.38-14.28-12.51-20.02-19.2"/><path stroke="#000" d="M588.46-151.67l2.03 7.41.2-4.71 2.23 2.7h0l-2.23-2.7 4.66.69-6.89-3.39h0z"/><text x="613" y="-143.4" font-family="Lato" font-size="12">!a &amp; b</text><text x="622" y="-130.4" font-family="Lato" font-size="12" fill="#1f78b4">⓿</text></g><g class="edge"><path fill="none" stroke="#000" d="M671.37-112.92c-2.26-10.23.62-20.08 8.63-20.08 6.13 0 9.25 5.77 9.37 13.07"/><path stroke="#000" d="M688.63-112.92l3.87-6.63-3.5 3.15.37-3.48h0l-.37 3.48-2.77-3.81 2.4 7.29h0z"/><text x="676.5" y="-136.4" font-family="Lato" font-size="12">a</text></g></g></svg>