<?xml-stylesheet href="spot.css" type="text/css"?><svg width="185pt" height="176pt" viewBox="0 0 185 176.33" xmlns="http://www.w3.org/2000/svg"><g class="graph" transform="translate(4 172.33)"><path fill="#fff" stroke="transparent" d="M-4 4v-176.33h185V4H-4z"/><text x="48" y="-155.73" font-family="Lato" font-size="12">Inf(</text><text x="65" y="-155.73" font-family="Lato" font-size="12" fill="#ff4da0">❶</text><text x="78" y="-155.73" font-family="Lato" font-size="12">) | Fin(</text><text x="112" y="-155.73" font-family="Lato" font-size="12" fill="#1f78b4">⓿</text><text x="125" y="-155.73" font-family="Lato" font-size="12">)</text><text x="62.5" y="-143.73" font-family="Lato" font-size="12">[Streett 1]</text><g class="node"><circle fill="#ffffa0" stroke="#000" cx="56" cy="-30.33" r="18"/><text text-anchor="middle" x="56" y="-27.23" font-family="Lato" font-size="12">0</text></g><g class="edge"><path fill="none" stroke="#000" d="M1.15-30.33h29.48"/><path stroke="#000" d="M37.94-30.33l-7-3.15 3.5 3.15h-3.5 3.5l-3.5 3.15 7-3.15h0z"/></g><g class="edge"><path fill="none" stroke="#000" d="M52.76-48.12c-.55-9.53.53-18.21 3.24-18.21 1.99 0 3.1 4.68 3.33 10.94"/><path stroke="#000" d="M59.24-48.12l3.24-6.95-3.2 3.45.05-3.5h0l-.05 3.5-3.1-3.54 3.06 7.04h0z"/><text x="51" y="-82.73" font-family="Lato" font-size="12">!b</text><text x="49.5" y="-69.73" font-family="Lato" font-size="12" fill="#1f78b4">⓿</text></g><g class="edge"><path fill="none" stroke="#000" d="M50.94-47.62C47.56-67.58 49.25-92.33 56-92.33c5.96 0 7.97 19.28 6.04 37.54"/><path stroke="#000" d="M61.06-47.62l4.07-6.51-3.59 3.05.47-3.47h0l-.47 3.47-2.65-3.9 2.17 7.36h0z"/><text x="42" y="-108.73" font-family="Lato" font-size="12">a &amp; b</text><text x="49.5" y="-95.73" font-family="Lato" font-size="12" fill="#ff4da0">❶</text></g><g class="node"><circle fill="#ffffa0" stroke="#000" cx="159" cy="-30.33" r="18"/><text text-anchor="middle" x="159" y="-27.23" font-family="Lato" font-size="12">1</text></g><g class="edge"><path fill="none" stroke="#000" d="M74.07-32.09c5.7-.51 12.08-.99 17.93-1.24 13.77-.59 17.23-.59 31 0 3.47.14 7.13.38 10.73.65"/><path stroke="#000" d="M140.93-32.09l-6.72-3.72 3.23 3.43-3.49-.29h0l3.49.29-3.75 2.85 7.24-2.56h0z"/><text x="92" y="-49.73" font-family="Lato" font-size="12">!a &amp; b</text><text x="101" y="-36.73" font-family="Lato" font-size="12" fill="#1f78b4">⓿</text></g><g class="edge"><path fill="none" stroke="#000" d="M145.93-17.8C139.68-12.22 131.57-6.26 123-3.33c-13.04 4.44-17.96 4.44-31 0-6.16-2.1-12.08-5.78-17.24-9.75"/><path stroke="#000" d="M69.07-17.8l3.37 6.89-.67-4.65 2.69 2.23h0l-2.69-2.23 4.7-.19-7.4-2.05h0z"/><text x="104" y="-19.73" font-family="Lato" font-size="12">a</text><text x="101" y="-6.73" font-family="Lato" font-size="12" fill="#ff4da0">❶</text></g><g class="edge"><path fill="none" stroke="#000" d="M150.37-46.25c-2.26-10.23.62-20.08 8.63-20.08 6.13 0 9.25 5.77 9.37 13.07"/><path stroke="#000" d="M167.63-46.25l3.87-6.63-3.5 3.15.37-3.48h0l-.37 3.48-2.77-3.81 2.4 7.29h0z"/><text x="154" y="-82.73" font-family="Lato" font-size="12">!a</text><text x="152.5" y="-69.73" font-family="Lato" font-size="12" fill="#1f78b4">⓿</text></g></g></svg>