<?xml-stylesheet href="spot.css" type="text/css"?><svg width="356" height="204" viewBox="0 0 267 153" xmlns="http://www.w3.org/2000/svg"><g class="graph" transform="translate(4 149)"><path fill="#fff" stroke="transparent" d="M-4 4v-153h267V4H-4z"/><text x="110" y="-132.4" font-family="Lato" font-size="12">Fin(</text><text x="132" y="-132.4" font-family="Lato" font-size="12" fill="#1f78b4">⓿</text><text x="145" y="-132.4" font-family="Lato" font-size="12">)</text><text x="102.5" y="-120.4" font-family="Lato" font-size="12">[co-Büchi]</text><g class="node"><circle fill="#ffffa0" stroke="#000" cx="56" cy="-18" r="18"/><text text-anchor="middle" x="56" y="-14.9" font-family="Lato" font-size="12">0</text></g><g class="edge"><path fill="none" stroke="#000" d="M1.15-18h29.48"/><path stroke="#000" d="M37.94-18l-7-3.15 3.5 3.15h-3.5 3.5l-3.5 3.15 7-3.15h0z"/></g><g class="edge"><path fill="none" stroke="#000" d="M52.76-35.78C52.21-45.31 53.29-54 56-54c1.99 0 3.1 4.68 3.33 10.95"/><path stroke="#000" d="M59.24-35.78l3.24-6.96-3.2 3.46.05-3.5h0l-.05 3.5-3.1-3.54 3.06 7.04h0z"/><text x="30" y="-57.4" font-family="Lato" font-size="12">a &amp; !b &amp; c</text></g><g class="edge"><path fill="none" stroke="#000" d="M50.68-35.42C47.65-52.79 49.43-72 56-72c5.7 0 7.79 14.45 6.27 29.61"/><path stroke="#000" d="M61.32-35.42l4.07-6.51-3.6 3.04.47-3.47h0l-.47 3.47-2.65-3.89 2.18 7.36h0z"/><text x="28.5" y="-88.4" font-family="Lato" font-size="12">!a &amp; !b &amp; c</text><text x="49.5" y="-75.4" font-family="Lato" font-size="12" fill="#1f78b4">⓿</text></g><g class="node"><circle fill="#ffffa0" stroke="#000" cx="162" cy="-51" r="18"/><text text-anchor="middle" x="162" y="-47.9" font-family="Lato" font-size="12">1</text></g><g class="edge"><path fill="none" stroke="#000" d="M73.25-23.16c17.3-5.49 44.83-14.22 64.44-20.44"/><path stroke="#000" d="M144.52-45.77l-7.62-.89 4.28 1.95-3.33 1.06h0l3.33-1.06-2.38 4.06 5.72-5.12h0z"/><text x="92" y="-42.4" font-family="Lato" font-size="12">!b &amp; !c</text></g><g class="node"><circle fill="#ffffa0" stroke="#000" cx="241" cy="-18" r="18"/><text text-anchor="middle" x="241" y="-14.9" font-family="Lato" font-size="12">2</text></g><g class="edge"><path fill="none" stroke="#000" d="M74.11-15.78C97.87-12.99 142.21-8.8 180-11c11.82-.69 24.89-2.13 35.81-3.53"/><path stroke="#000" d="M222.98-15.48l-7.36-2.2 3.89 2.66-3.47.46h0l3.47-.46-3.06 3.58 6.53-4.04h0z"/><text x="158.5" y="-14.4" font-family="Lato" font-size="12">b</text></g><g class="edge"><path fill="none" stroke="#000" d="M155.27-68.04C153.89-77.86 156.14-87 162-87c4.4 0 6.76 5.14 7.09 11.86"/><path stroke="#000" d="M168.73-68.04l3.5-6.83-3.32 3.34.17-3.5h0l-.17 3.5-2.98-3.65 2.8 7.14h0z"/><text x="157" y="-103.4" font-family="Lato" font-size="12">!b</text><text x="155.5" y="-90.4" font-family="Lato" font-size="12" fill="#1f78b4">⓿</text></g><g class="edge"><path fill="none" stroke="#000" d="M178.95-44.16c11.15 4.78 26.2 11.22 38.56 16.52"/><path stroke="#000" d="M224.07-24.83l-5.2-5.65 1.98 4.27-3.22-1.38h0l3.22 1.38-4.46 1.52 7.68-.14h0z"/><text x="198" y="-38.4" font-family="Lato" font-size="12">b</text></g><g class="edge"><path fill="none" stroke="#000" d="M237.58-35.78C237-45.31 238.14-54 241-54c2.1 0 3.27 4.68 3.51 10.95"/><path stroke="#000" d="M244.42-35.78l3.24-6.96-3.2 3.46.05-3.5h0l-.05 3.5-3.1-3.54 3.06 7.04h0z"/><text x="237.5" y="-57.4" font-family="Lato" font-size="12">a</text></g><g class="edge"><path fill="none" stroke="#000" d="M235.44-35.14C232.17-52.58 234.02-72 241-72c6.05 0 8.25 14.6 6.59 29.85"/><path stroke="#000" d="M246.56-35.14l4.14-6.47-3.63 3.01.51-3.47h0l-.51 3.47-2.61-3.93 2.1 7.39h0z"/><text x="236" y="-88.4" font-family="Lato" font-size="12">!a</text><text x="234.5" y="-75.4" font-family="Lato" font-size="12" fill="#1f78b4">⓿</text></g></g></svg>