<?xml-stylesheet href="spot.css" type="text/css"?><svg width="397pt" height="305pt" viewBox="0 0 397 304.56" xmlns="http://www.w3.org/2000/svg"><g class="graph" transform="translate(4 300.56)"><path fill="#fff" stroke="transparent" d="M-4 4v-304.56h397V4H-4z"/><text x="126" y="-283.96" font-family="Lato" font-size="12">Inf(</text><text x="143" y="-283.96" font-family="Lato" font-size="12" fill="#ff7f00">❷</text><text x="156" y="-283.96" font-family="Lato" font-size="12">) | (Fin(</text><text x="194" y="-283.96" font-family="Lato" font-size="12" fill="#ff4da0">❶</text><text x="207" y="-283.96" font-family="Lato" font-size="12">) &amp; Inf(</text><text x="242" y="-283.96" font-family="Lato" font-size="12" fill="#1f78b4">⓿</text><text x="255" y="-283.96" font-family="Lato" font-size="12">))</text><text x="143.5" y="-271.96" font-family="Lato" font-size="12">[parity max even 3]</text><g class="node"><path fill="#ffffa0" stroke="#000" d="M62-145.56H50c-6 0-12 6-12 12v12c0 6 6 12 12 12h12c6 0 12-6 12-12v-12c0-6-6-12-12-12"/><text x="52.5" y="-130.96" font-family="Lato" font-size="12">0</text><text x="49.5" y="-117.96" font-family="Lato" font-size="12" fill="#ff7f00">❷</text></g><g class="edge"><path fill="none" stroke="#000" d="M1.15-127.56h29.48"/><path stroke="#000" d="M37.94-127.56l-7-3.15 3.5 3.15h-3.5 3.5l-3.5 3.15 7-3.15h0z"/></g><g class="edge"><path fill="none" stroke="#000" d="M49.49-145.72c-1-9.38 1.17-17.84 6.51-17.84 3.92 0 6.14 4.56 6.64 10.7"/><path stroke="#000" d="M62.51-145.72l3.28-6.94-3.22 3.44.07-3.5h0l-.07 3.5-3.08-3.55 3.02 7.05h0z"/><text x="42" y="-166.96" font-family="Lato" font-size="12">a &amp; b</text></g><g class="node"><path fill="#ffffa0" stroke="#000" d="M165-187.56h-12c-6 0-12 6-12 12v12c0 6 6 12 12 12h12c6 0 12-6 12-12v-12c0-6-6-12-12-12"/><text x="155.5" y="-172.96" font-family="Lato" font-size="12">1</text><text x="152.5" y="-159.96" font-family="Lato" font-size="12" fill="#ff7f00">❷</text></g><g class="edge"><path fill="none" stroke="#000" d="M74.09-130.59c13.66-2.79 33.07-7.64 48.91-14.97 4.04-1.87 8.12-4.2 11.99-6.65"/><path stroke="#000" d="M140.88-156.14l-7.57 1.26 4.66.68-2.91 1.94h0l2.91-1.94-1.16 4.56 4.07-6.5h0z"/><text x="92" y="-148.96" font-family="Lato" font-size="12">a &amp; !b</text></g><g class="node"><path fill="#ffffa0" stroke="#000" d="M377-224.56h-12c-6 0-12 6-12 12v12c0 6 6 12 12 12h12c6 0 12-6 12-12v-12c0-6-6-12-12-12"/><text x="367.5" y="-209.96" font-family="Lato" font-size="12">2</text><text x="364.5" y="-196.96" font-family="Lato" font-size="12" fill="#ff4da0">❶</text></g><g class="edge"><path fill="none" stroke="#000" d="M74.18-124.17c38.78 6.87 135.46 19.51 208.82-8.39 27.04-10.29 51.52-32.89 67.57-50.42"/><path stroke="#000" d="M355.28-188.24l-7.02 3.11 4.68-.51-2.33 2.61h0l2.33-2.61.02 4.71 2.32-7.31h0z"/><text x="207" y="-121.96" font-family="Lato" font-size="12">!a</text></g><g class="edge"><path fill="none" stroke="#000" d="M140.96-169.29c-13.81.8-33.44 3.33-48.96 10.73-4.43 2.11-8.72 4.95-12.69 8.07"/><path stroke="#000" d="M73.75-145.8l7.38-2.11-4.71-.14 2.68-2.26h0l-2.68 2.26.64-4.67-3.31 6.92h0z"/><text x="93.5" y="-169.96" font-family="Lato" font-size="12">a &amp; b</text></g><g class="edge"><path fill="none" stroke="#000" d="M167.35-187.69c5.71-11.55 14.84-25.65 27.65-32.87 54.2-30.57 79.26-13.53 140 0 3.75.83 7.63 2.02 11.37 3.36"/><path stroke="#000" d="M352.91-214.68l-5.4-5.46 2.13 4.2-3.27-1.26h0l3.27 1.26-4.4 1.68 7.67-.42h0z"/><text x="249.5" y="-240.96" font-family="Lato" font-size="12">!a &amp; b</text></g><g class="node"><path fill="#ffffa0" stroke="#000" d="M377-47.56h-12c-6 0-12 6-12 12v12c0 6 6 12 12 12h12c6 0 12-6 12-12v-12c0-6-6-12-12-12"/><text x="367.5" y="-32.96" font-family="Lato" font-size="12">3</text><text x="364.5" y="-19.96" font-family="Lato" font-size="12" fill="#ff4da0">❶</text></g><g class="edge"><path fill="none" stroke="#000" d="M177.11-167.16c34.08 5.62 111.14 22.53 157.89 65.6 13.65 12.57 22.58 31.62 28.01 46.97"/><path stroke="#000" d="M365.26-47.84l.77-7.64-1.88 4.32-1.11-3.32h0l1.11 3.32-4.09-2.33 5.2 5.65h0z"/><text x="249.5" y="-151.96" font-family="Lato" font-size="12">a &amp; !b</text></g><g class="node"><path fill="#ffffa0" stroke="#000" d="M271-52.56h-12c-6 0-12 6-12 12v12c0 6 6 12 12 12h12c6 0 12-6 12-12v-12c0-6-6-12-12-12"/><text x="261.5" y="-37.96" font-family="Lato" font-size="12">4</text><text x="258.5" y="-24.96" font-family="Lato" font-size="12" fill="#ff4da0">❶</text></g><g class="edge"><path fill="none" stroke="#000" d="M163.16-151.34c4.28 20.17 13.57 52.73 31.84 74.78 6.52 7.86 27.96 20.37 45.23 29.7"/><path stroke="#000" d="M246.84-43.34l-4.69-6.07 1.6 4.43-3.09-1.65h0l3.09 1.65-4.57 1.13 7.66.51h0z"/><text x="195" y="-79.96" font-family="Lato" font-size="12">!a &amp; !b</text></g><g class="edge"><path fill="none" stroke="#000" d="M353.05-224.84c-5.38-5-11.62-10.05-18.05-13.72-34.51-19.74-48.59-21.22-88-16-75.12 9.93-100.02 18.86-155 71-9.44 8.95-17.39 20.96-23.31 31.57"/><path stroke="#000" d="M65.27-145.61l6.08-4.68-4.43 1.6 1.66-3.09h0l-1.66 3.09-1.12-4.58-.53 7.66h0z"/><text x="198" y="-254.96" font-family="Lato" font-size="12">a &amp; b</text></g><g class="edge"><path fill="none" stroke="#000" d="M352.87-203.55c-37.26 6.57-125.79 22.17-168.71 29.73"/><path stroke="#000" d="M177.19-172.59l7.44 1.89-4-2.5 3.45-.61h0l-3.45.61 2.9-3.71-6.34 4.32h0z"/><text x="249.5" y="-193.96" font-family="Lato" font-size="12">a &amp; !b</text></g><g class="edge"><path fill="none" stroke="#000" d="M361.59-224.72c-1.44-9.38 1.69-17.84 9.41-17.84 5.67 0 8.87 4.56 9.59 10.7"/><path stroke="#000" d="M380.41-224.72l3.33-6.91-3.24 3.41.09-3.49h0l-.09 3.49-3.06-3.58 2.97 7.08h0z"/><text x="366" y="-245.96" font-family="Lato" font-size="12">!a</text></g><g class="edge"><path fill="none" stroke="#000" d="M352.84-15.46c-5.38 3.62-11.57 7.02-17.84 8.9-37.47 11.21-49.43 5.51-88-1-74-12.5-98.56-17.54-155-67-9.12-7.99-16.86-18.89-22.72-28.73"/><path stroke="#000" d="M65.7-109.56l.73 7.64 1-4.6 1.74 3.04h0l-1.74-3.04 4.47 1.48-6.2-4.52h0z"/><text x="208.5" y="-20.96" font-family="Lato" font-size="12">b</text></g><g class="edge"><path fill="none" stroke="#000" d="M361.59-47.72c-1.44-9.38 1.69-17.84 9.41-17.84 5.67 0 8.87 4.56 9.59 10.7"/><path stroke="#000" d="M380.41-47.72l3.33-6.91-3.24 3.41.09-3.49h0l-.09 3.49-3.06-3.58 2.97 7.08h0z"/><text x="355.5" y="-68.96" font-family="Lato" font-size="12">a &amp; !b</text></g><g class="edge"><path fill="none" stroke="#000" d="M352.77-19.29c-5.49 2.75-11.71 5.33-17.77 6.73-14.73 3.38-19.48 4.18-34 0-3.98-1.15-7.94-2.9-11.69-4.91"/><path stroke="#000" d="M283.23-21.07l4.43 6.28-1.41-4.49 3.01 1.78h0l-3.01-1.78 4.61-.94-7.63-.85h0z"/><text x="301" y="-15.96" font-family="Lato" font-size="12">!a &amp; !b</text></g><g class="edge"><path fill="none" stroke="#000" d="M246.72-37.57c-14.12-2.7-34.49-7.13-51.72-12.99-47.64-16.21-60.59-19.92-103-47-4.17-2.67-8.37-5.79-12.33-9"/><path stroke="#000" d="M74.05-111.28l3.33 6.91-.65-4.66 2.68 2.25h0l-2.68-2.25 4.7-.16-7.38-2.09h0z"/><text x="145" y="-72.96" font-family="Lato" font-size="12">a &amp; b</text></g><g class="edge"><path fill="none" stroke="#000" d="M283.29-42.84c15.74-8.4 38.46-22.83 51.71-41.72 20.58-29.36 29.14-70.68 32.64-96.9"/><path stroke="#000" d="M368.5-188.43l-3.98 6.56 3.56-3.09-.43 3.48h0l.43-3.48 2.69 3.86-2.27-7.33h0z"/><text x="302.5" y="-87.96" font-family="Lato" font-size="12">!a &amp; b</text></g><g class="edge"><path fill="none" stroke="#000" d="M283.17-33.74c17.01.82 43.23 2.08 62.4 3"/><path stroke="#000" d="M352.8-30.39l-6.84-3.48 3.35 3.31-3.5-.17h0l3.5.17-3.65 2.98 7.14-2.81h0z"/><text x="302.5" y="-36.96" font-family="Lato" font-size="12">a &amp; !b</text></g><g class="edge"><path fill="none" stroke="#000" d="M255.59-52.72c-1.44-9.38 1.69-17.84 9.41-17.84 5.67 0 8.87 4.56 9.59 10.7"/><path stroke="#000" d="M274.41-52.72l3.33-6.91-3.24 3.41.09-3.49h0l-.09 3.49-3.06-3.58 2.97 7.08h0z"/><text x="248" y="-73.96" font-family="Lato" font-size="12">!a &amp; !b</text></g></g></svg>