<?xml-stylesheet href="spot.css" type="text/css"?><svg width="232pt" height="137pt" viewBox="0 0 231.5 137" xmlns="http://www.w3.org/2000/svg"><g class="graph"><path fill="#fff" stroke="transparent" d="M0 137V0h231.5v137H0z"/><g class="node" transform="translate(4 133)"><circle fill="#ffffa0" stroke="#000" cx="56" cy="-67" r="18"/><text text-anchor="middle" x="56" y="-63.9" font-family="Lato" font-size="12">0</text></g><g class="edge" transform="translate(4 133)"><path fill="none" stroke="#000" d="M1.15-67h29.48"/><path stroke="#000" d="M37.94-67l-7-3.15 3.5 3.15h-3.5 3.5l-3.5 3.15 7-3.15h0z"/></g><g class="node" transform="translate(4 133)"><circle fill="#ffffa0" stroke="#000" cx="201" cy="-111" r="18"/><text text-anchor="middle" x="201" y="-107.9" font-family="Lato" font-size="12">1</text></g><g class="edge" transform="translate(4 133)"><path fill="none" stroke="#000" d="M71.02-77.44C77.18-81.59 84.67-86.06 92-89c27.61-11.06 61.5-16.8 83.87-19.6"/><path stroke="#000" d="M182.99-109.44l-7.32-2.31 3.85 2.72-3.48.41h0l3.48-.41-3.11 3.54 6.58-3.95h0z"/><path fill="#e9f4fb" stroke="transparent" d="M94.5-107.5v-17h38v17h-38z"/><text x="96.5" y="-112.9" font-family="Lato" font-size="12">i1 &amp; i2</text><text x="136.5" y="-112.9" font-family="Lato" font-size="12">/</text><path fill="#ffe5f1" stroke="transparent" d="M144.5-107.5v-17h18v17h-18z"/><text x="146.5" y="-112.9" font-family="Lato" font-size="12">o1</text></g><g class="node" transform="translate(4 133)"><circle fill="#ffffa0" stroke="#000" cx="201" cy="-18" r="18"/><text text-anchor="middle" x="201" y="-14.9" font-family="Lato" font-size="12">2</text></g><g class="edge" transform="translate(4 133)"><path fill="none" stroke="#000" d="M66.9-52.28C73.12-44.29 81.87-35.04 92-30c26.4 13.14 60.83 14.71 83.64 13.94"/><path stroke="#000" d="M182.9-16.4l-7.14-2.82 3.64 2.98-3.49.16h0l3.49-.16-3.34 3.31 6.84-3.47h0z"/><path fill="#e9f4fb" stroke="transparent" d="M94.5-31.5v-17h39v17h-39z"/><text x="96.5" y="-36.9" font-family="Lato" font-size="12">!i1 | !i2</text><text x="137.5" y="-36.9" font-family="Lato" font-size="12">/</text><path fill="#ffe5f1" stroke="transparent" d="M145.5-31.5v-17h18v17h-18z"/><text x="147.5" y="-36.9" font-family="Lato" font-size="12">o1</text></g><g class="edge" transform="translate(4 133)"><path fill="none" stroke="#000" d="M190.79-95.75C182.95-83.39 171.91-67.47 165-64c-26.62 13.37-61.78 9-84.63 3.75"/><path stroke="#000" d="M73.41-61.96l6.04 4.73-2.65-3.9 3.4.84h0l-3.4-.84 4.16-2.22-7.55 1.39h0z"/><path fill="#e9f4fb" stroke="transparent" d="M106.5-65.5v-17h11v17h-11z"/><text x="108.5" y="-70.9" font-family="Lato" font-size="12">1</text><text x="121.5" y="-70.9" font-family="Lato" font-size="12">/</text><path fill="#ffe5f1" stroke="transparent" d="M129.5-65.5v-17h21v17h-21z"/><text x="131.5" y="-70.9" font-family="Lato" font-size="12">!o1</text></g><g class="edge" transform="translate(4 133)"><path fill="none" stroke="#000" d="M189.24-32.04C184.85-42.91 188.77-54 201-54c9.56 0 14.04 6.77 13.45 14.91"/><path stroke="#000" d="M212.76-32.04l4.69-6.07-3.88 2.66.82-3.4h0l-.82 3.4-2.24-4.13 1.43 7.54h0z"/><path fill="#e9f4fb" stroke="transparent" d="M181-55.5v-17h11v17h-11z"/><text x="183" y="-60.9" font-family="Lato" font-size="12">1</text><text x="196" y="-60.9" font-family="Lato" font-size="12">/</text><path fill="#ffe5f1" stroke="transparent" d="M204-55.5v-17h18v17h-18z"/><text x="206" y="-60.9" font-family="Lato" font-size="12">o1</text></g></g></svg>