<svg width="421pt" height="655pt" viewBox="0 0 421.03 654.98" xmlns="http://www.w3.org/2000/svg"><g class="graph"><path fill="#fff" stroke="transparent" d="M0 654.98V0h421.03v654.98H0z"/><g class="node" transform="translate(4 650.98)"><path fill="#ffe6cc" stroke="#000" d="M160.53-118h-56v36h56v-36z"/><text text-anchor="middle" x="132.53" y="-96.3" font-family="Times,serif" font-size="14">L0_out</text></g><g class="node" transform="translate(4 650.98)"><circle fill="none" stroke="#000" cx="38.53" cy="-173.5" r="19.5"/><text text-anchor="middle" x="38.53" y="-169.8" font-family="Times,serif" font-size="14">10</text></g><g class="edge" transform="translate(4 650.98)"><path fill="none" stroke="#000" d="M109.78-118.31c-15.08-11.47-34.74-26.42-49.59-37.72"/><circle stroke="#000" cx="56.93" cy="-158.51" r="4"/></g><g class="node" transform="translate(4 650.98)"><circle fill="none" stroke="#000" cx="132.53" cy="-173.5" r="19.5"/><text text-anchor="middle" x="132.53" y="-169.8" font-family="Times,serif" font-size="14">16</text></g><g class="edge" transform="translate(4 650.98)"><path fill="none" stroke="#000" d="M132.53-118.31v-27.42"/><circle stroke="#000" cx="132.53" cy="-149.85" r="4"/></g><g class="node" transform="translate(4 650.98)"><circle fill="none" stroke="#000" cx="189.53" cy="-173.5" r="19.5"/><text text-anchor="middle" x="189.53" y="-169.8" font-family="Times,serif" font-size="14">20</text></g><g class="edge" transform="translate(4 650.98)"><path fill="none" stroke="#000" d="M146.33-118.31c7.97-9.99 18.05-22.63 26.47-33.19"/><circle stroke="#000" cx="175.3" cy="-154.64" r="4"/></g><g class="node" transform="translate(4 650.98)"><circle fill="none" stroke="#000" cx="335.53" cy="-173.5" r="19.5"/><text text-anchor="middle" x="335.53" y="-169.8" font-family="Times,serif" font-size="14">26</text></g><g class="edge" transform="translate(4 650.98)"><path fill="none" stroke="#000" d="M160.76-110.94c39.57-13.94 110.94-39.07 149.09-52.51"/><circle stroke="#000" cx="313.69" cy="-164.8" r="4"/></g><g class="node" transform="translate(4 650.98)"><path fill="#ffe5f1" stroke="#000" d="M85.53-600.98l39-34.5H46.54l38.99 34.5z"/><text text-anchor="middle" x="85.53" y="-620.28" font-family="Times,serif" font-size="14">o1</text></g><g class="edge" transform="translate(4 650.98)"><path fill="none" stroke="#000" d="M121.9-118.09c-5.88-10.12-12.88-23.37-17.37-35.91-14.27-39.93-19-51.09-19-93.49v-226.99-118.25"/><circle stroke="#000" cx="85.53" cy="-596.98" r="4"/></g><g class="node" transform="translate(4 650.98)"><path fill="#ffe6cc" stroke="#000" d="M81.53-118h-56v36h56v-36z"/><text text-anchor="middle" x="53.53" y="-96.3" font-family="Times,serif" font-size="14">L1_out</text></g><g class="edge" transform="translate(4 650.98)"><path fill="none" stroke="#000" d="M49.9-118.31c-1.77-8.44-3.93-18.76-5.9-28.13"/><circle stroke="#000" cx="43.16" cy="-150.44" r="4"/></g><g class="edge" transform="translate(4 650.98)"><path fill="none" stroke="#000" d="M72.66-118.31c11.43-10.34 25.99-23.52 37.89-34.29"/><path stroke="#000" d="M108.53-155.49l9.76-4.12-5.06 9.31-4.7-5.19z"/></g><g class="node" transform="translate(4 650.98)"><circle fill="none" stroke="#000" cx="34.53" cy="-248.49" r="19.5"/><text text-anchor="middle" x="34.53" y="-244.79" font-family="Times,serif" font-size="14">12</text></g><g class="edge" transform="translate(4 650.98)"><path fill="none" stroke="#000" d="M37.5-193.3c-.42-7.81-.93-17.04-1.4-25.65"/><path stroke="#000" d="M32.6-218.84l2.95-10.17 4.04 9.79-6.99.38z"/></g><g class="node" transform="translate(4 650.98)"><circle fill="none" stroke="#000" cx="34.53" cy="-323.49" r="19.5"/><text text-anchor="middle" x="34.53" y="-319.79" font-family="Times,serif" font-size="14">14</text></g><g class="edge" transform="translate(4 650.98)"><path fill="none" stroke="#000" d="M34.53-268.29v-25.46"/><path stroke="#000" d="M31.03-293.76l3.5-10 3.5 10h-7z"/></g><g class="node" transform="translate(4 650.98)"><path fill="#ffe6cc" stroke="#000" d="M57.53-564.98h-54v36h54v-36z"/><text text-anchor="middle" x="30.53" y="-543.28" font-family="Times,serif" font-size="14">L0_in</text></g><g class="edge" transform="translate(4 650.98)"><path fill="none" stroke="#000" d="M34.2-342.99c-.71-39.08-2.35-130.18-3.18-175.86"/><path stroke="#000" d="M27.52-518.85l3.32-10.06 3.68 9.93-7 .13z"/></g><g class="node" transform="translate(4 650.98)"><circle fill="none" stroke="#000" cx="223.53" cy="-248.49" r="19.5"/><text text-anchor="middle" x="223.53" y="-244.79" font-family="Times,serif" font-size="14">18</text></g><g class="edge" transform="translate(4 650.98)"><path fill="none" stroke="#000" d="M147.56-186.55c14.45-11.59 36.47-29.26 53.1-42.59"/><path stroke="#000" d="M198.8-232.14l9.99-3.53-5.61 8.99-4.38-5.46z"/></g><g class="node" transform="translate(4 650.98)"><circle fill="none" stroke="#000" cx="299.53" cy="-323.49" r="19.5"/><text text-anchor="middle" x="299.53" y="-319.79" font-family="Times,serif" font-size="14">22</text></g><g class="edge" transform="translate(4 650.98)"><path fill="none" stroke="#000" d="M237.12-262.55c11.92-11.45 29.41-28.24 42.84-41.14"/><circle stroke="#000" cx="282.92" cy="-306.54" r="4"/></g><g class="edge" transform="translate(4 650.98)"><path fill="none" stroke="#000" d="M205.02-185.47c13.52-10.14 33.04-26.23 46.51-43.53 16.44-21.09 29.79-48.67 38.2-68.4"/><circle stroke="#000" cx="291.27" cy="-301.11" r="4"/></g><g class="node" transform="translate(4 650.98)"><circle fill="none" stroke="#000" cx="393.53" cy="-398.49" r="19.5"/><text text-anchor="middle" x="393.53" y="-394.79" font-family="Times,serif" font-size="14">24</text></g><g class="edge" transform="translate(4 650.98)"><path fill="none" stroke="#000" d="M314.64-336.22c15.48-12.03 39.72-30.84 57.24-44.45"/><circle stroke="#000" cx="375.31" cy="-383.34" r="4"/></g><g class="node" transform="translate(4 650.98)"><circle fill="none" stroke="#000" cx="369.53" cy="-473.48" r="19.5"/><text text-anchor="middle" x="369.53" y="-469.78" font-family="Times,serif" font-size="14">28</text></g><g class="edge" transform="translate(4 650.98)"><path fill="none" stroke="#000" d="M387.72-417.16c-2.95-8.99-6.6-20.08-9.85-29.96"/><circle stroke="#000" cx="376.62" cy="-450.92" r="4"/></g><g class="edge" transform="translate(4 650.98)"><path fill="none" stroke="#000" d="M337.66-193.14c5.82-51 22.02-193.02 28.82-252.55"/><circle stroke="#000" cx="366.96" cy="-449.88" r="4"/></g><g class="node" transform="translate(4 650.98)"><path fill="#ffe6cc" stroke="#000" d="M396.53-564.98h-54v36h54v-36z"/><text text-anchor="middle" x="369.53" y="-543.28" font-family="Times,serif" font-size="14">L1_in</text></g><g class="edge" transform="translate(4 650.98)"><path fill="none" stroke="#000" d="M369.53-493.27v-27.07"/><circle stroke="#000" cx="369.53" cy="-524.55" r="4"/></g><g class="node" transform="translate(4 650.98)"><path fill="#e9f4fb" stroke="#000" d="M335.53-46l-35.19 34.5h70.39L335.53-46z"/><text text-anchor="middle" x="335.53" y="-19.3" font-family="Times,serif" font-size="14">i1</text></g><g class="edge" transform="translate(4 650.98)"><path fill="none" stroke="#000" d="M331.57-42.45c-11.38-51.29-45.55-193.88-80.04-225.54-52.45-48.15-141.04-55.29-187.13-55.46"/><path stroke="#000" d="M64.2-319.95l-10.02-3.43 9.97-3.57.05 7z"/></g><g class="edge" transform="translate(4 650.98)"><path fill="none" stroke="#000" d="M344.21-37.73c15.27-25.5 45.32-82.37 45.32-134.77v-76.99c0-41.44 1.59-89.37 2.77-119.19"/><path stroke="#000" d="M388.8-368.95l3.91-9.85 3.09 10.13-7-.28z"/></g><g class="edge" transform="translate(4 650.98)"><path fill="none" stroke="#000" d="M335.53-46.23v-99.37"/><circle stroke="#000" cx="335.53" cy="-149.88" r="4"/></g><g class="node" transform="translate(4 650.98)"><path fill="#e9f4fb" stroke="#000" d="M189.53-46l-35.19 34.5h70.39L189.53-46z"/><text text-anchor="middle" x="189.53" y="-19.3" font-family="Times,serif" font-size="14">i2</text></g><g class="edge" transform="translate(4 650.98)"><path fill="none" stroke="#000" d="M167.18-24.18C129.36-25.83 53.29-35.14 16.53-82c-31.63-40.32-10.8-104.19 4.99-139.64"/><path stroke="#000" d="M18.4-223.24l7.39-7.6-1.04 10.55-6.35-2.95z"/></g><g class="edge" transform="translate(4 650.98)"><path fill="none" stroke="#000" d="M194.03-41.72c2.85-11.46 6.55-26.72 9.5-40.28 6.94-31.85 9.84-39.67 14-72 2.78-21.58 4.3-46.13 5.11-64.66"/><path stroke="#000" d="M219.15-218.95l3.89-9.85 3.1 10.13-6.99-.28z"/></g><g class="edge" transform="translate(4 650.98)"><path fill="none" stroke="#000" d="M189.53-46.23v-99.37"/><circle stroke="#000" cx="189.53" cy="-149.88" r="4"/></g></g></svg>