<?xml-stylesheet href="spot.css" type="text/css"?><svg width="772" height="244pt" viewBox="0 0 578.51 243.88" xmlns="http://www.w3.org/2000/svg"><g class="graph"><path fill="#fff" stroke="transparent" d="M0 243.88V0h578.51v243.88H0z"/><text x="268.26" y="-223.28" font-family="Lato" font-size="12" transform="translate(4 239.88)">Inf(</text><text x="285.26" y="-223.28" font-family="Lato" font-size="12" fill="#1f78b4" transform="translate(4 239.88)">⓿</text><text x="298.26" y="-223.28" font-family="Lato" font-size="12" transform="translate(4 239.88)">)</text><text x="266.76" y="-211.28" font-family="Lato" font-size="12" transform="translate(4 239.88)">[Büchi]</text><g class="node" transform="translate(4 239.88)"><circle fill="#ffffa0" stroke="#000" cx="56" cy="-107.88" r="18"/><text text-anchor="middle" x="56" y="-104.78" font-family="Lato" font-size="12">2</text></g><g class="edge" transform="translate(4 239.88)"><path fill="none" stroke="#000" d="M1.15-107.88h29.48"/><path stroke="#000" d="M37.94-107.88l-7-3.15 3.5 3.15h-3.5 3.5l-3.5 3.15 7-3.15h0z"/></g><g class="node" transform="translate(4 239.88)"><path fill="#ffffa0" stroke="#000" d="M165.02-159.88l-20.04 18 20.04 18 20.05-18-20.05-18z"/><text text-anchor="middle" x="165.02" y="-138.78" font-family="Lato" font-size="12">7</text></g><g class="edge" transform="translate(4 239.88)"><path fill="none" stroke="#000" d="M73.25-113.04c18.63-5.92 49.2-15.63 69.65-22.13"/><path stroke="#000" d="M149.68-137.32l-7.63-.88 4.29 1.94-3.34 1.06h0l3.34-1.06-2.38 4.06 5.72-5.12h0z"/><text x="92.5" y="-133.28" font-family="Lato" font-size="12">i1 &amp; i2</text></g><g class="node" transform="translate(4 239.88)"><path fill="#ffffa0" stroke="#000" d="M165.02-98.88l-20.04 18 20.04 18 20.05-18-20.05-18z"/><text text-anchor="middle" x="165.02" y="-77.78" font-family="Lato" font-size="12">8</text></g><g class="edge" transform="translate(4 239.88)"><path fill="none" stroke="#000" d="M72.85-101.36c5.94 2.27 12.78 4.7 19.15 6.48 15.98 4.49 34.35 8.04 48.54 10.44"/><path stroke="#000" d="M147.54-83.29l-6.4-4.24 2.95 3.67-3.46-.57h0l3.46.57-3.97 2.54 7.42-1.97h0z"/><text x="92" y="-98.28" font-family="Lato" font-size="12">!i1 | !i2</text></g><g class="node" transform="translate(4 239.88)"><circle fill="#ffffa0" stroke="#000" cx="450.28" cy="-51.88" r="18"/><text text-anchor="middle" x="450.28" y="-48.78" font-family="Lato" font-size="12">0</text></g><g class="node" transform="translate(4 239.88)"><path fill="#ffffa0" stroke="#000" d="M544.4-87.88l-20.05 18 20.05 18 20.04-18-20.04-18z"/><text text-anchor="middle" x="544.4" y="-66.78" font-family="Lato" font-size="12">6</text></g><g class="edge" transform="translate(4 239.88)"><path fill="none" stroke="#000" d="M468.18-55.18c14.68-2.87 36.08-7.05 52.31-10.22"/><path stroke="#000" d="M527.53-66.78l-7.47-1.74 4.04 2.42-3.44.67h0l3.44-.67-2.83 3.76 6.26-4.44h0z"/><text x="489.78" y="-77.28" font-family="Lato" font-size="12">1</text><text x="486.78" y="-64.28" font-family="Lato" font-size="12" fill="#1f78b4">⓿</text></g><g class="edge" transform="translate(4 239.88)"><path fill="none" stroke="#000" d="M536-58.86c-7.58 10.22-20.42 24.77-35.72 30.98-10.51 4.28-21.91-.7-31.07-7.21"/><path stroke="#000" d="M463.55-39.51l3.58 6.79-.82-4.63 2.76 2.15h0l-2.76-2.15 4.7-.33-7.46-1.83h0z"/><text x="486.28" y="-44.28" font-family="Lato" font-size="12">o1</text><text x="486.78" y="-31.28" font-family="Lato" font-size="12" fill="#1f78b4">⓿</text></g><g class="node" transform="translate(4 239.88)"><circle fill="#ffffa0" stroke="#000" cx="256.05" cy="-185.88" r="18"/><text text-anchor="middle" x="256.05" y="-182.78" font-family="Lato" font-size="12">1</text></g><g class="edge" transform="translate(4 239.88)"><path fill="none" stroke="#000" d="M242.69-173.44c-6.31 5.75-14.39 12.25-22.64 16.56-9.58 5.01-21.02 8.49-30.9 10.84"/><path stroke="#000" d="M182.29-144.53l7.51 1.57-4.09-2.33 3.41-.75h0l-3.41.75 2.74-3.82-6.16 4.58h0z"/><text text-anchor="middle" x="211.55" y="-160.28" font-family="Lato" font-size="12">1</text></g><g class="edge" transform="translate(4 239.88)"><path fill="none" stroke="#000" d="M175.75-150.75c7.12-6.09 17.25-13.99 27.3-19.13 8.75-4.48 18.99-7.96 28.06-10.52"/><path stroke="#000" d="M238.08-182.25l-7.58-1.24 4.19 2.14-3.38.9h0l3.38-.9-2.57 3.94 5.96-4.84h0z"/><text x="203.05" y="-179.28" font-family="Lato" font-size="12">!o1</text></g><g class="node" transform="translate(4 239.88)"><circle fill="#ffffa0" stroke="#000" cx="256.05" cy="-126.88" r="18"/><text text-anchor="middle" x="256.05" y="-123.78" font-family="Lato" font-size="12">3</text></g><g class="edge" transform="translate(4 239.88)"><path fill="none" stroke="#000" d="M176.4-134.05c7.09 4.84 16.93 10.61 26.65 13.17 9.15 2.42 19.46 1.88 28.48.38"/><path stroke="#000" d="M238.43-121.86l-7.48-1.74 4.04 2.42-3.43.67h0l3.43-.67-2.82 3.76 6.26-4.44h0z"/><text x="204.55" y="-124.28" font-family="Lato" font-size="12">o1</text></g><g class="edge" transform="translate(4 239.88)"><path fill="none" stroke="#000" d="M184.09-81.98c41.37-2.06 145.93-4.68 230.19 15.1 4.39 1.04 8.93 2.58 13.22 4.3"/><path stroke="#000" d="M434-59.8l-5.2-5.65 1.98 4.27-3.22-1.38h0l3.22 1.38-4.46 1.52 7.68-.14h0z"/><text x="293.55" y="-85.28" font-family="Lato" font-size="12">o1</text></g><g class="node" transform="translate(4 239.88)"><circle fill="#ffffa0" stroke="#000" cx="256.05" cy="-31.88" r="18"/><text text-anchor="middle" x="256.05" y="-28.78" font-family="Lato" font-size="12">5</text></g><g class="edge" transform="translate(4 239.88)"><path fill="none" stroke="#000" d="M175.97-72.65c7.22 5.73 17.38 13.29 27.08 18.77 9.1 5.16 19.66 9.84 28.87 13.55"/><path stroke="#000" d="M238.66-37.69l-5.37-5.49 2.11 4.21-3.26-1.27h0l3.26 1.27-4.41 1.66 7.67-.38h0z"/><text x="203.05" y="-57.28" font-family="Lato" font-size="12">!o1</text></g><g class="node" transform="translate(4 239.88)"><path fill="#ffffa0" stroke="#000" d="M353.16-157.88l-20.04 18 20.04 18 20.05-18-20.05-18z"/><text text-anchor="middle" x="353.16" y="-136.78" font-family="Lato" font-size="12">9</text></g><g class="edge" transform="translate(4 239.88)"><path fill="none" stroke="#000" d="M273.65-131.82c5.77-1.53 12.33-3.08 18.4-4.06 11.16-1.79 23.61-2.78 34.27-3.33"/><path stroke="#000" d="M333.38-139.52l-7.13-2.84 3.63 3-3.49.15h0l3.49-.15-3.36 3.3 6.86-3.46h0z"/><text text-anchor="middle" x="300.55" y="-141.28" font-family="Lato" font-size="12">1</text></g><g class="edge" transform="translate(4 239.88)"><path fill="none" stroke="#000" d="M340.98-132.67c-8.41 4.97-20.41 11.14-31.93 13.79-9.27 2.14-19.61 1.22-28.61-.64"/><path stroke="#000" d="M273.56-121.16l6.08 4.69-2.68-3.87 3.41.81h0l-3.41-.81 4.14-2.26-7.54 1.44h0z"/><text x="293.55" y="-122.28" font-family="Lato" font-size="12">o1</text></g><g class="node" transform="translate(4 239.88)"><circle fill="#ffffa0" stroke="#000" cx="450.28" cy="-139.88" r="18"/><text text-anchor="middle" x="450.28" y="-136.78" font-family="Lato" font-size="12">4</text></g><g class="edge" transform="translate(4 239.88)"><path fill="none" stroke="#000" d="M373.41-139.88h51.14"/><path stroke="#000" d="M431.98-139.88l-7-3.15 3.5 3.15h-3.5 3.5l-3.5 3.15 7-3.15h0z"/><text x="397.28" y="-143.28" font-family="Lato" font-size="12">!o1</text></g><g class="node" transform="translate(4 239.88)"><path fill="#ffffa0" stroke="#000" d="M544.4-163.88l-26.24 18 26.24 18 26.23-18-26.23-18z"/><text text-anchor="middle" x="544.4" y="-142.78" font-family="Lato" font-size="12">10</text></g><g class="edge" transform="translate(4 239.88)"><path fill="none" stroke="#000" d="M465.19-150.04c6.14-3.89 13.65-7.86 21.09-9.84 11.82-3.13 25.08-.27 35.85 3.66"/><path stroke="#000" d="M528.8-153.53l-5.31-5.54 2.07 4.23-3.25-1.3h0l3.25 1.3-4.43 1.62 7.67-.31h0z"/><text x="489.78" y="-177.28" font-family="Lato" font-size="12">1</text><text x="486.78" y="-164.28" font-family="Lato" font-size="12" fill="#1f78b4">⓿</text></g><g class="edge" transform="translate(4 239.88)"><path fill="none" stroke="#000" d="M528.21-138.73c-8.1 3.42-18.34 7.13-27.93 8.85-8.5 1.53-17.8.36-25.99-1.64"/><path stroke="#000" d="M467.13-133.54l5.88 4.93-2.51-3.98 3.37.95h0l-3.37-.95 4.23-2.08-7.6 1.13h0z"/><text x="489.78" y="-146.28" font-family="Lato" font-size="12">1</text><text x="486.78" y="-133.28" font-family="Lato" font-size="12" fill="#1f78b4">⓿</text></g><g class="node" transform="translate(4 239.88)"><path fill="#ffffa0" stroke="#000" d="M353.16-49.88l-26.23 18 26.23 18 26.24-18-26.24-18z"/><text text-anchor="middle" x="353.16" y="-28.78" font-family="Lato" font-size="12">11</text></g><g class="edge" transform="translate(4 239.88)"><path fill="none" stroke="#000" d="M274.05-31.88h45.38"/><path stroke="#000" d="M326.71-31.88l-7-3.15 3.5 3.15h-3.5 3.5l-3.5 3.15 7-3.15h0z"/><text x="297.05" y="-48.28" font-family="Lato" font-size="12">1</text><text x="294.05" y="-35.28" font-family="Lato" font-size="12" fill="#1f78b4">⓿</text></g><g class="edge" transform="translate(4 239.88)"><path fill="none" stroke="#000" d="M376.02-34.32c11.47-1.48 25.71-3.66 38.26-6.56 3.88-.89 7.95-2 11.89-3.18"/><path stroke="#000" d="M433.04-46.19l-7.62-.93 4.28 1.97-3.34 1.04h0l3.34-1.04-2.4 4.04 5.74-5.08h0z"/><text x="398.78" y="-57.28" font-family="Lato" font-size="12">o1</text><text x="399.28" y="-44.28" font-family="Lato" font-size="12" fill="#1f78b4">⓿</text></g><g class="edge" transform="translate(4 239.88)"><path fill="none" stroke="#000" d="M341.48-21.63c-8.16 7.07-20.08 15.88-32.43 19.75-7.21 2.27-9.92 2.63-17 0-6.87-2.54-13.3-7.09-18.73-11.9"/><path stroke="#000" d="M268.25-18.61l2.9 7.11-.37-4.69 2.54 2.41h0l-2.54-2.41 4.71.13-7.24-2.55h0z"/><text x="292.05" y="-18.28" font-family="Lato" font-size="12">!o1</text><text x="294.05" y="-5.28" font-family="Lato" font-size="12" fill="#1f78b4">⓿</text></g></g></svg>