<?xml-stylesheet href="spot.css" type="text/css"?><svg width="356" height="194pt" viewBox="0 0 267 194" xmlns="http://www.w3.org/2000/svg"><g class="graph" transform="translate(4 190)"><path fill="#fff" stroke="transparent" d="M-4 4v-194h267V4H-4z"/><text x="127.5" y="-172.4" font-family="Lato" font-size="12">t</text><text x="120" y="-159.4" font-family="Lato" font-size="12">[all]</text><g class="node"><circle fill="#ffffa0" stroke="#000" cx="56" cy="-76" r="18"/><text text-anchor="middle" x="56" y="-72.9" font-family="Lato" font-size="12">1</text></g><g class="edge"><path fill="none" stroke="#000" d="M1.15-76h29.48"/><path stroke="#000" d="M37.94-76l-7-3.15 3.5 3.15h-3.5 3.5l-3.5 3.15 7-3.15h0z"/></g><g class="node"><circle fill="#ffffa0" stroke="#000" cx="138" cy="-103" r="18"/><text text-anchor="middle" x="138" y="-99.9" font-family="Lato" font-size="12">3</text></g><g class="edge"><path fill="none" stroke="#000" d="M73.19-81.46c11.71-3.96 27.7-9.35 40.75-13.76"/><path stroke="#000" d="M120.83-97.54l-7.63-.75 4.32 1.86-3.32 1.12h0l3.32-1.12-2.31 4.11 5.62-5.22h0z"/><text x="92" y="-94.4" font-family="Lato" font-size="12">!c</text></g><g class="node"><circle fill="#ffffa0" stroke="#000" cx="138" cy="-49" r="18"/><text text-anchor="middle" x="138" y="-45.9" font-family="Lato" font-size="12">4</text></g><g class="edge"><path fill="none" stroke="#000" d="M73.19-70.54c11.71 3.96 27.7 9.35 40.75 13.76"/><path stroke="#000" d="M120.83-54.46l-5.62-5.22 2.31 4.11-3.32-1.12h0l3.32 1.12-4.32 1.86 7.63-.75h0z"/><text x="93.5" y="-67.4" font-family="Lato" font-size="12">c</text></g><g class="node"><circle fill="#ffffa0" stroke="#000" cx="241" cy="-18" r="18"/><text text-anchor="middle" x="241" y="-14.9" font-family="Lato" font-size="12">0</text></g><g class="edge"><path fill="none" stroke="#000" d="M232.37-33.92C230.11-44.15 232.99-54 241-54c6.13 0 9.25 5.77 9.37 13.07"/><path stroke="#000" d="M249.63-33.92l3.87-6.63-3.5 3.15.37-3.48h0L250-37.4l-2.77-3.81 2.4 7.29h0z"/><text x="237.5" y="-57.4" font-family="Lato" font-size="12">c</text></g><g class="node"><circle fill="#ffffa0" stroke="#000" cx="241" cy="-103" r="18"/><text text-anchor="middle" x="241" y="-99.9" font-family="Lato" font-size="12">2</text></g><g class="edge"><path fill="none" stroke="#000" d="M156.13-103h59.21"/><path stroke="#000" d="M222.78-103l-7-3.15 3.5 3.15h-3.5 3.5l-3.5 3.15 7-3.15h0z"/><text x="186" y="-106.4" font-family="Lato" font-size="12">a</text></g><g class="edge"><path fill="none" stroke="#000" d="M153.43-39.22c6.11 3.73 13.45 7.68 20.57 10.22 13.36 4.76 28.98 7.48 41.67 9.02"/><path stroke="#000" d="M222.76-19.2l-6.61-3.89 3.14 3.51-3.48-.38h0l3.48.38-3.83 2.75 7.3-2.37h0z"/><text x="174" y="-32.4" font-family="Lato" font-size="12">!a &amp; c</text></g><g class="edge"><path fill="none" stroke="#000" d="M154.34-57.2l64.33-34.4"/><path stroke="#000" d="M224.85-94.9l-7.66.52 4.57 1.13-3.09 1.65h0l3.09-1.65-1.6 4.43 4.69-6.08h0z"/><text x="186" y="-86.4" font-family="Lato" font-size="12">a</text></g><g class="edge"><path fill="none" stroke="#000" d="M232.37-118.92c-2.26-10.23.62-20.08 8.63-20.08 6.13 0 9.25 5.77 9.37 13.07"/><path stroke="#000" d="M249.63-118.92l3.87-6.63-3.5 3.15.37-3.48h0l-.37 3.48-2.77-3.81 2.4 7.29h0z"/><text text-anchor="middle" x="241" y="-142.4" font-family="Lato" font-size="12">1</text></g></g></svg>