<?xml-stylesheet href="spot.css" type="text/css"?><svg width="320" height="194pt" viewBox="0 0 240 194" xmlns="http://www.w3.org/2000/svg"><g class="graph" transform="translate(4 190)"><path fill="#fff" stroke="transparent" d="M-4 4v-194h240V4H-4z"/><text x="114" y="-172.4" font-family="Lato" font-size="12">t</text><text x="106.5" y="-159.4" font-family="Lato" font-size="12">[all]</text><g class="node"><circle fill="#ffffa0" stroke="#000" cx="56" cy="-60" r="18"/><text text-anchor="middle" x="56" y="-56.9" font-family="Lato" font-size="12">0</text></g><g class="edge"><path fill="none" stroke="#000" d="M1.15-60h29.48"/><path stroke="#000" d="M37.94-60l-7-3.15 3.5 3.15h-3.5 3.5l-3.5 3.15 7-3.15h0z"/></g><g class="node"><circle fill="#ffffa0" stroke="#000" cx="135" cy="-103" r="18"/><text text-anchor="middle" x="135" y="-99.9" font-family="Lato" font-size="12">1</text></g><g class="edge"><path fill="none" stroke="#000" d="M72.21-68.5c11.5-6.41 27.43-15.31 40.24-22.46"/><path stroke="#000" d="M118.82-94.52l-7.65.66 4.59 1.04-3.05 1.71h0l3.05-1.71-1.52 4.46 4.58-6.16h0z"/><text text-anchor="middle" x="95.5" y="-86.4" font-family="Lato" font-size="12">1</text></g><g class="node"><circle fill="#ffffa0" stroke="#000" cx="135" cy="-18" r="18"/><text text-anchor="middle" x="135" y="-14.9" font-family="Lato" font-size="12">2</text></g><g class="edge"><path fill="none" stroke="#000" d="M72.21-51.7c11.5 6.27 27.43 14.96 40.24 21.94"/><path stroke="#000" d="M118.82-26.28l-4.64-6.12 1.57 4.44-3.08-1.67h0l3.08 1.67-4.58 1.09 7.65.59h0z"/><text x="92" y="-44.4" font-family="Lato" font-size="12">c</text></g><g class="node"><circle fill="#ffffa0" stroke="#000" cx="214" cy="-103" r="18"/><text text-anchor="middle" x="214" y="-99.9" font-family="Lato" font-size="12">3</text></g><g class="edge"><path fill="none" stroke="#000" d="M153.09-103h35.6"/><path stroke="#000" d="M195.96-103l-7-3.15 3.5 3.15h-3.5 3.5l-3.5 3.15 7-3.15h0z"/><text x="171" y="-106.4" font-family="Lato" font-size="12">a</text></g><g class="edge"><path fill="none" stroke="#000" d="M128.27-35.04C126.89-44.86 129.14-54 135-54c4.4 0 6.76 5.14 7.09 11.86"/><path stroke="#000" d="M141.73-35.04l3.5-6.83-3.32 3.34.17-3.5h0l-.17 3.5-2.98-3.65 2.8 7.14h0z"/><text x="131.5" y="-57.4" font-family="Lato" font-size="12">c</text></g><g class="edge"><path fill="none" stroke="#000" d="M207.27-120.04c-1.38-9.82.87-18.96 6.73-18.96 4.4 0 6.76 5.14 7.09 11.86"/><path stroke="#000" d="M220.73-120.04l3.5-6.83-3.32 3.34.17-3.5h0l-.17 3.5-2.98-3.65 2.8 7.14h0z"/><text text-anchor="middle" x="214" y="-142.4" font-family="Lato" font-size="12">1</text></g></g></svg>