<?xml-stylesheet href="spot.css" type="text/css"?><svg width="373pt" height="253pt" viewBox="0 0 373 253.46" xmlns="http://www.w3.org/2000/svg"><g class="graph" transform="translate(4 249.46)"><path fill="#fff" stroke="transparent" d="M-4 4v-253.46h373V4H-4z"/><text x="164" y="-231.86" font-family="Lato" font-size="12">[Büchi]</text><g class="node"><circle fill="#ffffa0" stroke="#000" cx="60" cy="-98.46" r="18"/><circle fill="none" stroke="#000" cx="60" cy="-98.46" r="22"/><text text-anchor="middle" x="60" y="-95.36" font-family="Lato" font-size="12">1</text></g><g class="edge"><path fill="none" stroke="#000" d="M1.17-98.46h29.54"/><path stroke="#000" d="M37.86-98.46l-7-3.15 3.5 3.15h-3.5 3.5l-3.5 3.15 7-3.15h0z"/></g><g class="node"><circle fill="#ffffa0" stroke="#000" cx="150" cy="-141.46" r="18"/><circle fill="none" stroke="#000" cx="150" cy="-141.46" r="22"/><text text-anchor="middle" x="150" y="-138.36" font-family="Lato" font-size="12">3</text></g><g class="edge"><path fill="none" stroke="#000" d="M80.09-107.79c12.69-6.19 29.49-14.41 43.33-21.17"/><path stroke="#000" d="M129.94-132.14l-7.67.24 4.53 1.29-3.15 1.54h0l3.15-1.54-1.76 4.37 4.9-5.9h0z"/><text x="100" y="-123.86" font-family="Lato" font-size="12">!c</text></g><g class="node"><circle fill="#ffffa0" stroke="#000" cx="150" cy="-67.46" r="18"/><circle fill="none" stroke="#000" cx="150" cy="-67.46" r="22"/><text text-anchor="middle" x="150" y="-64.36" font-family="Lato" font-size="12">4</text></g><g class="edge"><path fill="none" stroke="#000" d="M80.97-91.42c12.26 4.32 28.12 9.9 41.44 14.6"/><path stroke="#000" d="M129.11-74.46l-5.56-5.3 2.26 4.13-3.3-1.16h0l3.3 1.16-4.35 1.81 7.65-.64h0z"/><text x="101.5" y="-86.86" font-family="Lato" font-size="12">c</text></g><g class="node"><circle fill="#ffffa0" stroke="#000" cx="261" cy="-48.46" r="18"/><circle fill="none" stroke="#000" cx="261" cy="-48.46" r="22"/><text text-anchor="middle" x="261" y="-45.36" font-family="Lato" font-size="12">0</text></g><g class="edge"><path fill="none" stroke="#000" d="M252.99-69.04c-1.1-10.26 1.56-19.42 8.01-19.42 4.83 0 7.54 5.15 8.13 12.06"/><path stroke="#000" d="M269.01-69.04l3.26-6.94-3.21 3.44.06-3.5h0l-.06 3.5-3.09-3.55 3.04 7.05h0z"/><text x="257.5" y="-91.86" font-family="Lato" font-size="12">c</text></g><g class="node"><circle fill="#ffffa0" stroke="#000" cx="347" cy="-48.46" r="18"/><text text-anchor="middle" x="347" y="-45.36" font-family="Lato" font-size="12">5</text></g><g class="edge"><path fill="none" stroke="#000" d="M283.2-48.46h38.36"/><path stroke="#000" d="M328.77-48.46l-7-3.15 3.5 3.15h-3.5 3.5l-3.5 3.15 7-3.15h0z"/><text x="301" y="-51.86" font-family="Lato" font-size="12">!c</text></g><g class="edge"><path fill="none" stroke="#000" d="M339.97-65.12c-1.56-9.96.78-19.34 7.03-19.34 4.69 0 7.18 5.28 7.47 12.12"/><path stroke="#000" d="M354.03-65.12l3.57-6.8-3.36 3.31.22-3.5h0l-.22 3.5-2.93-3.69 2.72 7.18h0z"/><text text-anchor="middle" x="347" y="-87.86" font-family="Lato" font-size="12">1</text></g><g class="edge"><path fill="none" stroke="#000" d="M165.23-157.46c25.04-26.19 78.07-72.71 117.77-46 43.31 29.15 56.86 93.76 61.09 129.68"/><path stroke="#000" d="M344.86-66.57l2.39-7.3-2.76 3.82-.38-3.48h0l.38 3.48-3.51-3.15 3.88 6.63h0z"/><text x="256" y="-214.86" font-family="Lato" font-size="12">!a</text></g><g class="node"><circle fill="#ffffa0" stroke="#000" cx="261" cy="-141.46" r="18"/><circle fill="none" stroke="#000" cx="261" cy="-141.46" r="22"/><text text-anchor="middle" x="261" y="-138.36" font-family="Lato" font-size="12">2</text></g><g class="edge"><path fill="none" stroke="#000" d="M172.02-141.46h59.54"/><path stroke="#000" d="M238.68-141.46l-7-3.15 3.5 3.15h-3.5 3.5l-3.5 3.15 7-3.15h0z"/><text x="202" y="-144.86" font-family="Lato" font-size="12">a</text></g><g class="edge"><path fill="none" stroke="#000" d="M171.76-63.84c17.01 2.97 41.26 7.19 60.03 10.47"/><path stroke="#000" d="M238.95-52.13l-6.36-4.3 2.91 3.7-3.45-.6h0l3.45.6-3.99 2.51 7.44-1.91h0z"/><text x="190" y="-63.86" font-family="Lato" font-size="12">!a &amp; c</text></g><g class="edge"><path fill="none" stroke="#000" d="M166.16-51.98C182.48-36.52 210.02-13.76 239-4.46c18.62 5.98 25.35 5.87 44 0 16.84-5.3 33.11-16.87 44.89-26.82"/><path stroke="#000" d="M333.3-36l-7.35 2.23 4.71.07-2.63 2.3h0l2.63-2.3-.56 4.67 3.2-6.97h0z"/><text x="244" y="-7.86" font-family="Lato" font-size="12">!a &amp; !c</text></g><g class="edge"><path fill="none" stroke="#000" d="M168.51-79.35c18.33-12.44 47.21-32.05 67.62-45.9"/><path stroke="#000" d="M242.17-129.35l-7.56 1.33 4.66.64-2.89 1.96h0l2.89-1.96-1.12 4.57 4.02-6.54h0z"/><text x="202" y="-115.86" font-family="Lato" font-size="12">a</text></g><g class="edge"><path fill="none" stroke="#000" d="M252.99-162.04c-1.1-10.26 1.56-19.42 8.01-19.42 4.83 0 7.54 5.15 8.13 12.06"/><path stroke="#000" d="M269.01-162.04l3.26-6.94-3.21 3.44.06-3.5h0l-.06 3.5-3.09-3.55 3.04 7.05h0z"/><text text-anchor="middle" x="261" y="-184.86" font-family="Lato" font-size="12">1</text></g></g></svg>