<svg width="401pt" height="268pt" viewBox="0 0 401 268" xmlns="http://www.w3.org/2000/svg"><g class="graph" transform="translate(4 264)"><path fill="#fff" stroke="transparent" d="M-4 4v-268h401V4H-4z"/><text text-anchor="middle" x="196.5" y="-244.8" font-family="Times,serif" font-size="14">Inf(0)</text><text text-anchor="middle" x="196.5" y="-229.8" font-family="Times,serif" font-size="14">[Büchi]</text><g class="node"><circle fill="none" stroke="#000" cx="56" cy="-127" r="18"/><text text-anchor="middle" x="56" y="-123.3" font-family="Times,serif" font-size="14">0</text></g><g class="edge"><path fill="none" stroke="#000" d="M1.15-127h26.48"/><path stroke="#000" d="M27.94-130.5l10 3.5-10 3.5v-7z"/></g><g class="edge"><path fill="none" stroke="#000" d="M49.62-144.04c-1.3-9.82.83-18.96 6.38-18.96 3.47 0 5.6 3.57 6.4 8.65"/><path stroke="#000" d="M65.9-154.03l-3.52 9.99-3.48-10 7 .01z"/><text text-anchor="middle" x="56" y="-181.8" font-family="Times,serif" font-size="14">!a &amp; !c</text><text text-anchor="middle" x="56" y="-166.8" font-family="Times,serif" font-size="14">{0}</text></g><g class="node"><circle fill="none" stroke="#000" cx="375" cy="-156" r="18"/><text text-anchor="middle" x="375" y="-152.3" font-family="Times,serif" font-size="14">1</text></g><g class="edge"><path fill="none" stroke="#000" d="M70.31-138.42C76.59-143.39 84.36-148.98 92-153c32.84-17.27 42.4-20.92 79-27 63.04-10.48 137.83 5.66 176.66 16.15"/><path stroke="#000" d="M348.92-167.13l8.69 6.07-10.57.68 1.88-6.75z"/><text text-anchor="middle" x="240.5" y="-186.8" font-family="Times,serif" font-size="14">c</text></g><g class="node"><circle fill="none" stroke="#000" cx="189" cy="-120" r="18"/><text text-anchor="middle" x="189" y="-116.3" font-family="Times,serif" font-size="14">2</text></g><g class="edge"><path fill="none" stroke="#000" d="M73.77-130.05c19.26-3.01 51.74-6.53 79.23-1.95 3.13.52 6.36 1.29 9.52 2.19"/><path stroke="#000" d="M163.84-133.07l8.42 6.44-10.59.22 2.17-6.66z"/><text text-anchor="middle" x="122.5" y="-137.8" font-family="Times,serif" font-size="14">a &amp; !c</text></g><g class="node"><circle fill="none" stroke="#000" cx="189" cy="-18" r="18"/><text text-anchor="middle" x="189" y="-14.3" font-family="Times,serif" font-size="14">3</text></g><g class="edge"><path fill="none" stroke="#000" d="M64.44-111.06C70.57-99.21 80.17-83.21 92-72c20.64 19.55 49.69 34.6 70.41 43.79"/><path stroke="#000" d="M164.03-31.32l7.81 7.15-10.57-.72 2.76-6.43z"/><text text-anchor="middle" x="122.5" y="-75.8" font-family="Times,serif" font-size="14">a &amp; b &amp; !c</text></g><g class="edge"><path fill="none" stroke="#000" d="M367.97-172.66c-1.56-9.96.78-19.34 7.03-19.34 4 0 6.4 3.85 7.2 9.23"/><path stroke="#000" d="M385.7-182.6l-3.67 9.94-3.33-10.06 7 .12z"/><text text-anchor="middle" x="375" y="-210.8" font-family="Times,serif" font-size="14">1</text><text text-anchor="middle" x="375" y="-195.8" font-family="Times,serif" font-size="14">{0}</text></g><g class="edge"><path fill="none" stroke="#000" d="M174.57-109.06c-6.18 4.34-13.85 8.83-21.57 11.06-26.05 7.51-35.5 9.19-61 0-5.57-2.01-10.88-5.33-15.6-9.02"/><path stroke="#000" d="M73.81-104.64l-5.21-9.22 9.82 3.96-4.61 5.26z"/><text text-anchor="middle" x="122.5" y="-116.8" font-family="Times,serif" font-size="14">!a &amp; !c</text><text text-anchor="middle" x="122.5" y="-101.8" font-family="Times,serif" font-size="14">{0}</text></g><g class="edge"><path fill="none" stroke="#000" d="M206.98-123.32c32.04-6.27 101.64-19.89 140.11-27.42"/><path stroke="#000" d="M346.57-154.2l10.49 1.51-9.14 5.36-1.35-6.87z"/><text text-anchor="middle" x="292" y="-146.8" font-family="Times,serif" font-size="14">!a &amp; c</text></g><g class="edge"><path fill="none" stroke="#000" d="M180.37-135.92c-2.26-10.23.62-20.08 8.63-20.08 5.26 0 8.3 4.24 9.14 10.05"/><path stroke="#000" d="M201.63-145.73l-4 9.81-2.99-10.16 6.99.35z"/><text text-anchor="middle" x="189" y="-159.8" font-family="Times,serif" font-size="14">a &amp; !c</text></g><g class="node"><circle fill="none" stroke="#000" cx="292" cy="-69" r="18"/><text text-anchor="middle" x="292" y="-65.3" font-family="Times,serif" font-size="14">4</text></g><g class="edge"><path fill="none" stroke="#000" d="M205.34-112.25c16.24 8.2 42.11 21.26 61.17 30.89"/><path stroke="#000" d="M268.17-84.45l7.35 7.63-10.51-1.38 3.16-6.25z"/><text text-anchor="middle" x="240.5" y="-105.8" font-family="Times,serif" font-size="14">a &amp; c</text></g><g class="edge"><path fill="none" stroke="#000" d="M180.37-33.92C178.11-44.15 180.99-54 189-54c5.26 0 8.3 4.24 9.14 10.05"/><path stroke="#000" d="M201.63-43.73l-4 9.81-2.99-10.16 6.99.35z"/><text text-anchor="middle" x="189" y="-72.8" font-family="Times,serif" font-size="14">b</text><text text-anchor="middle" x="189" y="-57.8" font-family="Times,serif" font-size="14">{0}</text></g><g class="edge"><path fill="none" stroke="#000" d="M304.95-81.84c13.16-14.13 34.51-37.06 49.98-53.68"/><path stroke="#000" d="M352.62-138.18l9.38-4.93-4.25 9.7-5.13-4.77z"/><text text-anchor="middle" x="333.5" y="-120.8" font-family="Times,serif" font-size="14">!a</text></g><g class="edge"><path fill="none" stroke="#000" d="M284.97-85.66c-1.56-9.96.78-19.34 7.03-19.34 4 0 6.4 3.85 7.2 9.23"/><path stroke="#000" d="M302.7-95.6l-3.67 9.94-3.33-10.06 7 .12z"/><text text-anchor="middle" x="292" y="-108.8" font-family="Times,serif" font-size="14">a</text></g></g></svg>