<svg width="275pt" height="427pt" viewBox="0 0 275 427" xmlns="http://www.w3.org/2000/svg"><g class="graph" transform="translate(4 423)"><path fill="#fff" stroke="transparent" d="M-4 4v-427h275V4H-4z"/><text text-anchor="middle" x="133.5" y="-403.8" font-family="Times,serif" font-size="14">(Gb | F!a) W c</text><text text-anchor="middle" x="133.5" y="-388.8" font-family="Times,serif" font-size="14">Inf(0)</text><text text-anchor="middle" x="133.5" y="-373.8" font-family="Times,serif" font-size="14">[Büchi]</text><g class="cluster"><path fill="none" stroke="green" d="M51-8v-52h91v52H51z"/></g><g class="cluster"><path fill="none" stroke="red" d="M51-95v-52h77v52H51z"/></g><g class="cluster"><path fill="none" stroke="green" d="M168-182v-52h91v52h-91z"/></g><g class="cluster"><path fill="none" stroke="green" d="M8-182v-154h133v154H8z"/></g><g class="node"><circle fill="none" stroke="#000" cx="57" cy="-310" r="18"/><text text-anchor="middle" x="57" y="-306.3" font-family="Times,serif" font-size="14">0</text></g><g class="edge"><path fill="none" stroke="#000" d="M57-364.85v26.48"/><path stroke="#000" d="M60.5-338.06l-3.5 10-3.5-10h7z"/></g><g class="edge"><path fill="none" stroke="#000" d="M74.04-316.38c9.82-1.3 18.96.83 18.96 6.38 0 3.47-3.57 5.6-8.65 6.4"/><path stroke="#000" d="M84.03-300.1l-9.99-3.52 10-3.48-.01 7z"/><text text-anchor="middle" x="113" y="-313.8" font-family="Times,serif" font-size="14">!a &amp; !c</text><text text-anchor="middle" x="113" y="-298.8" font-family="Times,serif" font-size="14">{0}</text></g><g class="node"><circle fill="none" stroke="#000" cx="77" cy="-34" r="18"/><text text-anchor="middle" x="77" y="-30.3" font-family="Times,serif" font-size="14">1</text></g><g class="edge"><path fill="none" stroke="#000" d="M73.96-303.85c13.98 5.18 33.06 14.62 43.04 29.85 31.15 47.54 11.66 70.26 15 127 1.36 23.07 8.38 30.46 0 52-6.68 17.18-20.83 32.43-33.11 43.25"/><path stroke="#000" d="M101.11-49.04L91.2-45.3l5.41-9.1 4.5 5.36z"/><text text-anchor="middle" x="134.5" y="-160.8" font-family="Times,serif" font-size="14">c</text></g><g class="node"><circle fill="none" stroke="#000" cx="194" cy="-208" r="18"/><text text-anchor="middle" x="194" y="-204.3" font-family="Times,serif" font-size="14">3</text></g><g class="edge"><path fill="none" stroke="#000" d="M75.06-307.24c22.75 3.08 61.89 11.38 86.94 33.24 11.63 10.15 19.46 25.5 24.47 38.74"/><path stroke="#000" d="M189.82-236.26l-.06 10.59-6.56-8.32 6.62-2.27z"/><text text-anchor="middle" x="212.5" y="-255.3" font-family="Times,serif" font-size="14">a &amp; b &amp; !c</text></g><g class="node"><circle fill="none" stroke="#000" cx="39" cy="-208" r="18"/><text text-anchor="middle" x="39" y="-204.3" font-family="Times,serif" font-size="14">2</text></g><g class="edge"><path fill="none" stroke="#000" d="M46.06-295.57C41.72-289.39 37.23-281.72 35-274c-3.52 12.23-3.18 26.27-1.68 38.16"/><path stroke="#000" d="M36.83-236.06l-1.89 10.43-5.02-9.33 6.91-1.1z"/><text text-anchor="middle" x="53" y="-255.3" font-family="Times,serif" font-size="14">a &amp; !c</text></g><g class="edge"><path fill="none" stroke="#000" d="M93.66-41.38c9.96-1.64 19.34.82 19.34 7.38 0 4.2-3.85 6.72-9.23 7.56"/><path stroke="#000" d="M103.6-22.94l-9.94-3.68 10.06-3.32-.12 7z"/><text text-anchor="middle" x="123.5" y="-37.8" font-family="Times,serif" font-size="14">1</text><text text-anchor="middle" x="123.5" y="-22.8" font-family="Times,serif" font-size="14">{0}</text></g><g class="node"><circle fill="none" stroke="#000" cx="77" cy="-121" r="18"/><text text-anchor="middle" x="77" y="-117.3" font-family="Times,serif" font-size="14">4</text></g><g class="edge"><path fill="none" stroke="#000" d="M77-102.8v40.56"/><path stroke="#000" d="M80.5-62.18l-3.5 10-3.5-10h7z"/><text text-anchor="middle" x="82.5" y="-73.8" font-family="Times,serif" font-size="14">!a</text></g><g class="edge"><path fill="none" stroke="#000" d="M93.66-128.38c9.96-1.64 19.34.82 19.34 7.38 0 4.2-3.85 6.72-9.23 7.56"/><path stroke="#000" d="M103.6-109.94l-9.94-3.68 10.06-3.32-.12 7z"/><text text-anchor="middle" x="116.5" y="-117.3" font-family="Times,serif" font-size="14">a</text></g><g class="edge"><path fill="none" stroke="#000" d="M210.66-215.38c9.96-1.64 19.34.82 19.34 7.38 0 4.2-3.85 6.72-9.23 7.56"/><path stroke="#000" d="M220.6-196.94l-9.94-3.68 10.06-3.32-.12 7z"/><text text-anchor="middle" x="240.5" y="-211.8" font-family="Times,serif" font-size="14">b</text><text text-anchor="middle" x="240.5" y="-196.8" font-family="Times,serif" font-size="14">{0}</text></g><g class="edge"><path fill="none" stroke="#000" d="M52.8-219.73c6.88-6.24 14.51-14.75 18.2-24.27 5.04-12.99 2.22-28.19-2.18-40.62"/><path stroke="#000" d="M65.57-283.31l-.49-10.59 6.98 7.97-6.49 2.62z"/><text text-anchor="middle" x="93" y="-262.8" font-family="Times,serif" font-size="14">!a &amp; !c</text><text text-anchor="middle" x="93" y="-247.8" font-family="Times,serif" font-size="14">{0}</text></g><g class="edge"><path fill="none" stroke="#000" d="M29.42-192.34C16.4-170.43-3.68-128.18 11-95c8.59 19.41 26.91 35.24 42.07 45.76"/><path stroke="#000" d="M55.1-52.1l6.44 8.42-10.28-2.57 3.84-5.85z"/><text text-anchor="middle" x="29" y="-117.3" font-family="Times,serif" font-size="14">!a &amp; c</text></g><g class="edge"><path fill="none" stroke="#000" d="M46.15-191.01c5.55 12.42 13.36 29.88 19.73 44.13"/><path stroke="#000" d="M69.13-148.19l.88 10.56-7.27-7.7 6.39-2.86z"/><text text-anchor="middle" x="75.5" y="-160.8" font-family="Times,serif" font-size="14">a &amp; c</text></g><g class="edge"><path fill="none" stroke="#000" d="M55.66-215.38c9.96-1.64 19.34.82 19.34 7.38 0 4.2-3.85 6.72-9.23 7.56"/><path stroke="#000" d="M65.6-196.94l-9.94-3.68 10.06-3.32-.12 7z"/><text text-anchor="middle" x="93" y="-204.3" font-family="Times,serif" font-size="14">a &amp; !c</text></g></g></svg>