<?xml-stylesheet href="spot.css" type="text/css"?><svg width="324" height="151pt" viewBox="0 0 243 151" xmlns="http://www.w3.org/2000/svg" xmlns:xlink="http://www.w3.org/1999/xlink"><g id="iddemo" class="graph" transform="translate(4 147)"><path fill="#fff" stroke="transparent" d="M-4 4v-151h243V4H-4z"/><text x="21.5" y="-130.4" font-family="Lato" font-size="12">(Inf(</text><text x="42.5" y="-130.4" font-family="Lato" font-size="12" fill="#1f78b4">⓿</text><text x="55.5" y="-130.4" font-family="Lato" font-size="12">)&amp;Inf(</text><text x="84.5" y="-130.4" font-family="Lato" font-size="12" fill="#ff4da0">❶</text><text x="97.5" y="-130.4" font-family="Lato" font-size="12">)) | (Fin(</text><text x="139.5" y="-130.4" font-family="Lato" font-size="12" fill="#1f78b4">⓿</text><text x="152.5" y="-130.4" font-family="Lato" font-size="12">) &amp; Fin(</text><text x="192.5" y="-130.4" font-family="Lato" font-size="12" fill="#ff4da0">❶</text><text x="205.5" y="-130.4" font-family="Lato" font-size="12">))</text><g id="S0" class="node"><circle fill="#ffffa0" stroke="#000" cx="56" cy="-18" r="18"/><text text-anchor="middle" x="56" y="-14.9" font-family="Lato" font-size="12">0</text></g><g id="iddemo_edge1" class="edge"><path fill="none" stroke="#000" d="M1.15-18h29.48"/><path stroke="#000" d="M37.94-18l-7-3.15 3.5 3.15h-3.5 3.5l-3.5 3.15 7-3.15h0z"/></g><g id="S1" class="node"><circle fill="#ffffa0" stroke="#000" cx="135" cy="-18" r="18"/><text text-anchor="middle" x="135" y="-14.9" font-family="Lato" font-size="12">1</text></g><g id="E1" class="edge"><a xlink:title="0-&gt;1 #1" id="a_E1"><path fill="none" stroke="#000" d="M74.09-18h35.6"/><path stroke="#000" d="M116.96-18l-7-3.15 3.5 3.15h-3.5 3.5l-3.5 3.15 7-3.15h0z"/></a><text text-anchor="middle" x="95.5" y="-21.4" font-family="Lato" font-size="12">1</text></g><g id="E2" class="edge"><a xlink:title="1-&gt;1 #2" id="a_E2"><path fill="none" stroke="#000" d="M131.58-35.78C131-45.31 132.14-54 135-54c2.1 0 3.27 4.68 3.51 10.95"/><path stroke="#000" d="M138.42-35.78l3.24-6.96-3.2 3.46.05-3.5h0l-.05 3.5-3.1-3.54 3.06 7.04h0z"/></a><text x="119.5" y="-70.4" font-family="Lato" font-size="12">!a &amp; b</text><text x="128.5" y="-57.4" font-family="Lato" font-size="12" fill="#1f78b4">⓿</text></g><g id="E3" class="edge"><a xlink:title="1-&gt;1 #3" id="a_E3"><path fill="none" stroke="#000" d="M129.66-35.28C126.09-55.25 127.88-80 135-80c6.29 0 8.42 19.29 6.38 37.55"/><path stroke="#000" d="M140.34-35.28l4.12-6.48-3.62 3.01.5-3.46h0l-.5 3.46-2.62-3.91 2.12 7.38h0z"/></a><text x="121" y="-95.4" font-family="Lato" font-size="12">a &amp; b</text><text x="122" y="-83.4" font-family="Lato" font-size="12" fill="#1f78b4">⓿</text><text x="135" y="-83.4" font-family="Lato" font-size="12" fill="#ff4da0">❶</text></g><g id="S2" class="node"><circle fill="#ffffa0" stroke="#000" cx="217" cy="-18" r="18"/><text text-anchor="middle" x="217" y="-14.9" font-family="Lato" font-size="12">2</text></g><g id="E4" class="edge"><a xlink:title="1-&gt;2 #4" id="a_E4"><path fill="none" stroke="#000" d="M153.36-18h38.25"/><path stroke="#000" d="M198.95-18l-7-3.15 3.5 3.15h-3.5 3.5l-3.5 3.15 7-3.15h0z"/></a><text x="171" y="-21.4" font-family="Lato" font-size="12">!b</text></g><g id="E5" class="edge"><a xlink:title="2-&gt;2 #5" id="a_E5"><path fill="none" stroke="#000" d="M213.4-35.78c-.61-9.53.59-18.22 3.6-18.22 2.21 0 3.44 4.68 3.7 10.95"/><path stroke="#000" d="M220.6-35.78l3.25-6.96-3.2 3.46.05-3.5h0l-.05 3.5-3.1-3.55 3.05 7.05h0z"/></a><text x="212" y="-57.4" font-family="Lato" font-size="12">!a</text></g><g id="E6" class="edge"><a xlink:title="2-&gt;2 #6" id="a_E6"><path fill="none" stroke="#000" d="M211.15-35.14C207.71-52.58 209.66-72 217-72c6.37 0 8.68 14.6 6.94 29.85"/><path stroke="#000" d="M222.85-35.14l4.19-6.44-3.65 2.98.53-3.46h0l-.53 3.46-2.58-3.94 2.04 7.4h0z"/></a><text x="213.5" y="-88.4" font-family="Lato" font-size="12">a</text><text x="210.5" y="-75.4" font-family="Lato" font-size="12" fill="#ff4da0">❶</text></g></g></svg>