<svg width="756" height="374pt" viewBox="0 0 567 374" xmlns="http://www.w3.org/2000/svg"><g class="graph"><path fill="#fff" stroke="transparent" d="M0 374V0h567v374H0z"/><text text-anchor="middle" x="279.5" y="-350.8" font-family="Times,serif" font-size="14" transform="translate(4 370)">(Inf(0)&amp;Inf(1)) &amp; Fin(2)</text><text text-anchor="middle" x="279.5" y="-335.8" font-family="Times,serif" font-size="14" transform="translate(4 370)">[Streett-like 3]</text><g class="cluster" transform="translate(4 370)"><path fill="none" stroke="gray" d="M390-153v-102h161v102H390z"/></g><g class="cluster" transform="translate(4 370)"><path fill="none" stroke="gray" d="M297-172v-148h52v148h-52z"/></g><g class="cluster" transform="translate(4 370)"><path fill="none" stroke="green" d="M390-8v-117h161V-8H390z"/></g><g class="cluster" transform="translate(4 370)"><path fill="none" stroke="green" d="M297-16v-148h52v148h-52z"/></g><g class="cluster" transform="translate(4 370)"><path fill="none" stroke="#000" d="M218-86v-52h52v52h-52z"/></g><g class="cluster" transform="translate(4 370)"><path fill="none" stroke="red" d="M139-86v-100h52v100h-52z"/></g><g class="cluster" transform="translate(4 370)"><path fill="none" stroke="green" d="M30-194v-102h161v102H30z"/></g><g class="node" transform="translate(4 370)"><circle fill="none" stroke="#000" cx="56" cy="-220" r="18"/><text text-anchor="middle" x="56" y="-216.3" font-family="Times,serif" font-size="14">1</text></g><g class="edge" transform="translate(4 370)"><path fill="none" stroke="#000" d="M1.15-220h26.48"/><path stroke="#000" d="M27.94-223.5l10 3.5-10 3.5v-7z"/></g><g class="node" transform="translate(4 370)"><circle fill="none" stroke="#000" cx="165" cy="-112" r="18"/><text text-anchor="middle" x="165" y="-108.3" font-family="Times,serif" font-size="14">4</text></g><g class="edge" transform="translate(4 370)"><path fill="none" stroke="#000" d="M69.27-207.61c18.37 18.54 53.18 53.67 75.1 75.8"/><path stroke="#000" d="M146.99-134.14l4.55 9.56-9.53-4.64 4.98-4.92z"/><text text-anchor="middle" x="110.5" y="-184.8" font-family="Times,serif" font-size="14">b</text></g><g class="node" transform="translate(4 370)"><circle fill="none" stroke="#000" cx="165" cy="-239" r="18"/><text text-anchor="middle" x="165" y="-235.3" font-family="Times,serif" font-size="14">3</text></g><g class="edge" transform="translate(4 370)"><path fill="none" stroke="#000" d="M74.16-218.06c14.77 1.16 36.52 1.63 54.84-2.94 3.73-.93 7.52-2.32 11.15-3.93"/><path stroke="#000" d="M138.76-228.15l10.51-1.36-7.37 7.62-3.14-6.26z"/><text text-anchor="middle" x="110.5" y="-224.8" font-family="Times,serif" font-size="14">a &amp; !b</text></g><g class="node" transform="translate(4 370)"><circle fill="none" stroke="#000" cx="416" cy="-198" r="18"/><text text-anchor="middle" x="416" y="-194.3" font-family="Times,serif" font-size="14">5</text></g><g class="node" transform="translate(4 370)"><circle fill="none" stroke="#000" cx="525" cy="-204" r="18"/><text text-anchor="middle" x="525" y="-200.3" font-family="Times,serif" font-size="14">6</text></g><g class="edge" transform="translate(4 370)"><path fill="none" stroke="#000" d="M431.72-188.46c6.03 3.38 13.24 6.76 20.28 8.46 15.98 3.87 21.29 4.87 37 0 4.76-1.48 9.45-3.85 13.78-6.54"/><path stroke="#000" d="M500.85-189.46l10.2-2.87-6.19 8.6-4.01-5.73z"/><text text-anchor="middle" x="470.5" y="-198.8" font-family="Times,serif" font-size="14">1</text><text text-anchor="middle" x="470.5" y="-183.8" font-family="Times,serif" font-size="14">{1}</text></g><g class="edge" transform="translate(4 370)"><path fill="none" stroke="#000" d="M507.32-207.72c-14.66-2.71-36.51-5.41-55.32-2.28-3.13.52-6.36 1.29-9.52 2.19"/><path stroke="#000" d="M443.33-204.41l-10.59-.22 8.42-6.44 2.17 6.66z"/><text text-anchor="middle" x="470.5" y="-214.8" font-family="Times,serif" font-size="14">1</text></g><g class="node" transform="translate(4 370)"><circle fill="none" stroke="#000" cx="323" cy="-198" r="18"/><text text-anchor="middle" x="323" y="-194.3" font-family="Times,serif" font-size="14">0</text></g><g class="edge" transform="translate(4 370)"><path fill="none" stroke="#000" d="M341.12-198h46.52"/><path stroke="#000" d="M387.96-201.5l10 3.5-10 3.5v-7z"/><text text-anchor="middle" x="369.5" y="-216.8" font-family="Times,serif" font-size="14">a</text><text text-anchor="middle" x="369.5" y="-201.8" font-family="Times,serif" font-size="14">{2}</text></g><g class="edge" transform="translate(4 370)"><path fill="none" stroke="#000" d="M319.58-215.78c-.58-9.53.56-18.22 3.42-18.22 1.74 0 2.84 3.23 3.31 7.9"/><path stroke="#000" d="M329.81-225.82l-3.39 10.04-3.61-9.96 7-.08z"/><text text-anchor="middle" x="323" y="-252.8" font-family="Times,serif" font-size="14">a &amp; b</text><text text-anchor="middle" x="323" y="-237.8" font-family="Times,serif" font-size="14">{0,1,2}</text></g><g class="edge" transform="translate(4 370)"><path fill="none" stroke="#000" d="M317.77-215.25C314.06-236.43 315.8-264 323-264c6.1 0 8.28 19.81 6.55 38.74"/><path stroke="#000" d="M333.01-224.71l-4.78 9.46-2.16-10.37 6.94.91z"/><text text-anchor="middle" x="323" y="-282.8" font-family="Times,serif" font-size="14">!a &amp; !b</text><text text-anchor="middle" x="323" y="-267.8" font-family="Times,serif" font-size="14">{2}</text></g><g class="node" transform="translate(4 370)"><circle fill="none" stroke="#000" cx="416" cy="-42" r="18"/><text text-anchor="middle" x="416" y="-38.3" font-family="Times,serif" font-size="14">8</text></g><g class="edge" transform="translate(4 370)"><path fill="none" stroke="#000" d="M407.98-58.29C406.05-68.39 408.72-78 416-78c4.66 0 7.43 3.94 8.32 9.43"/><path stroke="#000" d="M427.81-68.18l-3.79 9.89-3.21-10.1 7 .21z"/><text text-anchor="middle" x="416" y="-96.8" font-family="Times,serif" font-size="14">!a &amp; b</text><text text-anchor="middle" x="416" y="-81.8" font-family="Times,serif" font-size="14">{0,2}</text></g><g class="node" transform="translate(4 370)"><circle fill="none" stroke="#000" cx="525" cy="-42" r="18"/><text text-anchor="middle" x="525" y="-38.3" font-family="Times,serif" font-size="14">9</text></g><g class="edge" transform="translate(4 370)"><path fill="none" stroke="#000" d="M433.63-37.98c5.78 1.22 12.33 2.38 18.37 2.98 16.36 1.62 20.64 1.62 37 0 2.74-.27 5.58-.66 8.41-1.11"/><path stroke="#000" d="M496.89-39.58l10.48 1.6-9.19 5.28-1.29-6.88z"/><text text-anchor="middle" x="470.5" y="-53.8" font-family="Times,serif" font-size="14">a &amp; b</text><text text-anchor="middle" x="470.5" y="-38.8" font-family="Times,serif" font-size="14">{0,1}</text></g><g class="edge" transform="translate(4 370)"><path fill="none" stroke="#000" d="M510.64-53.43C504.48-57.97 496.8-62.67 489-65c-15.75-4.71-21.25-4.71-37 0-4.51 1.35-8.98 3.49-13.14 5.93"/><path stroke="#000" d="M440.63-56.04l-10.27 2.61 6.4-8.44 3.87 5.83z"/><text text-anchor="middle" x="470.5" y="-86.8" font-family="Times,serif" font-size="14">!a &amp; b</text><text text-anchor="middle" x="470.5" y="-71.8" font-family="Times,serif" font-size="14">{0,1}</text></g><g class="edge" transform="translate(4 370)"><path fill="none" stroke="#000" d="M515.77-57.54C513.17-67.91 516.25-78 525-78c5.74 0 9.04 4.35 9.9 10.26"/><path stroke="#000" d="M538.38-67.29l-4.15 9.75-2.84-10.21 6.99.46z"/><text text-anchor="middle" x="525" y="-96.8" font-family="Times,serif" font-size="14">a &amp; b</text><text text-anchor="middle" x="525" y="-81.8" font-family="Times,serif" font-size="14">{0,2}</text></g><g class="node" transform="translate(4 370)"><circle fill="none" stroke="#000" cx="323" cy="-42" r="18"/><text text-anchor="middle" x="323" y="-38.3" font-family="Times,serif" font-size="14">7</text></g><g class="edge" transform="translate(4 370)"><path fill="none" stroke="#000" d="M341.12-42h46.52"/><path stroke="#000" d="M387.96-45.5l10 3.5-10 3.5v-7z"/><text text-anchor="middle" x="369.5" y="-45.8" font-family="Times,serif" font-size="14">1</text></g><g class="edge" transform="translate(4 370)"><path fill="none" stroke="#000" d="M319.58-59.78C319-69.31 320.14-78 323-78c1.74 0 2.84 3.23 3.31 7.9"/><path stroke="#000" d="M329.81-69.82l-3.39 10.04-3.61-9.96 7-.08z"/><text text-anchor="middle" x="323" y="-96.8" font-family="Times,serif" font-size="14">!a &amp; b</text><text text-anchor="middle" x="323" y="-81.8" font-family="Times,serif" font-size="14">{0,2}</text></g><g class="edge" transform="translate(4 370)"><path fill="none" stroke="#000" d="M317.77-59.25C314.06-80.43 315.8-108 323-108c6.1 0 8.28 19.81 6.55 38.74"/><path stroke="#000" d="M333.01-68.71l-4.78 9.46-2.16-10.37 6.94.91z"/><text text-anchor="middle" x="323" y="-126.8" font-family="Times,serif" font-size="14">a &amp; b</text><text text-anchor="middle" x="323" y="-111.8" font-family="Times,serif" font-size="14">{0,1}</text></g><g class="node" transform="translate(4 370)"><circle fill="none" stroke="#000" cx="244" cy="-112" r="18"/><text text-anchor="middle" x="244" y="-108.3" font-family="Times,serif" font-size="14">2</text></g><g class="edge" transform="translate(4 370)"><path fill="none" stroke="#000" d="M256.69-125.06c12.4-13.85 32.16-35.91 46.7-52.15"/><path stroke="#000" d="M301.17-179.98l9.28-5.12-4.07 9.79-5.21-4.67z"/><text text-anchor="middle" x="283.5" y="-160.8" font-family="Times,serif" font-size="14">a</text></g><g class="edge" transform="translate(4 370)"><path fill="none" stroke="#000" d="M258.06-100.13c11.91 10.83 29.69 27 43.49 39.54"/><path stroke="#000" d="M304.09-63.02l5.04 9.32-9.75-4.14 4.71-5.18z"/><text text-anchor="middle" x="283.5" y="-82.8" font-family="Times,serif" font-size="14">b</text></g><g class="edge" transform="translate(4 370)"><path fill="none" stroke="#000" d="M183.09-112h32.59"/><path stroke="#000" d="M215.96-115.5l10 3.5-10 3.5v-7z"/><text text-anchor="middle" x="204.5" y="-115.8" font-family="Times,serif" font-size="14">b</text></g><g class="edge" transform="translate(4 370)"><path fill="none" stroke="#000" d="M158.27-129.04c-1.38-9.82.87-18.96 6.73-18.96 3.66 0 5.92 3.57 6.75 8.65"/><path stroke="#000" d="M175.25-139.03l-3.52 9.99-3.48-10 7 .01z"/><text text-anchor="middle" x="165" y="-166.8" font-family="Times,serif" font-size="14">!b</text><text text-anchor="middle" x="165" y="-151.8" font-family="Times,serif" font-size="14">{1,2}</text></g><g class="edge" transform="translate(4 370)"><path fill="none" stroke="#000" d="M146.87-240.12c-14.75-.54-36.5-.28-54.87 4.12-3.48.83-7.04 2.02-10.5 3.38"/><path stroke="#000" d="M82.78-229.36l-10.56.85 7.72-7.25 2.84 6.4z"/><text text-anchor="middle" x="110.5" y="-258.8" font-family="Times,serif" font-size="14">a &amp; b</text><text text-anchor="middle" x="110.5" y="-243.8" font-family="Times,serif" font-size="14">{0,1}</text></g></g></svg>