<?xml-stylesheet href="spot.css" type="text/css"?><svg width="440" height="164pt" viewBox="0 0 329.5 164" xmlns="http://www.w3.org/2000/svg"><g class="graph"><path fill="#fff" stroke="transparent" d="M0 164V0h329.5v164H0z"/><text x="101.75" y="-143.4" font-family="Lato" font-size="12" transform="translate(4 160)">Inf(</text><text x="118.75" y="-143.4" font-family="Lato" font-size="12" fill="#1f78b4" transform="translate(4 160)">⓿</text><text x="131.75" y="-143.4" font-family="Lato" font-size="12" transform="translate(4 160)">)&amp;Inf(</text><text x="160.75" y="-143.4" font-family="Lato" font-size="12" fill="#ff4da0" transform="translate(4 160)">❶</text><text x="173.75" y="-143.4" font-family="Lato" font-size="12" transform="translate(4 160)">)&amp;Inf(</text><text x="202.75" y="-143.4" font-family="Lato" font-size="12" fill="#ff7f00" transform="translate(4 160)">❷</text><text x="215.75" y="-143.4" font-family="Lato" font-size="12" transform="translate(4 160)">)</text><text x="123.75" y="-131.4" font-family="Lato" font-size="12" transform="translate(4 160)">[gen. Büchi 3]</text><g class="node" transform="translate(4 160)"><circle fill="#ffffa0" stroke="#000" cx="56" cy="-18" r="18"/><text text-anchor="middle" x="56" y="-14.9" font-family="Lato" font-size="12">0</text></g><g class="edge" transform="translate(4 160)"><path fill="none" stroke="#000" d="M1.15-18h29.48"/><path stroke="#000" d="M37.94-18l-7-3.15 3.5 3.15h-3.5 3.5l-3.5 3.15 7-3.15h0z"/></g><g class="edge" transform="translate(4 160)"><path fill="none" stroke="#000" d="M49.62-35.04C48.32-44.86 50.45-54 56-54c4.17 0 6.4 5.14 6.71 11.86"/><path stroke="#000" d="M62.38-35.04l3.47-6.84-3.31 3.35.17-3.5h0l-.17 3.5-2.98-3.65 2.82 7.14h0z"/><text x="32" y="-70.4" font-family="Lato" font-size="12">!p0 &amp; !p1</text><text x="49.5" y="-57.4" font-family="Lato" font-size="12" fill="#ff7f00">❷</text></g><g class="node" transform="translate(4 160)"><circle fill="#ffffa0" stroke="#000" cx="179" cy="-64" r="18"/><text text-anchor="middle" x="179" y="-60.9" font-family="Lato" font-size="12">1</text></g><g class="edge" transform="translate(4 160)"><path fill="none" stroke="#000" d="M73.32-24.2c21.13-8.04 58.09-22.09 81.96-31.16"/><path stroke="#000" d="M161.94-57.89l-7.66-.46 4.39 1.7-3.27 1.24h0l3.27-1.24-2.15 4.19 5.42-5.43h0z"/><text x="92" y="-52.4" font-family="Lato" font-size="12">!p0 &amp; !p1</text></g><g class="edge" transform="translate(4 160)"><path fill="none" stroke="#000" d="M168.85-79.17C165.77-89.66 169.16-100 179-100c7.54 0 11.29 6.06 11.25 13.61"/><path stroke="#000" d="M189.15-79.17l4.17-6.44-3.64 2.98.52-3.46h0l-.52 3.46-2.59-3.93 2.06 7.39h0z"/><text x="156.5" y="-115.4" font-family="Lato" font-size="12">!p0 &amp; p1</text><text x="166" y="-103.4" font-family="Lato" font-size="12" fill="#1f78b4">⓿</text><text x="179" y="-103.4" font-family="Lato" font-size="12" fill="#ff4da0">❶</text></g><g class="node" transform="translate(4 160)"><circle fill="#ffffa0" stroke="#000" cx="299" cy="-35" r="18"/><text text-anchor="middle" x="299" y="-31.9" font-family="Lato" font-size="12">2</text></g><g class="edge" transform="translate(4 160)"><path fill="none" stroke="#000" d="M197.09-66.62C214.27-68.56 241.26-69.7 263-62c6.13 2.17 12.05 5.87 17.21 9.84"/><path stroke="#000" d="M285.89-47.44l-3.37-6.89.68 4.65-2.69-2.23h0l2.69 2.23-4.7.19 7.39 2.05h0z"/><text x="218" y="-84.4" font-family="Lato" font-size="12">!p0 &amp; p1</text><text x="234" y="-71.4" font-family="Lato" font-size="12" fill="#ff4da0">❶</text></g><g class="edge" transform="translate(4 160)"><path fill="none" stroke="#000" d="M281.72-29.51C275.85-27.63 269.17-25.6 263-24c-27.67 7.18-34.56 10.1-63 13-18.57 1.9-23.34.65-42 0-26.28-.91-56.35-3.15-76.79-4.85"/><path stroke="#000" d="M74.14-16.45l6.71 3.73-3.23-3.43 3.49.29h0l-3.49-.29L81.38-19l-7.24 2.55h0z"/><text x="158" y="-27.4" font-family="Lato" font-size="12">p0 &amp; p1</text><text x="172.5" y="-14.4" font-family="Lato" font-size="12" fill="#1f78b4">⓿</text></g><g class="edge" transform="translate(4 160)"><path fill="none" stroke="#000" d="M281.19-30.77c-16.6 3.35-42.43 6.35-63.19-1.23-7.82-2.85-15.14-8.1-21.23-13.53"/><path stroke="#000" d="M191.55-50.51l2.89 7.11-.36-4.69 2.54 2.41h0l-2.54-2.41 4.71.13-7.24-2.55h0z"/><text x="218" y="-48.4" font-family="Lato" font-size="12">!p0 &amp; p1</text><text x="234" y="-35.4" font-family="Lato" font-size="12" fill="#1f78b4">⓿</text></g><g class="edge" transform="translate(4 160)"><path fill="none" stroke="#000" d="M289.19-50.17C286.21-60.66 289.48-71 299-71c7.29 0 10.91 6.06 10.87 13.61"/><path stroke="#000" d="M308.81-50.17l4.14-6.46-3.63 3 .51-3.46h0l-.51 3.46-2.61-3.92 2.1 7.38h0z"/><text x="276.5" y="-87.4" font-family="Lato" font-size="12">!p0 &amp; p1</text><text x="292.5" y="-74.4" font-family="Lato" font-size="12" fill="#1f78b4">⓿</text></g></g></svg>