<?xml-stylesheet href="spot.css" type="text/css"?><svg width="274pt" height="148pt" viewBox="0 0 273.5 148.3" xmlns="http://www.w3.org/2000/svg"><g class="graph"><path fill="#fff" stroke="transparent" d="M0 148.3V0h273.5v148.3H0z"/><text x="94.75" y="-127.7" font-family="Lato" font-size="12" transform="translate(4 144.3)">Inf(</text><text x="111.75" y="-127.7" font-family="Lato" font-size="12" fill="#1f78b4" transform="translate(4 144.3)">⓿</text><text x="124.75" y="-127.7" font-family="Lato" font-size="12" transform="translate(4 144.3)">)&amp;Inf(</text><text x="153.75" y="-127.7" font-family="Lato" font-size="12" fill="#ff4da0" transform="translate(4 144.3)">❶</text><text x="166.75" y="-127.7" font-family="Lato" font-size="12" transform="translate(4 144.3)">)</text><text x="95.75" y="-115.7" font-family="Lato" font-size="12" transform="translate(4 144.3)">[gen. Büchi 2]</text><g class="node" transform="translate(4 144.3)"><circle fill="#ffffa0" stroke="#000" cx="56" cy="-33.3" r="18"/><text text-anchor="middle" x="56" y="-30.2" font-family="Lato" font-size="12">0</text></g><g class="edge" transform="translate(4 144.3)"><path fill="none" stroke="#000" d="M1.15-33.3h29.48"/><path stroke="#000" d="M37.94-33.3l-7-3.15 3.5 3.15h-3.5 3.5l-3.5 3.15 7-3.15h0z"/></g><g class="node" transform="translate(4 144.3)"><circle fill="#ffffa0" stroke="#000" cx="151" cy="-83.3" r="18"/><text text-anchor="middle" x="151" y="-80.2" font-family="Lato" font-size="12">1</text></g><g class="edge" transform="translate(4 144.3)"><path fill="none" stroke="#000" d="M65.19-49.04C71.21-58.91 80.36-70.93 92-77.3c10.17-5.57 22.86-7.36 33.77-7.63"/><path stroke="#000" d="M132.98-84.91l-6.99-3.17 3.49 3.16-3.5-.01h0l3.5.01-3.51 3.14 7.01-3.13h0z"/><text x="93.5" y="-85.7" font-family="Lato" font-size="12">p0</text></g><g class="node" transform="translate(4 144.3)"><circle fill="#ffffa0" stroke="#000" cx="243" cy="-33.3" r="18"/><text text-anchor="middle" x="243" y="-30.2" font-family="Lato" font-size="12">2</text></g><g class="edge" transform="translate(4 144.3)"><path fill="none" stroke="#000" d="M74.07-33.3h143.79"/><path stroke="#000" d="M224.97-33.3l-7-3.15 3.5 3.15h-3.5 3.5l-3.5 3.15 7-3.15h0z"/><text x="142.5" y="-36.7" font-family="Lato" font-size="12">!p0</text></g><g class="edge" transform="translate(4 144.3)"><path fill="none" stroke="#000" d="M138.22-70.3c-7.64 7.71-18.2 17.09-29.22 23-8.58 4.6-18.79 7.77-27.88 9.92"/><path stroke="#000" d="M74.12-35.87l7.51 1.6-4.08-2.34 3.42-.74h0l-3.42.74 2.75-3.82-6.18 4.56h0z"/><text x="92" y="-63.7" font-family="Lato" font-size="12">!p0</text><text x="94" y="-50.7" font-family="Lato" font-size="12" fill="#1f78b4">⓿</text></g><g class="edge" transform="translate(4 144.3)"><path fill="none" stroke="#000" d="M169.38-84.74c11.37-.17 26.18 1.13 37.62 7.44 9.26 5.11 16.96 13.77 22.75 22.07"/><path stroke="#000" d="M233.8-49.02l-1.19-7.58-.72 4.65-1.91-2.93h0l1.91 2.93-4.55-1.21 6.46 4.14h0z"/><text x="193" y="-98.7" font-family="Lato" font-size="12">p0</text><text x="193.5" y="-85.7" font-family="Lato" font-size="12" fill="#ff4da0">❶</text></g><g class="edge" transform="translate(4 144.3)"><path fill="none" stroke="#000" d="M227.19-24.47C214.01-17.17 193.94-7.35 175-3.3c-20.86 4.46-27.1 4.29-48 0-17.14-3.52-35.27-11.42-48.78-18.23"/><path stroke="#000" d="M71.98-24.76l4.77 6.02-1.66-4.41 3.11 1.61h0l-3.11-1.61 4.56-1.19-7.67-.42h0z"/><text x="127" y="-19.7" font-family="Lato" font-size="12">!p0 &amp; !p1</text><text x="144.5" y="-6.7" font-family="Lato" font-size="12" fill="#ff4da0">❶</text></g><g class="edge" transform="translate(4 144.3)"><path fill="none" stroke="#000" d="M224.96-36.23c-9.77-2.15-22.02-5.65-31.96-11.07-8.58-4.68-16.9-11.43-23.77-17.83"/><path stroke="#000" d="M163.81-70.36l2.85 7.13-.33-4.7 2.52 2.44h0l-2.52-2.44 4.71.17-7.23-2.6h0z"/><text x="193" y="-63.7" font-family="Lato" font-size="12">p0</text><text x="193.5" y="-50.7" font-family="Lato" font-size="12" fill="#1f78b4">⓿</text></g><g class="edge" transform="translate(4 144.3)"><path fill="none" stroke="#000" d="M235.62-49.97c-1.64-9.96.82-19.33 7.38-19.33 4.92 0 7.54 5.27 7.84 12.11"/><path stroke="#000" d="M250.38-49.97l3.59-6.78-3.36 3.29.22-3.49h0l-.22 3.49-2.92-3.69 2.69 7.18h0z"/><text x="220.5" y="-85.7" font-family="Lato" font-size="12">!p0 &amp; p1</text><text x="236.5" y="-72.7" font-family="Lato" font-size="12" fill="#1f78b4">⓿</text></g></g></svg>