<?xml-stylesheet href="spot.css" type="text/css"?><svg width="784" height="266pt" viewBox="0 0 587.5 266" xmlns="http://www.w3.org/2000/svg"><g class="graph"><path fill="#fff" stroke="transparent" d="M0 266V0h587.5v266H0z"/><text x="193.75" y="-245.4" font-family="Lato" font-size="12" transform="translate(4 262)">(Fin(</text><text x="218.75" y="-245.4" font-family="Lato" font-size="12" fill="#1f78b4" transform="translate(4 262)">⓿</text><text x="231.75" y="-245.4" font-family="Lato" font-size="12" transform="translate(4 262)">) | Inf(</text><text x="261.75" y="-245.4" font-family="Lato" font-size="12" fill="#ff4da0" transform="translate(4 262)">❶</text><text x="274.75" y="-245.4" font-family="Lato" font-size="12" transform="translate(4 262)">)) &amp; (Fin(</text><text x="321.75" y="-245.4" font-family="Lato" font-size="12" fill="#ff7f00" transform="translate(4 262)">❷</text><text x="334.75" y="-245.4" font-family="Lato" font-size="12" transform="translate(4 262)">) | Inf(</text><text x="364.75" y="-245.4" font-family="Lato" font-size="12" fill="#6a3d9a" transform="translate(4 262)">❸</text><text x="377.75" y="-245.4" font-family="Lato" font-size="12" transform="translate(4 262)">))</text><text x="263.75" y="-233.4" font-family="Lato" font-size="12" transform="translate(4 262)">[Streett 2]</text><g class="node" transform="translate(4 262)"><path fill="#ffffa0" stroke="#000" d="M62-81H50c-6 0-12 6-12 12v12c0 6 6 12 12 12h12c6 0 12-6 12-12v-12c0-6-6-12-12-12"/><text text-anchor="middle" x="56" y="-59.9" font-family="Lato" font-size="12">0</text></g><g class="edge" transform="translate(4 262)"><path fill="none" stroke="#000" d="M1.15-63h29.48"/><path stroke="#000" d="M37.94-63l-7-3.15 3.5 3.15h-3.5 3.5l-3.5 3.15 7-3.15h0z"/></g><g class="node" transform="translate(4 262)"><path fill="#ffffa0" stroke="#000" d="M191-116h-18c-6 0-12 6-12 12v12c0 6 6 12 12 12h18c6 0 12-6 12-12v-12c0-6-6-12-12-12"/><text x="178.5" y="-101.4" font-family="Lato" font-size="12">2</text><text x="169" y="-89.4" font-family="Lato" font-size="12" fill="#1f78b4">⓿</text><text x="182" y="-89.4" font-family="Lato" font-size="12" fill="#ff7f00">❷</text></g><g class="edge" transform="translate(4 262)"><path fill="none" stroke="#000" d="M74.24-67.87c20.59-5.81 55.29-15.6 79.52-22.44"/><path stroke="#000" d="M160.61-92.24l-7.59-1.13 4.22 2.08-3.37.95h0l3.37-.95-2.51 3.98 5.88-4.93h0z"/><text x="92" y="-88.4" font-family="Lato" font-size="12">!p0 &amp; !p1</text></g><g class="node" transform="translate(4 262)"><path fill="#ffffa0" stroke="#000" d="M317-90h-12c-6 0-12 6-12 12v12c0 6 6 12 12 12h12c6 0 12-6 12-12v-12c0-6-6-12-12-12"/><text text-anchor="middle" x="311" y="-68.9" font-family="Lato" font-size="12">1</text></g><g class="edge" transform="translate(4 262)"><path fill="none" stroke="#000" d="M74.25-56.88C111.02-44.79 199.42-20.88 269-43c6.35-2.02 12.55-5.41 18.14-9.18"/><path stroke="#000" d="M292.94-56.38l-7.52 1.55 4.68.51-2.83 2.05h0l2.83-2.05-.99 4.6 3.83-6.66h0z"/><text x="158" y="-40.4" font-family="Lato" font-size="12">!p0 &amp; !p1</text></g><g class="node" transform="translate(4 262)"><path fill="#ffffa0" stroke="#000" d="M563-185h-12c-6 0-12 6-12 12v12c0 6 6 12 12 12h12c6 0 12-6 12-12v-12c0-6-6-12-12-12"/><text text-anchor="middle" x="557" y="-163.9" font-family="Lato" font-size="12">3</text></g><g class="edge" transform="translate(4 262)"><path fill="none" stroke="#000" d="M62.41-81.09C75.56-120.99 113.26-213 181-213h260c33.81 0 69.46 17.35 91.95 30.74"/><path stroke="#000" d="M538.93-178.61l-4.33-6.34 1.34 4.52-2.99-1.83h0l2.99 1.83-4.63.86 7.62.96h0z"/><text x="287" y="-216.4" font-family="Lato" font-size="12">!p0 &amp; !p1</text></g><g class="edge" transform="translate(4 262)"><path fill="none" stroke="#000" d="M170.42-116.15C168.64-125.54 172.5-134 182-134c6.98 0 10.91 4.56 11.8 10.7"/><path stroke="#000" d="M193.58-116.15l3.37-6.9-3.26 3.4.11-3.5h0l-.11 3.5-3.04-3.6 2.93 7.1h0z"/><text x="158" y="-137.4" font-family="Lato" font-size="12">!p0 &amp; !p1</text></g><g class="edge" transform="translate(4 262)"><path fill="none" stroke="#000" d="M203.12-93.88c22.44 4.59 58.72 12.02 82.69 16.93"/><path stroke="#000" d="M292.82-75.52l-6.22-4.49 2.79 3.79-3.43-.7h0l3.43.7-4.06 2.39 7.49-1.69h0z"/><text x="224" y="-92.4" font-family="Lato" font-size="12">!p0 &amp; p1</text></g><g class="node" transform="translate(4 262)"><path fill="#ffffa0" stroke="#000" d="M317-36h-12c-6 0-12 6-12 12v12c0 6 6 12 12 12h12c6 0 12-6 12-12v-12c0-6-6-12-12-12"/><text text-anchor="middle" x="311" y="-14.9" font-family="Lato" font-size="12">4</text></g><g class="edge" transform="translate(4 262)"><path fill="none" stroke="#000" d="M202.3-79.97c6.63 5.76 14.26 11.94 21.7 16.97 19.97 13.49 44.46 25.96 62.2 34.33"/><path stroke="#000" d="M292.88-25.56l-5.02-5.81 1.85 4.33-3.18-1.48h0l3.18 1.48-4.51 1.38 7.68.1h0z"/><text x="225.5" y="-66.4" font-family="Lato" font-size="12">p0 &amp; p1</text></g><g class="node" transform="translate(4 262)"><path fill="#ffffa0" stroke="#000" d="M449-116h-18c-6 0-12 6-12 12v12c0 6 6 12 12 12h18c6 0 12-6 12-12v-12c0-6-6-12-12-12"/><text x="436.5" y="-101.4" font-family="Lato" font-size="12">5</text><text x="427" y="-89.4" font-family="Lato" font-size="12" fill="#ff4da0">❶</text><text x="440" y="-89.4" font-family="Lato" font-size="12" fill="#ff7f00">❷</text></g><g class="edge" transform="translate(4 262)"><path fill="none" stroke="#000" d="M329.03-65.76C347.42-60.04 377.27-53.74 401-63c6.77-2.64 13.06-7.12 18.49-12"/><path stroke="#000" d="M424.63-79.96l-7.22 2.6 4.7-.17-2.51 2.43h0l2.51-2.43-.32 4.7 2.84-7.13h0z"/><text x="354.5" y="-66.4" font-family="Lato" font-size="12">!p0 &amp; p1</text></g><g class="edge" transform="translate(4 262)"><path fill="none" stroke="#000" d="M538.91-166.85c-49.88.9-199.09 6.89-314.91 45.85-4.89 1.65-9.87 3.88-14.59 6.32"/><path stroke="#000" d="M203.16-111.28l7.65-.58-4.58-1.09 3.07-1.68h0l-3.07 1.68 1.57-4.44-4.64 6.11h0z"/><text x="353" y="-160.4" font-family="Lato" font-size="12">!p0 &amp; !p1</text></g><g class="edge" transform="translate(4 262)"><path fill="none" stroke="#000" d="M546.87-185.15C545.31-194.54 548.69-203 557-203c6.1 0 9.55 4.56 10.33 10.7"/><path stroke="#000" d="M567.13-185.15l3.34-6.91-3.24 3.41.09-3.5h0l-.09 3.5-3.05-3.59 2.95 7.09h0z"/><text x="534.5" y="-206.4" font-family="Lato" font-size="12">!p0 &amp; p1</text></g><g class="edge" transform="translate(4 262)"><path fill="none" stroke="#000" d="M418.61-103.1c-5.66-1.2-11.84-2.3-17.61-2.9-78.24-8.15-98.7-7.57-177 0-4.45.43-9.14 1.12-13.69 1.91"/><path stroke="#000" d="M203.32-102.77l7.47 1.8-4.03-2.45 3.44-.65h0l-3.44.65 2.86-3.74-6.3 4.39h0z"/><text x="287" y="-114.4" font-family="Lato" font-size="12">!p0 &amp; !p1</text></g><g class="edge" transform="translate(4 262)"><path fill="none" stroke="#000" d="M418.8-93.86c-22.47 4.59-58.73 12.02-82.67 16.92"/><path stroke="#000" d="M329.13-75.51l7.49 1.69-4.06-2.39 3.43-.7h0l-3.43.7 2.79-3.79-6.22 4.49h0z"/><text x="356" y="-92.4" font-family="Lato" font-size="12">p0 &amp; p1</text></g><g class="edge" transform="translate(4 262)"><path fill="none" stroke="#000" d="M461.27-107.43c16.5-7.96 40.19-20.04 59.73-32.57 4.08-2.62 8.28-5.59 12.28-8.57"/><path stroke="#000" d="M538.99-152.93l-7.48 1.75 4.69.38-2.78 2.12h0l2.78-2.12-.87 4.63 3.66-6.76h0z"/><text x="479" y="-143.4" font-family="Lato" font-size="12">p0 &amp; p1</text></g><g class="edge" transform="translate(4 262)"><path fill="none" stroke="#000" d="M292.55-15.97C264.17-13.07 206.3-8.84 158-16c-30.32-4.49-38.75-5.96-66-20-4.03-2.08-8.06-4.63-11.88-7.33"/><path stroke="#000" d="M74.32-47.65l3.73 6.7-.92-4.61 2.8 2.09h0l-2.8-2.09 4.68-.44-7.49-1.65h0z"/><text x="158" y="-19.4" font-family="Lato" font-size="12">!p0 &amp; !p1</text></g><g class="edge" transform="translate(4 262)"><path fill="none" stroke="#000" d="M329.26-18.84c19.13-1.7 50.15-6.81 71.74-22.16 11.62-8.25 20.68-21.27 27.04-32.78"/><path stroke="#000" d="M431.29-79.98l-6.04 4.74 4.42-1.64-1.63 3.1h0l1.63-3.1 1.16 4.56.46-7.66h0z"/><text x="354.5" y="-44.4" font-family="Lato" font-size="12">!p0 &amp; p1</text></g></g></svg>