<?xml-stylesheet href="spot.css" type="text/css"?><svg width="934pt" height="370pt" viewBox="0 0 934 370" xmlns="http://www.w3.org/2000/svg"><g class="graph"><path fill="#fff" stroke="transparent" d="M0 370V0h934v370H0z"/><text x="364" y="-349.4" font-family="Lato" font-size="12" transform="translate(4 366)">Fin(</text><text x="386" y="-349.4" font-family="Lato" font-size="12" fill="#1f78b4" transform="translate(4 366)">⓿</text><text x="399" y="-349.4" font-family="Lato" font-size="12" transform="translate(4 366)">) &amp; (Inf(</text><text x="438" y="-349.4" font-family="Lato" font-size="12" fill="#ff4da0" transform="translate(4 366)">❶</text><text x="451" y="-349.4" font-family="Lato" font-size="12" transform="translate(4 366)">) | (Fin(</text><text x="489" y="-349.4" font-family="Lato" font-size="12" fill="#ff7f00" transform="translate(4 366)">❷</text><text x="502" y="-349.4" font-family="Lato" font-size="12" transform="translate(4 366)">) &amp; Inf(</text><text x="537" y="-349.4" font-family="Lato" font-size="12" fill="#6a3d9a" transform="translate(4 366)">❸</text><text x="550" y="-349.4" font-family="Lato" font-size="12" transform="translate(4 366)">)))</text><text x="416.5" y="-337.4" font-family="Lato" font-size="12" transform="translate(4 366)">[parity min odd 4]</text><g class="cluster" transform="translate(4 366)"><path fill="none" stroke="green" d="M554-111v-176h364v176H554z"/></g><g class="cluster" transform="translate(4 366)"><path fill="none" stroke="#000" d="M451-78v-52h52v52h-52z"/></g><g class="cluster" transform="translate(4 366)"><path fill="none" stroke="red" d="M345-24v-96h52v96h-52z"/></g><g class="cluster" transform="translate(4 366)"><path fill="none" stroke="green" d="M136-125v-109h155v109H136z"/></g><g class="cluster" transform="translate(4 366)"><path fill="none" stroke="green" d="M30-8v-109h158V-8H30z"/></g><g class="node" transform="translate(4 366)"><circle fill="#ffffa0" stroke="#000" cx="56" cy="-87" r="18"/><text text-anchor="middle" x="56" y="-83.9" font-family="Lato" font-size="12">0</text></g><g class="edge" transform="translate(4 366)"><path fill="none" stroke="#000" d="M1.15-87h29.48"/><path stroke="#000" d="M37.94-87l-7-3.15 3.5 3.15h-3.5 3.5l-3.5 3.15 7-3.15h0z"/></g><g class="node" transform="translate(4 366)"><circle fill="#ffffa0" stroke="#000" cx="580" cy="-250" r="18"/><text text-anchor="middle" x="580" y="-246.9" font-family="Lato" font-size="12">1</text></g><g class="edge" transform="translate(4 366)"><path fill="none" stroke="#000" d="M57.35-105.13C59.42-157.28 73.06-304 161-304h317c32.07 0 63.83 21.44 82.93 37.3"/><path stroke="#000" d="M566.44-261.98l-3.27-6.95.61 4.67-2.66-2.28h0l2.66 2.28-4.7.12 7.36 2.16h0z"/><text x="304" y="-320.4" font-family="Lato" font-size="12">a &amp; b</text><text x="311.5" y="-307.4" font-family="Lato" font-size="12" fill="#1f78b4">⓿</text></g><g class="node" transform="translate(4 366)"><circle fill="#ffffa0" stroke="#000" cx="162" cy="-183" r="18"/><text text-anchor="middle" x="162" y="-179.9" font-family="Lato" font-size="12">3</text></g><g class="edge" transform="translate(4 366)"><path fill="none" stroke="#000" d="M69.75-98.77c18.33-16.92 52.19-48.18 73.11-67.49"/><path stroke="#000" d="M148.14-171.13l-7.28 2.43 4.71-.06-2.57 2.38h0l2.57-2.38-.43 4.69 3-7.06h0z"/><text x="92" y="-165.4" font-family="Lato" font-size="12">!a &amp; !b</text><text x="102.5" y="-152.4" font-family="Lato" font-size="12" fill="#6a3d9a">❸</text></g><g class="node" transform="translate(4 366)"><circle fill="#ffffa0" stroke="#000" cx="162" cy="-34" r="18"/><text text-anchor="middle" x="162" y="-30.9" font-family="Lato" font-size="12">4</text></g><g class="edge" transform="translate(4 366)"><path fill="none" stroke="#000" d="M63.21-70.39C68.74-58.2 78.13-42.52 92-35c13.72 7.43 31.35 7.56 45.35 5.89"/><path stroke="#000" d="M144.31-30.12l-7.38-2.11 3.91 2.62-3.46.5h0l3.46-.5-3.01 3.62 6.48-4.13h0z"/><text x="93.5" y="-51.4" font-family="Lato" font-size="12">a &amp; !b</text><text x="102.5" y="-38.4" font-family="Lato" font-size="12" fill="#ff4da0">❶</text></g><g class="node" transform="translate(4 366)"><circle fill="#ffffa0" stroke="#000" cx="683" cy="-155" r="18"/><text text-anchor="middle" x="683" y="-151.9" font-family="Lato" font-size="12">7</text></g><g class="edge" transform="translate(4 366)"><path fill="none" stroke="#000" d="M594.32-238.23C607.77-226.26 629.07-207.1 647-190c5.9 5.63 12.24 11.9 17.88 17.56"/><path stroke="#000" d="M669.83-167.45l-2.69-7.19.23 4.7-2.47-2.48h0l2.47 2.48-4.71-.27 7.17 2.76h0z"/><text x="616" y="-234.4" font-family="Lato" font-size="12">a &amp; !b</text><text x="625" y="-221.4" font-family="Lato" font-size="12" fill="#ff4da0">❶</text></g><g class="edge" transform="translate(4 366)"><path fill="none" stroke="#000" d="M674.37-170.92c-2.26-10.23.62-20.08 8.63-20.08 6.13 0 9.25 5.77 9.37 13.07"/><path stroke="#000" d="M691.63-170.92l3.87-6.63-3.5 3.15.37-3.48h0l-.37 3.48-2.77-3.81 2.4 7.29h0z"/><text x="669" y="-207.4" font-family="Lato" font-size="12">a &amp; b</text><text x="676.5" y="-194.4" font-family="Lato" font-size="12" fill="#ff7f00">❷</text></g><g class="node" transform="translate(4 366)"><circle fill="#ffffa0" stroke="#000" cx="786" cy="-137" r="18"/><text text-anchor="middle" x="786" y="-133.9" font-family="Lato" font-size="12">5</text></g><g class="edge" transform="translate(4 366)"><path fill="none" stroke="#000" d="M700.13-161.23c13.61-4.32 33.45-8.37 49.87-2.77 6.16 2.1 12.08 5.77 17.24 9.74"/><path stroke="#000" d="M772.93-149.53l-3.37-6.9.67 4.66-2.69-2.24h0l2.69 2.24-4.7.19 7.4 2.05h0z"/><text x="720.5" y="-182.4" font-family="Lato" font-size="12">a &amp; b</text><text x="728" y="-169.4" font-family="Lato" font-size="12" fill="#ff7f00">❷</text></g><g class="node" transform="translate(4 366)"><circle fill="#ffffa0" stroke="#000" cx="892" cy="-191" r="18"/><text text-anchor="middle" x="892" y="-187.9" font-family="Lato" font-size="12">6</text></g><g class="edge" transform="translate(4 366)"><path fill="none" stroke="#000" d="M692.97-170.59c6.35-10.09 15.58-23.06 26.03-32.41 18.69-16.73 24.76-21.56 49-28 36.66-9.73 78.49 10.79 102.71 25.88"/><path stroke="#000" d="M876.76-201.23l-4.19-6.43 1.25 4.54-2.95-1.89h0l2.95 1.89-4.65.76 7.59 1.13h0z"/><text x="769" y="-249.4" font-family="Lato" font-size="12">!a &amp; !b</text><text x="779.5" y="-236.4" font-family="Lato" font-size="12" fill="#6a3d9a">❸</text></g><g class="edge" transform="translate(4 366)"><path fill="none" stroke="#000" d="M778.05-153.2c-6.04-12.73-15.76-30.33-28.05-42.8-36.01-36.51-52.83-41.38-103-52-13.69-2.9-29.33-3.49-41.94-3.31"/><path stroke="#000" d="M598.02-251.13l7.07 2.97-3.58-3.06 3.5-.09h0l-3.5.09 3.42-3.24-6.91 3.33h0z"/><text x="667.5" y="-259.4" font-family="Lato" font-size="12">!a &amp; b</text><text x="676.5" y="-246.4" font-family="Lato" font-size="12" fill="#ff7f00">❷</text></g><g class="edge" transform="translate(4 366)"><path fill="none" stroke="#000" d="M767.93-135.25c-13.48.9-32.65 1.12-48.93-2.75-4.57-1.09-9.24-2.84-13.62-4.81"/><path stroke="#000" d="M698.79-146.04l4.91 5.91-1.76-4.37 3.14 1.54h0l-3.14-1.54 4.52-1.29-7.67-.25h0z"/><text x="719" y="-154.4" font-family="Lato" font-size="12">a &amp; !b</text><text x="728" y="-141.4" font-family="Lato" font-size="12" fill="#1f78b4">⓿</text></g><g class="edge" transform="translate(4 366)"><path fill="none" stroke="#000" d="M803.68-140.55c14.49-3.55 35.7-9.86 52.32-19.45 6.2-3.57 12.27-8.36 17.58-13.1"/><path stroke="#000" d="M879-178.17l-7.26 2.48 4.71-.09-2.56 2.39h0l2.56-2.39-.41 4.69 2.96-7.08h0z"/><text x="822" y="-176.4" font-family="Lato" font-size="12">!a &amp; !b</text><text x="832.5" y="-163.4" font-family="Lato" font-size="12" fill="#1f78b4">⓿</text></g><g class="edge" transform="translate(4 366)"><path fill="none" stroke="#000" d="M874.09-193.37c-37.79-5-127.89-15.17-155.09-2.63-9.08 4.19-16.67 12.01-22.44 19.71"/><path stroke="#000" d="M692.51-170.48l6.59-3.94-4.59 1.07 2.01-2.87h0l-2.01 2.87-.58-4.67-1.42 7.54h0z"/><text x="770.5" y="-218.4" font-family="Lato" font-size="12">!a &amp; b</text><text x="779.5" y="-205.4" font-family="Lato" font-size="12" fill="#6a3d9a">❸</text></g><g class="node" transform="translate(4 366)"><circle fill="#ffffa0" stroke="#000" cx="477" cy="-104" r="18"/><text text-anchor="middle" x="477" y="-100.9" font-family="Lato" font-size="12">2</text></g><g class="edge" transform="translate(4 366)"><path fill="none" stroke="#000" d="M488.05-118.53c18.08-26.13 56.1-81.09 76.8-111.01"/><path stroke="#000" d="M568.99-235.53l-6.58 3.97 4.59-1.09-2 2.88h0l2-2.88.6 4.67 1.39-7.55h0z"/><text x="514.5" y="-214.4" font-family="Lato" font-size="12">a &amp; b</text><text x="522" y="-201.4" font-family="Lato" font-size="12" fill="#1f78b4">⓿</text></g><g class="edge" transform="translate(4 366)"><path fill="none" stroke="#000" d="M495.26-105.04c43.12-2.72 159-10.85 254.74-24.96 3.66-.54 7.52-1.21 11.28-1.92"/><path stroke="#000" d="M768.33-133.3l-7.48-1.74 4.04 2.41-3.43.68h0l3.43-.68-2.82 3.77 6.26-4.44h0z"/><text x="616" y="-133.4" font-family="Lato" font-size="12">a &amp; !b</text><text x="625" y="-120.4" font-family="Lato" font-size="12" fill="#ff4da0">❶</text></g><g class="node" transform="translate(4 366)"><circle fill="#ffffa0" stroke="#000" cx="371" cy="-50" r="18"/><text text-anchor="middle" x="371" y="-46.9" font-family="Lato" font-size="12">9</text></g><g class="edge" transform="translate(4 366)"><path fill="none" stroke="#000" d="M387.35-57.97c17.66-9.17 46.81-24.31 66.83-34.7"/><path stroke="#000" d="M460.59-96l-7.66.43 4.56 1.18-3.11 1.62h0l3.11-1.62-1.66 4.41 4.76-6.02h0z"/><text x="407" y="-100.4" font-family="Lato" font-size="12">!a &amp; !b</text><text x="417.5" y="-87.4" font-family="Lato" font-size="12" fill="#1f78b4">⓿</text></g><g class="edge" transform="translate(4 366)"><path fill="none" stroke="#000" d="M362.02-65.92C359.68-76.15 362.67-86 371-86c6.38 0 9.63 5.77 9.75 13.07"/><path stroke="#000" d="M379.98-65.92l3.89-6.61-3.51 3.13.38-3.47h0l-.38 3.47-2.75-3.82 2.37 7.3h0z"/><text x="357" y="-102.4" font-family="Lato" font-size="12">a &amp; b</text><text x="364.5" y="-89.4" font-family="Lato" font-size="12" fill="#ff7f00">❷</text></g><g class="edge" transform="translate(4 366)"><path fill="none" stroke="#000" d="M174.12-196.88C191.19-216.51 225.91-250 264-250h290.77"/><path stroke="#000" d="M561.84-250l-7-3.15 3.5 3.15h-3.5 3.5l-3.5 3.15 7-3.15h0z"/><text x="357" y="-266.4" font-family="Lato" font-size="12">a &amp; b</text><text x="364.5" y="-253.4" font-family="Lato" font-size="12" fill="#6a3d9a">❸</text></g><g class="node" transform="translate(4 366)"><circle fill="#ffffa0" stroke="#000" cx="265" cy="-151" r="18"/><text text-anchor="middle" x="265" y="-147.9" font-family="Lato" font-size="12">8</text></g><g class="edge" transform="translate(4 366)"><path fill="none" stroke="#000" d="M174.14-169.35c6.25 6.56 14.63 13.77 23.86 17.35 13.22 5.13 29.08 5.53 41.93 4.58"/><path stroke="#000" d="M247.11-148.11l-7.27-2.46 3.79 2.8-3.48.33h0l3.48-.33-3.18 3.47 6.66-3.81h0z"/><text x="198" y="-168.4" font-family="Lato" font-size="12">!a &amp; b</text><text x="207" y="-155.4" font-family="Lato" font-size="12" fill="#ff4da0">❶</text></g><g class="edge" transform="translate(4 366)"><path fill="none" stroke="#000" d="M282.84-154.87c15.91-3.44 40.51-8.23 62.16-10.13 116.67-10.26 256.83 1.63 312.49 7.31"/><path stroke="#000" d="M664.77-156.93l-6.63-3.86 3.15 3.49-3.48-.36h0l3.48.36-3.8 2.78 7.28-2.41h0z"/><text x="460" y="-185.4" font-family="Lato" font-size="12">!a &amp; !b</text><text x="470.5" y="-172.4" font-family="Lato" font-size="12" fill="#6a3d9a">❸</text></g><g class="edge" transform="translate(4 366)"><path fill="none" stroke="#000" d="M270.72-133.66C279.71-104.39 302.3-45.87 345-20c30.27 18.34 42.61 16 78 16h261c54.04 0 82.93-70.51 94.65-108.85"/><path stroke="#000" d="M780.64-119.61l-5 5.82 4.01-2.46-.99 3.35h0l.99-3.35 2.03 4.24-1.04-7.6h0z"/><text x="513" y="-20.4" font-family="Lato" font-size="12">a &amp; !b</text><text x="522" y="-7.4" font-family="Lato" font-size="12" fill="#ff7f00">❷</text></g><g class="edge" transform="translate(4 366)"><path fill="none" stroke="#000" d="M283-147.9c31.41 5.83 100.54 19.17 158 33.9 3.83.98 7.87 2.08 11.8 3.18"/><path stroke="#000" d="M459.67-108.87l-5.87-4.94 2.5 3.99-3.36-.96h0l3.36.96-4.23 2.07 7.6-1.12h0z"/><text x="355.5" y="-151.4" font-family="Lato" font-size="12">a &amp; !b</text><text x="364.5" y="-138.4" font-family="Lato" font-size="12" fill="#6a3d9a">❸</text></g><g class="edge" transform="translate(4 366)"><path fill="none" stroke="#000" d="M276.41-136.88c6.65 8.68 15.68 19.82 24.59 28.88 15.56 15.81 35.04 31.89 49.34 43.1"/><path stroke="#000" d="M356.12-60.41l-3.6-6.78.83 4.63-2.76-2.14h0l2.76 2.14-4.69.34 7.46 1.81h0z"/><text x="301" y="-124.4" font-family="Lato" font-size="12">!a &amp; !b</text><text x="311.5" y="-111.4" font-family="Lato" font-size="12" fill="#ff4da0">❶</text></g><g class="edge" transform="translate(4 366)"><path fill="none" stroke="#000" d="M251.5-163.53c-6.22-5.44-14.19-11.28-22.5-14.47-13.18-5.06-28.92-6.41-41.72-6.45"/><path stroke="#000" d="M180.13-184.34l7.05 3.04-3.55-3.1 3.5-.05h0l-3.5.05 3.45-3.2-6.95 3.26h0z"/><text x="198" y="-200.4" font-family="Lato" font-size="12">!a &amp; b</text><text x="207" y="-187.4" font-family="Lato" font-size="12" fill="#ff4da0">❶</text></g><g class="edge" transform="translate(4 366)"><path fill="none" stroke="#000" d="M148.02-45.5C141.69-50.71 133.77-56.66 126-61c-14.47-8.07-31.95-14.63-45.69-19.14"/><path stroke="#000" d="M73.5-82.31l5.71 5.13-2.38-4.06 3.34 1.06h0l-3.34-1.06 4.29-1.94-7.62.87h0z"/><text x="93.5" y="-91.4" font-family="Lato" font-size="12">!a &amp; b</text><text x="102.5" y="-78.4" font-family="Lato" font-size="12" fill="#6a3d9a">❸</text></g><g class="edge" transform="translate(4 366)"><path fill="none" stroke="#000" d="M179.06-27.96C218.5-14.18 322.3 15.77 397-20c28.8-13.79 52.38-43 66.06-63.07"/><path stroke="#000" d="M466.99-88.98l-6.5 4.09 4.56-1.17-1.94 2.92h0l1.94-2.92.69 4.66 1.25-7.58h0z"/><text x="302.5" y="-20.4" font-family="Lato" font-size="12">!a &amp; b</text><text x="311.5" y="-7.4" font-family="Lato" font-size="12" fill="#ff4da0">❶</text></g><g class="edge" transform="translate(4 366)"><path fill="none" stroke="#000" d="M180.29-35.34c36.85-2.84 123.19-9.52 165.49-12.79"/><path stroke="#000" d="M352.9-48.68l-7.22-2.6 3.73 2.87-3.49.27h0l3.49-.27-3.24 3.41 6.73-3.68h0z"/><text x="249.5" y="-59.4" font-family="Lato" font-size="12">a &amp; !b</text><text x="258.5" y="-46.4" font-family="Lato" font-size="12" fill="#1f78b4">⓿</text></g></g></svg>