<?xml-stylesheet href="spot.css" type="text/css"?><svg width="337pt" height="208" viewBox="0 0 337 155.66" xmlns="http://www.w3.org/2000/svg"><g class="graph"><path fill="#fff" stroke="transparent" d="M0 155.66V0h337v155.66H0z"/><text x="162.5" y="-134.06" font-family="Lato" font-size="12" transform="translate(4 151.66)">t</text><text x="155" y="-121.06" font-family="Lato" font-size="12" transform="translate(4 151.66)">[all]</text><g class="node" transform="translate(4 151.66)"><circle fill="#ffffa0" stroke="#000" cx="56" cy="-21.66" r="18"/><text text-anchor="middle" x="56" y="-18.56" font-family="Lato" font-size="12">0</text></g><g class="edge" transform="translate(4 151.66)"><path fill="none" stroke="#000" d="M1.15-21.66h29.48"/><path stroke="#000" d="M37.94-21.66l-7-3.15 3.5 3.15h-3.5 3.5l-3.5 3.15 7-3.15h0z"/></g><g class="edge" transform="translate(4 151.66)"><path fill="none" stroke="#000" d="M49.62-38.7c-1.3-9.82.83-18.96 6.38-18.96 4.17 0 6.4 5.14 6.71 11.85"/><path stroke="#000" d="M62.38-38.7l3.47-6.85-3.31 3.35.17-3.49h0l-.17 3.49-2.98-3.64 2.82 7.14h0z"/><text x="32" y="-61.06" font-family="Lato" font-size="12">!p0 &amp; !p1</text></g><g class="node" transform="translate(4 151.66)"><circle fill="#ffffa0" stroke="#000" cx="182" cy="-64.66" r="18"/><text text-anchor="middle" x="182" y="-61.56" font-family="Lato" font-size="12">2</text></g><g class="edge" transform="translate(4 151.66)"><path fill="none" stroke="#000" d="M68.33-34.86C74.63-41.31 83-48.54 92-52.66c20.34-9.32 45.84-11.96 64.33-12.49"/><path stroke="#000" d="M163.79-65.25l-7.05-3.05 3.55 3.1-3.5.05h0l3.5-.05-3.46 3.2 6.96-3.25h0z"/><text x="92" y="-67.06" font-family="Lato" font-size="12">!p0 &amp; !p1</text></g><g class="node" transform="translate(4 151.66)"><circle fill="#ffffa0" stroke="#000" cx="308" cy="-21.66" r="18"/><text text-anchor="middle" x="308" y="-18.56" font-family="Lato" font-size="12">1</text></g><g class="edge" transform="translate(4 151.66)"><path fill="none" stroke="#000" d="M74.08-20.49c5.7.34 12.08.66 17.92.83 69.09 1.97 150.71.04 190.59-1.18"/><path stroke="#000" d="M289.99-21.07L282.9-24l3.6 3.04-3.5.11h0l3.5-.11-3.4 3.26 6.89-3.37h0z"/><text x="158" y="-22.06" font-family="Lato" font-size="12">!p0 &amp; !p1</text></g><g class="edge" transform="translate(4 151.66)"><path fill="none" stroke="#000" d="M167.88-53.07c-7.63 6.12-17.73 13.22-27.88 17.41-18.74 7.73-41.55 11.19-58.51 12.74"/><path stroke="#000" d="M74.14-22.33l7.23 2.58-3.74-2.86 3.49-.28h0l-3.49.28 3.24-3.42-6.73 3.7h0z"/><text x="93.5" y="-39.06" font-family="Lato" font-size="12">p0 &amp; !p1</text></g><g class="edge" transform="translate(4 151.66)"><path fill="none" stroke="#000" d="M171.09-79.08c-3.81-10.75-.18-21.58 10.91-21.58 8.66 0 12.78 6.61 12.34 14.63"/><path stroke="#000" d="M192.91-79.08l4.5-6.22-3.79 2.79.7-3.43h0l-.7 3.43-2.38-4.06 1.67 7.49h0z"/><text x="159.5" y="-104.06" font-family="Lato" font-size="12">p0 &amp; !p1</text></g><g class="edge" transform="translate(4 151.66)"><path fill="none" stroke="#000" d="M200.21-65.25c18.56.01 48.54 1.94 71.79 12.59 6.75 3.09 13.15 7.93 18.58 12.88"/><path stroke="#000" d="M295.67-34.86l-2.84-7.13.32 4.69-2.51-2.43h0l2.51 2.43-4.7-.17 7.22 2.61h0z"/><text x="224" y="-67.06" font-family="Lato" font-size="12">!p0 &amp; !p1</text></g><g class="edge" transform="translate(4 151.66)"><path fill="none" stroke="#000" d="M290.27-18.31c-5.79 1.16-12.31 2.46-18.27 3.65-50.02 9.92-63.25 17.95-114 13-26.78-2.62-56.98-9.07-77.33-13.95"/><path stroke="#000" d="M73.65-17.32l6.05 4.72-2.65-3.89 3.4.83h0l-3.4-.83 4.15-2.23-7.55 1.4h0z"/><text x="159.5" y="-5.06" font-family="Lato" font-size="12">p0 &amp; !p1</text></g><g class="edge" transform="translate(4 151.66)"><path fill="none" stroke="#000" d="M289.98-23.66c-17.13-2.4-44.08-7.24-65.98-16-7.08-2.84-14.34-6.84-20.74-10.81"/><path stroke="#000" d="M197.18-54.39l4.18 6.44-1.24-4.55 2.94 1.9h0l-2.94-1.9 4.65-.75-7.59-1.14h0z"/><text x="225.5" y="-43.06" font-family="Lato" font-size="12">p0 &amp; !p1</text></g><g class="edge" transform="translate(4 151.66)"><path fill="none" stroke="#000" d="M297.85-36.83c-3.08-10.5.31-20.83 10.15-20.83 7.54 0 11.29 6.05 11.25 13.61"/><path stroke="#000" d="M318.15-36.83l4.17-6.45-3.64 2.99.52-3.46h0l-.52 3.46-2.59-3.94 2.06 7.4h0z"/><text x="287" y="-61.06" font-family="Lato" font-size="12">p0 &amp; p1</text></g></g></svg>