<?xml-stylesheet href="spot.css" type="text/css"?><svg width="328pt" height="109pt" viewBox="0 0 328 109" xmlns="http://www.w3.org/2000/svg"><g class="graph"><path fill="#fff" stroke="transparent" d="M0 109V0h328v109H0z"/><text x="158" y="-87.4" font-family="Lato" font-size="12" transform="translate(4 105)">t</text><text x="150.5" y="-74.4" font-family="Lato" font-size="12" transform="translate(4 105)">[all]</text><g class="node" transform="translate(4 105)"><circle fill="#ffffa0" stroke="#000" cx="56" cy="-18" r="18"/><text text-anchor="middle" x="56" y="-14.9" font-family="Lato" font-size="12">0</text></g><g class="edge" transform="translate(4 105)"><path fill="none" stroke="#000" d="M1.15-18h29.48"/><path stroke="#000" d="M37.94-18l-7-3.15 3.5 3.15h-3.5 3.5l-3.5 3.15 7-3.15h0z"/></g><g class="node" transform="translate(4 105)"><circle fill="#ffffa0" stroke="#000" cx="176" cy="-18" r="18"/><text text-anchor="middle" x="176" y="-14.9" font-family="Lato" font-size="12">2</text></g><g class="edge" transform="translate(4 105)"><path fill="none" stroke="#000" d="M74.16-18h76.36"/><path stroke="#000" d="M157.82-18l-7-3.15 3.5 3.15h-3.5 3.5l-3.5 3.15 7-3.15h0z"/><text x="92" y="-21.4" font-family="Lato" font-size="12">!p0 &amp; !p1</text></g><g class="node" transform="translate(4 105)"><circle fill="#ffffa0" stroke="#000" cx="296" cy="-18" r="18"/><text text-anchor="middle" x="296" y="-14.9" font-family="Lato" font-size="12">1</text></g><g class="edge" transform="translate(4 105)"><path fill="none" stroke="#000" d="M194.16-18h76.36"/><path stroke="#000" d="M277.82-18l-7-3.15 3.5 3.15h-3.5 3.5l-3.5 3.15 7-3.15h0z"/><text x="212" y="-21.4" font-family="Lato" font-size="12">!p0 &amp; !p1</text></g><g class="edge" transform="translate(4 105)"><path fill="none" stroke="#000" d="M285.85-33.17C282.77-43.66 286.16-54 296-54c7.54 0 11.29 6.06 11.25 13.61"/><path stroke="#000" d="M306.15-33.17l4.17-6.44-3.64 2.98.52-3.46h0l-.52 3.46-2.59-3.93 2.06 7.39h0z"/><text x="272" y="-57.4" font-family="Lato" font-size="12">!p0 &amp; !p1</text></g></g></svg>