<?xml-stylesheet href="spot.css" type="text/css"?><svg width="1087pt" height="353pt" viewBox="0 0 1087 353" xmlns="http://www.w3.org/2000/svg"><g class="graph"><path fill="#fff" stroke="transparent" d="M0 353V0h1087v353H0z"/><text x="443.5" y="-332.4" font-family="Lato" font-size="12" transform="translate(4 349)">Inf(</text><text x="460.5" y="-332.4" font-family="Lato" font-size="12" fill="#1f78b4" transform="translate(4 349)">⓿</text><text x="473.5" y="-332.4" font-family="Lato" font-size="12" transform="translate(4 349)">) | (Fin(</text><text x="511.5" y="-332.4" font-family="Lato" font-size="12" fill="#ff4da0" transform="translate(4 349)">❶</text><text x="524.5" y="-332.4" font-family="Lato" font-size="12" transform="translate(4 349)">) &amp; (Inf(</text><text x="563.5" y="-332.4" font-family="Lato" font-size="12" fill="#ff7f00" transform="translate(4 349)">❷</text><text x="576.5" y="-332.4" font-family="Lato" font-size="12" transform="translate(4 349)">) | Fin(</text><text x="610.5" y="-332.4" font-family="Lato" font-size="12" fill="#6a3d9a" transform="translate(4 349)">❸</text><text x="623.5" y="-332.4" font-family="Lato" font-size="12" transform="translate(4 349)">)))</text><text x="490" y="-320.4" font-family="Lato" font-size="12" transform="translate(4 349)">[parity min even 4]</text><g class="node" transform="translate(4 349)"><path fill="#ffffa0" stroke="#000" d="M62-139H50c-6 0-12 6-12 12v12c0 6 6 12 12 12h12c6 0 12-6 12-12v-12c0-6-6-12-12-12"/><text x="52.5" y="-124.4" font-family="Lato" font-size="12">0</text><text x="49.5" y="-111.4" font-family="Lato" font-size="12" fill="#ff4da0">❶</text></g><g class="edge" transform="translate(4 349)"><path fill="none" stroke="#000" d="M1.15-121h29.48"/><path stroke="#000" d="M37.94-121l-7-3.15 3.5 3.15h-3.5 3.5l-3.5 3.15 7-3.15h0z"/></g><g class="edge" transform="translate(4 349)"><path fill="none" stroke="#000" d="M49.49-139.15c-1-9.39 1.17-17.85 6.51-17.85 3.92 0 6.14 4.56 6.64 10.7"/><path stroke="#000" d="M62.51-139.15l3.28-6.95-3.22 3.45.07-3.5h0l-.07 3.5-3.08-3.56 3.02 7.06h0z"/><text x="33.5" y="-160.4" font-family="Lato" font-size="12">p0 &amp; !p1</text></g><g class="node" transform="translate(4 349)"><path fill="#ffffa0" stroke="#000" d="M188-171h-12c-6 0-12 6-12 12v12c0 6 6 12 12 12h12c6 0 12-6 12-12v-12c0-6-6-12-12-12"/><text x="178.5" y="-156.4" font-family="Lato" font-size="12">2</text><text x="175.5" y="-143.4" font-family="Lato" font-size="12" fill="#ff7f00">❷</text></g><g class="edge" transform="translate(4 349)"><path fill="none" stroke="#000" d="M74.24-125.45c21.56-5.56 58.59-15.12 82.87-21.39"/><path stroke="#000" d="M163.9-148.59l-7.56-1.3 4.18 2.18-3.39.87h0l3.39-.87-2.61 3.92 5.99-4.8h0z"/><text x="92" y="-144.4" font-family="Lato" font-size="12">!p0 &amp; !p1</text></g><g class="node" transform="translate(4 349)"><path fill="#ffffa0" stroke="#000" d="M446-297h-12c-6 0-12 6-12 12v12c0 6 6 12 12 12h12c6 0 12-6 12-12v-12c0-6-6-12-12-12"/><text x="436.5" y="-282.4" font-family="Lato" font-size="12">8</text><text x="433.5" y="-269.4" font-family="Lato" font-size="12" fill="#1f78b4">⓿</text></g><g class="edge" transform="translate(4 349)"><path fill="none" stroke="#000" d="M72.62-139.12C78.42-145.41 85.24-152.3 92-158c78.14-65.89 99.08-91.27 198-117 42.71-11.11 94.64-9.19 124.55-6.67"/><path stroke="#000" d="M421.67-281.03l-6.69-3.77 3.2 3.45-3.49-.31h0l3.49.31-3.77 2.83 7.26-2.51h0z"/><text x="224" y="-272.4" font-family="Lato" font-size="12">!p0 &amp; !p1</text></g><g class="node" transform="translate(4 349)"><path fill="#ffffa0" stroke="#000" d="M947-110h-12c-6 0-12 6-12 12v12c0 6 6 12 12 12h12c6 0 12-6 12-12v-12c0-6-6-12-12-12"/><text x="937.5" y="-95.4" font-family="Lato" font-size="12">6</text><text x="934.5" y="-82.4" font-family="Lato" font-size="12" fill="#1f78b4">⓿</text></g><g class="edge" transform="translate(4 349)"><path fill="none" stroke="#000" d="M62.72-102.86C68.26-87.59 77.91-65.91 92-51c31.31 33.14 43.41 51 89 51h639.5c44.55 0 82.66-40.63 103.22-67.89"/><path stroke="#000" d="M928.08-73.82l-6.68 3.77 4.61-.95-2.08 2.82h0l2.08-2.82.46 4.68 1.61-7.5h0z"/><text x="483.5" y="-3.4" font-family="Lato" font-size="12">!p0 &amp; p1</text></g><g class="node" transform="translate(4 349)"><path fill="#ffffa0" stroke="#000" d="M318.5-171h-12c-6 0-12 6-12 12v12c0 6 6 12 12 12h12c6 0 12-6 12-12v-12c0-6-6-12-12-12"/><text x="309" y="-156.4" font-family="Lato" font-size="12">5</text><text x="306" y="-143.4" font-family="Lato" font-size="12" fill="#1f78b4">⓿</text></g><g class="edge" transform="translate(4 349)"><path fill="none" stroke="#000" d="M200.06-153h87.2"/><path stroke="#000" d="M294.37-153l-7-3.15 3.5 3.15h-3.5 3.5l-3.5 3.15 7-3.15h0z"/><text x="224" y="-156.4" font-family="Lato" font-size="12">!p0 &amp; !p1</text></g><g class="node" transform="translate(4 349)"><path fill="#ffffa0" stroke="#000" d="M578-255h-12c-6 0-12 6-12 12v12c0 6 6 12 12 12h12c6 0 12-6 12-12v-12c0-6-6-12-12-12"/><text x="568.5" y="-240.4" font-family="Lato" font-size="12">4</text><text x="565.5" y="-227.4" font-family="Lato" font-size="12" fill="#1f78b4">⓿</text></g><g class="edge" transform="translate(4 349)"><path fill="none" stroke="#000" d="M200.36-160.81c7.23-3.09 15.75-6.53 23.64-9.19 117.4-39.61 265.49-58.42 322.81-64.6"/><path stroke="#000" d="M553.97-235.35l-7.29-2.4 3.81 2.76-3.48.37h0l3.48-.37-3.15 3.5 6.63-3.86h0z"/><text x="354.5" y="-215.4" font-family="Lato" font-size="12">p0 &amp; p1</text></g><g class="edge" transform="translate(4 349)"><path fill="none" stroke="#000" d="M421.97-288.36c-7.17-3.44-15.75-6.92-23.97-8.64-75.84-15.91-100.8-14.41-174 11-68.04 23.61-86.41 38.25-132 94-11.21 13.71-20.01 31.62-25.98 46.02"/><path stroke="#000" d="M63.32-139.23l5.53-5.33-4.23 2.08 1.3-3.25h0l-1.3 3.25L63-146.9l.32 7.67h0z"/><text x="225.5" y="-303.4" font-family="Lato" font-size="12">!p0 &amp; p1</text></g><g class="edge" transform="translate(4 349)"><path fill="none" stroke="#000" d="M421.89-276.18c-45.11 7.69-166 30.09-197.89 54.18-14.75 11.14-25.23 29.27-31.89 44.15"/><path stroke="#000" d="M189.31-171.28l5.64-5.21-4.27 1.99 1.37-3.22h0l-1.37 3.22-1.53-4.46.16 7.68h0z"/><text x="290" y="-261.4" font-family="Lato" font-size="12">p0 &amp; !p1</text></g><g class="edge" transform="translate(4 349)"><path fill="none" stroke="#000" d="M458.27-270.15c7.21 3.47 15.75 7.3 23.73 10.15 21.43 7.66 46.61 13.93 64.7 17.97"/><path stroke="#000" d="M553.99-240.43l-6.16-4.58 2.75 3.83-3.42-.75h0l3.42.75-4.1 2.33 7.51-1.58h0z"/><text x="483.5" y="-263.4" font-family="Lato" font-size="12">p0 &amp; !p1</text></g><g class="node" transform="translate(4 349)"><path fill="#ffffa0" stroke="#000" d="M1067-177h-12c-6 0-12 6-12 12v12c0 6 6 12 12 12h12c6 0 12-6 12-12v-12c0-6-6-12-12-12"/><text x="1057.5" y="-162.4" font-family="Lato" font-size="12">3</text><text x="1054.5" y="-149.4" font-family="Lato" font-size="12" fill="#1f78b4">⓿</text></g><g class="edge" transform="translate(4 349)"><path fill="none" stroke="#000" d="M458.22-280.74c24.87-2.35 72.3-6.26 112.78-6.26h371c55.63 0 92.26 66.16 108.46 103.35"/><path stroke="#000" d="M1053.24-177.07l.18-7.67-1.54 4.45-1.36-3.22h0l1.36 3.22-4.27-2 5.63 5.22h0z"/><text x="732.5" y="-290.4" font-family="Lato" font-size="12">!p0 &amp; p1</text></g><g class="edge" transform="translate(4 349)"><path fill="none" stroke="#000" d="M922.98-92H635.5C481.2-92 442-99.5 290-126c-28.83-5.03-61.34-13.67-82.89-19.82"/><path stroke="#000" d="M200.25-147.8l5.85 4.97-2.49-4 3.37.97h0l-3.37-.97 4.24-2.05-7.6 1.08h0z"/><text x="548" y="-96.4" font-family="Lato" font-size="12">!p0 &amp; !p1</text></g><g class="edge" transform="translate(4 349)"><path fill="none" stroke="#000" d="M959.08-100.32c5.7-2.77 12.08-5.86 17.92-8.68 21.31-10.28 27.86-10.6 48-23 4.04-2.49 8.17-5.35 12.11-8.26"/><path stroke="#000" d="M1042.71-144.51l-7.48 1.72 4.7.39-2.79 2.12h0l2.79-2.12-.89 4.63 3.67-6.74h0z"/><text x="977" y="-135.4" font-family="Lato" font-size="12">!p0 &amp; !p1</text></g><g class="node" transform="translate(4 349)"><path fill="#ffffa0" stroke="#000" d="M701-177h-12c-6 0-12 6-12 12v12c0 6 6 12 12 12h12c6 0 12-6 12-12v-12c0-6-6-12-12-12"/><text x="691.5" y="-162.4" font-family="Lato" font-size="12">1</text><text x="688.5" y="-149.4" font-family="Lato" font-size="12" fill="#6a3d9a">❸</text></g><g class="edge" transform="translate(4 349)"><path fill="none" stroke="#000" d="M676.66-154.83c-5.6 1.16-11.86 2.26-17.66 2.83-119.96 11.88-264.51 4.49-321.1.77"/><path stroke="#000" d="M330.82-151.71l6.77 3.61-3.28-3.38 3.49.24h0l-3.49-.24 3.7-2.9-7.19 2.67h0z"/><text x="482" y="-148.4" font-family="Lato" font-size="12">!p0 &amp; !p1</text></g><g class="node" transform="translate(4 349)"><path fill="#ffffa0" stroke="#000" d="M825.5-64h-12c-6 0-12 6-12 12v12c0 6 6 12 12 12h12c6 0 12-6 12-12v-12c0-6-6-12-12-12"/><text x="816" y="-49.4" font-family="Lato" font-size="12">9</text><text x="813" y="-36.4" font-family="Lato" font-size="12" fill="#ff4da0">❶</text></g><g class="edge" transform="translate(4 349)"><path fill="none" stroke="#000" d="M713.03-143.29c21.64 19.96 59.04 54.46 82.99 76.56"/><path stroke="#000" d="M801.22-61.94L798.21-69l.43 4.68-2.57-2.37h0l2.57 2.37-4.7-.05 7.28 2.43h0z"/><text x="732.5" y="-128.4" font-family="Lato" font-size="12">!p0 &amp; p1</text></g><g class="edge" transform="translate(4 349)"><path fill="none" stroke="#000" d="M294.15-144.17C273.69-134.3 238.37-118.93 206-113c-43.46 7.96-95.14 1.76-124.8-3.26"/><path stroke="#000" d="M74.15-117.5l6.34 4.32-2.9-3.71 3.45.6h0l-3.45-.6 4-2.5-7.44 1.89h0z"/><text x="158" y="-116.4" font-family="Lato" font-size="12">!p0 &amp; !p1</text></g><g class="edge" transform="translate(4 349)"><path fill="none" stroke="#000" d="M330.83-160.03c23.21-9.53 62.07-25.94 67.17-30.97 17.63-17.4 28.53-43.82 34.62-63.17"/><path stroke="#000" d="M434.65-260.95l-5.03 5.8 4.02-2.45-1 3.36h0l1-3.36 2.02 4.26-1.01-7.61h0z"/><text x="353" y="-194.4" font-family="Lato" font-size="12">p0 &amp; !p1</text></g><g class="node" transform="translate(4 349)"><path fill="#ffffa0" stroke="#000" d="M578-197h-12c-6 0-12 6-12 12v12c0 6 6 12 12 12h12c6 0 12-6 12-12v-12c0-6-6-12-12-12"/><text x="568.5" y="-182.4" font-family="Lato" font-size="12">7</text><text x="565.5" y="-169.4" font-family="Lato" font-size="12" fill="#ff7f00">❷</text></g><g class="edge" transform="translate(4 349)"><path fill="none" stroke="#000" d="M330.8-154.75c44.71-4.51 164.22-16.58 215.87-21.79"/><path stroke="#000" d="M553.78-177.26l-7.28-2.43 3.8 2.78-3.48.35h0l3.48-.35-3.17 3.49 6.65-3.84h0z"/><text x="416" y="-171.4" font-family="Lato" font-size="12">!p0 &amp; !p1</text></g><g class="edge" transform="translate(4 349)"><path fill="none" stroke="#000" d="M801.46-46H181c-40.53 0-79.15-29.7-102.22-51.72"/><path stroke="#000" d="M73.54-102.84l2.8 7.14-.3-4.7 2.51 2.45h0l-2.51-2.45 4.71.2-7.21-2.64h0z"/><text x="419" y="-49.4" font-family="Lato" font-size="12">p0 &amp; p1</text></g><g class="edge" transform="translate(4 349)"><path fill="none" stroke="#000" d="M837.72-47.66c17.6-2.19 45.37-7.05 67.28-17.34 4.1-1.93 8.18-4.4 12.01-7.07"/><path stroke="#000" d="M922.82-76.37l-7.5 1.63 4.69.45-2.81 2.09h0l2.81-2.09-.94 4.62 3.75-6.7h0z"/><text x="860" y="-68.4" font-family="Lato" font-size="12">p0 &amp; !p1</text></g><g class="edge" transform="translate(4 349)"><path fill="none" stroke="#000" d="M590.09-239.76c43.65-6.31 162.15-18.8 251.91 14.76 33.23 12.42 41.47 20.81 63 49 13.55 17.73 22.8 41.47 28.37 59.19"/><path stroke="#000" d="M935.4-110.1l.99-7.62-2 4.27-1.02-3.35h0l1.02 3.35-4.03-2.44 5.04 5.79h0z"/><text x="731" y="-249.4" font-family="Lato" font-size="12">!p0 &amp; !p1</text></g><g class="edge" transform="translate(4 349)"><path fill="none" stroke="#000" d="M590.08-225.99c21.05 13.57 56.92 36.69 80.52 51.91"/><path stroke="#000" d="M676.62-170.21l-4.18-6.44 1.23 4.55-2.94-1.9h0l2.94 1.9-4.64.75 7.59 1.14h0z"/><text x="615.5" y="-212.4" font-family="Lato" font-size="12">p0 &amp; p1</text></g><g class="edge" transform="translate(4 349)"><path fill="none" stroke="#000" d="M1055.27-140.93c-4.93 14.83-14.22 34.96-30.27 44.93-17.37 10.79-40.95 10.86-58.54 8.77"/><path stroke="#000" d="M959.32-88.23l6.5 4.09-3.03-3.61 3.47.49h0l-3.47-.49 3.9-2.63-7.37 2.15h0z"/><text x="978.5" y="-99.4" font-family="Lato" font-size="12">p0 &amp; !p1</text></g><g class="edge" transform="translate(4 349)"><path fill="none" stroke="#000" d="M1042.97-159h-322.5"/><path stroke="#000" d="M713.07-159l7 3.15-3.5-3.15h3.5-3.5l3.5-3.15-7 3.15h0z"/><text x="860" y="-162.4" font-family="Lato" font-size="12">!p0 &amp; p1</text></g><g class="edge" transform="translate(4 349)"><path fill="none" stroke="#000" d="M590.05-169.74c7.18 3.42 15.76 6.91 23.95 8.74 18.3 4.08 39.53 4.41 55.52 3.82"/><path stroke="#000" d="M676.91-157.54l-7.14-2.81 3.65 2.98-3.5.17h0l3.5-.17-3.35 3.32 6.84-3.49h0z"/><text x="614" y="-164.4" font-family="Lato" font-size="12">!p0 &amp; p1</text></g><g class="edge" transform="translate(4 349)"><path fill="none" stroke="#000" d="M590.29-196.01c6.82-5.59 15.08-11.09 23.71-13.99 18.96-6.36 25.03-1.01 45 0 163.29 8.23 207.21-1.96 366 37 3.73.92 7.6 2.15 11.33 3.51"/><path stroke="#000" d="M1042.87-166.96l-5.39-5.47 2.13 4.2-3.27-1.26h0l3.27 1.26-4.41 1.68 7.67-.41h0z"/><text x="797" y="-208.4" font-family="Lato" font-size="12">!p0 &amp; p1</text></g></g></svg>