<?xml-stylesheet href="spot.css" type="text/css"?><svg width="344pt" height="154pt" viewBox="0 0 344 154.03" xmlns="http://www.w3.org/2000/svg"><g class="graph"><path fill="#fff" stroke="transparent" d="M0 154.03V0h344v154.03H0z"/><text x="149.5" y="-132.43" font-family="Lato" font-size="12" transform="translate(4 150.03)">[Büchi]</text><g class="node" transform="translate(4 150.03)"><circle fill="#ffffa0" stroke="#000" cx="56" cy="-55.03" r="18"/><text text-anchor="middle" x="56" y="-51.93" font-family="Lato" font-size="12">0</text></g><g class="edge" transform="translate(4 150.03)"><path fill="none" stroke="#000" d="M1.15-55.03h29.48"/><path stroke="#000" d="M37.94-55.03l-7-3.15 3.5 3.15h-3.5 3.5l-3.5 3.15 7-3.15h0z"/></g><g class="node" transform="translate(4 150.03)"><circle fill="#ffffa0" stroke="#000" cx="312" cy="-47.03" r="18"/><circle fill="none" stroke="#000" cx="312" cy="-47.03" r="22"/><text text-anchor="middle" x="312" y="-43.93" font-family="Lato" font-size="12">1</text></g><g class="edge" transform="translate(4 150.03)"><path fill="none" stroke="#000" d="M70.73-66.08c25.98-19.53 84.31-56.87 135.27-42.95 31.23 8.53 62.61 28.99 82.82 44.09"/><path stroke="#000" d="M294.47-60.65l-3.66-6.74.87 4.62-2.78-2.12h0l2.78 2.12-4.69.39 7.48 1.73h0z"/><text x="158" y="-115.43" font-family="Lato" font-size="12">!p0 &amp; !p1</text></g><g class="node" transform="translate(4 150.03)"><circle fill="#ffffa0" stroke="#000" cx="182" cy="-47.03" r="18"/><circle fill="none" stroke="#000" cx="182" cy="-47.03" r="22"/><text text-anchor="middle" x="182" y="-43.93" font-family="Lato" font-size="12">2</text></g><g class="edge" transform="translate(4 150.03)"><path fill="none" stroke="#000" d="M74.18-54.45c16.8.63 43.09 1.77 65.82 3.42 4.11.3 8.45.67 12.71 1.06"/><path stroke="#000" d="M159.74-49.3l-6.67-3.8 3.18 3.47-3.48-.34h0l3.48.34-3.78 2.8 7.27-2.47h0z"/><text x="92" y="-56.43" font-family="Lato" font-size="12">!p0 &amp; !p1</text></g><g class="edge" transform="translate(4 150.03)"><path fill="none" stroke="#000" d="M292.38-36.54C271.93-25.68 237.78-9.42 206-3.03c-20.91 4.21-26.99 3.7-48 0-30.74-5.41-38.79-8.71-66-24-5.66-3.18-11.34-7.25-16.44-11.31"/><path stroke="#000" d="M69.89-43.03l3.39 6.89-.69-4.66 2.7 2.23h0l-2.7-2.23 4.7-.19-7.4-2.04h0z"/><text x="161" y="-6.43" font-family="Lato" font-size="12">p0 &amp; p1</text></g><g class="edge" transform="translate(4 150.03)"><path fill="none" stroke="#000" d="M300.66-65.96c-2.32-10.91 1.46-21.07 11.34-21.07 7.56 0 11.55 5.96 11.96 13.64"/><path stroke="#000" d="M323.34-65.96l3.72-6.71-3.43 3.22.3-3.48h0l-.3 3.48-2.84-3.75 2.55 7.24h0z"/><text x="288" y="-90.43" font-family="Lato" font-size="12">!p0 &amp; !p1</text></g><g class="edge" transform="translate(4 150.03)"><path fill="none" stroke="#000" d="M161.26-39.54C143.03-33.7 115.33-27.57 92-34.03c-5.16-1.43-10.33-3.85-15.05-6.54"/><path stroke="#000" d="M70.84-44.36l4.29 6.37-1.32-4.53 2.98 1.85h0l-2.98-1.85 4.64-.83-7.61-1.01h0z"/><text x="95" y="-37.43" font-family="Lato" font-size="12">p0 &amp; p1</text></g><g class="edge" transform="translate(4 150.03)"><path fill="none" stroke="#000" d="M204.14-47.03h78.66"/><path stroke="#000" d="M289.83-47.03l-7-3.15 3.5 3.15h-3.5 3.5l-3.5 3.15 7-3.15h0z"/><text x="224" y="-50.43" font-family="Lato" font-size="12">!p0 &amp; !p1</text></g><g class="edge" transform="translate(4 150.03)"><path fill="none" stroke="#000" d="M170.3-65.96c-2.38-10.91 1.52-21.07 11.7-21.07 7.8 0 11.91 5.96 12.34 13.64"/><path stroke="#000" d="M193.7-65.96l3.74-6.7-3.44 3.21.3-3.48h0l-.3 3.48-2.84-3.75 2.54 7.24h0z"/><text x="159.5" y="-90.43" font-family="Lato" font-size="12">p0 &amp; !p1</text></g></g></svg>