<?xml-stylesheet href="spot.css" type="text/css"?><svg width="1018pt" height="590pt" viewBox="0 0 1018 590" xmlns="http://www.w3.org/2000/svg"><g class="graph"><path fill="#fff" stroke="transparent" d="M0 590V0h1018v590H0z"/><text x="503" y="-568.4" font-family="Lato" font-size="12" transform="translate(4 586)">t</text><text x="495.5" y="-555.4" font-family="Lato" font-size="12" transform="translate(4 586)">[all]</text><g class="node" transform="translate(4 586)"><circle fill="#ffffa0" stroke="#000" cx="56" cy="-394" r="18"/><text text-anchor="middle" x="56" y="-390.9" font-family="Lato" font-size="12">0</text></g><g class="edge" transform="translate(4 586)"><path fill="none" stroke="#000" d="M1.15-394h29.48"/><path stroke="#000" d="M37.94-394l-7-3.15 3.5 3.15h-3.5 3.5l-3.5 3.15 7-3.15h0z"/></g><g class="node" transform="translate(4 586)"><circle fill="#ffffa0" stroke="#000" cx="162" cy="-294" r="18"/><text text-anchor="middle" x="162" y="-290.9" font-family="Lato" font-size="12">8</text></g><g class="edge" transform="translate(4 586)"><path fill="none" stroke="#000" d="M69.75-381.74c18.43 17.72 52.56 50.54 73.45 70.63"/><path stroke="#000" d="M148.47-306.05l-2.86-7.12.34 4.69-2.53-2.42h0l2.53 2.42-4.71-.15 7.23 2.58h0z"/><text x="92" y="-361.4" font-family="Lato" font-size="12">!a &amp; !b</text></g><g class="node" transform="translate(4 586)"><circle fill="#ffffa0" stroke="#000" cx="265" cy="-294" r="18"/><text text-anchor="middle" x="265" y="-290.9" font-family="Lato" font-size="12">3</text></g><g class="edge" transform="translate(4 586)"><path fill="none" stroke="#000" d="M73.86-390.66c14.23 3.13 34.97 8.41 52.14 15.66 44.3 18.72 91.8 49.16 117.9 66.91"/><path stroke="#000" d="M249.76-304.07l-4-6.56 1.11 4.58-2.89-1.98h0l2.89 1.98-4.67.62 7.56 1.36h0z"/><text x="145" y="-369.4" font-family="Lato" font-size="12">!a &amp; !b</text></g><g class="node" transform="translate(4 586)"><circle fill="#ffffa0" stroke="#000" cx="992" cy="-426" r="18"/><text text-anchor="middle" x="992" y="-422.9" font-family="Lato" font-size="12">4</text></g><g class="edge" transform="translate(4 586)"><path fill="none" stroke="#000" d="M57.47-411.95C59.1-437.3 65.76-483.58 92-511c22.45-23.46 36.53-24 69-24h729c31.21 0 43.47 2.4 66 24 16.78 16.09 25.79 41.39 30.45 60.21"/><path stroke="#000" d="M988.08-443.68l1.51-7.52-2.29 4.11-.78-3.41h0l.78 3.41-3.85-2.71 4.63 6.12h0z"/><text x="504" y="-538.4" font-family="Lato" font-size="12">!a &amp; !b</text></g><g class="edge" transform="translate(4 586)"><path fill="none" stroke="#000" d="M180.13-294h59.21"/><path stroke="#000" d="M246.78-294l-7-3.15 3.5 3.15h-3.5 3.5l-3.5 3.15 7-3.15h0z"/><text x="198" y="-297.4" font-family="Lato" font-size="12">!a &amp; b</text></g><g class="node" transform="translate(4 586)"><circle fill="#ffffa0" stroke="#000" cx="574" cy="-148" r="18"/><text text-anchor="middle" x="574" y="-144.9" font-family="Lato" font-size="12">1</text></g><g class="edge" transform="translate(4 586)"><path fill="none" stroke="#000" d="M166.47-276.39C175.25-237.56 202.2-148 264-148h284.7"/><path stroke="#000" d="M555.7-148l-7-3.15 3.5 3.15h-3.5 3.5l-3.5 3.15 7-3.15h0z"/><text x="351" y="-151.4" font-family="Lato" font-size="12">a &amp; b</text></g><g class="edge" transform="translate(4 586)"><path fill="none" stroke="#000" d="M256.37-309.92c-2.26-10.23.62-20.08 8.63-20.08 6.13 0 9.25 5.77 9.37 13.07"/><path stroke="#000" d="M273.63-309.92l3.87-6.63-3.5 3.15.37-3.48h0l-.37 3.48-2.77-3.81 2.4 7.29h0z"/><text x="249.5" y="-333.4" font-family="Lato" font-size="12">a &amp; !b</text></g><g class="node" transform="translate(4 586)"><circle fill="#ffffa0" stroke="#000" cx="365" cy="-374" r="18"/><text text-anchor="middle" x="365" y="-370.9" font-family="Lato" font-size="12">2</text></g><g class="edge" transform="translate(4 586)"><path fill="none" stroke="#000" d="M279.63-305.12c16.96-13.85 46.05-37.6 65.24-53.27"/><path stroke="#000" d="M350.49-362.97l-7.42 1.99 4.71.22-2.71 2.22h0l2.71-2.22-.72 4.66 3.43-6.87h0z"/><text x="301" y="-346.4" font-family="Lato" font-size="12">a &amp; b</text></g><g class="node" transform="translate(4 586)"><circle fill="#ffffa0" stroke="#000" cx="468" cy="-228" r="18"/><text text-anchor="middle" x="468" y="-224.9" font-family="Lato" font-size="12">9</text></g><g class="edge" transform="translate(4 586)"><path fill="none" stroke="#000" d="M281.93-287.33c5.95 2.41 12.78 5.09 19.07 7.33 50.26 17.89 110.19 35.85 142.52 45.27"/><path stroke="#000" d="M450.37-232.75l-5.85-4.97 2.49 4-3.37-.98h0l3.37.98-4.24 2.05 7.6-1.08h0z"/><text x="349.5" y="-267.4" font-family="Lato" font-size="12">a &amp; !b</text></g><g class="edge" transform="translate(4 586)"><path fill="none" stroke="#000" d="M980.61-440.03C963.98-460.72 929.22-497 890-497H161c-45.36 0-78.03 50.08-93.65 80.4"/><path stroke="#000" d="M64.1-410.09l5.95-4.86-4.38 1.72 1.56-3.13h0l-1.56 3.13-1.26-4.53-.31 7.67h0z"/><text x="504" y="-500.4" font-family="Lato" font-size="12">!a &amp; !b</text></g><g class="node" transform="translate(4 586)"><circle fill="#ffffa0" stroke="#000" cx="889" cy="-145" r="18"/><text text-anchor="middle" x="889" y="-141.9" font-family="Lato" font-size="12">7</text></g><g class="edge" transform="translate(4 586)"><path fill="none" stroke="#000" d="M985.02-409.35c-17.19 47.82-66.74 185.68-86.62 240.98"/><path stroke="#000" d="M896.02-161.74l5.33-5.52-4.15 2.23 1.18-3.29h0l-1.18 3.29-1.78-4.36.6 7.65h0z"/><text x="925" y="-330.4" font-family="Lato" font-size="12">!a &amp; b</text></g><g class="edge" transform="translate(4 586)"><path fill="none" stroke="#000" d="M571.36-130c-2.93 21.21-11.03 55.98-33.36 75-23.82 20.29-37.71 14-69 14H161C92.61-41 65.87-287.89 58.95-368.72"/><path stroke="#000" d="M58.34-376.01l-2.56 7.24 2.85-3.75.29 3.49h0l-.29-3.49 3.43 3.22-3.72-6.71h0z"/><text x="301" y="-44.4" font-family="Lato" font-size="12">a &amp; b</text></g><g class="edge" transform="translate(4 586)"><path fill="none" stroke="#000" d="M582.82-131.71c5.97 10.67 15.2 24.02 27.18 31.71 39.31 25.25 56.52 16.31 103 21 62.6 6.32 86.45 12.03 140-21 9.13-5.63 16.8-14.56 22.61-22.98"/><path stroke="#000" d="M879.69-129.26l-6.45 4.15 4.55-1.22-1.91 2.94h0l1.91-2.94.73 4.65 1.17-7.58h0z"/><text x="716" y="-82.4" font-family="Lato" font-size="12">a &amp; b</text></g><g class="node" transform="translate(4 586)"><circle fill="#ffffa0" stroke="#000" cx="677" cy="-334" r="18"/><text text-anchor="middle" x="677" y="-330.9" font-family="Lato" font-size="12">6</text></g><g class="edge" transform="translate(4 586)"><path fill="none" stroke="#000" d="M578.36-165.48c4.78-22.28 14.86-61.51 31.64-91.52 12.85-23 33.23-45.41 47.94-60.08"/><path stroke="#000" d="M663.08-322.11l-7.2 2.65 4.7-.2-2.5 2.45h0l2.5-2.45-.29 4.7 2.79-7.15h0z"/><text x="610" y="-303.4" font-family="Lato" font-size="12">a &amp; !b</text></g><g class="edge" transform="translate(4 586)"><path fill="none" stroke="#000" d="M884.21-127.51C874.73-88.94 846.11 0 784 0H161c-43.06 0-50.28-29.23-69-68-25.62-53.06-32.69-233.49-34.46-300.59"/><path stroke="#000" d="M57.36-375.83l-2.98 7.07 3.07-3.57.08 3.49h0l-.08-3.49 3.23 3.42-3.32-6.92h0z"/><text x="452.5" y="-3.4" font-family="Lato" font-size="12">!a &amp; b</text></g><g class="edge" transform="translate(4 586)"><path fill="none" stroke="#000" d="M883.61-127.73C878.76-112.39 869.39-90.65 853-79c-19.06 13.55-28.69 6.22-52 8-169.99 13-213.02-8-383.5-8H264c-83.08 0-97.95-133.14-100.51-189.88"/><path stroke="#000" d="M163.21-276.04l-2.88 7.12 3.02-3.62.13 3.5h0l-.13-3.5 3.28 3.37-3.42-6.87h0z"/><text x="504" y="-81.4" font-family="Lato" font-size="12">!a &amp; !b</text></g><g class="edge" transform="translate(4 586)"><path fill="none" stroke="#000" d="M902.73-156.71c15.25-14.81 40.36-41.83 53.27-70.29 26.43-58.25 32.96-134.48 34.54-173.52"/><path stroke="#000" d="M990.79-407.82l-3.39 6.89 3.27-3.39-.12 3.49h0l.12-3.49 3.03 3.6-2.91-7.1h0z"/><text x="926.5" y="-230.4" font-family="Lato" font-size="12">a &amp; b</text></g><g class="edge" transform="translate(4 586)"><path fill="none" stroke="#000" d="M870.75-144.74c-43.66.58-162.1 1.73-260.75-1.26-3.47-.11-7.13-.26-10.72-.44"/><path stroke="#000" d="M592.08-146.84l6.82 3.53-3.32-3.34 3.49.19h0l-3.49-.19 3.66-2.95-7.16 2.76h0z"/><text x="713" y="-148.4" font-family="Lato" font-size="12">!a &amp; !b</text></g><g class="edge" transform="translate(4 586)"><path fill="none" stroke="#000" d="M876.33-158.26C858.47-177.01 822.37-209 784-209H573c-28.08 0-59.73-6.78-80.66-12.24"/><path stroke="#000" d="M485.4-223.11l5.94 4.86-2.56-3.95 3.38.91h0l-3.38-.91 4.2-2.13-7.58 1.22h0z"/><text x="663" y="-212.4" font-family="Lato" font-size="12">a &amp; b</text></g><g class="edge" transform="translate(4 586)"><path fill="none" stroke="#000" d="M664.28-346.92C642.27-370.09 592.06-417.88 538-435c-58.05-18.38-77.96-14.9-137 0-90.61 22.86-180.98 92.44-219.13 124.5"/><path stroke="#000" d="M176.21-305.69l7.37-2.13-4.7-.14 2.66-2.26h0l-2.66 2.26.62-4.66-3.29 6.93h0z"/><text x="402.5" y="-445.4" font-family="Lato" font-size="12">a &amp; b</text></g><g class="edge" transform="translate(4 586)"><path fill="none" stroke="#000" d="M658.88-335.66C627.93-338.7 560.6-345.57 504-353c-39.97-5.25-86.27-12.54-113.79-17.01"/><path stroke="#000" d="M382.96-371.19l6.41 4.24-2.95-3.68 3.45.57h0l-3.45-.57 3.96-2.54-7.42 1.98h0z"/><text x="505.5" y="-356.4" font-family="Lato" font-size="12">a &amp; !b</text></g><g class="node" transform="translate(4 586)"><circle fill="#ffffa0" stroke="#000" cx="783" cy="-277" r="18"/><text text-anchor="middle" x="783" y="-273.9" font-family="Lato" font-size="12">5</text></g><g class="edge" transform="translate(4 586)"><path fill="none" stroke="#000" d="M694.04-327.56c14.26 5.95 35.5 15.39 52.96 25.56 5.17 3.01 10.54 6.59 15.47 10.08"/><path stroke="#000" d="M768.43-287.59l-3.81-6.66.98 4.6-2.83-2.05h0l2.83 2.05-4.68.5 7.51 1.56h0z"/><text x="714.5" y="-321.4" font-family="Lato" font-size="12">a &amp; !b</text></g><g class="edge" transform="translate(4 586)"><path fill="none" stroke="#000" d="M347-375.92c-38.99-4.3-137.94-14.6-221-18.08-14.81-.62-31.42-.64-44.63-.5"/><path stroke="#000" d="M74.02-394.4l7.04 3.06-3.54-3.1 3.5-.05h0l-3.5.05 3.46-3.2-6.96 3.24h0z"/><text x="198" y="-392.4" font-family="Lato" font-size="12">a &amp; !b</text></g><g class="edge" transform="translate(4 586)"><path fill="none" stroke="#000" d="M380.82-383.17c6.04-3.32 13.24-6.76 20.18-8.83 140.47-41.79 181.44-34 328-34H966.77"/><path stroke="#000" d="M973.84-426l-7-3.15 3.5 3.15h-3.5 3.5l-3.5 3.15 7-3.15h0z"/><text x="660" y="-429.4" font-family="Lato" font-size="12">!a &amp; !b</text></g><g class="edge" transform="translate(4 586)"><path fill="none" stroke="#000" d="M383.14-375.64c20.07-1.78 54.35-4.36 83.86-4.36h211c45.36 0 78.03 50.08 93.65 80.4"/><path stroke="#000" d="M774.9-293.09l-.31-7.67-1.26 4.53-1.56-3.13h0l1.56 3.13-4.38-1.72 5.95 4.86h0z"/><text x="558.5" y="-383.4" font-family="Lato" font-size="12">a &amp; !b</text></g><g class="edge" transform="translate(4 586)"><path fill="none" stroke="#000" d="M376.05-359.47c18.08 26.13 56.1 81.09 76.8 111.01"/><path stroke="#000" d="M456.99-242.47l-1.39-7.55-.6 4.67-2-2.88h0l2 2.88-4.59-1.09 6.58 3.97h0z"/><text x="401" y="-325.4" font-family="Lato" font-size="12">!a &amp; b</text></g><g class="edge" transform="translate(4 586)"><path fill="none" stroke="#000" d="M765.12-279.53c-26.4-3.81-79.11-10.86-124.12-13.47-132.14-7.65-290.91-3.78-350.67-1.86"/><path stroke="#000" d="M283.21-294.63l7.1 2.92-3.6-3.03 3.5-.12h0l-3.5.12 3.4-3.27-6.9 3.38h0z"/><text x="505.5" y="-301.4" font-family="Lato" font-size="12">a &amp; !b</text></g><g class="edge" transform="translate(4 586)"><path fill="none" stroke="#000" d="M773.55-261.66C760.08-238.75 731.51-195.95 695-174c-29.76 17.9-70.24 23.54-95.75 25.29"/><path stroke="#000" d="M592.16-148.3l7.17 2.74-3.67-2.95 3.49-.2h0l-3.49.2 3.31-3.34-6.81 3.55h0z"/><text x="661.5" y="-177.4" font-family="Lato" font-size="12">!a &amp; b</text></g><g class="edge" transform="translate(4 586)"><path fill="none" stroke="#000" d="M798.93-268.35c15.28 9.48 38.88 25.95 54.07 45.35 12.73 16.26 21.96 37.88 27.74 54.24"/><path stroke="#000" d="M883-162.11l.73-7.64-1.86 4.33-1.12-3.31h0l1.12 3.31-4.11-2.3 5.24 5.61h0z"/><text x="819" y="-257.4" font-family="Lato" font-size="12">!a &amp; !b</text></g><g class="edge" transform="translate(4 586)"><path fill="none" stroke="#000" d="M774.02-292.92c-2.34-10.23.65-20.08 8.98-20.08 6.38 0 9.63 5.77 9.75 13.07"/><path stroke="#000" d="M791.98-292.92l3.89-6.61-3.51 3.13.38-3.47h0l-.38 3.47-2.75-3.82 2.37 7.3h0z"/><text x="766" y="-316.4" font-family="Lato" font-size="12">!a &amp; !b</text></g><g class="edge" transform="translate(4 586)"><path fill="none" stroke="#000" d="M765.72-271.66c-26.03 8.29-78.77 24.1-124.72 31.66-52.17 8.59-114.24 11.04-147.7 11.73"/><path stroke="#000" d="M486.21-228.14l7.06 3.02-3.56-3.08 3.5-.07h0l-3.5.07 3.44-3.22-6.94 3.28h0z"/><text x="610" y="-243.4" font-family="Lato" font-size="12">!a &amp; b</text></g><g class="edge" transform="translate(4 586)"><path fill="none" stroke="#000" d="M449.78-226.66c-23.8 1.28-67.75 1.52-102.78-10.34-24.37-8.25-47.92-26.33-63.29-39.93"/><path stroke="#000" d="M278.43-281.71l3.08 7.04-.48-4.69 2.59 2.35h0l-2.59-2.35 4.71.02-7.31-2.37h0z"/><text x="349.5" y="-240.4" font-family="Lato" font-size="12">a &amp; !b</text></g><g class="edge" transform="translate(4 586)"><path fill="none" stroke="#000" d="M477.92-212.87c6.33 9.75 15.55 22.19 26.08 30.87 13.73 11.31 31.85 20.06 46.08 25.84"/><path stroke="#000" d="M556.71-153.55l-5.36-5.49 2.11 4.21-3.26-1.28h0l3.26 1.28-4.41 1.65 7.66-.37h0z"/><text x="505.5" y="-185.4" font-family="Lato" font-size="12">!a &amp; b</text></g></g></svg>