<?xml-stylesheet href="spot.css" type="text/css"?><svg width="293pt" height="230pt" viewBox="0 0 293 230" xmlns="http://www.w3.org/2000/svg"><g class="graph"><path fill="#fff" stroke="transparent" d="M0 230V0h293v230H0z"/><text x="124" y="-208.4" font-family="Lato" font-size="12" transform="translate(4 226)">[Büchi]</text><g class="node" transform="translate(4 226)"><circle fill="#ffffa0" stroke="#000" cx="56" cy="-103" r="18"/><text text-anchor="middle" x="56" y="-99.9" font-family="Lato" font-size="12">2</text></g><g class="edge" transform="translate(4 226)"><path fill="none" stroke="#000" d="M1.15-103h29.48"/><path stroke="#000" d="M37.94-103l-7-3.15 3.5 3.15h-3.5 3.5l-3.5 3.15 7-3.15h0z"/></g><g class="edge" transform="translate(4 226)"><path fill="none" stroke="#000" d="M49.62-120.04c-1.3-9.82.83-18.96 6.38-18.96 4.17 0 6.4 5.14 6.71 11.86"/><path stroke="#000" d="M62.38-120.04l3.47-6.84-3.31 3.35.17-3.5h0l-.17 3.5-2.98-3.65 2.82 7.14h0z"/><text x="28.5" y="-142.4" font-family="Lato" font-size="12">a &amp; !b &amp; !c</text></g><g class="node" transform="translate(4 226)"><circle fill="#ffffa0" stroke="#000" cx="180" cy="-152" r="18"/><text text-anchor="middle" x="180" y="-148.9" font-family="Lato" font-size="12">0</text></g><g class="edge" transform="translate(4 226)"><path fill="none" stroke="#000" d="M72.95-109.41c21.28-8.54 59.09-23.73 83.34-33.47"/><path stroke="#000" d="M163.05-145.59l-7.67-.32 4.42 1.62-3.25 1.31h0l3.25-1.31-2.07 4.23 5.32-5.53h0z"/><text x="102.5" y="-140.4" font-family="Lato" font-size="12">b &amp; !c</text></g><g class="node" transform="translate(4 226)"><circle fill="#ffffa0" stroke="#000" cx="263" cy="-103" r="18"/><circle fill="none" stroke="#000" cx="263" cy="-103" r="22"/><text text-anchor="middle" x="263" y="-99.9" font-family="Lato" font-size="12">1</text></g><g class="edge" transform="translate(4 226)"><path fill="none" stroke="#000" d="M74.13-103h159.62"/><path stroke="#000" d="M240.85-103l-7-3.15 3.5 3.15h-3.5 3.5l-3.5 3.15 7-3.15h0z"/><text x="166" y="-106.4" font-family="Lato" font-size="12">b &amp; c</text></g><g class="node" transform="translate(4 226)"><circle fill="#ffffa0" stroke="#000" cx="180" cy="-18" r="18"/><text text-anchor="middle" x="180" y="-14.9" font-family="Lato" font-size="12">3</text></g><g class="edge" transform="translate(4 226)"><path fill="none" stroke="#000" d="M70.46-92.26C76.9-87.22 84.77-81.19 92-76c22.2 15.93 48.37 33.18 66.17 44.69"/><path stroke="#000" d="M164.32-27.34l-4.18-6.44 1.24 4.54-2.94-1.9h0l2.94 1.9-4.65.75 7.59 1.15h0z"/><text x="92" y="-79.4" font-family="Lato" font-size="12">a &amp; !b &amp; c</text></g><g class="edge" transform="translate(4 226)"><path fill="none" stroke="#000" d="M173.27-169.04c-1.38-9.82.87-18.96 6.73-18.96 4.4 0 6.76 5.14 7.09 11.86"/><path stroke="#000" d="M186.73-169.04l3.5-6.83-3.32 3.34.17-3.5h0l-.17 3.5-2.98-3.65 2.8 7.14h0z"/><text x="175" y="-191.4" font-family="Lato" font-size="12">!c</text></g><g class="edge" transform="translate(4 226)"><path fill="none" stroke="#000" d="M195.86-143.01c11.72 7.09 28.31 17.13 41.95 25.37"/><path stroke="#000" d="M243.83-113.99l-4.35-6.32 1.36 4.51-2.99-1.81h0l2.99 1.81-4.63.88 7.62.93h0z"/><text x="216" y="-133.4" font-family="Lato" font-size="12">c</text></g><g class="edge" transform="translate(4 226)"><path fill="none" stroke="#000" d="M255.32-123.99c-.95-10.1 1.61-19.01 7.68-19.01 4.55 0 7.13 5.01 7.74 11.78"/><path stroke="#000" d="M270.68-123.99l3.2-6.98-3.17 3.48.02-3.5h0l-.02 3.5-3.13-3.52 3.1 7.02h0z"/><text text-anchor="middle" x="263" y="-146.4" font-family="Lato" font-size="12">1</text></g><g class="edge" transform="translate(4 226)"><path fill="none" stroke="#000" d="M192.95-30.54c12.97-13.61 33.88-35.56 49.3-51.74"/><path stroke="#000" d="M247.25-87.52l-7.11 2.89 4.69-.36-2.41 2.54h0l2.41-2.54-.13 4.71 2.55-7.24h0z"/><text x="216" y="-63.4" font-family="Lato" font-size="12">b</text></g><g class="edge" transform="translate(4 226)"><path fill="none" stroke="#000" d="M173.27-35.04C171.89-44.86 174.14-54 180-54c4.4 0 6.76 5.14 7.09 11.86"/><path stroke="#000" d="M186.73-35.04l3.5-6.83-3.32 3.34.17-3.5h0l-.17 3.5-2.98-3.65 2.8 7.14h0z"/><text x="164.5" y="-57.4" font-family="Lato" font-size="12">a &amp; !b</text></g></g></svg>