<?xml-stylesheet href="spot.css" type="text/css"?><svg width="278pt" height="116pt" viewBox="0 0 278 116.14" xmlns="http://www.w3.org/2000/svg"><g class="graph" transform="translate(4 112.14)"><path fill="#fff" stroke="transparent" d="M-4 4v-116.14h278V4H-4z"/><text x="133" y="-94.54" font-family="Lato" font-size="12">t</text><text x="125.5" y="-81.54" font-family="Lato" font-size="12">[all]</text><g class="node"><circle fill="#ffffa0" stroke="#000" cx="56" cy="-25.14" r="18"/><text text-anchor="middle" x="56" y="-22.04" font-family="Lato" font-size="12">1</text></g><g class="edge"><path fill="none" stroke="#000" d="M1.15-25.14h29.48"/><path stroke="#000" d="M37.94-25.14l-7-3.15 3.5 3.15h-3.5 3.5l-3.5 3.15 7-3.15h0z"/></g><g class="edge"><path fill="none" stroke="#000" d="M49.62-42.18c-1.3-9.82.83-18.96 6.38-18.96 4.17 0 6.4 5.14 6.71 11.85"/><path stroke="#000" d="M62.38-42.18l3.47-6.85-3.31 3.35.17-3.49h0l-.17 3.49-2.98-3.64 2.82 7.14h0z"/><text x="19.5" y="-64.54" font-family="Lato" font-size="12">green | !press</text></g><g class="node"><circle fill="#ffffa0" stroke="#000" cx="237" cy="-25.14" r="18"/><text text-anchor="middle" x="237" y="-22.04" font-family="Lato" font-size="12">0</text></g><g class="edge"><path fill="none" stroke="#000" d="M74.16-25.14h137.39"/><path stroke="#000" d="M218.89-25.14l-7-3.15 3.5 3.15h-3.5 3.5l-3.5 3.15 7-3.15h0z"/><text x="92" y="-28.54" font-family="Lato" font-size="12">!green &amp; press &amp; red</text></g><g class="edge"><path fill="none" stroke="#000" d="M221.22-16.13c-6.04 3.19-13.24 6.38-20.22 7.99-47.21 10.85-61.79 10.85-109 0-4.58-1.06-9.25-2.79-13.64-4.76"/><path stroke="#000" d="M71.78-16.13l4.9 5.91-1.76-4.37 3.15 1.54h0l-3.15-1.54 4.53-1.29-7.67-.25h0z"/><text x="131" y="-11.54" font-family="Lato" font-size="12">green</text></g><g class="edge"><path fill="none" stroke="#000" d="M223.35-37.32c-7.07-11.43-2.52-23.82 13.65-23.82 13.14 0 18.61 8.18 16.4 17.38"/><path stroke="#000" d="M250.65-37.32l5.64-5.19-4.27 1.98 1.38-3.22h0l-1.38 3.22-1.52-4.46.15 7.67h0z"/><text x="204" y="-64.54" font-family="Lato" font-size="12">!green &amp; red</text></g></g></svg>