<?xml-stylesheet href="spot.css" type="text/css"?><svg width="193pt" height="197pt" viewBox="0 0 193 197" xmlns="http://www.w3.org/2000/svg"><g class="graph" transform="translate(4 193)"><path fill="#fff" stroke="transparent" d="M-4 4v-197h193V4H-4z"/><text x="58.5" y="-175.4" font-family="Lato" font-size="12">a | (b &amp; X(0))</text><g class="node"><circle fill="#ffffa0" stroke="#000" cx="56" cy="-68" r="18"/><text text-anchor="middle" x="56" y="-64.9" font-family="Lato" font-size="12">1</text></g><g class="edge"><path fill="none" stroke="#000" d="M1.15-68h29.48"/><path stroke="#000" d="M37.94-68l-7-3.15 3.5 3.15h-3.5 3.5l-3.5 3.15 7-3.15h0z"/></g><g class="node"><circle fill="#ffffa0" stroke="#000" cx="163" cy="-115" r="18"/><circle fill="none" stroke="#000" cx="163" cy="-115" r="22"/><text text-anchor="middle" x="163" y="-111.9" font-family="Lato" font-size="12">0</text></g><g class="edge"><path fill="none" stroke="#000" d="M72.95-75.14c16.8-7.52 43.52-19.48 63.31-28.34"/><path stroke="#000" d="M142.69-106.35l-7.68-.02 4.48 1.45-3.19 1.43h0l3.19-1.43-1.91 4.3 5.11-5.73h0z"/><text x="92" y="-100.4" font-family="Lato" font-size="12">!a &amp; b</text></g><g class="node"><circle fill="#ffffa0" stroke="#000" cx="163" cy="-22" r="18"/><circle fill="none" stroke="#000" cx="163" cy="-22" r="22"/><text text-anchor="middle" x="163" y="-18.9" font-family="Lato" font-size="12">2</text></g><g class="edge"><path fill="none" stroke="#000" d="M72.95-61.01c16.8 7.36 43.52 19.06 63.31 27.74"/><path stroke="#000" d="M142.69-30.46l-5.15-5.7 1.94 4.29-3.21-1.4h0l3.21 1.4-4.47 1.48 7.68-.07h0z"/><text x="104" y="-54.4" font-family="Lato" font-size="12">a</text></g><g class="edge"><path fill="none" stroke="#000" d="M153.29-134.76C151.64-145.35 154.88-155 163-155c6.22 0 9.57 5.66 10.06 13.06"/><path stroke="#000" d="M172.71-134.76l3.49-6.83-3.32 3.34.17-3.5h0l-.17 3.5-2.97-3.65 2.8 7.14h0z"/><text text-anchor="middle" x="163" y="-158.4" font-family="Lato" font-size="12">0</text></g><g class="edge"><path fill="none" stroke="#000" d="M153.29-41.76C151.64-52.35 154.88-62 163-62c6.22 0 9.57 5.66 10.06 13.06"/><path stroke="#000" d="M172.71-41.76l3.49-6.83-3.32 3.34.17-3.5h0l-.17 3.5-2.97-3.65 2.8 7.14h0z"/><text text-anchor="middle" x="163" y="-65.4" font-family="Lato" font-size="12">1</text></g></g></svg>