<?xml-stylesheet href="spot.css" type="text/css"?><svg width="672" height="230pt" viewBox="0 0 504 230" xmlns="http://www.w3.org/2000/svg"><g class="graph" transform="translate(4 226)"><path fill="#fff" stroke="transparent" d="M-4 4v-230h504V4H-4z"/><text x="229.5" y="-208.4" font-family="Lato" font-size="12">[Büchi]</text><g class="node"><circle fill="#ffffa0" stroke="#000" cx="56" cy="-103" r="18"/><text text-anchor="middle" x="56" y="-99.9" font-family="Lato" font-size="12">3</text></g><g class="edge"><path fill="none" stroke="#000" d="M1.15-103h29.48"/><path stroke="#000" d="M37.94-103l-7-3.15 3.5 3.15h-3.5 3.5l-3.5 3.15 7-3.15h0z"/></g><g class="edge"><path fill="none" stroke="#000" d="M49.62-120.04c-1.3-9.82.83-18.96 6.38-18.96 4.17 0 6.4 5.14 6.71 11.86"/><path stroke="#000" d="M62.38-120.04l3.47-6.84-3.31 3.35.17-3.5h0l-.17 3.5-2.98-3.65 2.82 7.14h0z"/><text x="9" y="-142.4" font-family="Lato" font-size="12">a &amp; alive &amp; !b &amp; !c</text></g><g class="node"><circle fill="#ffffa0" stroke="#000" cx="234.5" cy="-152" r="18"/><text text-anchor="middle" x="234.5" y="-148.9" font-family="Lato" font-size="12">1</text></g><g class="edge"><path fill="none" stroke="#000" d="M72.86-109.88c5.94-2.44 12.79-5.07 19.14-7.12 40.69-13.1 89.28-24.15 117.64-30.15"/><path stroke="#000" d="M216.74-148.64l-7.5-1.65 4.07 2.37-3.43.72h0l3.43-.72-2.78 3.8 6.21-4.52h0z"/><text x="102.5" y="-144.4" font-family="Lato" font-size="12">alive &amp; b &amp; !c</text></g><g class="node"><circle fill="#ffffa0" stroke="#000" cx="369" cy="-103" r="18"/><text text-anchor="middle" x="369" y="-99.9" font-family="Lato" font-size="12">2</text></g><g class="edge"><path fill="none" stroke="#000" d="M74.16-103h269.49"/><path stroke="#000" d="M350.89-103l-7-3.15 3.5 3.15h-3.5 3.5l-3.5 3.15 7-3.15h0z"/><text x="201" y="-106.4" font-family="Lato" font-size="12">alive &amp; b &amp; c</text></g><g class="node"><circle fill="#ffffa0" stroke="#000" cx="234.5" cy="-18" r="18"/><text text-anchor="middle" x="234.5" y="-14.9" font-family="Lato" font-size="12">4</text></g><g class="edge"><path fill="none" stroke="#000" d="M70.03-91.6C76.38-86.41 84.29-80.45 92-76c39.44 22.74 89.53 41.04 118.3 50.64"/><path stroke="#000" d="M217.14-23.11l-5.66-5.18 2.34 4.09-3.33-1.09h0l3.33 1.09-4.31 1.9 7.63-.81h0z"/><text x="92" y="-79.4" font-family="Lato" font-size="12">a &amp; alive &amp; !b &amp; c</text></g><g class="node"><circle fill="#ffffa0" stroke="#000" cx="474" cy="-103" r="18"/><circle fill="none" stroke="#000" cx="474" cy="-103" r="22"/><text text-anchor="middle" x="474" y="-99.9" font-family="Lato" font-size="12">0</text></g><g class="edge"><path fill="none" stroke="#000" d="M464.29-122.76C462.64-133.35 465.88-143 474-143c6.22 0 9.57 5.66 10.06 13.06"/><path stroke="#000" d="M483.71-122.76l3.49-6.83-3.32 3.34.17-3.5h0l-.17 3.5-2.97-3.65 2.8 7.14h0z"/><text x="459.5" y="-146.4" font-family="Lato" font-size="12">!alive</text></g><g class="edge"><path fill="none" stroke="#000" d="M222.58-165.67c-4.77-10.99-.8-22.33 11.92-22.33 9.94 0 14.54 6.92 13.8 15.19"/><path stroke="#000" d="M246.42-165.67l4.83-5.97-3.94 2.59.89-3.39h0l-.89 3.39-2.16-4.19 1.27 7.57h0z"/><text x="210" y="-191.4" font-family="Lato" font-size="12">alive &amp; !c</text></g><g class="edge"><path fill="none" stroke="#000" d="M251.78-146.36c19.41 6.78 52.8 18.58 81.22 29.36 4 1.52 8.24 3.17 12.33 4.79"/><path stroke="#000" d="M352.02-109.53l-5.33-5.53 2.08 4.23-3.25-1.3h0l3.25 1.3-4.42 1.62 7.67-.32h0z"/><text x="286.5" y="-136.4" font-family="Lato" font-size="12">alive &amp; c</text></g><g class="edge"><path fill="none" stroke="#000" d="M387.01-103h57.6"/><path stroke="#000" d="M451.68-103l-7-3.15 3.5 3.15h-3.5 3.5l-3.5 3.15 7-3.15h0z"/><text x="405" y="-106.4" font-family="Lato" font-size="12">!alive</text></g><g class="edge"><path fill="none" stroke="#000" d="M360.37-118.92c-2.26-10.23.62-20.08 8.63-20.08 6.13 0 9.25 5.77 9.37 13.07"/><path stroke="#000" d="M377.63-118.92l3.87-6.63-3.5 3.15.37-3.48h0l-.37 3.48-2.77-3.81 2.4 7.29h0z"/><text x="356" y="-142.4" font-family="Lato" font-size="12">alive</text></g><g class="edge"><path fill="none" stroke="#000" d="M250.71-26.3C270.2-37.09 304.82-56.85 333-76c5.29-3.6 10.85-7.71 15.94-11.63"/><path stroke="#000" d="M354.65-92.1l-7.45 1.83 4.69.33-2.75 2.15h0l2.75-2.15-.81 4.64 3.57-6.8h0z"/><text x="286" y="-79.4" font-family="Lato" font-size="12">alive &amp; b</text></g><g class="edge"><path fill="none" stroke="#000" d="M222.58-31.67C217.81-42.66 221.78-54 234.5-54c9.94 0 14.54 6.92 13.8 15.19"/><path stroke="#000" d="M246.42-31.67l4.83-5.97-3.94 2.59.89-3.39h0l-.89 3.39-2.16-4.19 1.27 7.57h0z"/><text x="199" y="-57.4" font-family="Lato" font-size="12">a &amp; alive &amp; !b</text></g></g></svg>