<?xml-stylesheet href="spot.css" type="text/css"?><svg width="256pt" height="133pt" viewBox="0 0 256 133" xmlns="http://www.w3.org/2000/svg"><g class="graph" transform="translate(4 129)"><path fill="#fff" stroke="transparent" d="M-4 4v-133h256V4H-4z"/><text x="71" y="-111.4" font-family="Lato" font-size="12">(a &amp; Xa) | (b &amp; X[!]b)</text><g class="node"><circle fill="#ffffa0" stroke="#000" cx="56" cy="-51" r="18"/><text text-anchor="middle" x="56" y="-47.9" font-family="Lato" font-size="12">0</text></g><g class="edge"><path fill="none" stroke="#000" d="M1.15-51h29.48"/><path stroke="#000" d="M37.94-51l-7-3.15 3.5 3.15h-3.5 3.5l-3.5 3.15 7-3.15h0z"/></g><g class="node"><circle fill="#ffffa0" stroke="#000" cx="139" cy="-80" r="18"/><text text-anchor="middle" x="139" y="-76.9" font-family="Lato" font-size="12">1</text></g><g class="edge"><path fill="none" stroke="#000" d="M73.39-56.87c12.05-4.31 28.57-10.23 41.89-14.99"/><path stroke="#000" d="M121.91-74.24l-7.65-.61 4.35 1.79-3.29 1.18h0l3.29-1.18-2.23 4.15 5.53-5.33h0z"/><text x="92" y="-68.4" font-family="Lato" font-size="12">b</text></g><g class="node"><circle fill="#ffffa0" stroke="#000" cx="139" cy="-22" r="18"/><circle fill="none" stroke="#000" cx="139" cy="-22" r="22"/><text text-anchor="middle" x="139" y="-18.9" font-family="Lato" font-size="12">2</text></g><g class="edge"><path fill="none" stroke="#000" d="M73.39-45.13c10.84 3.88 25.31 9.06 37.81 13.53"/><path stroke="#000" d="M117.9-29.2l-5.53-5.32 2.24 4.14-3.3-1.17h0l3.3 1.17-4.36 1.79 7.65-.61h0z"/><text x="92" y="-41.4" font-family="Lato" font-size="12">a</text></g><g class="node"><circle fill="#ffffa0" stroke="#000" cx="226" cy="-51" r="18"/><circle fill="none" stroke="#000" cx="226" cy="-51" r="22"/><text text-anchor="middle" x="226" y="-47.9" font-family="Lato" font-size="12">3</text></g><g class="edge"><path fill="none" stroke="#000" d="M156.39-74.41c11.83 4.04 28.07 9.58 41.78 14.26"/><path stroke="#000" d="M205.07-57.8l-5.61-5.24 2.3 4.11-3.31-1.13h0l3.31 1.13-4.33 1.85 7.64-.72h0z"/><text x="179" y="-69.4" font-family="Lato" font-size="12">b</text></g><g class="edge"><path fill="none" stroke="#000" d="M160.14-28.87c11.33-3.87 25.62-8.74 37.9-12.93"/><path stroke="#000" d="M205-44.18l-7.64-.72 4.33 1.85-3.31 1.13h0l3.31-1.13-2.3 4.11 5.61-5.24h0z"/><text x="179" y="-40.4" font-family="Lato" font-size="12">a</text></g><g class="edge"><path fill="none" stroke="#000" d="M218.32-71.99C217.37-82.09 219.93-91 226-91c4.55 0 7.13 5.01 7.74 11.78"/><path stroke="#000" d="M233.68-71.99l3.2-6.98-3.17 3.48.02-3.5h0l-.02 3.5-3.13-3.52 3.1 7.02h0z"/><text text-anchor="middle" x="226" y="-94.4" font-family="Lato" font-size="12">1</text></g></g></svg>