<?xml-stylesheet href="spot.css" type="text/css"?><svg width="244pt" height="113pt" viewBox="0 0 244 113.45" xmlns="http://www.w3.org/2000/svg"><g class="graph" transform="translate(4 109.45)"><path fill="#fff" stroke="transparent" d="M-4 4v-113.45h244V4H-4z"/><text x="116" y="-91.85" font-family="Lato" font-size="12">t</text><text x="108.5" y="-78.85" font-family="Lato" font-size="12">[all]</text><g class="node"><circle fill="#ffffa0" stroke="#000" cx="56" cy="-22.45" r="18"/><text text-anchor="middle" x="56" y="-19.35" font-family="Lato" font-size="12">0</text></g><g class="edge"><path fill="none" stroke="#000" d="M1.15-22.45h29.48"/><path stroke="#000" d="M37.94-22.45l-7-3.15 3.5 3.15h-3.5 3.5l-3.5 3.15 7-3.15h0z"/></g><g class="edge"><path fill="none" stroke="#000" d="M49.62-39.49c-1.3-9.82.83-18.96 6.38-18.96 4.17 0 6.4 5.14 6.71 11.85"/><path stroke="#000" d="M62.38-39.49l3.47-6.85-3.31 3.35.17-3.49h0l-.17 3.49-2.98-3.64 2.82 7.14h0z"/><text x="45.5" y="-61.85" font-family="Lato" font-size="12">!red</text></g><g class="node"><circle fill="#ffffa0" stroke="#000" cx="201" cy="-22.45" r="18"/><text text-anchor="middle" x="201" y="-19.35" font-family="Lato" font-size="12">1</text></g><g class="edge"><path fill="none" stroke="#000" d="M74.25-22.45h101.17"/><path stroke="#000" d="M182.69-22.45l-7-3.15 3.5 3.15h-3.5 3.5l-3.5 3.15 7-3.15h0z"/><text x="119.5" y="-25.85" font-family="Lato" font-size="12">red</text></g><g class="edge"><path fill="none" stroke="#000" d="M185.22-13.44c-6.04 3.19-13.24 6.38-20.22 7.99-31.62 7.27-41.38 7.27-73 0-4.58-1.06-9.25-2.79-13.64-4.76"/><path stroke="#000" d="M71.78-13.44l4.9 5.91-1.76-4.37 3.15 1.54h0l-3.15-1.54 4.53-1.29-7.67-.25h0z"/><text x="92" y="-8.85" font-family="Lato" font-size="12">!red &amp; !yellow</text></g><g class="edge"><path fill="none" stroke="#000" d="M189.24-36.5c-4.39-10.87-.47-21.95 11.76-21.95 9.56 0 14.04 6.76 13.45 14.91"/><path stroke="#000" d="M212.76-36.5l4.69-6.07-3.88 2.67.82-3.4h0l-.82 3.4-2.24-4.14 1.43 7.54h0z"/><text x="166" y="-61.85" font-family="Lato" font-size="12">red &amp; !yellow</text></g></g></svg>