<?xml-stylesheet href="spot.css" type="text/css"?><svg width="284pt" height="160" viewBox="0 0 283.6 120" xmlns="http://www.w3.org/2000/svg"><g class="graph"><path fill="#fff" stroke="transparent" d="M0 120V0h283.6v120H0z"/><text x="118.3" y="-99.4" font-family="Lato" font-size="12" transform="translate(4 116)">Fin(</text><text x="140.3" y="-99.4" font-family="Lato" font-size="12" fill="#1f78b4" transform="translate(4 116)">⓿</text><text x="153.3" y="-99.4" font-family="Lato" font-size="12" transform="translate(4 116)">)</text><text x="110.8" y="-87.4" font-family="Lato" font-size="12" transform="translate(4 116)">[co-Büchi]</text><g class="node" transform="translate(4 116)"><circle fill="#ffffa0" stroke="#000" cx="56" cy="-18" r="18"/><text text-anchor="middle" x="56" y="-14.9" font-family="Lato" font-size="12">0</text></g><g class="edge" transform="translate(4 116)"><path fill="none" stroke="#000" d="M1.15-18h29.48"/><path stroke="#000" d="M37.94-18l-7-3.15 3.5 3.15h-3.5 3.5l-3.5 3.15 7-3.15h0z"/></g><g class="edge" transform="translate(4 116)"><path fill="none" stroke="#000" d="M49.62-35.04C48.32-44.86 50.45-54 56-54c4.17 0 6.4 5.14 6.71 11.86"/><path stroke="#000" d="M62.38-35.04l3.47-6.84-3.31 3.35.17-3.5h0l-.17 3.5-2.98-3.65 2.82 7.14h0z"/><text x="52.5" y="-57.4" font-family="Lato" font-size="12">a</text></g><g class="node" transform="translate(4 116)"><circle fill="#ffffa0" stroke="#000" cx="121.8" cy="-18" r="1.8"/></g><g class="edge" transform="translate(4 116)"><path fill="none" stroke="#000" d="M74.1-18h38.33M112.57-20.45l7 2.45-7 2.45v-4.9z"/><text x="92" y="-21.4" font-family="Lato" font-size="12">!a</text></g><g class="edge" transform="translate(4 116)"><path fill="none" stroke="#000" d="M119.78-17.85c-2.81.39-10.96 1.49-17.78 1.85-6.77.36-14.11.25-20.86-.06"/><path stroke="#000" d="M74.1-16.46l6.81 3.54-3.32-3.34 3.5.2h0l-3.5-.2 3.67-2.95-7.16 2.75h0z"/></g><g class="node" transform="translate(4 116)"><circle fill="#ffffa0" stroke="#000" cx="178.6" cy="-18" r="18"/><text text-anchor="middle" x="178.6" y="-14.9" font-family="Lato" font-size="12">1</text></g><g class="edge" transform="translate(4 116)"><path fill="none" stroke="#000" d="M123.75-18h29.62"/><path stroke="#000" d="M160.58-18l-7-3.15 3.5 3.15h-3.5 3.5l-3.5 3.15 7-3.15h0z"/></g><g class="edge" transform="translate(4 116)"><path fill="none" stroke="#000" d="M172.22-35.04c-1.3-9.82.83-18.96 6.38-18.96 4.17 0 6.4 5.14 6.71 11.86"/><path stroke="#000" d="M184.98-35.04l3.47-6.84-3.31 3.35.17-3.5h0l-.17 3.5-2.98-3.65 2.82 7.14h0z"/><text x="173.6" y="-70.4" font-family="Lato" font-size="12">!a</text><text x="172.1" y="-57.4" font-family="Lato" font-size="12" fill="#1f78b4">⓿</text></g><g class="node" transform="translate(4 116)"><circle fill="#ffffa0" stroke="#000" cx="257.6" cy="-18" r="18"/><text text-anchor="middle" x="257.6" y="-14.9" font-family="Lato" font-size="12">2</text></g><g class="edge" transform="translate(4 116)"><path fill="none" stroke="#000" d="M196.69-18h35.6"/><path stroke="#000" d="M239.56-18l-7-3.15 3.5 3.15h-3.5 3.5l-3.5 3.15 7-3.15h0z"/><text x="214.6" y="-21.4" font-family="Lato" font-size="12">a</text></g><g class="edge" transform="translate(4 116)"><path fill="none" stroke="#000" d="M250.87-35.04c-1.38-9.82.87-18.96 6.73-18.96 4.4 0 6.76 5.14 7.09 11.86"/><path stroke="#000" d="M264.33-35.04l3.5-6.83-3.32 3.34.17-3.5h0l-.17 3.5-2.98-3.65 2.8 7.14h0z"/><text text-anchor="middle" x="257.6" y="-57.4" font-family="Lato" font-size="12">1</text></g></g></svg>