<?xml-stylesheet href="spot.css" type="text/css"?><svg width="211pt" height="205pt" viewBox="0 0 210.6 205" xmlns="http://www.w3.org/2000/svg"><g class="graph"><path fill="#fff" stroke="transparent" d="M0 205V0h210.6v205H0z"/><text x="81.8" y="-184.4" font-family="Lato" font-size="12" transform="translate(4 201)">Fin(</text><text x="103.8" y="-184.4" font-family="Lato" font-size="12" fill="#1f78b4" transform="translate(4 201)">⓿</text><text x="116.8" y="-184.4" font-family="Lato" font-size="12" transform="translate(4 201)">)</text><text x="74.3" y="-172.4" font-family="Lato" font-size="12" transform="translate(4 201)">[co-Büchi]</text><g class="node" transform="translate(4 201)"><circle fill="#ffffa0" stroke="#000" cx="39.8" cy="-88" r="1.8"/></g><g class="edge" transform="translate(4 201)"><path fill="none" stroke="#000" d="M1.11-88H30.8M30.92-90.45l7 2.45-7 2.45v-4.9z"/></g><g class="node" transform="translate(4 201)"><circle fill="#ffffa0" stroke="#000" cx="105.6" cy="-116" r="18"/><text text-anchor="middle" x="105.6" y="-112.9" font-family="Lato" font-size="12">0</text></g><g class="edge" transform="translate(4 201)"><path fill="none" stroke="#000" d="M41.74-88.89c2.62-2.43 10.32-9.27 17.86-13.11 6.67-3.4 14.32-6.15 21.4-8.29"/><path stroke="#000" d="M87.83-112.23l-7.59-1.12 4.22 2.07-3.36.96h0l3.36-.96-2.5 3.99 5.87-4.94h0z"/></g><g class="node" transform="translate(4 201)"><circle fill="#ffffa0" stroke="#000" cx="105.6" cy="-18" r="18"/><text text-anchor="middle" x="105.6" y="-14.9" font-family="Lato" font-size="12">1</text></g><g class="edge" transform="translate(4 201)"><path fill="none" stroke="#000" d="M41.52-87.21c4.49 4.92 29.12 31.95 46.24 50.74"/><path stroke="#000" d="M92.81-30.94l-2.39-7.3.03 4.71-2.36-2.58h0l2.36 2.58-4.69-.46 7.05 3.05h0z"/></g><g class="edge" transform="translate(4 201)"><path fill="none" stroke="#000" d="M93.48-102.3C87.24-95.72 78.86-88.51 69.6-85c-6.66 2.53-14.78 1.34-20.69-.23M47.83-83.01l-5.88-4.51 7.41-.14-1.53 4.65z"/><text x="59.6" y="-88.4" font-family="Lato" font-size="12">!a</text></g><g class="edge" transform="translate(4 201)"><path fill="none" stroke="#000" d="M98.87-133.04c-1.38-9.82.87-18.96 6.73-18.96 4.4 0 6.76 5.14 7.09 11.86"/><path stroke="#000" d="M112.33-133.04l3.5-6.83-3.32 3.34.17-3.5h0l-.17 3.5-2.98-3.65 2.8 7.14h0z"/><text x="102.1" y="-155.4" font-family="Lato" font-size="12">a</text></g><g class="edge" transform="translate(4 201)"><path fill="none" stroke="#000" d="M98.87-35.04C97.49-44.86 99.74-54 105.6-54c4.4 0 6.76 5.14 7.09 11.86"/><path stroke="#000" d="M112.33-35.04l3.5-6.83-3.32 3.34.17-3.5h0l-.17 3.5-2.98-3.65 2.8 7.14h0z"/><text x="100.6" y="-70.4" font-family="Lato" font-size="12">!a</text><text x="99.1" y="-57.4" font-family="Lato" font-size="12" fill="#1f78b4">⓿</text></g><g class="node" transform="translate(4 201)"><circle fill="#ffffa0" stroke="#000" cx="184.6" cy="-18" r="18"/><text text-anchor="middle" x="184.6" y="-14.9" font-family="Lato" font-size="12">2</text></g><g class="edge" transform="translate(4 201)"><path fill="none" stroke="#000" d="M123.69-18h35.6"/><path stroke="#000" d="M166.56-18l-7-3.15 3.5 3.15h-3.5 3.5l-3.5 3.15 7-3.15h0z"/><text x="141.6" y="-21.4" font-family="Lato" font-size="12">a</text></g><g class="edge" transform="translate(4 201)"><path fill="none" stroke="#000" d="M177.87-35.04c-1.38-9.82.87-18.96 6.73-18.96 4.4 0 6.76 5.14 7.09 11.86"/><path stroke="#000" d="M191.33-35.04l3.5-6.83-3.32 3.34.17-3.5h0l-.17 3.5-2.98-3.65 2.8 7.14h0z"/><text text-anchor="middle" x="184.6" y="-57.4" font-family="Lato" font-size="12">1</text></g></g></svg>