<?xml-stylesheet href="spot.css" type="text/css"?><svg width="347pt" height="181pt" viewBox="0 0 347 181" xmlns="http://www.w3.org/2000/svg"><g class="graph"><path fill="#fff" stroke="transparent" d="M0 181V0h347v181H0z"/><text x="151" y="-159.4" font-family="Lato" font-size="12" transform="translate(4 177)">[Büchi]</text><g class="node" transform="translate(4 177)"><circle fill="#ffffa0" stroke="#000" cx="56" cy="-60" r="18"/><text text-anchor="middle" x="56" y="-56.9" font-family="Lato" font-size="12">1</text></g><g class="edge" transform="translate(4 177)"><path fill="none" stroke="#000" d="M1.15-60h29.48"/><path stroke="#000" d="M37.94-60l-7-3.15 3.5 3.15h-3.5 3.5l-3.5 3.15 7-3.15h0z"/></g><g class="node" transform="translate(4 177)"><circle fill="#ffffa0" stroke="#000" cx="135" cy="-60" r="18"/><text text-anchor="middle" x="135" y="-56.9" font-family="Lato" font-size="12">2</text></g><g class="edge" transform="translate(4 177)"><path fill="none" stroke="#000" d="M74.09-60h35.6"/><path stroke="#000" d="M116.96-60l-7-3.15 3.5 3.15h-3.5 3.5l-3.5 3.15 7-3.15h0z"/><text text-anchor="middle" x="95.5" y="-63.4" font-family="Lato" font-size="12">1</text></g><g class="node" transform="translate(4 177)"><circle fill="#ffffa0" stroke="#000" cx="317" cy="-60" r="18"/><circle fill="none" stroke="#000" cx="317" cy="-60" r="22"/><text text-anchor="middle" x="317" y="-56.9" font-family="Lato" font-size="12">0</text></g><g class="edge" transform="translate(4 177)"><path fill="none" stroke="#000" d="M308.27-80.58C307.06-90.84 309.97-100 317-100c5.27 0 8.23 5.15 8.87 12.05"/><path stroke="#000" d="M325.73-80.58l3.28-6.94-3.21 3.44.06-3.5h0l-.06 3.5-3.09-3.56 3.02 7.06h0z"/><text text-anchor="middle" x="317" y="-103.4" font-family="Lato" font-size="12">1</text></g><g class="node" transform="translate(4 177)"><circle fill="#ffffa0" stroke="#000" cx="224" cy="-103" r="18"/><text text-anchor="middle" x="224" y="-99.9" font-family="Lato" font-size="12">3</text></g><g class="edge" transform="translate(4 177)"><path fill="none" stroke="#000" d="M151.55-67.69l49.74-24.58"/><path stroke="#000" d="M207.58-95.38l-7.67.28 4.53 1.27-3.13 1.55h0l3.13-1.55-1.74 4.38 4.88-5.93h0z"/><text x="171" y="-88.4" font-family="Lato" font-size="12">!p1</text></g><g class="node" transform="translate(4 177)"><circle fill="#ffffa0" stroke="#000" cx="224" cy="-18" r="18"/><text text-anchor="middle" x="224" y="-14.9" font-family="Lato" font-size="12">4</text></g><g class="edge" transform="translate(4 177)"><path fill="none" stroke="#000" d="M151.55-52.49c13.74 6.63 33.91 16.37 49.32 23.81"/><path stroke="#000" d="M207.58-25.44l-4.93-5.88 1.78 4.35-3.15-1.52h0l3.15 1.52-4.52 1.32 7.67.21h0z"/><text x="172.5" y="-45.4" font-family="Lato" font-size="12">p1</text></g><g class="edge" transform="translate(4 177)"><path fill="none" stroke="#000" d="M240.85-95.51c13.64 6.44 33.56 15.86 49.47 23.38"/><path stroke="#000" d="M296.86-69.04l-4.98-5.84 1.82 4.34-3.17-1.49h0l3.17 1.49-4.51 1.35 7.67.15h0z"/><text x="261.5" y="-88.4" font-family="Lato" font-size="12">p1</text></g><g class="edge" transform="translate(4 177)"><path fill="none" stroke="#000" d="M216.33-119.29c-1.85-10.1.71-19.71 7.67-19.71 5.22 0 7.96 5.41 8.23 12.37"/><path stroke="#000" d="M231.67-119.29l3.67-6.74-3.41 3.25.27-3.49h0l-.27 3.49-2.87-3.73 2.61 7.22h0z"/><text x="215.5" y="-142.4" font-family="Lato" font-size="12">!p1</text></g><g class="edge" transform="translate(4 177)"><path fill="none" stroke="#000" d="M240.85-25.32c13.55-6.25 33.3-15.36 49.16-22.68"/><path stroke="#000" d="M296.53-51.02l-7.67.08 4.5 1.39-3.18 1.47h0l3.18-1.47-1.86 4.33 5.03-5.8h0z"/><text x="260" y="-44.4" font-family="Lato" font-size="12">!p1</text></g><g class="edge" transform="translate(4 177)"><path fill="none" stroke="#000" d="M216.33-34.29C214.48-44.39 217.04-54 224-54c5.22 0 7.96 5.41 8.23 12.37"/><path stroke="#000" d="M231.67-34.29l3.67-6.74-3.41 3.25.27-3.49h0l-.27 3.49-2.87-3.73 2.61 7.22h0z"/><text x="217" y="-57.4" font-family="Lato" font-size="12">p1</text></g></g></svg>