<?xml-stylesheet href="spot.css" type="text/css"?><svg width="481pt" height="205pt" viewBox="0 0 481 205.2" xmlns="http://www.w3.org/2000/svg"><g class="graph" transform="translate(4 201.2)"><path fill="#fff" stroke="transparent" d="M-4 4v-205.2h481V4H-4z"/><text x="86.5" y="-184.6" font-family="Lato" font-size="12">(Fin(</text><text x="111.5" y="-184.6" font-family="Lato" font-size="12" fill="#1f78b4">⓿</text><text x="124.5" y="-184.6" font-family="Lato" font-size="12">) &amp; Inf(</text><text x="159.5" y="-184.6" font-family="Lato" font-size="12" fill="#ff4da0">❶</text><text x="172.5" y="-184.6" font-family="Lato" font-size="12">)) | (Fin(</text><text x="214.5" y="-184.6" font-family="Lato" font-size="12" fill="#ff7f00">❷</text><text x="227.5" y="-184.6" font-family="Lato" font-size="12">) &amp; Inf(</text><text x="262.5" y="-184.6" font-family="Lato" font-size="12" fill="#6a3d9a">❸</text><text x="275.5" y="-184.6" font-family="Lato" font-size="12">)) | (Fin(</text><text x="317.5" y="-184.6" font-family="Lato" font-size="12" fill="#33a02c">❹</text><text x="330.5" y="-184.6" font-family="Lato" font-size="12">) &amp; Inf(</text><text x="365.5" y="-184.6" font-family="Lato" font-size="12" fill="#e31a1c">❺</text><text x="378.5" y="-184.6" font-family="Lato" font-size="12">))</text><text x="212.5" y="-172.6" font-family="Lato" font-size="12">[Rabin 3]</text><g class="node"><path fill="#ffffa0" stroke="#000" d="M68-97.2H50c-6 0-12 6-12 12v12c0 6 6 12 12 12h18c6 0 12-6 12-12v-12c0-6-6-12-12-12"/><text x="55.5" y="-82.6" font-family="Lato" font-size="12">6</text><text x="46" y="-70.6" font-family="Lato" font-size="12" fill="#ff7f00">❷</text><text x="59" y="-70.6" font-family="Lato" font-size="12" fill="#33a02c">❹</text></g><g class="edge"><path fill="none" stroke="#000" d="M1.16-79.2h29.59"/><path stroke="#000" d="M37.84-79.2l-7-3.15 3.5 3.15h-3.5 3.5l-3.5 3.15 7-3.15h0z"/></g><g class="node"><path fill="#ffffa0" stroke="#000" d="M163-97.2h-18c-6 0-12 6-12 12v12c0 6 6 12 12 12h18c6 0 12-6 12-12v-12c0-6-6-12-12-12"/><text x="150.5" y="-82.6" font-family="Lato" font-size="12">5</text><text x="141" y="-70.6" font-family="Lato" font-size="12" fill="#ff7f00">❷</text><text x="154" y="-70.6" font-family="Lato" font-size="12" fill="#33a02c">❹</text></g><g class="edge"><path fill="none" stroke="#000" d="M80.18-79.2h45.39"/><path stroke="#000" d="M132.86-79.2l-7-3.15 3.5 3.15h-3.5 3.5l-3.5 3.15 7-3.15h0z"/><text x="98" y="-82.6" font-family="Lato" font-size="12">!p1</text></g><g class="edge"><path fill="none" stroke="#000" d="M80.14-67.79c10.31 4.51 23.13 8.09 34.86 5.59 3.62-.78 7.31-1.92 10.9-3.25"/><path stroke="#000" d="M132.63-68.21l-7.67-.26 4.43 1.59-3.24 1.32h0l3.24-1.32-2.05 4.24 5.29-5.57h0z"/><text x="99.5" y="-65.6" font-family="Lato" font-size="12">p1</text></g><g class="node"><path fill="#ffffa0" stroke="#000" d="M353-165.2h-18c-6 0-12 6-12 12v12c0 6 6 12 12 12h18c6 0 12-6 12-12v-12c0-6-6-12-12-12"/><text x="340.5" y="-150.6" font-family="Lato" font-size="12">0</text><text x="331" y="-138.6" font-family="Lato" font-size="12" fill="#ff7f00">❷</text><text x="344" y="-138.6" font-family="Lato" font-size="12" fill="#e31a1c">❺</text></g><g class="node"><path fill="#ffffa0" stroke="#000" d="M258-130.2h-18c-6 0-12 6-12 12v12c0 6 6 12 12 12h18c6 0 12-6 12-12v-12c0-6-6-12-12-12"/><text x="245.5" y="-115.6" font-family="Lato" font-size="12">2</text><text x="236" y="-103.6" font-family="Lato" font-size="12" fill="#6a3d9a">❸</text><text x="249" y="-103.6" font-family="Lato" font-size="12" fill="#33a02c">❹</text></g><g class="edge"><path fill="none" stroke="#000" d="M322.92-139.16c-5.77 2.28-12.08 4.74-17.92 6.96-9.16 3.47-19.22 7.16-28.21 10.42"/><path stroke="#000" d="M270.16-119.39l7.66.59-4.36-1.78 3.29-1.19h0l-3.29 1.19 2.22-4.15-5.52 5.34h0z"/><text x="288" y="-135.6" font-family="Lato" font-size="12">!p1</text></g><g class="node"><path fill="#ffffa0" stroke="#000" d="M461-102.2h-31c-6 0-12 6-12 12v12c0 6 6 12 12 12h31c6 0 12-6 12-12v-12c0-6-6-12-12-12"/><text x="442" y="-87.6" font-family="Lato" font-size="12">4</text><text x="426" y="-75.6" font-family="Lato" font-size="12" fill="#ff4da0">❶</text><text x="439" y="-75.6" font-family="Lato" font-size="12" fill="#ff7f00">❷</text><text x="452" y="-75.6" font-family="Lato" font-size="12" fill="#33a02c">❹</text></g><g class="edge"><path fill="none" stroke="#000" d="M365.14-134.46c13.43 8.51 31.4 19.89 46.84 29.66"/><path stroke="#000" d="M417.97-101l-4.22-6.41 1.27 4.54-2.96-1.87h0l2.96 1.87-4.64.79 7.59 1.08h0z"/><text x="384.5" y="-124.6" font-family="Lato" font-size="12">p1</text></g><g class="edge"><path fill="none" stroke="#000" d="M266.08-130.46c6.22-5.8 13.79-11.54 21.92-14.74 8.63-3.41 18.62-4.52 27.7-4.58"/><path stroke="#000" d="M322.74-149.64l-6.93-3.29 3.43 3.22-3.5-.07h0l3.5.07-3.56 3.08 7.06-3.01h0z"/><text x="288" y="-151.6" font-family="Lato" font-size="12">!p1</text></g><g class="edge"><path fill="none" stroke="#000" d="M270.08-109.31c33.24 4.78 100.04 14.4 140.64 20.24"/><path stroke="#000" d="M417.73-88.06l-6.48-4.11 3.02 3.61-3.46-.49h0l3.46.49-3.91 2.62 7.37-2.12h0z"/><text x="337" y="-104.6" font-family="Lato" font-size="12">p1</text></g><g class="edge"><path fill="none" stroke="#000" d="M440.62-102.36c-.76-9.38.87-17.84 4.88-17.84 2.94 0 4.6 4.56 4.98 10.7"/><path stroke="#000" d="M450.38-102.36l3.25-6.95-3.2 3.45.05-3.5h0l-.05 3.5-3.1-3.54 3.05 7.04h0z"/><text x="437" y="-123.6" font-family="Lato" font-size="12">!p1</text></g><g class="edge"><path fill="none" stroke="#000" d="M437.31-102.46c-4.24-17.15-1.51-35.74 8.19-35.74 8.34 0 11.53 13.73 9.56 28.47"/><path stroke="#000" d="M453.69-102.46l4.4-6.29-3.75 2.85.65-3.44h0l-.65 3.44-2.44-4.03 1.79 7.47h0z"/><text x="438.5" y="-141.6" font-family="Lato" font-size="12">p1</text></g><g class="node"><path fill="#ffffa0" stroke="#000" d="M353-62.2h-18c-6 0-12 6-12 12v12c0 6 6 12 12 12h18c6 0 12-6 12-12v-12c0-6-6-12-12-12"/><text x="340.5" y="-47.6" font-family="Lato" font-size="12">1</text><text x="331" y="-35.6" font-family="Lato" font-size="12" fill="#ff7f00">❷</text><text x="344" y="-35.6" font-family="Lato" font-size="12" fill="#e31a1c">❺</text></g><g class="edge"><path fill="none" stroke="#000" d="M365.14-52.3c13.19-5.3 30.76-12.37 46.01-18.5"/><path stroke="#000" d="M417.97-73.54l-7.67-.31 4.43 1.61-3.25 1.31h0l3.25-1.31-2.08 4.23 5.32-5.53h0z"/><text x="383" y="-68.6" font-family="Lato" font-size="12">!p1</text></g><g class="node"><path fill="#ffffa0" stroke="#000" d="M258-70.2h-18c-6 0-12 6-12 12v12c0 6 6 12 12 12h18c6 0 12-6 12-12v-12c0-6-6-12-12-12"/><text x="245.5" y="-55.6" font-family="Lato" font-size="12">3</text><text x="236" y="-43.6" font-family="Lato" font-size="12" fill="#6a3d9a">❸</text><text x="249" y="-43.6" font-family="Lato" font-size="12" fill="#33a02c">❹</text></g><g class="edge"><path fill="none" stroke="#000" d="M322.82-35.35c-10.42 3.46-23.34 5.98-34.82 3.15-3.8-.94-7.64-2.34-11.34-3.96"/><path stroke="#000" d="M270.18-39.29l4.94 5.88-1.79-4.36 3.15 1.52h0l-3.15-1.52 4.52-1.31-7.67-.21h0z"/><text x="289.5" y="-35.6" font-family="Lato" font-size="12">p1</text></g><g class="edge"><path fill="none" stroke="#000" d="M269.53-34.14C292.4-15.28 331.44 9.76 365-4.2c27.2-11.32 49.88-36.96 63.97-56.19"/><path stroke="#000" d="M433.06-66.12l-6.63 3.87 4.6-1.02-2.04 2.85h0l2.04-2.85.53 4.68 1.5-7.53h0z"/><text x="335.5" y="-7.6" font-family="Lato" font-size="12">!p1</text></g><g class="edge"><path fill="none" stroke="#000" d="M270.18-50.47c13.28 1.14 30.84 2.65 45.39 3.91"/><path stroke="#000" d="M322.86-45.94l-6.7-3.74 3.21 3.44-3.48-.3h0l3.48.3-3.75 2.84 7.24-2.54h0z"/><text x="289.5" y="-52.6" font-family="Lato" font-size="12">p1</text></g><g class="edge"><path fill="none" stroke="#000" d="M175.18-86.36c13.41-4.76 31.16-11.06 45.79-16.25"/><path stroke="#000" d="M227.86-105.06l-7.65-.63 4.35 1.8-3.3 1.17h0l3.3-1.17-2.24 4.14 5.54-5.31h0z"/><text x="193" y="-101.6" font-family="Lato" font-size="12">!p1</text></g><g class="edge"><path fill="none" stroke="#000" d="M175.18-73.35c13.41 3.9 31.16 9.05 45.79 13.3"/><path stroke="#000" d="M227.86-58.05l-5.84-4.98 2.48 4-3.36-.97h0l3.36.97-4.24 2.05 7.6-1.07h0z"/><text x="194.5" y="-70.6" font-family="Lato" font-size="12">p1</text></g></g></svg>