<?xml-stylesheet href="spot.css" type="text/css"?><svg width="587pt" height="176" viewBox="0 0 586.83 132" xmlns="http://www.w3.org/2000/svg"><g class="graph"><path fill="#fff" stroke="transparent" d="M0 132V0h586.83v132H0z"/><text x="287.42" y="-110.4" font-family="Lato" font-size="12" transform="translate(4 128)">t</text><text x="279.92" y="-97.4" font-family="Lato" font-size="12" transform="translate(4 128)">[all]</text><g class="node" transform="translate(4 128)"><path fill="#ffffa0" stroke="#33a02c" stroke-width="2" d="M69-63H49c-6 0-12 6-12 12v12c0 6 6 12 12 12h20c6 0 12-6 12-12v-12c0-6-6-12-12-12"/><text x="45" y="-41.9" font-family="Lato" font-size="12">(4, 0)</text></g><g class="edge" transform="translate(4 128)"><path fill="none" stroke="#000" d="M1.16-45h28.39"/><path stroke="#000" d="M36.91-45l-7-3.15 3.5 3.15h-3.5 3.5l-3.5 3.15 7-3.15h0z"/></g><g class="node" transform="translate(4 128)"><path fill="#ffffa0" stroke="#33a02c" stroke-width="2" d="M144.45-57.88l-16.41 7.76c-5.42 2.56-5.42 7.68 0 10.24l16.41 7.76c5.43 2.56 16.28 2.56 21.71 0l16.41-7.76c5.42-2.56 5.42-7.68 0-10.24l-16.41-7.76c-5.43-2.56-16.28-2.56-21.71 0"/><text x="141.31" y="-41.9" font-family="Lato" font-size="12">(6, 0)</text></g><g class="edge" transform="translate(4 128)"><path fill="none" stroke="#000" d="M81.4-45h28.5"/><path stroke="#000" d="M117.07-45l-7-3.15 3.5 3.15h-3.5 3.5l-3.5 3.15 7-3.15h0z"/></g><g class="node" transform="translate(4 128)"><path fill="#ffffa0" stroke="#33a02c" stroke-width="2" d="M261.61-90h-20c-6 0-12 6-12 12v12c0 6 6 12 12 12h20c6 0 12-6 12-12v-12c0-6-6-12-12-12"/><text x="237.61" y="-68.9" font-family="Lato" font-size="12">(5, 1)</text></g><g class="edge" transform="translate(4 128)"><path fill="none" stroke="#33a02c" stroke-width="2" d="M179.62-51.67c13-3.73 29.29-8.39 42.98-12.31"/><path fill="#33a02c" stroke="#33a02c" stroke-width="2" d="M229.5-65.96l-7.6-1.1 4.1 1.59-3.37.96.14.48.14.48 3.36-.96-2.63 3.51 5.86-4.96h0z"/></g><g class="node" transform="translate(4 128)"><path fill="#ffffa0" stroke="#e31a1c" stroke-width="2" d="M261.61-36h-20c-6 0-12 6-12 12v12c0 6 6 12 12 12h20c6 0 12-6 12-12v-12c0-6-6-12-12-12"/><text x="237.61" y="-14.9" font-family="Lato" font-size="12">(5, 2)</text></g><g class="edge" transform="translate(4 128)"><path fill="none" stroke="#000" d="M179.62-38.33c13 3.73 29.29 8.39 42.98 12.31"/><path stroke="#000" d="M229.5-24.04L223.64-29l2.49 3.99-3.36-.96h0l3.36.96-4.23 2.07 7.6-1.1h0z"/></g><g class="node" transform="translate(4 128)"><path fill="#ffffa0" stroke="#33a02c" stroke-width="2" d="M337.06-84.88l-16.41 7.76c-5.42 2.56-5.42 7.68 0 10.24l16.41 7.76c5.43 2.56 16.28 2.56 21.71 0l16.41-7.76c5.42-2.56 5.42-7.68 0-10.24l-16.41-7.76c-5.43-2.56-16.28-2.56-21.71 0"/><text x="333.92" y="-68.9" font-family="Lato" font-size="12">(7, 1)</text></g><g class="edge" transform="translate(4 128)"><path fill="none" stroke="#000" d="M274.01-66.24c12.1 1.04 27.48 1.26 40.98.67"/><path stroke="#000" d="M322.27-65.99l-7.17-2.74 3.67 2.94-3.49.2h0l3.49-.2-3.31 3.35 6.81-3.55h0z"/></g><g class="node" transform="translate(4 128)"><path fill="#ffffa0" stroke="#e31a1c" stroke-width="2" d="M337.06-30.88l-16.41 7.76c-5.42 2.56-5.42 7.68 0 10.24l16.41 7.76c5.43 2.56 16.28 2.56 21.71 0l16.41-7.76c5.42-2.56 5.42-7.68 0-10.24l-16.41-7.76c-5.43-2.56-16.28-2.56-21.71 0"/><text x="333.92" y="-14.9" font-family="Lato" font-size="12">(7, 2)</text></g><g class="edge" transform="translate(4 128)"><path fill="none" stroke="#e31a1c" stroke-width="2" d="M274.01-18h28.5"/><path fill="#e31a1c" stroke="#e31a1c" stroke-width="2" d="M309.68-18l-7-3.15 3.5 2.65h-3.5v1h3.5l-3.5 2.65 7-3.15h0z"/></g><g class="edge" transform="translate(4 128)"><path fill="none" stroke="#33a02c" stroke-width="2" d="M322.27-78.01c-12.64-.9-28.09-.98-41.23-.24"/><path fill="#33a02c" stroke="#33a02c" stroke-width="2" d="M274.01-77.76l7.2 2.65-3.67-2.4 3.49-.24-.04-.5-.03-.5-3.49.25 3.3-2.89-6.76 3.63h0z"/></g><g class="node" transform="translate(4 128)"><path fill="#ffffa0" stroke="#e31a1c" stroke-width="2" d="M454.22-36h-20c-6 0-12 6-12 12v12c0 6 6 12 12 12h20c6 0 12-6 12-12v-12c0-6-6-12-12-12"/><text x="430.22" y="-14.9" font-family="Lato" font-size="12">(5, 3)</text></g><g class="edge" transform="translate(4 128)"><path fill="none" stroke="#000" d="M386.19-18h28.52"/><path stroke="#000" d="M421.96-18l-7-3.15 3.5 3.15h-3.5 3.5l-3.5 3.15 7-3.15h0z"/></g><g class="node" transform="translate(4 128)"><path fill="#ffffa0" stroke="#e31a1c" stroke-width="2" d="M529.68-30.88l-16.41 7.76c-5.43 2.56-5.43 7.68 0 10.24l16.41 7.76c5.42 2.56 16.27 2.56 21.7 0l16.41-7.76c5.42-2.56 5.42-7.68 0-10.24l-16.41-7.76c-5.43-2.56-16.28-2.56-21.7 0"/><text x="526.53" y="-14.9" font-family="Lato" font-size="12">(7, 3)</text></g><g class="edge" transform="translate(4 128)"><path fill="none" stroke="#e31a1c" stroke-width="2" d="M466.62-18h28.5"/><path fill="#e31a1c" stroke="#e31a1c" stroke-width="2" d="M502.29-18l-7-3.15 3.5 2.65h-3.5v1h3.5l-3.5 2.65 7-3.15h0z"/></g></g></svg>