<?xml-stylesheet href="spot.css" type="text/css"?><svg width="281pt" height="268" viewBox="0 0 281 201" xmlns="http://www.w3.org/2000/svg"><g class="graph"><path fill="#fff" stroke="transparent" d="M0 201V0h281v201H0z"/><text x="119.5" y="-180.4" font-family="Lato" font-size="12" transform="translate(4 197)">Inf(</text><text x="136.5" y="-180.4" font-family="Lato" font-size="12" fill="#1f78b4" transform="translate(4 197)">⓿</text><text x="149.5" y="-180.4" font-family="Lato" font-size="12" transform="translate(4 197)">)</text><text x="118" y="-168.4" font-family="Lato" font-size="12" transform="translate(4 197)">[Büchi]</text><g class="node" transform="translate(4 197)"><circle fill="#ffffa0" stroke="#000" cx="97" cy="-45" r="18"/><text text-anchor="middle" x="97" y="-41.9" font-family="Lato" font-size="12">0</text></g><g class="edge" transform="translate(4 197)"><path fill="none" stroke="#000" d="M19.06-45h52.43"/><path stroke="#000" d="M78.62-45l-7-3.15 3.5 3.15h-3.5 3.5l-3.5 3.15 7-3.15h0z"/></g><g class="node" transform="translate(4 197)"><circle fill="#ffffa0" stroke="#000" cx="176" cy="-72" r="18"/><text text-anchor="middle" x="176" y="-68.9" font-family="Lato" font-size="12">1</text></g><g class="edge" transform="translate(4 197)"><path fill="none" stroke="#000" d="M114.33-50.73c10.92-3.83 25.46-8.92 37.56-13.17"/><path stroke="#000" d="M158.69-66.28l-7.64-.66 4.34 1.82-3.3 1.15h0l3.3-1.15-2.26 4.13 5.56-5.29h0z"/><text x="133" y="-63.4" font-family="Lato" font-size="12">b</text><text text-anchor="middle" x="121.33" y="-41.13" font-family="Lato" font-size="12">#1</text></g><g class="node" transform="translate(4 197)"><circle fill="#ffffa0" stroke="#000" cx="176" cy="-18" r="18"/><text text-anchor="middle" x="176" y="-14.9" font-family="Lato" font-size="12">2</text></g><g class="edge" transform="translate(4 197)"><path fill="none" stroke="#000" d="M114.33-39.27c10.92 3.83 25.46 8.92 37.56 13.17"/><path stroke="#000" d="M158.69-23.72l-5.56-5.29 2.26 4.13-3.3-1.15h0l3.3 1.15-4.34 1.82 7.64-.66h0z"/><text x="133" y="-36.4" font-family="Lato" font-size="12">b</text><text text-anchor="middle" x="121.33" y="-29.67" font-family="Lato" font-size="12">#2</text></g><g class="edge" transform="translate(4 197)"><path fill="none" stroke="#000" d="M169.27-89.04c-1.38-9.82.87-18.96 6.73-18.96 4.4 0 6.76 5.14 7.09 11.86"/><path stroke="#000" d="M182.73-89.04l3.5-6.83-3.32 3.34.17-3.5h0l-.17 3.5-2.98-3.65 2.8 7.14h0z"/><text x="162" y="-111.4" font-family="Lato" font-size="12">a &amp; b</text><text text-anchor="middle" x="162.27" y="-92.44" font-family="Lato" font-size="12">#3</text></g><g class="node" transform="translate(4 197)"><circle fill="#ffffa0" stroke="#000" cx="255" cy="-18" r="18"/><text text-anchor="middle" x="255" y="-14.9" font-family="Lato" font-size="12">3</text></g><g class="edge" transform="translate(4 197)"><path fill="none" stroke="#000" d="M194.09-18h35.6"/><path stroke="#000" d="M236.96-18l-7-3.15 3.5 3.15h-3.5 3.5l-3.5 3.15 7-3.15h0z"/><text x="212" y="-21.4" font-family="Lato" font-size="12">a</text><text text-anchor="middle" x="201.09" y="-8.4" font-family="Lato" font-size="12">#4</text></g><g class="edge" transform="translate(4 197)"><path fill="none" stroke="#000" d="M248.27-35.04C246.89-44.86 249.14-54 255-54c4.4 0 6.76 5.14 7.09 11.86"/><path stroke="#000" d="M261.73-35.04l3.5-6.83-3.32 3.34.17-3.5h0l-.17 3.5-2.98-3.65 2.8 7.14h0z"/><text x="251.5" y="-70.4" font-family="Lato" font-size="12">b</text><text x="248.5" y="-57.4" font-family="Lato" font-size="12" fill="#1f78b4">⓿</text><text text-anchor="middle" x="241.27" y="-38.44" font-family="Lato" font-size="12">#5</text></g><g class="node" transform="translate(4 197)"><circle fill="#ffffa0" stroke="#000" cx="18" cy="-99" r="18"/><text text-anchor="middle" x="18" y="-95.9" font-family="Lato" font-size="12">4</text></g><g class="node" transform="translate(4 197)"><circle fill="#ffffa0" stroke="#000" cx="97" cy="-99" r="18"/><text text-anchor="middle" x="97" y="-95.9" font-family="Lato" font-size="12">5</text></g><g class="edge" transform="translate(4 197)"><path fill="none" stroke="#000" d="M36.09-99h35.6"/><path stroke="#000" d="M78.96-99l-7-3.15 3.5 3.15h-3.5 3.5l-3.5 3.15 7-3.15h0z"/><text x="54" y="-102.4" font-family="Lato" font-size="12">b</text><text text-anchor="middle" x="43.09" y="-89.4" font-family="Lato" font-size="12">#6</text></g><g class="edge" transform="translate(4 197)"><path fill="none" stroke="#000" d="M90.27-116.04C88.89-125.86 91.14-135 97-135c4.4 0 6.76 5.14 7.09 11.86"/><path stroke="#000" d="M103.73-116.04l3.5-6.83-3.32 3.34.17-3.5h0l-.17 3.5-2.98-3.65 2.8 7.14h0z"/><text x="93.5" y="-151.4" font-family="Lato" font-size="12">a</text><text x="90.5" y="-138.4" font-family="Lato" font-size="12" fill="#1f78b4">⓿</text><text text-anchor="middle" x="83.27" y="-119.44" font-family="Lato" font-size="12">#7</text></g></g></svg>