<svg xmlns="http://www.w3.org/2000/svg" height="736" preserveAspectRatio="none" style="width:783px;height:736px" viewBox="0 0 783 736" width="783"><defs><filter height="300%" id="a" width="300%" x="-1" y="-1"><feGaussianBlur result="blurOut" stdDeviation="2"/><feColorMatrix in="blurOut" result="blurOut2" values="0 0 0 0 0 0 0 0 0 0 0 0 0 0 0 0 0 0 .4 0"/><feOffset dx="4" dy="4" in="blurOut2" result="blurOut3"/><feBlend in="SourceGraphic" in2="blurOut3"/></filter></defs><path fill="#FFF" filter="url(#a)" stroke="#000" stroke-width="1.5" d="M22 24h37l7 22.8h695V523H22V24z"/><path stroke="#000" stroke-width="1.5" d="M22 46.8h44"/><text font-family="sans-serif" font-size="14" font-weight="bold" lengthAdjust="spacingAndGlyphs" textLength="31" x="26" y="39.006">spot</text><path d="M112.154 556.272c14.043-20.425 30.59-20.064 44.961-.367 11.36-19.476 26.91-13.98 36.558 1.774 11.2-22.119 29.402-24.788 43.12-2.441 11.541-15.938 28.072-15.988 36.183 3.503 12.794-17.448 29.987-19.373 41.955.918 9.66-20.624 27.876-28.285 44.16-6.975 11.725-19.533 31.683-14.613 40.662 3.006 12.993-17.525 27.082-18.309 41.42-1.628 12.062-15.182 27.71-16.085 38.68 1.297 12.19-15.41 31.13-13.67 40.341 3.668 8.839-19.764 28.01-18.51 38.758-2.044 12.693-17.46 24.305-16.004 37.173-.196 13.043-18.449 28.378-21.733 42.57-1.255C653.087 537.025 674.9 537.397 683 562c4.379-.047 6.086 2.113 3.99 6.22 28.956 18.526 26.08 40.766 1.48 60.6 22.76 23.242 21.281 50.273-12.47 62.18 2.39-2.912 5.786-2.33 7.404.927-12.714 22.441-28.15 29.268-47.21 6.649-11.88 17.224-27.927 11.408-35.955-4.216-10.657 21.73-28.304 22.21-42.207 3.377-12.448 18.38-25.25 17.571-38.697 1.109-11.82 16.504-28.347 16.942-39.321-.967-9.252 23.441-28.67 21.873-42.622 4.965-10.179 16.512-28.585 21.16-39.011.259-17.14 16.495-33.148 17.014-43.215-7.46-8.41 19.193-26.753 18.544-37.995 3.109-10.286 21.904-31.409 18.519-42.934 1.363-12.913 16.916-26.216 18.49-37.306-1.827-11.602 22.48-32.094 25.064-45.19 1.465-14.169 15.755-26.84 14.49-36.194-4.95C133.917 718.93 113.936 715.67 104 684c4.898-.218 6.536 2.134 4.626 6.651-31.39-12.713-41.124-41.68-13.965-66.66C66.137 597.11 68.974 565.176 111 555c.978-.17 1.489.25 1.154 1.272" fill="#FFF" stroke="#000" stroke-width="1.5"/><text font-family="sans-serif" font-size="14" font-weight="bold" lengthAdjust="spacingAndGlyphs" textLength="186" x="300.5" y="573.006">what we have to implement</text><path fill="#FEFECE" filter="url(#a)" stroke="#a80036" stroke-width="1.5" d="M240 83h298v225.949H240z"/><circle cx="375.25" cy="99" fill="#A9DCDF" stroke="#a80036" r="11"/><path d="M376.781 100.938l.328.796h-.28c-.454 0-.579.032-.75.141a.832.832 0 00-.454.734c0 .297.14.547.375.72.172.124.406.171.828.171h2.36c.359 0 .609-.031.75-.125.265-.14.437-.453.437-.766a.89.89 0 00-.375-.703c-.188-.125-.344-.156-.797-.172l-3.39-7.828h-3.72c-.452 0-.593.016-.765.125-.265.172-.437.453-.437.75 0 .281.14.547.39.719.172.125.36.156.813.156h.969l-2.579 6.078c-.75 0-1.156.297-1.156.875 0 .61.39.891 1.188.891h2.265c.36 0 .61-.031.75-.125a.899.899 0 00.438-.766.89.89 0 00-.375-.703c-.188-.14-.344-.172-.813-.172h-.297l.344-.796h3.953zm-.765-1.75h-2.454l1.235-2.876 1.219 2.876z"/><text font-family="sans-serif" font-size="12" font-style="italic" lengthAdjust="spacingAndGlyphs" textLength="19" x="395.75" y="104.1">twa</text><path stroke="#a80036" stroke-width="1.5" d="M241 115h296"/><path fill="none" stroke="#b38d22" d="M251 122.1l4 4-4 4-4-4z"/><text font-family="sans-serif" font-size="11" lengthAdjust="spacingAndGlyphs" textLength="151" x="260" y="129.219">twa_succ_iterator* iter_cache_</text><path fill="none" stroke="#b38d22" d="M251 135.3l4 4-4 4-4-4z"/><text font-family="sans-serif" font-size="11" lengthAdjust="spacingAndGlyphs" textLength="86" x="260" y="142.419">bdd_dict_ptr dict_</text><path stroke="#a80036" stroke-width="1.5" d="M241 149.4h296"/><path fill="#FF4" stroke="#b38d22" d="M251 156.5l4 4-4 4-4-4z"/><text font-family="sans-serif" font-size="11" lengthAdjust="spacingAndGlyphs" textLength="122" x="260" y="163.619">twa(const bdd_dict_ptr&amp;)</text><circle cx="251" cy="192.725" fill="#84BE84" stroke="#038048" r="3"/><text font-family="sans-serif" font-size="11" font-style="italic" lengthAdjust="spacingAndGlyphs" textLength="103" x="260" y="195.899">state* get_init_state()</text><circle cx="251" cy="207.574" fill="#84BE84" stroke="#038048" r="3"/><text font-family="sans-serif" font-size="11" font-style="italic" lengthAdjust="spacingAndGlyphs" textLength="175" x="260" y="210.749">twa_succ_iterator* succ_iter(state*)</text><circle cx="251" cy="221.599" fill="#84BE84" stroke="#038048" r="3"/><text font-family="sans-serif" font-size="11" lengthAdjust="spacingAndGlyphs" textLength="199" x="260" y="223.718">internal::succ_iterable succ(const state*)</text><circle cx="251" cy="234.799" fill="#84BE84" stroke="#038048" r="3"/><text font-family="sans-serif" font-size="11" lengthAdjust="spacingAndGlyphs" textLength="179" x="260" y="236.918">void release_iter(twa_succ_iterator*)</text><path stroke="#a80036" stroke-dasharray="1,2" d="M241 177.2h121.5"/><text font-family="sans-serif" font-size="11" lengthAdjust="spacingAndGlyphs" textLength="53" x="362.5" y="180.319">exploration</text><path stroke="#a80036" stroke-dasharray="1,2" d="M415.5 177.2H537"/><circle cx="251" cy="266.024" fill="#84BE84" stroke="#038048" r="3"/><text font-family="sans-serif" font-size="11" font-style="italic" lengthAdjust="spacingAndGlyphs" textLength="178" x="260" y="269.199">std::string format_state(const state*)</text><circle cx="251" cy="280.049" fill="#84BE84" stroke="#038048" r="3"/><text font-family="sans-serif" font-size="11" lengthAdjust="spacingAndGlyphs" textLength="272" x="260" y="282.168">state* project_state(const state*, const const_twa_ptr&amp;)</text><path stroke="#a80036" stroke-dasharray="1,2" d="M241 250.499h104.5"/><text font-family="sans-serif" font-size="11" lengthAdjust="spacingAndGlyphs" textLength="87" x="345.5" y="253.618">state manipulation</text><path stroke="#a80036" stroke-dasharray="1,2" d="M432.5 250.499H537M241 295.749h86.5"/><text font-family="sans-serif" font-size="11" lengthAdjust="spacingAndGlyphs" textLength="123" x="327.5" y="298.868">other methods not shown</text><path stroke="#a80036" stroke-dasharray="1,2" d="M450.5 295.749H537"/><path fill="#FEFECE" filter="url(#a)" stroke="#a80036" stroke-width="1.5" d="M62.5 114.5h143v163.499h-143z"/><circle cx="84.25" cy="130.5" fill="#A9DCDF" stroke="#a80036" r="11"/><path d="M85.781 132.438l.328.796h-.28c-.454 0-.579.032-.75.141a.832.832 0 00-.454.734c0 .297.14.547.375.72.172.124.406.171.828.171h2.36c.359 0 .609-.031.75-.125.265-.14.437-.453.437-.766a.89.89 0 00-.375-.703c-.188-.125-.344-.156-.797-.172l-3.39-7.828h-3.72c-.452 0-.593.016-.765.125-.266.172-.437.453-.437.75 0 .281.14.547.39.719.172.125.36.156.813.156h.969l-2.579 6.078c-.75 0-1.156.297-1.156.875 0 .61.39.891 1.188.891h2.265c.36 0 .61-.031.75-.125a.899.899 0 00.438-.766.89.89 0 00-.375-.703c-.188-.14-.344-.172-.813-.172h-.297l.344-.797h3.953zm-.765-1.75h-2.454l1.235-2.875 1.219 2.874z"/><text font-family="sans-serif" font-size="12" font-style="italic" lengthAdjust="spacingAndGlyphs" textLength="96" x="99.75" y="135.6">twa_succ_iterator</text><path stroke="#a80036" stroke-width="1.5" d="M63.5 146.5h141"/><circle cx="73.5" cy="176.625" fill="#84BE84" stroke="#038048" r="3"/><text font-family="sans-serif" font-size="11" font-style="italic" lengthAdjust="spacingAndGlyphs" textLength="49" x="82.5" y="179.8">bool first()</text><circle cx="73.5" cy="191.475" fill="#84BE84" stroke="#038048" r="3"/><text font-family="sans-serif" font-size="11" font-style="italic" lengthAdjust="spacingAndGlyphs" textLength="52" x="82.5" y="194.65">bool next()</text><circle cx="73.5" cy="206.325" fill="#84BE84" stroke="#038048" r="3"/><text font-family="sans-serif" font-size="11" font-style="italic" lengthAdjust="spacingAndGlyphs" textLength="55" x="82.5" y="209.5">bool done()</text><path stroke="#a80036" stroke-dasharray="1,2" d="M63.5 161.1H115"/><text font-family="sans-serif" font-size="11" lengthAdjust="spacingAndGlyphs" textLength="38" x="115" y="164.219">iteration</text><path stroke="#a80036" stroke-dasharray="1,2" d="M153 161.1h51.5"/><circle cx="73.5" cy="238.374" fill="#84BE84" stroke="#038048" r="3"/><text font-family="sans-serif" font-size="11" font-style="italic" lengthAdjust="spacingAndGlyphs" textLength="84" x="82.5" y="241.549">const state* dst()</text><circle cx="73.5" cy="253.224" fill="#84BE84" stroke="#038048" r="3"/><text font-family="sans-serif" font-size="11" font-style="italic" lengthAdjust="spacingAndGlyphs" textLength="53" x="82.5" y="256.399">bdd cond()</text><circle cx="73.5" cy="268.074" fill="#84BE84" stroke="#038048" r="3"/><text font-family="sans-serif" font-size="11" font-style="italic" lengthAdjust="spacingAndGlyphs" textLength="117" x="82.5" y="271.249">acc_cond::mark_t acc()</text><path stroke="#a80036" stroke-dasharray="1,2" d="M63.5 222.85h46"/><text font-family="sans-serif" font-size="11" lengthAdjust="spacingAndGlyphs" textLength="49" x="109.5" y="225.969">inspection</text><path stroke="#a80036" stroke-dasharray="1,2" d="M158.5 222.85h46"/><path fill="#FEFECE" filter="url(#a)" stroke="#a80036" stroke-width="1.5" d="M572.5 136.5h149v118.95h-149z"/><circle cx="629.75" cy="152.5" fill="#A9DCDF" stroke="#a80036" r="11"/><path d="M631.281 154.438l.328.796h-.28c-.454 0-.579.032-.75.141a.832.832 0 00-.454.734c0 .297.14.547.375.72.172.124.406.171.828.171h2.36c.359 0 .609-.031.75-.125.265-.14.437-.453.437-.766a.89.89 0 00-.375-.703c-.188-.125-.344-.156-.797-.172l-3.39-7.828h-3.72c-.452 0-.593.016-.765.125-.265.172-.437.453-.437.75 0 .281.14.547.39.719.172.125.36.156.813.156h.968l-2.578 6.078c-.75 0-1.156.297-1.156.875 0 .61.39.891 1.188.891h2.265c.36 0 .61-.031.75-.125a.899.899 0 00.438-.766.89.89 0 00-.375-.703c-.188-.14-.344-.172-.813-.172h-.297l.344-.797h3.953zm-.765-1.75h-2.453l1.234-2.875 1.219 2.875z"/><text font-family="sans-serif" font-size="12" font-style="italic" lengthAdjust="spacingAndGlyphs" textLength="26" x="650.25" y="157.6">state</text><path stroke="#a80036" stroke-width="1.5" d="M573.5 168.5h147M573.5 176.5h147"/><circle cx="583.5" cy="189.425" fill="#84BE84" stroke="#038048" r="3"/><text font-family="sans-serif" font-size="11" font-style="italic" lengthAdjust="spacingAndGlyphs" textLength="123" x="592.5" y="192.6">int compare(const state*)</text><circle cx="583.5" cy="204.275" fill="#84BE84" stroke="#038048" r="3"/><text font-family="sans-serif" font-size="11" font-style="italic" lengthAdjust="spacingAndGlyphs" textLength="64" x="592.5" y="207.45">size_t hash()</text><circle cx="583.5" cy="219.125" fill="#84BE84" stroke="#038048" r="3"/><text font-family="sans-serif" font-size="11" font-style="italic" lengthAdjust="spacingAndGlyphs" textLength="65" x="592.5" y="222.3">state* clone()</text><circle cx="583.5" cy="233.15" fill="#84BE84" stroke="#038048" r="3"/><text font-family="sans-serif" font-size="11" lengthAdjust="spacingAndGlyphs" textLength="68" x="592.5" y="235.269">void destroy()</text><path fill="#FF4" stroke="#b38d22" d="M583.5 241.35l4 4-4 4-4-4z"/><text font-family="sans-serif" font-size="11" lengthAdjust="spacingAndGlyphs" textLength="38" x="592.5" y="248.469">~state()</text><path fill="#FEFECE" filter="url(#a)" stroke="#a80036" stroke-width="1.5" d="M296 388h186v76.05H296z"/><circle cx="368.25" cy="404" fill="#A9DCDF" stroke="#a80036" r="11"/><path d="M369.781 405.938l.328.796h-.28c-.454 0-.579.032-.75.141a.832.832 0 00-.454.734c0 .297.14.547.375.72.172.124.406.171.828.171h2.36c.359 0 .609-.031.75-.125.265-.14.437-.453.437-.766a.89.89 0 00-.375-.703c-.188-.125-.344-.156-.797-.172l-3.39-7.828h-3.72c-.452 0-.593.016-.765.125-.265.172-.437.453-.437.75 0 .281.14.547.39.719.172.125.36.156.813.156h.969l-2.579 6.078c-.75 0-1.156.297-1.156.875 0 .61.39.891 1.188.891h2.265c.36 0 .61-.031.75-.125a.899.899 0 00.438-.766.89.89 0 00-.375-.703c-.188-.14-.344-.172-.813-.172h-.297l.344-.796h3.953zm-.765-1.75h-2.454l1.235-2.875 1.219 2.875z"/><text font-family="sans-serif" font-size="12" font-style="italic" lengthAdjust="spacingAndGlyphs" textLength="33" x="388.75" y="409.1">kripke</text><path stroke="#a80036" stroke-width="1.5" d="M297 420h184M297 428h184"/><circle cx="307" cy="440.1" fill="#84BE84" stroke="#038048" r="3"/><text font-family="sans-serif" font-size="11" lengthAdjust="spacingAndGlyphs" textLength="156" x="316" y="442.219">fair_kripke(const bdd_dict_ptr&amp;)</text><circle cx="307" cy="454.125" fill="#84BE84" stroke="#038048" r="3"/><text font-family="sans-serif" font-size="11" font-style="italic" lengthAdjust="spacingAndGlyphs" textLength="160" x="316" y="457.3">bdd state_condition(const state*)</text><path fill="#FEFECE" filter="url(#a)" stroke="#a80036" stroke-width="1.5" d="M71.5 369h189v113.999h-189z"/><circle cx="107.65" cy="385" fill="#A9DCDF" stroke="#a80036" r="11"/><path d="M109.181 386.938l.328.796h-.28c-.454 0-.579.032-.75.141a.832.832 0 00-.454.734c0 .297.14.547.375.72.172.124.406.171.828.171h2.36c.359 0 .609-.031.75-.125.265-.14.437-.453.437-.766a.89.89 0 00-.375-.703c-.188-.125-.344-.156-.797-.172l-3.39-7.828h-3.72c-.452 0-.593.016-.765.125-.265.172-.437.453-.437.75 0 .281.14.547.39.719.172.125.36.156.813.156h.969l-2.579 6.078c-.75 0-1.156.297-1.156.875 0 .61.39.891 1.188.891h2.265c.36 0 .61-.031.75-.125a.899.899 0 00.438-.766.89.89 0 00-.375-.703c-.188-.14-.344-.172-.813-.172h-.297l.344-.796h3.953zm-.765-1.75h-2.453l1.234-2.875 1.219 2.875z"/><text font-family="sans-serif" font-size="12" font-style="italic" lengthAdjust="spacingAndGlyphs" textLength="110" x="126.35" y="390.1">kripke_succ_iterator</text><path stroke="#a80036" stroke-width="1.5" d="M72.5 401h187"/><path fill="none" stroke="#b38d22" d="M82.5 408.1l4 4-4 4-4-4z"/><text font-family="sans-serif" font-size="11" lengthAdjust="spacingAndGlyphs" textLength="51" x="91.5" y="415.219">bdd cond_</text><path stroke="#a80036" stroke-width="1.5" d="M72.5 422.2h187"/><circle cx="82.5" cy="434.3" fill="#84BE84" stroke="#038048" r="3"/><text font-family="sans-serif" font-size="11" lengthAdjust="spacingAndGlyphs" textLength="163" x="91.5" y="436.419">kripke_succ_iterator(const bdd&amp;)</text><circle cx="82.5" cy="447.5" fill="#84BE84" stroke="#038048" r="3"/><text font-family="sans-serif" font-size="11" lengthAdjust="spacingAndGlyphs" textLength="122" x="91.5" y="449.619">void recycle(const bdd&amp;)</text><circle cx="82.5" cy="460.7" fill="#84BE84" stroke="#038048" r="3"/><text font-family="sans-serif" font-size="11" lengthAdjust="spacingAndGlyphs" textLength="53" x="91.5" y="462.819">bdd cond()</text><circle cx="82.5" cy="473.9" fill="#84BE84" stroke="#038048" r="3"/><text font-family="sans-serif" font-size="11" lengthAdjust="spacingAndGlyphs" textLength="117" x="91.5" y="476.019">acc_cond::mark_t acc()</text><path fill="#FEFECE" filter="url(#a)" stroke="#a80036" stroke-width="1.5" d="M287 582h204v100.8H287z"/><circle cx="349.25" cy="598" fill="#ADD1B2" stroke="#a80036" r="11"/><path d="M344.25 599.156c0 2.5 2.14 4.313 5.063 4.313 1.234 0 2.406-.297 3.156-.813.61-.422.937-.843.937-1.25 0-.468-.422-.875-.922-.875a.89.89 0 00-.656.282c-.437.437-.437.437-.61.53-.452.235-1.093.376-1.859.376-2 0-3.28-1.016-3.28-2.594v-1.047c0-1.703 1.218-2.906 2.921-2.906.578 0 1.156.14 1.625.39.469.266.64.454.703.813.125.672.375.922.906.922.282 0 .563-.14.75-.36.125-.171.172-.343.172-.78v-1.36c0-.422-.015-.563-.14-.735a.934.934 0 00-.782-.406c-.312 0-.515.11-.734.375-1.172-.5-1.61-.61-2.563-.61-2.671 0-4.687 2.016-4.687 4.641v1.094z"/><text font-family="sans-serif" font-size="12" lengthAdjust="spacingAndGlyphs" textLength="71" x="369.75" y="601.948">demo_kripke</text><path stroke="#a80036" stroke-width="1.5" d="M288 614h202M288 622h202"/><circle cx="298" cy="634.1" fill="#84BE84" stroke="#038048" r="3"/><text font-family="sans-serif" font-size="11" lengthAdjust="spacingAndGlyphs" textLength="103" x="307" y="636.219">state* get_init_state()</text><circle cx="298" cy="647.3" fill="#84BE84" stroke="#038048" r="3"/><text font-family="sans-serif" font-size="11" lengthAdjust="spacingAndGlyphs" textLength="175" x="307" y="649.419">twa_succ_iterator* succ_iter(state*)</text><circle cx="298" cy="660.5" fill="#84BE84" stroke="#038048" r="3"/><text font-family="sans-serif" font-size="11" lengthAdjust="spacingAndGlyphs" textLength="178" x="307" y="662.619">std::string format_state(const state*)</text><circle cx="298" cy="673.7" fill="#84BE84" stroke="#038048" r="3"/><text font-family="sans-serif" font-size="11" lengthAdjust="spacingAndGlyphs" textLength="160" x="307" y="675.819">bdd state_condition(const state*)</text><path fill="#FEFECE" filter="url(#a)" stroke="#a80036" stroke-width="1.5" d="M112 582h140v100.8H112z"/><circle cx="127" cy="598" fill="#ADD1B2" stroke="#a80036" r="11"/><path d="M122 599.156c0 2.5 2.14 4.313 5.063 4.313 1.234 0 2.406-.297 3.156-.813.61-.422.937-.843.937-1.25 0-.468-.422-.875-.922-.875a.89.89 0 00-.656.282c-.437.437-.437.437-.61.53-.452.235-1.093.376-1.859.376-2 0-3.28-1.016-3.28-2.594v-1.047c0-1.703 1.218-2.906 2.921-2.906.578 0 1.156.14 1.625.39.469.266.64.454.703.813.125.672.375.922.906.922.282 0 .563-.14.75-.36.125-.171.172-.343.172-.78v-1.36c0-.422-.015-.563-.14-.735a.934.934 0 00-.782-.406c-.312 0-.515.11-.734.375-1.172-.5-1.61-.61-2.563-.61-2.671 0-4.687 2.016-4.687 4.641v1.094z"/><text font-family="sans-serif" font-size="12" lengthAdjust="spacingAndGlyphs" textLength="108" x="141" y="601.948">demo_succ_iterator</text><path stroke="#a80036" stroke-width="1.5" d="M113 614h138M113 622h138"/><circle cx="123" cy="634.1" fill="#84BE84" stroke="#038048" r="3"/><text font-family="sans-serif" font-size="11" lengthAdjust="spacingAndGlyphs" textLength="49" x="132" y="636.219">bool first()</text><circle cx="123" cy="647.3" fill="#84BE84" stroke="#038048" r="3"/><text font-family="sans-serif" font-size="11" lengthAdjust="spacingAndGlyphs" textLength="52" x="132" y="649.419">bool next()</text><circle cx="123" cy="660.5" fill="#84BE84" stroke="#038048" r="3"/><text font-family="sans-serif" font-size="11" lengthAdjust="spacingAndGlyphs" textLength="55" x="132" y="662.619">bool done()</text><circle cx="123" cy="673.7" fill="#84BE84" stroke="#038048" r="3"/><text font-family="sans-serif" font-size="11" lengthAdjust="spacingAndGlyphs" textLength="84" x="132" y="675.819">const state* dst()</text><path fill="#FEFECE" filter="url(#a)" stroke="#a80036" stroke-width="1.5" d="M526.5 588.5h149v87.6h-149z"/><circle cx="565.35" cy="604.5" fill="#ADD1B2" stroke="#a80036" r="11"/><path d="M560.35 605.656c0 2.5 2.14 4.313 5.063 4.313 1.234 0 2.406-.297 3.156-.813.61-.422.937-.843.937-1.25 0-.468-.422-.875-.922-.875a.89.89 0 00-.656.282c-.437.437-.437.437-.61.53-.452.235-1.093.376-1.859.376-2 0-3.28-1.016-3.28-2.594v-1.047c0-1.703 1.218-2.906 2.921-2.906.578 0 1.156.14 1.625.39.469.266.64.454.703.813.125.672.375.922.906.922.282 0 .563-.14.75-.36.125-.171.172-.343.172-.78v-1.36c0-.422-.015-.563-.14-.735a.934.934 0 00-.782-.406c-.312 0-.515.11-.734.375-1.172-.5-1.61-.61-2.563-.61-2.671 0-4.687 2.016-4.687 4.641v1.094z"/><text font-family="sans-serif" font-size="12" lengthAdjust="spacingAndGlyphs" textLength="64" x="584.65" y="608.448">demo_state</text><path stroke="#a80036" stroke-width="1.5" d="M527.5 620.5h147M527.5 628.5h147"/><circle cx="537.5" cy="640.6" fill="#84BE84" stroke="#038048" r="3"/><text font-family="sans-serif" font-size="11" lengthAdjust="spacingAndGlyphs" textLength="123" x="546.5" y="642.719">int compare(const state*)</text><circle cx="537.5" cy="653.8" fill="#84BE84" stroke="#038048" r="3"/><text font-family="sans-serif" font-size="11" lengthAdjust="spacingAndGlyphs" textLength="64" x="546.5" y="655.919">size_t hash()</text><circle cx="537.5" cy="667" fill="#84BE84" stroke="#038048" r="3"/><text font-family="sans-serif" font-size="11" lengthAdjust="spacingAndGlyphs" textLength="65" x="546.5" y="669.119">state* clone()</text><path d="M389 329.59v58.39M382 329.33l7-20 7 20h-14zM148.15 297.85c3.42 24.33 6.95 49.46 9.95 70.9M141.17 298.48l4.16-20.77 9.71 18.83-13.87 1.94zM638.67 275.64c-9.7 91.63-25.38 239.73-33.09 312.58M631.73 274.75l9.07-19.15 4.85 20.62-13.92-1.47zM171.95 503.09c2.06 26.29 4.31 55.04 6.16 78.66M164.97 503.64l5.42-20.49 8.54 19.39-13.96 1.1zM389 484.44v97.22M382 484.03l7-20 7 20h-14z" fill="none" stroke="#a80036"/></svg>