<svg xmlns="http://www.w3.org/2000/svg" height="788" preserveAspectRatio="none" style="width:903px;height:788px" viewBox="0 0 903 788" width="903"><defs><filter height="300%" id="a" width="300%" x="-1" y="-1"><feGaussianBlur result="blurOut" stdDeviation="2"/><feColorMatrix in="blurOut" result="blurOut2" values="0 0 0 0 0 0 0 0 0 0 0 0 0 0 0 0 0 0 .4 0"/><feOffset dx="4" dy="4" in="blurOut2" result="blurOut3"/><feBlend in="SourceGraphic" in2="blurOut3"/></filter></defs><path fill="#FFF" filter="url(#a)" stroke="#000" stroke-width="1.5" d="M22 24h37l7 22.8h815V776H22V24z"/><path stroke="#000" stroke-width="1.5" d="M22 46.8h44"/><text font-family="sans-serif" font-size="14" font-weight="bold" lengthAdjust="spacingAndGlyphs" textLength="31" x="26" y="39.006">spot</text><path fill="#FFF" filter="url(#a)" stroke="#000" stroke-width="1.5" d="M265 374h58l7 22.8h157V752H265V374z"/><path stroke="#000" stroke-width="1.5" d="M265 396.8h65"/><text font-family="sans-serif" font-size="14" font-weight="bold" lengthAdjust="spacingAndGlyphs" textLength="52" x="269" y="389.006">internal</text><path fill="#FEFECE" filter="url(#a)" stroke="#a80036" stroke-width="1.5" d="M38.5 430h85v32h-85z"/><circle cx="53.5" cy="446" fill="#ADD1B2" stroke="#a80036" r="11"/><path d="M48.5 447.156c0 2.5 2.14 4.313 5.063 4.313 1.234 0 2.406-.297 3.156-.813.61-.422.937-.844.937-1.25 0-.469-.422-.875-.922-.875a.89.89 0 00-.656.281c-.437.438-.437.438-.61.532-.452.234-1.093.375-1.859.375-2 0-3.28-1.016-3.28-2.594v-1.047c0-1.703 1.218-2.906 2.921-2.906.578 0 1.156.14 1.625.39.469.266.64.454.703.813.125.672.375.922.906.922.282 0 .563-.14.75-.36.125-.171.172-.343.172-.78v-1.36c0-.422-.015-.563-.14-.735a.934.934 0 00-.782-.406c-.312 0-.515.11-.734.375-1.172-.5-1.61-.61-2.563-.61-2.671 0-4.687 2.017-4.687 4.642v1.093z"/><text font-family="sans-serif" font-size="12" lengthAdjust="spacingAndGlyphs" textLength="53" x="67.5" y="449.948">acc_cond</text><path fill="#FEFECE" filter="url(#a)" stroke="#a80036" stroke-width="1.5" d="M159 430h90v32h-90z"/><circle cx="174" cy="446" fill="#ADD1B2" stroke="#a80036" r="11"/><path d="M169 447.156c0 2.5 2.14 4.313 5.063 4.313 1.234 0 2.406-.297 3.156-.813.61-.422.937-.844.937-1.25 0-.469-.422-.875-.922-.875a.89.89 0 00-.656.281c-.437.438-.437.438-.61.532-.452.234-1.093.375-1.859.375-2 0-3.28-1.016-3.28-2.594v-1.047c0-1.703 1.218-2.906 2.921-2.906.578 0 1.156.14 1.625.39.469.266.64.454.703.813.125.672.375.922.906.922.282 0 .563-.14.75-.36.125-.171.172-.343.172-.78v-1.36c0-.422-.015-.563-.14-.735a.934.934 0 00-.782-.406c-.312 0-.515.11-.734.375-1.172-.5-1.61-.61-2.563-.61-2.671 0-4.687 2.017-4.687 4.642v1.093z"/><text font-family="sans-serif" font-size="12" lengthAdjust="spacingAndGlyphs" textLength="58" x="188" y="449.948">twa_graph</text><path fill="#FEFECE" filter="url(#a)" stroke="#a80036" stroke-width="1.5" d="M741.5 430h123v32h-123z"/><circle cx="756.5" cy="446" fill="#ADD1B2" stroke="#a80036" r="11"/><path d="M751.5 447.156c0 2.5 2.14 4.313 5.063 4.313 1.234 0 2.406-.297 3.156-.813.61-.422.937-.844.937-1.25 0-.469-.422-.875-.922-.875a.89.89 0 00-.656.281c-.437.438-.437.438-.61.532-.452.234-1.093.375-1.859.375-2 0-3.28-1.016-3.28-2.594v-1.047c0-1.703 1.218-2.906 2.921-2.906.578 0 1.156.14 1.625.39.469.266.64.454.703.813.125.672.375.922.906.922.282 0 .563-.14.75-.36.125-.171.172-.343.172-.78v-1.36c0-.422-.015-.563-.14-.735a.934.934 0 00-.782-.406c-.312 0-.515.11-.734.375-1.172-.5-1.61-.61-2.563-.61-2.671 0-4.687 2.017-4.687 4.642v1.093z"/><text font-family="sans-serif" font-size="12" lengthAdjust="spacingAndGlyphs" textLength="91" x="770.5" y="449.948">twa_graph_state</text><path fill="#FEFECE" filter="url(#a)" stroke="#a80036" stroke-width="1.5" d="M502.5 430h167v32h-167z"/><circle cx="517.5" cy="446" fill="#ADD1B2" stroke="#a80036" r="11"/><path d="M512.5 447.156c0 2.5 2.14 4.313 5.063 4.313 1.234 0 2.406-.297 3.156-.813.61-.422.937-.844.937-1.25 0-.469-.422-.875-.922-.875a.89.89 0 00-.656.281c-.437.438-.437.438-.61.532-.452.234-1.093.375-1.859.375-2 0-3.28-1.016-3.28-2.594v-1.047c0-1.703 1.218-2.906 2.921-2.906.578 0 1.156.14 1.625.39.469.266.64.454.703.813.125.672.375.922.906.922.282 0 .563-.14.75-.36.125-.171.172-.343.172-.78v-1.36c0-.422-.015-.563-.14-.735a.934.934 0 00-.782-.406c-.312 0-.515.11-.734.375-1.172-.5-1.61-.61-2.563-.61-2.671 0-4.687 2.017-4.687 4.642v1.093z"/><text font-family="sans-serif" font-size="12" lengthAdjust="spacingAndGlyphs" textLength="135" x="531.5" y="449.948">twa_graph_succ_iterator</text><path fill="#FEFECE" filter="url(#a)" stroke="#a80036" stroke-width="1.5" d="M292 409h168v74.4H292z"/><circle cx="335.35" cy="425" fill="#ADD1B2" stroke="#a80036" r="11"/><path d="M330.35 426.156c0 2.5 2.14 4.313 5.063 4.313 1.234 0 2.406-.297 3.156-.813.61-.422.937-.844.937-1.25 0-.469-.422-.875-.922-.875a.89.89 0 00-.656.281c-.437.438-.437.438-.61.532-.452.234-1.093.375-1.859.375-2 0-3.28-1.016-3.28-2.594v-1.047c0-1.703 1.218-2.906 2.921-2.906.578 0 1.156.14 1.625.39.469.266.64.454.703.813.125.672.375.922.906.922.282 0 .563-.14.75-.36.125-.171.172-.343.172-.78v-1.36c0-.422-.015-.563-.14-.735a.934.934 0 00-.782-.406c-.312 0-.515.11-.734.375-1.172-.5-1.61-.61-2.563-.61-2.671 0-4.687 2.017-4.687 4.642v1.093z"/><text font-family="sans-serif" font-size="12" lengthAdjust="spacingAndGlyphs" textLength="73" x="355.65" y="428.948">succ_iterable</text><path stroke="#a80036" stroke-width="1.5" d="M293 441h166M293 449h166"/><circle cx="303" cy="461.1" fill="#84BE84" stroke="#038048" r="3"/><text font-family="sans-serif" font-size="11" lengthAdjust="spacingAndGlyphs" textLength="142" x="312" y="463.219">internal::succ_iterator begin()</text><circle cx="303" cy="474.3" fill="#84BE84" stroke="#038048" r="3"/><text font-family="sans-serif" font-size="11" lengthAdjust="spacingAndGlyphs" textLength="134" x="312" y="476.419">internal::succ_iterator end()</text><path fill="#FEFECE" filter="url(#a)" stroke="#a80036" stroke-width="1.5" d="M281.5 622h189v113.999h-189z"/><circle cx="336.75" cy="638" fill="#ADD1B2" stroke="#a80036" r="11"/><path d="M331.75 639.156c0 2.5 2.14 4.313 5.063 4.313 1.234 0 2.406-.297 3.156-.813.61-.422.937-.843.937-1.25 0-.468-.422-.875-.922-.875a.89.89 0 00-.656.282c-.437.437-.437.437-.61.53-.452.235-1.093.376-1.859.376-2 0-3.28-1.016-3.28-2.594v-1.047c0-1.703 1.218-2.906 2.921-2.906.578 0 1.156.14 1.625.39.469.266.64.454.703.813.125.672.375.922.906.922.282 0 .563-.14.75-.36.125-.171.172-.343.172-.78v-1.36c0-.422-.015-.563-.14-.735a.934.934 0 00-.782-.406c-.312 0-.515.11-.734.375-1.172-.5-1.61-.61-2.563-.61-2.671 0-4.687 2.016-4.687 4.641v1.094z"/><text font-family="sans-serif" font-size="12" lengthAdjust="spacingAndGlyphs" textLength="70" x="357.25" y="641.948">succ_iterator</text><path stroke="#a80036" stroke-width="1.5" d="M282.5 654h187M282.5 662h187"/><text font-family="sans-serif" font-size="11" lengthAdjust="spacingAndGlyphs" textLength="163" x="287.5" y="676.219">succ_iterator(twa_succ_iterator*)</text><text font-family="sans-serif" font-size="11" lengthAdjust="spacingAndGlyphs" textLength="148" x="287.5" y="689.419">bool operator==(succ_iterator)</text><text font-family="sans-serif" font-size="11" lengthAdjust="spacingAndGlyphs" textLength="145" x="287.5" y="702.619">bool operator!=(succ_iterator)</text><text font-family="sans-serif" font-size="11" lengthAdjust="spacingAndGlyphs" textLength="177" x="287.5" y="715.819">const twa_succ_iterator* operator*()</text><text font-family="sans-serif" font-size="11" lengthAdjust="spacingAndGlyphs" textLength="84" x="287.5" y="729.019">void operator++()</text><path fill="#FEFECE" filter="url(#a)" stroke="#a80036" stroke-width="1.5" d="M182 83h298v225.949H182z"/><circle cx="317.25" cy="99" fill="#A9DCDF" stroke="#a80036" r="11"/><path d="M318.781 100.938l.328.796h-.28c-.454 0-.579.032-.75.141a.832.832 0 00-.454.734c0 .297.14.547.375.72.172.124.406.171.828.171h2.36c.359 0 .609-.031.75-.125.265-.14.437-.453.437-.766a.89.89 0 00-.375-.703c-.188-.125-.344-.156-.797-.172l-3.39-7.828h-3.72c-.452 0-.593.016-.765.125-.265.172-.437.453-.437.75 0 .281.14.547.39.719.172.125.36.156.813.156h.969l-2.579 6.078c-.75 0-1.156.297-1.156.875 0 .61.39.891 1.188.891h2.265c.36 0 .61-.031.75-.125a.899.899 0 00.438-.766.89.89 0 00-.375-.703c-.188-.14-.344-.172-.813-.172h-.297l.344-.796h3.953zm-.765-1.75h-2.454l1.235-2.876 1.219 2.876z"/><text font-family="sans-serif" font-size="12" font-style="italic" lengthAdjust="spacingAndGlyphs" textLength="19" x="337.75" y="104.1">twa</text><path stroke="#a80036" stroke-width="1.5" d="M183 115h296"/><path fill="none" stroke="#b38d22" d="M193 122.1l4 4-4 4-4-4z"/><text font-family="sans-serif" font-size="11" lengthAdjust="spacingAndGlyphs" textLength="151" x="202" y="129.219">twa_succ_iterator* iter_cache_</text><path fill="none" stroke="#b38d22" d="M193 135.3l4 4-4 4-4-4z"/><text font-family="sans-serif" font-size="11" lengthAdjust="spacingAndGlyphs" textLength="86" x="202" y="142.419">bdd_dict_ptr dict_</text><path stroke="#a80036" stroke-width="1.5" d="M183 149.4h296"/><path fill="#FF4" stroke="#b38d22" d="M193 156.5l4 4-4 4-4-4z"/><text font-family="sans-serif" font-size="11" lengthAdjust="spacingAndGlyphs" textLength="122" x="202" y="163.619">twa(const bdd_dict_ptr&amp;)</text><circle cx="193" cy="192.725" fill="#84BE84" stroke="#038048" r="3"/><text font-family="sans-serif" font-size="11" font-style="italic" lengthAdjust="spacingAndGlyphs" textLength="103" x="202" y="195.899">state* get_init_state()</text><circle cx="193" cy="207.574" fill="#84BE84" stroke="#038048" r="3"/><text font-family="sans-serif" font-size="11" font-style="italic" lengthAdjust="spacingAndGlyphs" textLength="175" x="202" y="210.749">twa_succ_iterator* succ_iter(state*)</text><circle cx="193" cy="221.599" fill="#84BE84" stroke="#038048" r="3"/><text font-family="sans-serif" font-size="11" lengthAdjust="spacingAndGlyphs" textLength="199" x="202" y="223.718">internal::succ_iterable succ(const state*)</text><circle cx="193" cy="234.799" fill="#84BE84" stroke="#038048" r="3"/><text font-family="sans-serif" font-size="11" lengthAdjust="spacingAndGlyphs" textLength="179" x="202" y="236.918">void release_iter(twa_succ_iterator*)</text><path stroke="#a80036" stroke-dasharray="1,2" d="M183 177.2h121.5"/><text font-family="sans-serif" font-size="11" lengthAdjust="spacingAndGlyphs" textLength="53" x="304.5" y="180.319">exploration</text><path stroke="#a80036" stroke-dasharray="1,2" d="M357.5 177.2H479"/><circle cx="193" cy="266.024" fill="#84BE84" stroke="#038048" r="3"/><text font-family="sans-serif" font-size="11" font-style="italic" lengthAdjust="spacingAndGlyphs" textLength="178" x="202" y="269.199">std::string format_state(const state*)</text><circle cx="193" cy="280.049" fill="#84BE84" stroke="#038048" r="3"/><text font-family="sans-serif" font-size="11" lengthAdjust="spacingAndGlyphs" textLength="272" x="202" y="282.168">state* project_state(const state*, const const_twa_ptr&amp;)</text><path stroke="#a80036" stroke-dasharray="1,2" d="M183 250.499h104.5"/><text font-family="sans-serif" font-size="11" lengthAdjust="spacingAndGlyphs" textLength="87" x="287.5" y="253.618">state manipulation</text><path stroke="#a80036" stroke-dasharray="1,2" d="M374.5 250.499H479M183 295.749h86.5"/><text font-family="sans-serif" font-size="11" lengthAdjust="spacingAndGlyphs" textLength="123" x="269.5" y="298.868">other methods not shown</text><path stroke="#a80036" stroke-dasharray="1,2" d="M392.5 295.749H479"/><path fill="#FEFECE" filter="url(#a)" stroke="#a80036" stroke-width="1.5" d="M514.5 114.5h143v163.499h-143z"/><circle cx="536.25" cy="130.5" fill="#A9DCDF" stroke="#a80036" r="11"/><path d="M537.781 132.438l.328.796h-.28c-.454 0-.579.032-.75.141a.832.832 0 00-.454.734c0 .297.14.547.375.72.172.124.406.171.828.171h2.36c.359 0 .609-.031.75-.125.265-.14.437-.453.437-.766a.89.89 0 00-.375-.703c-.188-.125-.344-.156-.797-.172l-3.39-7.828h-3.72c-.452 0-.593.016-.765.125-.265.172-.437.453-.437.75 0 .281.14.547.39.719.172.125.36.156.813.156h.968l-2.578 6.078c-.75 0-1.156.297-1.156.875 0 .61.39.891 1.188.891h2.265c.36 0 .61-.031.75-.125a.899.899 0 00.438-.766.89.89 0 00-.375-.703c-.188-.14-.344-.172-.813-.172h-.297l.344-.797h3.953zm-.765-1.75h-2.453l1.234-2.875 1.219 2.874z"/><text font-family="sans-serif" font-size="12" font-style="italic" lengthAdjust="spacingAndGlyphs" textLength="96" x="551.75" y="135.6">twa_succ_iterator</text><path stroke="#a80036" stroke-width="1.5" d="M515.5 146.5h141"/><circle cx="525.5" cy="176.625" fill="#84BE84" stroke="#038048" r="3"/><text font-family="sans-serif" font-size="11" font-style="italic" lengthAdjust="spacingAndGlyphs" textLength="49" x="534.5" y="179.8">bool first()</text><circle cx="525.5" cy="191.475" fill="#84BE84" stroke="#038048" r="3"/><text font-family="sans-serif" font-size="11" font-style="italic" lengthAdjust="spacingAndGlyphs" textLength="52" x="534.5" y="194.65">bool next()</text><circle cx="525.5" cy="206.325" fill="#84BE84" stroke="#038048" r="3"/><text font-family="sans-serif" font-size="11" font-style="italic" lengthAdjust="spacingAndGlyphs" textLength="55" x="534.5" y="209.5">bool done()</text><path stroke="#a80036" stroke-dasharray="1,2" d="M515.5 161.1H567"/><text font-family="sans-serif" font-size="11" lengthAdjust="spacingAndGlyphs" textLength="38" x="567" y="164.219">iteration</text><path stroke="#a80036" stroke-dasharray="1,2" d="M605 161.1h51.5"/><circle cx="525.5" cy="238.374" fill="#84BE84" stroke="#038048" r="3"/><text font-family="sans-serif" font-size="11" font-style="italic" lengthAdjust="spacingAndGlyphs" textLength="84" x="534.5" y="241.549">const state* dst()</text><circle cx="525.5" cy="253.224" fill="#84BE84" stroke="#038048" r="3"/><text font-family="sans-serif" font-size="11" font-style="italic" lengthAdjust="spacingAndGlyphs" textLength="53" x="534.5" y="256.399">bdd cond()</text><circle cx="525.5" cy="268.074" fill="#84BE84" stroke="#038048" r="3"/><text font-family="sans-serif" font-size="11" font-style="italic" lengthAdjust="spacingAndGlyphs" textLength="117" x="534.5" y="271.249">acc_cond::mark_t acc()</text><path stroke="#a80036" stroke-dasharray="1,2" d="M515.5 222.85h46"/><text font-family="sans-serif" font-size="11" lengthAdjust="spacingAndGlyphs" textLength="49" x="561.5" y="225.969">inspection</text><path stroke="#a80036" stroke-dasharray="1,2" d="M610.5 222.85h46"/><path fill="#FEFECE" filter="url(#a)" stroke="#a80036" stroke-width="1.5" d="M692.5 136.5h149v118.95h-149z"/><circle cx="749.75" cy="152.5" fill="#A9DCDF" stroke="#a80036" r="11"/><path d="M751.281 154.438l.328.796h-.28c-.454 0-.579.032-.75.141a.832.832 0 00-.454.734c0 .297.14.547.375.72.172.124.406.171.828.171h2.36c.359 0 .609-.031.75-.125.265-.14.437-.453.437-.766a.89.89 0 00-.375-.703c-.188-.125-.344-.156-.797-.172l-3.39-7.828h-3.72c-.452 0-.593.016-.765.125-.265.172-.437.453-.437.75 0 .281.14.547.39.719.172.125.36.156.813.156h.968l-2.578 6.078c-.75 0-1.156.297-1.156.875 0 .61.39.891 1.188.891h2.265c.36 0 .61-.031.75-.125a.899.899 0 00.438-.766.89.89 0 00-.375-.703c-.188-.14-.344-.172-.813-.172h-.297l.344-.797h3.953zm-.765-1.75h-2.453l1.234-2.875 1.219 2.875z"/><text font-family="sans-serif" font-size="12" font-style="italic" lengthAdjust="spacingAndGlyphs" textLength="26" x="770.25" y="157.6">state</text><path stroke="#a80036" stroke-width="1.5" d="M693.5 168.5h147M693.5 176.5h147"/><circle cx="703.5" cy="189.425" fill="#84BE84" stroke="#038048" r="3"/><text font-family="sans-serif" font-size="11" font-style="italic" lengthAdjust="spacingAndGlyphs" textLength="123" x="712.5" y="192.6">int compare(const state*)</text><circle cx="703.5" cy="204.275" fill="#84BE84" stroke="#038048" r="3"/><text font-family="sans-serif" font-size="11" font-style="italic" lengthAdjust="spacingAndGlyphs" textLength="64" x="712.5" y="207.45">size_t hash()</text><circle cx="703.5" cy="219.125" fill="#84BE84" stroke="#038048" r="3"/><text font-family="sans-serif" font-size="11" font-style="italic" lengthAdjust="spacingAndGlyphs" textLength="65" x="712.5" y="222.3">state* clone()</text><circle cx="703.5" cy="233.15" fill="#84BE84" stroke="#038048" r="3"/><text font-family="sans-serif" font-size="11" lengthAdjust="spacingAndGlyphs" textLength="68" x="712.5" y="235.269">void destroy()</text><path fill="#FF4" stroke="#b38d22" d="M703.5 241.35l4 4-4 4-4-4z"/><text font-family="sans-serif" font-size="11" lengthAdjust="spacingAndGlyphs" textLength="38" x="712.5" y="248.469">~state()</text><path d="M264.39 327.08c-21.19 41.36-41.91 81.83-52.7 102.91M258.28 323.64l15.35-14.61-2.88 20.99-12.47-6.38zM190.188 317.661S156.79 350.11 142 366c-15.58 16.74-31.3 37.22-42.89 53.13" fill="none" stroke="#a80036"/><path fill="#A80036" stroke="#a80036" d="M91.47 429.79l8.496-4.982-5.582.919-.92-5.582-1.994 9.645z"/><path stroke="#a80036" d="M94.384 425.727l4.661-6.507"/><path fill="#A80036" stroke="#a80036" d="M198.92 309.43l-7.11 1.205-1.622 7.026 7.11-1.205 1.622-7.026z"/><path d="M586 297.6v132.34M579 297.52l7-20 7 20h-14zM350.987 397.956S340.05 371.06 337 358c-2.69-11.5-4.65-23.59-6.05-35.76" fill="none" stroke="#a80036"/><path fill="#A80036" stroke="#a80036" d="M329.63 309.03l-3.09 9.351 3.584-4.375 4.376 3.585-4.87-8.561z"/><path stroke="#a80036" d="M330.124 314.005l.796 7.965"/><path fill="#FFF" stroke="#a80036" d="M356.04 408.84l1.102-7.126-6.155-3.758-1.102 7.126 6.155 3.758z"/><path d="M351.33 309.03c6.13 33.81 12.49 68.83 17.21 94.86" fill="none" stroke="#a80036" stroke-dasharray="7,7"/><path fill="#A80036" stroke="#a80036" d="M369.46 408.97l2.34-9.567-3.227 4.646-4.646-3.227 5.533 8.148z"/><text font-family="sans-serif" font-size="13" lengthAdjust="spacingAndGlyphs" textLength="36" x="361" y="354.077">create</text><path d="M531.13 288.85c-10.36 15.23-21.6 30.49-33.13 44.15-6.38 7.56-72.861 67.95-72.861 67.95" fill="none" stroke="#a80036"/><path fill="#A80036" stroke="#a80036" d="M416.23 408.99l7.134-1.05 1.775-6.99-7.134 1.05-1.775 6.99zM538.52 277.79l-8.325 5.262 5.548-1.104 1.104 5.548 1.673-9.706z"/><path stroke="#a80036" d="M535.743 281.948l-4.443 6.657"/><path d="M633.51 288.73c11.78 16.48 25.65 32.21 41.49 44.27 9.28 7.06 18.12-1.42 25 8 9.3 12.74 7.76 128.26 0 142-46.14 81.61-218.213 162.647-218.213 162.647" fill="none" stroke="#a80036"/><path fill="#FFF" stroke="#a80036" d="M470.57 649.91l7.03 1.608 4.187-5.87-7.03-1.608-4.187 5.87z"/><path fill="#A80036" stroke="#a80036" d="M626.07 277.83l1.773 9.688 1.047-5.56 5.56 1.047-8.38-5.175z"/><path stroke="#a80036" d="M628.89 281.959l4.505 6.606"/><path d="M376 483.09V616.8" fill="none" stroke="#a80036" stroke-dasharray="7,7"/><path fill="#A80036" stroke="#a80036" d="M376 621.93l4-9-4 4-4-4 4 9z"/><text font-family="sans-serif" font-size="13" lengthAdjust="spacingAndGlyphs" textLength="36" x="377" y="557.077">create</text><path d="M778.43 275.72c7.99 55.07 17.99 123.97 22.36 154.05M771.48 276.57l4.05-20.8 9.8 18.79-13.85 2.01z" fill="none" stroke="#a80036"/></svg>