<svg xmlns="http://www.w3.org/2000/svg" height="1050" preserveAspectRatio="none" style="width:1221px;height:1050px" viewBox="0 0 1221 1050" width="1221"><defs><filter height="300%" id="a" width="300%" x="-1" y="-1"><feGaussianBlur result="blurOut" stdDeviation="2"/><feColorMatrix in="blurOut" result="blurOut2" values="0 0 0 0 0 0 0 0 0 0 0 0 0 0 0 0 0 0 .4 0"/><feOffset dx="4" dy="4" in="blurOut2" result="blurOut3"/><feBlend in="SourceGraphic" in2="blurOut3"/></filter></defs><path fill="#FFF" filter="url(#a)" stroke="#000" stroke-width="1.5" d="M22 696h23l7 22.8h94V788H22v-92z"/><path stroke="#000" stroke-width="1.5" d="M22 718.8h30"/><text font-family="sans-serif" font-size="14" font-weight="bold" lengthAdjust="spacingAndGlyphs" textLength="17" x="26" y="711.006">stl</text><path fill="#FFF" filter="url(#a)" stroke="#000" stroke-width="1.5" d="M170 24h37l7 22.8h960V1038H170V24z"/><path stroke="#000" stroke-width="1.5" d="M170 46.8h44"/><text font-family="sans-serif" font-size="14" font-weight="bold" lengthAdjust="spacingAndGlyphs" textLength="31" x="174" y="39.006">spot</text><path fill="#FFF" filter="url(#a)" stroke="#000" stroke-width="1.5" d="M194 526h58l7 22.8h878V1014H194V526z"/><path stroke="#000" stroke-width="1.5" d="M194 548.8h65"/><text font-family="sans-serif" font-size="14" font-weight="bold" lengthAdjust="spacingAndGlyphs" textLength="52" x="198" y="541.006">internal</text><path fill="#FEFECE" filter="url(#a)" stroke="#a80036" stroke-width="1.5" d="M38 731h92v40.6H38z"/><text font-family="sans-serif" font-size="12" font-style="italic" lengthAdjust="spacingAndGlyphs" textLength="60" x="54" y="749.2">«Concept»</text><text font-family="sans-serif" font-size="12" lengthAdjust="spacingAndGlyphs" textLength="86" x="41" y="763.348">Forward Iterator</text><path fill="#FEFECE" filter="url(#a)" stroke="#a80036" stroke-width="1.5" d="M689 152h348v150.999H689z"/><circle cx="829.75" cy="168" fill="#ADD1B2" stroke="#a80036" r="11"/><path d="M824.75 169.156c0 2.5 2.14 4.313 5.063 4.313 1.234 0 2.406-.297 3.156-.813.61-.422.937-.844.937-1.25 0-.469-.422-.875-.922-.875a.89.89 0 00-.656.281c-.437.438-.437.438-.61.532-.452.234-1.093.375-1.859.375-2 0-3.28-1.016-3.28-2.594v-1.047c0-1.703 1.218-2.906 2.921-2.906.578 0 1.156.14 1.625.39.469.266.64.454.703.813.125.672.375.922.906.922.282 0 .563-.14.75-.36.125-.171.172-.343.172-.78v-1.36c0-.422-.015-.563-.14-.734a.934.934 0 00-.782-.407c-.312 0-.515.11-.734.375-1.172-.5-1.61-.61-2.563-.61-2.671 0-4.687 2.017-4.687 4.642v1.093z"/><text font-family="sans-serif" font-size="12" lengthAdjust="spacingAndGlyphs" textLength="58" x="850.25" y="171.948">twa_graph</text><path stroke="#a80036" stroke-width="1.5" d="M690 184h346"/><circle cx="700" cy="196.1" fill="none" stroke="#038048" r="3"/><text font-family="sans-serif" font-size="11" lengthAdjust="spacingAndGlyphs" textLength="322" x="709" y="198.219">typedef digraph&lt;twa_graph_state, twa_graph_edge_data&gt; graph_t</text><path stroke="#a80036" stroke-width="1.5" d="M690 205.2h346"/><circle cx="700" cy="217.3" fill="#84BE84" stroke="#038048" r="3"/><text font-family="sans-serif" font-size="11" lengthAdjust="spacingAndGlyphs" textLength="156" x="709" y="219.419">twa_graph(const bdd_dict_ptr&amp;)</text><circle cx="700" cy="230.5" fill="#84BE84" stroke="#038048" r="3"/><text font-family="sans-serif" font-size="11" lengthAdjust="spacingAndGlyphs" textLength="104" x="709" y="232.619">graph_t&amp; get_graph()</text><circle cx="700" cy="260.9" fill="#84BE84" stroke="#038048" r="3"/><text font-family="sans-serif" font-size="11" lengthAdjust="spacingAndGlyphs" textLength="162" x="709" y="263.019">unsigned get_init_state_number()</text><circle cx="700" cy="274.099" fill="#84BE84" stroke="#038048" r="3"/><text font-family="sans-serif" font-size="11" lengthAdjust="spacingAndGlyphs" textLength="224" x="709" y="276.218">internal::state_out&lt;graph_t&gt; out(unsigned src)</text><path stroke="#a80036" stroke-dasharray="1,2" d="M690 246.2h146.5"/><text font-family="sans-serif" font-size="11" lengthAdjust="spacingAndGlyphs" textLength="53" x="836.5" y="249.319">exploration</text><path stroke="#a80036" stroke-dasharray="1,2" d="M889.5 246.2H1036M690 289.799h120.5"/><text font-family="sans-serif" font-size="11" lengthAdjust="spacingAndGlyphs" textLength="105" x="810.5" y="292.918">other methods hidden</text><path stroke="#a80036" stroke-dasharray="1,2" d="M915.5 289.799H1036"/><path fill="#FEFECE" filter="url(#a)" stroke="#a80036" stroke-width="1.5" d="M963.5 59h51v32h-51z"/><circle cx="978.5" cy="75" fill="#A9DCDF" stroke="#a80036" r="11"/><path d="M980.031 76.938l.328.796h-.28c-.454 0-.579.032-.75.141a.832.832 0 00-.454.734c0 .297.14.547.375.72.172.124.406.171.828.171h2.36c.359 0 .609-.031.75-.125.265-.14.437-.453.437-.766a.89.89 0 00-.375-.703c-.188-.125-.344-.156-.797-.172l-3.39-7.828h-3.72c-.452 0-.593.016-.765.125-.265.172-.437.453-.437.75 0 .281.14.547.39.719.172.125.36.156.813.156h.968l-2.578 6.078c-.75 0-1.156.297-1.156.875 0 .61.39.891 1.188.891h2.265c.36 0 .61-.031.75-.125a.899.899 0 00.438-.766.89.89 0 00-.375-.703c-.188-.14-.344-.172-.813-.172h-.297l.344-.796h3.953zm-.765-1.75h-2.453l1.234-2.876 1.219 2.876z"/><text font-family="sans-serif" font-size="12" font-style="italic" lengthAdjust="spacingAndGlyphs" textLength="19" x="992.5" y="80.1">twa</text><path fill="#FEFECE" filter="url(#a)" stroke="#a80036" stroke-width="1.5" d="M697.5 364h385v99.4h-385z"/><circle cx="747.25" cy="380" fill="#ADD1B2" stroke="#a80036" r="11"/><path d="M742.25 381.156c0 2.5 2.14 4.313 5.063 4.313 1.234 0 2.406-.297 3.156-.813.61-.422.937-.844.937-1.25 0-.469-.422-.875-.922-.875a.89.89 0 00-.656.281c-.437.438-.437.438-.61.532-.452.234-1.093.375-1.859.375-2 0-3.28-1.016-3.28-2.594v-1.047c0-1.703 1.218-2.906 2.921-2.906.578 0 1.156.14 1.625.39.469.266.64.454.703.813.125.672.375.922.906.922.282 0 .563-.14.75-.36.125-.171.172-.343.172-.78v-1.36c0-.422-.015-.563-.14-.735a.934.934 0 00-.782-.406c-.312 0-.515.11-.734.375-1.172-.5-1.61-.61-2.563-.61-2.671 0-4.687 2.017-4.687 4.642v1.093z"/><text font-family="sans-serif" font-size="12" lengthAdjust="spacingAndGlyphs" textLength="277" x="767.75" y="383.948">digraph&lt;twa_graph_state, twa_graph_edge_data&gt;</text><path stroke="#a80036" stroke-width="1.5" d="M698.5 396h383"/><circle cx="708.5" cy="408.1" fill="#84BE84" stroke="#038048" r="3"/><text font-family="sans-serif" font-size="11" lengthAdjust="spacingAndGlyphs" textLength="359" x="717.5" y="410.219">internal::edge_storage&lt;twa_graph_edge_data&gt; edge_storage(unsigned s)</text><circle cx="708.5" cy="421.3" fill="#84BE84" stroke="#038048" r="3"/><text font-family="sans-serif" font-size="11" lengthAdjust="spacingAndGlyphs" textLength="340" x="717.5" y="423.419">internal::distate_storage&lt;twa_graph_state&gt; state_storage(unsigned s)</text><circle cx="708.5" cy="434.5" fill="#84BE84" stroke="#038048" r="3"/><text font-family="sans-serif" font-size="11" lengthAdjust="spacingAndGlyphs" textLength="224" x="717.5" y="436.619">internal::state_out&lt;graph_t&gt; out(unsigned src)</text><path stroke="#a80036" stroke-dasharray="1,2" d="M698.5 450.2h143"/><text font-family="sans-serif" font-size="11" lengthAdjust="spacingAndGlyphs" textLength="97" x="841.5" y="453.319">other details omitted</text><path stroke="#a80036" stroke-dasharray="1,2" d="M938.5 450.2h143"/><path fill="#FEFECE" filter="url(#a)" stroke="#a80036" stroke-width="1.5" d="M506 376.5h156v74.4H506z"/><circle cx="521" cy="392.5" fill="#ADD1B2" stroke="#a80036" r="11"/><path d="M516 393.656c0 2.5 2.14 4.313 5.063 4.313 1.234 0 2.406-.297 3.156-.813.61-.422.937-.844.937-1.25 0-.469-.422-.875-.922-.875a.89.89 0 00-.656.281c-.437.438-.437.438-.61.532-.452.234-1.093.375-1.859.375-2 0-3.28-1.016-3.28-2.594v-1.047c0-1.703 1.218-2.906 2.921-2.906.578 0 1.156.14 1.625.39.469.266.64.454.703.813.125.672.375.922.906.922.282 0 .563-.14.75-.36.125-.171.172-.343.172-.78v-1.36c0-.422-.015-.563-.14-.735a.934.934 0 00-.782-.406c-.312 0-.515.11-.734.375-1.172-.5-1.61-.61-2.563-.61-2.671 0-4.687 2.017-4.687 4.642v1.093z"/><text font-family="sans-serif" font-size="12" lengthAdjust="spacingAndGlyphs" textLength="124" x="535" y="396.448">twa_graph_edge_data</text><path stroke="#a80036" stroke-width="1.5" d="M507 408.5h154"/><circle cx="517" cy="420.6" fill="none" stroke="#038048" r="3"/><text font-family="sans-serif" font-size="11" lengthAdjust="spacingAndGlyphs" textLength="45" x="526" y="422.719">bdd cond</text><circle cx="517" cy="433.8" fill="none" stroke="#038048" r="3"/><text font-family="sans-serif" font-size="11" lengthAdjust="spacingAndGlyphs" textLength="109" x="526" y="435.919">acc_cond::mark_t acc</text><path stroke="#a80036" stroke-width="1.5" d="M507 442.9h154"/><path fill="#FEFECE" filter="url(#a)" stroke="#a80036" stroke-width="1.5" d="M258.5 397.5h123v32h-123z"/><circle cx="273.5" cy="413.5" fill="#ADD1B2" stroke="#a80036" r="11"/><path d="M268.5 414.656c0 2.5 2.14 4.313 5.063 4.313 1.234 0 2.406-.297 3.156-.813.61-.422.937-.844.937-1.25 0-.469-.422-.875-.922-.875a.89.89 0 00-.656.281c-.437.438-.437.438-.61.532-.452.234-1.093.375-1.859.375-2 0-3.28-1.016-3.28-2.594v-1.047c0-1.703 1.218-2.906 2.921-2.906.578 0 1.156.14 1.625.39.469.266.64.454.703.813.125.672.375.922.906.922.282 0 .563-.14.75-.36.125-.171.172-.343.172-.78v-1.36c0-.422-.015-.563-.14-.735a.934.934 0 00-.782-.406c-.312 0-.515.11-.734.375-1.172-.5-1.61-.61-2.563-.61-2.671 0-4.687 2.017-4.687 4.642v1.093z"/><text font-family="sans-serif" font-size="12" lengthAdjust="spacingAndGlyphs" textLength="91" x="287.5" y="417.448">twa_graph_state</text><path fill="#FEFECE" filter="url(#a)" stroke="#a80036" stroke-width="1.5" d="M1072.5 211.5h85v32h-85z"/><circle cx="1087.5" cy="227.5" fill="#ADD1B2" stroke="#a80036" r="11"/><path d="M1082.5 228.656c0 2.5 2.14 4.313 5.063 4.313 1.234 0 2.406-.297 3.156-.813.61-.422.937-.844.937-1.25 0-.469-.422-.875-.922-.875a.89.89 0 00-.656.281c-.437.438-.437.438-.61.532-.452.234-1.093.375-1.859.375-2 0-3.28-1.016-3.28-2.594v-1.047c0-1.703 1.218-2.906 2.921-2.906.578 0 1.156.14 1.625.39.469.266.64.454.703.813.125.672.375.922.906.922.282 0 .563-.14.75-.36.125-.171.172-.343.172-.78v-1.36c0-.422-.015-.563-.14-.734a.934.934 0 00-.782-.407c-.312 0-.515.11-.734.375-1.172-.5-1.61-.61-2.563-.61-2.671 0-4.687 2.017-4.687 4.642v1.093z"/><text font-family="sans-serif" font-size="12" lengthAdjust="spacingAndGlyphs" textLength="53" x="1101.5" y="231.448">acc_cond</text><path fill="#FEFECE" filter="url(#a)" stroke="#a80036" stroke-width="1.5" d="M747.5 561h373v87.6h-373z"/><circle cx="762.5" cy="577" fill="#ADD1B2" stroke="#a80036" r="11"/><path d="M757.5 578.156c0 2.5 2.14 4.313 5.063 4.313 1.234 0 2.406-.297 3.156-.813.61-.422.937-.843.937-1.25 0-.468-.422-.875-.922-.875a.89.89 0 00-.656.282c-.437.437-.437.437-.61.53-.452.235-1.093.376-1.859.376-2 0-3.28-1.016-3.28-2.594v-1.047c0-1.703 1.218-2.906 2.921-2.906.578 0 1.156.14 1.625.39.469.266.64.454.703.813.125.672.375.922.906.922.282 0 .563-.14.75-.36.125-.171.172-.343.172-.78v-1.36c0-.422-.015-.563-.14-.735a.934.934 0 00-.782-.406c-.312 0-.515.11-.734.375-1.172-.5-1.61-.61-2.563-.61-2.671 0-4.687 2.016-4.687 4.641v1.094z"/><text font-family="sans-serif" font-size="12" lengthAdjust="spacingAndGlyphs" textLength="341" x="776.5" y="580.948">state_out&lt;digraph&lt;twa_graph_state, twa_graph_edge_data&gt;&gt;</text><path stroke="#a80036" stroke-width="1.5" d="M748.5 593h371"/><text font-family="sans-serif" font-size="11" lengthAdjust="spacingAndGlyphs" textLength="56" x="753.5" y="607.219">unsigned t_</text><path stroke="#a80036" stroke-width="1.5" d="M748.5 614.2h371"/><text font-family="sans-serif" font-size="11" lengthAdjust="spacingAndGlyphs" textLength="356" x="753.5" y="628.419">edge_iterator&lt;digraph&lt;twa_graph_state, twa_graph_edge_data&gt;&gt; begin()</text><text font-family="sans-serif" font-size="11" lengthAdjust="spacingAndGlyphs" textLength="348" x="753.5" y="641.619">edge_iterator&lt;digraph&lt;twa_graph_state, twa_graph_edge_data&gt;&gt; end()</text><path fill="#FEFECE" filter="url(#a)" stroke="#a80036" stroke-width="1.5" d="M725 851h396v146.999H725z"/><circle cx="740" cy="867" fill="#ADD1B2" stroke="#a80036" r="11"/><path d="M735 868.156c0 2.5 2.14 4.313 5.063 4.313 1.234 0 2.406-.297 3.156-.813.61-.422.937-.843.937-1.25 0-.468-.422-.875-.922-.875a.89.89 0 00-.656.282c-.437.437-.437.437-.61.53-.452.235-1.093.376-1.859.376-2 0-3.28-1.016-3.28-2.594v-1.047c0-1.703 1.218-2.906 2.921-2.906.578 0 1.156.14 1.625.39.469.266.64.454.703.813.125.672.375.922.906.922.282 0 .563-.14.75-.36.125-.171.172-.343.172-.78v-1.36c0-.422-.015-.563-.14-.735a.934.934 0 00-.782-.406c-.312 0-.515.11-.734.375-1.172-.5-1.61-.61-2.563-.61-2.671 0-4.687 2.016-4.687 4.641v1.094z"/><text font-family="sans-serif" font-size="12" lengthAdjust="spacingAndGlyphs" textLength="364" x="754" y="870.948">edge_iterator&lt;digraph&lt;twa_graph_state, twa_graph_edge_data&gt;&gt;</text><path stroke="#a80036" stroke-width="1.5" d="M726 883h394"/><text font-family="sans-serif" font-size="11" lengthAdjust="spacingAndGlyphs" textLength="56" x="731" y="897.219">unsigned t_</text><path stroke="#a80036" stroke-width="1.5" d="M726 904.2h394"/><text font-family="sans-serif" font-size="11" lengthAdjust="spacingAndGlyphs" textLength="148" x="731" y="918.419">bool operator==(edge_iterator)</text><text font-family="sans-serif" font-size="11" lengthAdjust="spacingAndGlyphs" textLength="145" x="731" y="931.619">bool operator!=(edge_iterator)</text><text font-family="sans-serif" font-size="11" lengthAdjust="spacingAndGlyphs" textLength="314" x="731" y="944.819">edge_storage&lt;twa_graph_edge_data&gt;&amp; operator*(edge_iterator)</text><text font-family="sans-serif" font-size="11" lengthAdjust="spacingAndGlyphs" textLength="317" x="731" y="958.019">edge_storage&lt;twa_graph_edge_data&gt;* operator-&gt;(edge_iterator)</text><text font-family="sans-serif" font-size="11" lengthAdjust="spacingAndGlyphs" textLength="128" x="731" y="971.218">edge_iterator operator++()</text><path stroke="#a80036" stroke-dasharray="1,2" d="M726 984.799h144.5"/><text font-family="sans-serif" font-size="11" lengthAdjust="spacingAndGlyphs" textLength="105" x="870.5" y="987.918">other methods hidden</text><path stroke="#a80036" stroke-dasharray="1,2" d="M975.5 984.799H1120"/><path fill="#FEFECE" filter="url(#a)" stroke="#a80036" stroke-width="1.5" d="M466 561h246v87.6H466z"/><circle cx="481" cy="577" fill="#ADD1B2" stroke="#a80036" r="11"/><path d="M476 578.156c0 2.5 2.14 4.313 5.063 4.313 1.234 0 2.406-.297 3.156-.813.61-.422.937-.843.937-1.25 0-.468-.422-.875-.922-.875a.89.89 0 00-.656.282c-.437.437-.437.437-.61.53-.452.235-1.093.376-1.859.376-2 0-3.28-1.016-3.28-2.594v-1.047c0-1.703 1.218-2.906 2.921-2.906.578 0 1.156.14 1.625.39.469.266.64.454.703.813.125.672.375.922.906.922.282 0 .563-.14.75-.36.125-.171.172-.343.172-.78v-1.36c0-.422-.015-.563-.14-.735a.934.934 0 00-.782-.406c-.312 0-.515.11-.734.375-1.172-.5-1.61-.61-2.563-.61-2.671 0-4.687 2.016-4.687 4.641v1.094z"/><text font-family="sans-serif" font-size="12" lengthAdjust="spacingAndGlyphs" textLength="214" x="495" y="580.948">edge_storage&lt;twa_graph_edge_data&gt;</text><path stroke="#a80036" stroke-width="1.5" d="M467 593h244"/><circle cx="477" cy="605.1" fill="none" stroke="#038048" r="3"/><text font-family="sans-serif" font-size="11" lengthAdjust="spacingAndGlyphs" textLength="63" x="486" y="607.219">unsigned src</text><circle cx="477" cy="618.3" fill="none" stroke="#038048" r="3"/><text font-family="sans-serif" font-size="11" lengthAdjust="spacingAndGlyphs" textLength="62" x="486" y="620.419">unsigned dst</text><circle cx="477" cy="631.5" fill="none" stroke="#038048" r="3"/><text font-family="sans-serif" font-size="11" lengthAdjust="spacingAndGlyphs" textLength="98" x="486" y="633.619">unsigned next_succ</text><path stroke="#a80036" stroke-width="1.5" d="M467 640.6h244"/><path fill="#FEFECE" filter="url(#a)" stroke="#a80036" stroke-width="1.5" d="M209.5 568h221v74.4h-221z"/><circle cx="224.5" cy="584" fill="#ADD1B2" stroke="#a80036" r="11"/><path d="M219.5 585.156c0 2.5 2.14 4.313 5.063 4.313 1.234 0 2.406-.297 3.156-.813.61-.422.937-.843.937-1.25 0-.468-.422-.875-.922-.875a.89.89 0 00-.656.282c-.437.437-.437.437-.61.53-.452.235-1.093.376-1.859.376-2 0-3.28-1.016-3.28-2.594v-1.047c0-1.703 1.218-2.906 2.921-2.906.578 0 1.156.14 1.625.39.469.266.64.454.703.813.125.672.375.922.906.922.282 0 .563-.14.75-.36.125-.171.172-.343.172-.78v-1.36c0-.422-.015-.563-.14-.735a.934.934 0 00-.782-.406c-.312 0-.515.11-.734.375-1.172-.5-1.61-.61-2.563-.61-2.671 0-4.687 2.016-4.687 4.641v1.094z"/><text font-family="sans-serif" font-size="12" lengthAdjust="spacingAndGlyphs" textLength="189" x="238.5" y="587.948">distate_storage&lt;twa_graph_state&gt;</text><path stroke="#a80036" stroke-width="1.5" d="M210.5 600h219"/><circle cx="220.5" cy="612.1" fill="none" stroke="#038048" r="3"/><text font-family="sans-serif" font-size="11" lengthAdjust="spacingAndGlyphs" textLength="71" x="229.5" y="614.219">unsigned succ</text><circle cx="220.5" cy="625.3" fill="none" stroke="#038048" r="3"/><text font-family="sans-serif" font-size="11" lengthAdjust="spacingAndGlyphs" textLength="90" x="229.5" y="627.419">unsigned succ_tail</text><path stroke="#a80036" stroke-width="1.5" d="M210.5 634.4h219"/><path d="M146.18 779.63c15.42 6.02 32.05 11.92 47.82 16.37 176.53 49.78 382.86 83.69 530.87 103.95" fill="none" stroke="#a80036" stroke-dasharray="7,7"/><path fill="none" stroke="#a80036" d="M143.36 786.04l-15.91-13.99 21.17 1.02-5.26 12.97z"/><text font-family="sans-serif" font-size="13" lengthAdjust="spacingAndGlyphs" textLength="50" x="272" y="817.077">model of</text><path d="M963.29 106.71c-11.04 13.18-24.46 29.22-37.86 45.22M958.02 102.1l18.21-10.84-7.48 19.83-10.73-8.99zM875.681 314.943s3.629 24.707 5.259 35.827" fill="none" stroke="#a80036"/><path fill="#A80036" stroke="#a80036" d="M882.88 363.95l2.652-9.485-3.378 4.538-4.538-3.377 5.264 8.324z"/><path stroke="#a80036" d="M882.154 359.003l-1.164-7.913"/><path fill="#A80036" stroke="#a80036" d="M873.94 303.07l-3.087 6.517 4.828 5.356 3.087-6.517-4.828-5.356z"/><text font-family="sans-serif" font-size="13" lengthAdjust="spacingAndGlyphs" textLength="7" x="874.254" y="352.307">1</text><path d="M802.726 469.445S709.45 528.17 668.48 553.96" fill="none" stroke="#a80036"/><path fill="#A80036" stroke="#a80036" d="M657.46 560.9l9.747-1.412-5.516-1.253 1.252-5.516-5.483 8.181z"/><path stroke="#a80036" d="M661.691 558.235l6.764-4.255"/><path fill="#A80036" stroke="#a80036" d="M812.88 463.05l-7.209-.187-2.945 6.582 7.209.187 2.945-6.582z"/><text font-family="sans-serif" font-size="13" lengthAdjust="spacingAndGlyphs" textLength="5" x="663.385" y="549.514">*</text><path d="M685.582 462.058S452 516.7 449 518c-25.35 11-51.11 27-72.88 42.23" fill="none" stroke="#a80036"/><path fill="#A80036" stroke="#a80036" d="M365.45 567.86l9.648-1.98-5.58-.928.927-5.58-4.995 8.488z"/><path stroke="#a80036" d="M369.518 564.952l6.507-4.652"/><path fill="#A80036" stroke="#a80036" d="M697.27 459.34l-6.75-2.537-4.938 5.255 6.75 2.537 4.938-5.255z"/><text font-family="sans-serif" font-size="13" lengthAdjust="spacingAndGlyphs" textLength="5" x="368.637" y="556.447">*</text><path d="M585.49 470.8c.76 28.79 1.66 63.27 2.37 89.94M578.48 470.77l6.47-20.18 7.53 19.81-14 .37zM320 449.93v118.01M313 449.69l7-20 7 20h-14zM1010.497 100.299S1040.66 134.85 1055 152c13.5 16.14 28.33 34.55 39.88 49.04" fill="none" stroke="#a80036"/><path fill="#A80036" stroke="#a80036" d="M1102.98 211.24l-2.463-9.536-.646 5.62-5.62-.646 8.729 4.562z"/><path stroke="#a80036" d="M1099.871 207.324l-4.976-6.264"/><path fill="#A80036" stroke="#a80036" d="M1002.57 91.29l.96 7.147 6.967 1.862-.96-7.147-6.967-1.862z"/><path d="M935.995 548.961S933.52 510.49 929 493c-1.54-5.95-3.56-11.97-5.88-17.9" fill="none" stroke="#a80036"/><path fill="#A80036" stroke="#a80036" d="M918.02 463.12l-.148 9.848 2.11-5.249 5.248 2.11-7.21-6.709z"/><path stroke="#a80036" d="M919.982 467.719l3.133 7.356"/><path fill="#FFF" stroke="#a80036" d="M936.18 560.96l3.907-6.06-4.092-5.939-3.907 6.061 4.092 5.938z"/><path d="M880.47 463.12c-1.39 15.19-1.27 31.89 2.53 46.88 4.06 15.98 11.44 32.19 19.35 46.54" fill="none" stroke="#a80036" stroke-dasharray="7,7"/><path fill="#A80036" stroke="#a80036" d="M904.81 560.93l-.912-9.806-1.533 5.445-5.445-1.533 7.89 5.894z"/><text font-family="sans-serif" font-size="13" lengthAdjust="spacingAndGlyphs" textLength="36" x="884" y="506.077">create</text><path d="M912.36 649.26C907.27 661.48 902.59 675 900 688c-10.37 52.09-4.4 111.63 4.05 157.81" fill="none" stroke="#a80036" stroke-dasharray="7,7"/><path fill="#A80036" stroke="#a80036" d="M904.98 850.81l2.286-9.58-3.2 4.664-4.665-3.2 5.579 8.116z"/><text font-family="sans-serif" font-size="13" lengthAdjust="spacingAndGlyphs" textLength="36" x="901" y="756.077">create</text><path d="M1018.308 842.401S1209.12 624.74 1138 518c-12.87-19.32-30.11-35.04-49.53-47.83" fill="none" stroke="#a80036"/><path fill="#A80036" stroke="#a80036" d="M1077.14 463.17l5.548 8.137-1.296-5.506 5.506-1.296-9.758-1.335z"/><path stroke="#a80036" d="M1081.392 465.801l6.803 4.199"/><path fill="#FFF" stroke="#a80036" d="M1009.64 850.7l7.1-1.26 1.568-7.039-7.1 1.26-1.568 7.039z"/></svg>